<svg width="39" height="39" viewBox="0 0 39 39" fill="none" xmlns="http://www.w3.org/2000/svg">
<path d="M12.2554 10.4372H9.60105C8.58072 10.4372 8.05521 10.6137 8.05521 11.4576V12.4204C8.05521 13.2642 8.58072 13.4407 9.60105 13.4407H10.2148C10.5945 13.4407 10.7671 13.644 10.7671 14.227V26.8238C10.7671 27.8442 10.9436 28.3697 11.7875 28.3697H12.7771C13.6248 28.3697 13.7974 27.8442 13.7974 26.8238V11.4614C13.7974 10.6175 13.2719 10.4411 12.2516 10.4411L12.2554 10.4372Z" fill="#9595A9"/>
<path d="M30.0344 1.69159C28.899 0.583044 27.4683 0 25.7498 0H12.804C11.0855 0 9.62406 0.583044 8.51935 1.69159L1.66091 8.51551C0.583044 9.59338 0 11.0241 0 12.5968V25.746C0 27.5527 0.613731 28.9527 1.83736 30.1495L8.33906 36.6512C9.62023 37.9324 11.051 38.5193 12.8883 38.4886H25.6616C27.4414 38.4886 28.899 37.9631 30.2109 36.6512L36.7126 30.1495C37.9094 28.9527 38.55 27.5258 38.55 25.746V12.5968C38.55 11.0203 37.9669 9.59338 36.889 8.51551L30.0344 1.69159ZM36.0107 17.0886C36.0107 17.5259 35.8074 17.7598 35.3969 17.7598H33.4445V16.3905C33.4445 15.3701 33.2987 14.8446 32.4242 14.8446H31.5496C30.675 14.8446 30.5293 15.3701 30.5293 16.3905V17.7598H29.1599C28.1396 17.7598 27.6141 17.9056 27.6141 18.7802V19.7123C27.6141 20.5868 28.1396 20.7326 29.1599 20.7326H30.5293V22.102C30.5293 23.1223 30.675 23.6478 31.5496 23.6478H32.4242C33.2987 23.6478 33.4445 23.1223 33.4445 22.102V20.7326H35.3969C35.7767 20.7326 35.98 20.9359 36.0107 21.3156V25.746C36.0107 26.8239 35.6884 27.6409 34.9328 28.3697L28.4311 34.8714C27.6716 35.6309 26.8277 35.98 25.7767 35.98H12.7733C11.7223 35.98 10.8784 35.6309 10.1189 34.8714L3.61719 28.3697C2.8577 27.6102 2.50864 26.8239 2.53932 25.746V12.8884C2.53932 11.8105 2.88838 10.8746 3.67472 10.0882L10.2915 3.38319C10.9628 2.71192 11.8066 2.50862 12.7694 2.50862H25.7729C26.7356 2.50862 27.5795 2.71192 28.2508 3.38319L34.8714 10.0882C35.6309 10.8745 36.0068 11.8066 36.0068 12.8883V17.0886L36.0107 17.0886Z" fill="#9595A9"/>
<path d="M21.7222 10.5064C22.2171 10.4182 23.9317 10.4182 24.4265 10.5064C24.8868 10.587 25.0402 10.8056 25.1054 11.2544L25.1169 21.3311C25.2435 21.9985 26.3214 21.427 26.5937 21.9947C26.6935 22.198 26.6858 24.0238 26.5937 24.2348C26.3713 24.7373 25.3855 24.4649 25.1707 24.9521C24.8715 25.6272 25.4507 27.641 24.8638 28.1128C24.5071 28.4005 22.9305 28.3967 22.5354 28.1895C21.7069 27.7561 22.5278 24.9713 21.9524 24.6951C20.1803 24.4573 18.1473 24.8447 16.402 24.6337C14.8178 24.4419 15.2167 22.2133 15.6386 21.1431C16.916 17.9249 19.3364 14.6644 20.7058 11.4308C20.9589 11.0166 21.1929 10.5985 21.7146 10.5026L21.7222 10.5064ZM22.1557 21.4385V14.9176C22.1557 14.7642 21.7261 14.6721 21.657 14.9291L18.5769 21.1355C18.5769 21.5152 18.9183 21.6571 19.2443 21.6955C19.7008 21.7492 21.3847 21.7684 21.7951 21.6916C21.914 21.6686 22.125 21.5421 22.1557 21.4385Z" fill="#9595A9"/>
</svg>
