<svg width="802" height="414" viewBox="0 0 802 414" fill="none" xmlns="http://www.w3.org/2000/svg">
<path d="M5.6245 267.655L15.602 207.79L159.722 28.1942H214.044L200.741 108.015H169.7L92.0966 205.573L91.5423 207.79H260.052L250.074 267.655H5.6245ZM136.441 312L146.973 249.363L153.07 223.311L185.22 28.1942H257.28L210.164 312H136.441ZM382.084 319.76C356.217 319.76 334.829 313.848 317.923 302.022C301.017 290.105 289.33 273.014 282.863 250.749C276.396 228.484 275.842 201.785 281.2 170.651C286.558 139.425 296.12 112.911 309.886 91.1082C323.743 69.3054 340.927 52.7224 361.436 41.3591C382.038 29.9957 405.18 24.3141 430.863 24.3141C456.546 24.3141 477.795 29.9957 494.609 41.3591C511.423 52.7224 523.109 69.3054 529.669 91.1082C536.228 112.819 536.921 139.333 531.747 170.651C526.574 201.877 517.058 228.623 503.201 250.888C489.435 273.152 472.206 290.197 451.511 302.022C430.91 313.848 407.767 319.76 382.084 319.76ZM392.616 257.123C405.92 257.123 417.837 250.195 428.369 236.337C438.993 222.387 446.846 200.492 451.927 170.651C455.253 151.251 456.038 135.36 454.283 122.981C452.528 110.509 448.74 101.317 442.92 95.4041C437.099 89.3991 429.755 86.3966 420.886 86.3966C407.582 86.3966 395.48 93.1869 384.579 106.767C373.77 120.256 365.917 141.55 361.021 170.651C357.695 190.607 356.956 206.959 358.803 219.708C360.651 232.457 364.531 241.88 370.444 247.977C376.356 254.075 383.747 257.123 392.616 257.123ZM533.46 267.655L543.438 207.79L687.558 28.1942H741.88L728.577 108.015H697.535L619.932 205.573L619.378 207.79H787.888L777.91 267.655H533.46ZM664.277 312L674.809 249.363L680.906 223.311L713.056 28.1942H785.116L738 312H664.277Z" fill="#DE127A"/>
<path d="M16.1359 406.613L25.8612 348.033H51.2613C55.7235 348.033 59.3752 348.633 62.2166 349.835C65.0769 351.036 67.0983 352.733 68.2805 354.926C69.4819 357.119 69.8347 359.703 69.3389 362.678C68.9575 364.814 68.1375 366.768 66.879 368.542C65.6395 370.296 64.0663 371.783 62.1593 373.004C60.2715 374.205 58.1644 375.035 55.8379 375.492L55.7235 376.064C58.2406 376.141 60.4336 376.77 62.3024 377.952C64.1711 379.115 65.5441 380.736 66.4213 382.815C67.2985 384.874 67.5082 387.277 67.0506 390.023C66.5166 393.227 65.2104 396.078 63.1319 398.576C61.0533 401.074 58.355 403.038 55.037 404.468C51.719 405.898 47.9433 406.613 43.7099 406.613H16.1359ZM34.2135 393.913H41.6504C44.282 393.913 46.351 393.408 47.8575 392.397C49.383 391.386 50.2888 389.909 50.5748 387.964C50.8037 386.591 50.6892 385.427 50.2316 384.474C49.7739 383.52 49.0016 382.796 47.9147 382.3C46.8277 381.804 45.4643 381.556 43.8243 381.556H36.1585L34.2135 393.913ZM37.8748 371.717H44.3964C45.7694 371.717 47.028 371.497 48.1721 371.059C49.3163 370.62 50.2602 369.981 51.0039 369.142C51.7476 368.303 52.2148 367.293 52.4055 366.11C52.6915 364.28 52.2529 362.888 51.0897 361.934C49.9455 360.981 48.4009 360.504 46.4559 360.504H39.7054L37.8748 371.717ZM83.3078 367.712H95.4358C100.375 367.712 104.551 368.503 107.964 370.086C111.397 371.669 113.895 373.9 115.458 376.78C117.041 379.659 117.499 383.044 116.831 386.934C116.202 390.824 114.61 394.247 112.055 397.203C109.499 400.158 106.238 402.466 102.272 404.125C98.3057 405.784 93.8531 406.613 88.9141 406.613H67.0609L76.7862 348.033H92.6898L85.024 394.142H90.9736C92.8996 394.142 94.5682 393.827 95.9793 393.198C97.4095 392.569 98.5536 391.701 99.4117 390.595C100.289 389.489 100.832 388.231 101.042 386.819C101.404 384.817 100.937 383.158 99.6406 381.842C98.3439 380.508 96.2558 379.84 93.3763 379.84H81.2483L83.3078 367.712ZM143.261 348.033L133.536 406.613H117.632L127.358 348.033H143.261ZM135.885 406.613L137.944 394.371L139.546 394.142C141.567 393.837 143.331 392.998 144.838 391.625C146.363 390.233 147.717 388.03 148.899 385.017C150.101 381.985 151.216 377.857 152.246 372.632L157.28 348.033H199.728L190.003 406.613H174.671L182.337 360.39H169.866L165.861 378.81C164.412 385.637 162.601 391.081 160.427 395.143C158.272 399.205 155.526 402.132 152.189 403.924C148.871 405.717 144.733 406.613 139.775 406.613H135.885ZM194.311 406.613L204.036 348.033H246.255L244.082 360.847H217.766L216.164 370.916H240.306L238.132 383.73H213.99L212.389 393.799H238.59L236.416 406.613H194.311ZM247.145 360.847L249.319 348.033H300.234L298.06 360.847H280.44L272.889 406.613H257.214L264.765 360.847H247.145ZM366.794 370H350.89C351.005 368.647 350.928 367.426 350.661 366.339C350.394 365.252 349.937 364.318 349.288 363.536C348.64 362.735 347.791 362.125 346.743 361.705C345.694 361.286 344.445 361.076 342.996 361.076C340.211 361.076 337.723 361.772 335.53 363.164C333.337 364.537 331.516 366.511 330.067 369.085C328.617 371.64 327.588 374.691 326.977 378.238C326.444 381.671 326.424 384.522 326.92 386.791C327.435 389.06 328.436 390.757 329.924 391.882C331.43 393.007 333.385 393.57 335.787 393.57C337.389 393.57 338.858 393.379 340.192 392.998C341.546 392.616 342.748 392.073 343.796 391.367C344.864 390.643 345.77 389.785 346.514 388.793C347.277 387.782 347.858 386.667 348.259 385.446H364.277C363.667 387.925 362.58 390.462 361.016 393.055C359.452 395.629 357.431 398.003 354.952 400.177C352.473 402.332 349.555 404.077 346.199 405.412C342.843 406.747 339.067 407.414 334.872 407.414C329.38 407.414 324.642 406.213 320.656 403.81C316.69 401.407 313.81 397.899 312.018 393.284C310.244 388.669 309.892 383.044 310.959 376.408C312.027 370 314.134 364.632 317.281 360.304C320.427 355.975 324.251 352.714 328.751 350.521C333.251 348.328 338.038 347.232 343.11 347.232C346.943 347.232 350.375 347.737 353.407 348.748C356.458 349.758 359.023 351.236 361.102 353.181C363.199 355.107 364.744 357.482 365.736 360.304C366.727 363.126 367.08 366.358 366.794 370ZM383.555 360.847L385.729 348.033H436.643L434.47 360.847H416.85L409.298 406.613H393.623L401.175 360.847H383.555ZM429.682 406.613L439.407 348.033H464.693C469.04 348.033 472.702 348.891 475.676 350.607C478.651 352.323 480.787 354.736 482.084 357.844C483.38 360.952 483.685 364.585 482.999 368.742C482.312 372.975 480.787 376.627 478.422 379.697C476.077 382.748 473.083 385.103 469.441 386.762C465.818 388.402 461.756 389.222 457.256 389.222H442.153L444.212 376.865H456.111C458.018 376.865 459.696 376.541 461.146 375.893C462.595 375.225 463.768 374.291 464.664 373.09C465.56 371.869 466.142 370.42 466.409 368.742C466.676 367.064 466.552 365.634 466.037 364.451C465.541 363.25 464.683 362.335 463.463 361.705C462.261 361.057 460.726 360.733 458.857 360.733H453.251L445.585 406.613H429.682ZM487.221 406.613H470.059L499.12 348.033H520.859L530.47 406.613H513.308L507.587 364.165H507.129L487.221 406.613ZM487.908 383.501H520.173L518.113 395.401H485.848L487.908 383.501ZM590.834 370H574.931C575.045 368.647 574.969 367.426 574.702 366.339C574.435 365.252 573.977 364.318 573.329 363.536C572.68 362.735 571.832 362.125 570.783 361.705C569.734 361.286 568.485 361.076 567.036 361.076C564.252 361.076 561.763 361.772 559.57 363.164C557.377 364.537 555.556 366.511 554.107 369.085C552.658 371.64 551.628 374.691 551.018 378.238C550.484 381.671 550.465 384.522 550.961 386.791C551.475 389.06 552.477 390.757 553.964 391.882C555.47 393.007 557.425 393.57 559.828 393.57C561.43 393.57 562.898 393.379 564.233 392.998C565.587 392.616 566.788 392.073 567.837 391.367C568.905 390.643 569.81 389.785 570.554 388.793C571.317 387.782 571.899 386.667 572.299 385.446H588.317C587.707 387.925 586.62 390.462 585.056 393.055C583.493 395.629 581.471 398.003 578.992 400.177C576.513 402.332 573.596 404.077 570.24 405.412C566.883 406.747 563.108 407.414 558.912 407.414C553.421 407.414 548.682 406.213 544.696 403.81C540.73 401.407 537.851 397.899 536.058 393.284C534.285 388.669 533.932 383.044 535 376.408C536.068 370 538.175 364.632 541.321 360.304C544.468 355.975 548.291 352.714 552.791 350.521C557.292 348.328 562.078 347.232 567.15 347.232C570.983 347.232 574.416 347.737 577.448 348.748C580.499 349.758 583.064 351.236 585.142 353.181C587.24 355.107 588.784 357.482 589.776 360.304C590.767 363.126 591.12 366.358 590.834 370ZM649.518 370H633.614C633.729 368.647 633.652 367.426 633.385 366.339C633.119 365.252 632.661 364.318 632.013 363.536C631.364 362.735 630.516 362.125 629.467 361.705C628.418 361.286 627.169 361.076 625.72 361.076C622.936 361.076 620.447 361.772 618.254 363.164C616.061 364.537 614.24 366.511 612.791 369.085C611.342 371.64 610.312 374.691 609.702 378.238C609.168 381.671 609.149 384.522 609.644 386.791C610.159 389.06 611.16 390.757 612.648 391.882C614.154 393.007 616.109 393.57 618.512 393.57C620.113 393.57 621.582 393.379 622.917 392.998C624.27 392.616 625.472 392.073 626.521 391.367C627.588 390.643 628.494 389.785 629.238 388.793C630.001 387.782 630.582 386.667 630.983 385.446H647.001C646.391 387.925 645.304 390.462 643.74 393.055C642.176 395.629 640.155 398.003 637.676 400.177C635.197 402.332 632.279 404.077 628.923 405.412C625.567 406.747 621.791 407.414 617.596 407.414C612.104 407.414 607.366 406.213 603.38 403.81C599.414 401.407 596.534 397.899 594.742 393.284C592.968 388.669 592.616 383.044 593.683 376.408C594.751 370 596.858 364.632 600.005 360.304C603.151 355.975 606.975 352.714 611.475 350.521C615.975 348.328 620.762 347.232 625.834 347.232C629.667 347.232 633.099 347.737 636.131 348.748C639.183 349.758 641.747 351.236 643.826 353.181C645.923 355.107 647.468 357.482 648.46 360.304C649.451 363.126 649.804 366.358 649.518 370ZM664.095 367.712H676.223C681.162 367.712 685.338 368.503 688.751 370.086C692.184 371.669 694.682 373.9 696.245 376.78C697.828 379.659 698.286 383.044 697.618 386.934C696.989 390.824 695.397 394.247 692.842 397.203C690.286 400.158 687.025 402.466 683.059 404.125C679.093 405.784 674.64 406.613 669.701 406.613H647.848L657.573 348.033H673.477L665.811 394.142H671.761C673.687 394.142 675.355 393.827 676.766 393.198C678.196 392.569 679.341 391.701 680.199 390.595C681.076 389.489 681.619 388.231 681.829 386.819C682.191 384.817 681.724 383.158 680.427 381.842C679.131 380.508 677.043 379.84 674.163 379.84H662.035L664.095 367.712ZM724.048 348.033L714.323 406.613H698.419L708.145 348.033H724.048ZM727.77 407.529C725.539 407.529 723.718 406.756 722.306 405.212C720.914 403.648 720.333 401.751 720.562 399.519C720.79 397.346 721.773 395.486 723.508 393.942C725.262 392.397 727.255 391.625 729.486 391.625C731.603 391.625 733.367 392.397 734.778 393.942C736.208 395.486 736.809 397.346 736.58 399.519C736.427 401.007 735.903 402.361 735.007 403.581C734.129 404.783 733.042 405.746 731.746 406.47C730.468 407.176 729.143 407.529 727.77 407.529ZM749.719 407.529C747.488 407.529 745.667 406.756 744.256 405.212C742.864 403.648 742.282 401.751 742.511 399.519C742.74 397.346 743.722 395.486 745.457 393.942C747.212 392.397 749.204 391.625 751.435 391.625C753.552 391.625 755.316 392.397 756.727 393.942C758.157 395.486 758.758 397.346 758.529 399.519C758.377 401.007 757.852 402.361 756.956 403.581C756.079 404.783 754.992 405.746 753.695 406.47C752.418 407.176 751.092 407.529 749.719 407.529ZM771.669 407.529C769.438 407.529 767.616 406.756 766.205 405.212C764.813 403.648 764.232 401.751 764.46 399.519C764.689 397.346 765.671 395.486 767.407 393.942C769.161 392.397 771.154 391.625 773.385 391.625C775.502 391.625 777.265 392.397 778.677 393.942C780.107 395.486 780.707 397.346 780.479 399.519C780.326 401.007 779.802 402.361 778.905 403.581C778.028 404.783 776.941 405.746 775.645 406.47C774.367 407.176 773.042 407.529 771.669 407.529Z" fill="white"/>
</svg>
