<svg width="22" height="15" viewBox="0 0 22 15" fill="none" xmlns="http://www.w3.org/2000/svg">
<path fill-rule="evenodd" clip-rule="evenodd" d="M0 0.989252C0 0.442903 0.442903 0 0.989251 0H4.94626C5.4926 0 5.93551 0.442903 5.93551 0.989252V5.93551C5.93551 6.72261 6.24818 7.47747 6.80474 8.03403C7.12071 8.35 7.5006 8.58737 7.91401 8.73354V0.989252C7.91401 0.442903 8.35691 0 8.90326 0H12.8603C13.4066 0 13.8495 0.442903 13.8495 0.989252V4.1407C14.2662 3.94021 14.6423 3.65736 14.9533 3.30511C15.5169 2.66684 15.828 1.84467 15.828 0.993179C15.828 0.446842 16.2709 0.00395719 16.8173 0.00395719H20.7743C21.0706 0.00395719 21.3514 0.136819 21.5393 0.365991C21.7272 0.595163 21.8024 0.896503 21.7443 1.18711L21.406 2.87972L21.406 2.87984C21.1738 4.04064 20.6796 5.13309 19.961 6.07384C19.6108 6.53232 19.2118 6.94887 18.7722 7.31674C19.1805 7.60589 19.5546 7.94413 19.8853 8.32543C20.6222 9.17489 21.1171 10.2068 21.3182 11.3132L21.3183 11.3133L21.7476 13.6767C21.8 13.9653 21.7217 14.2622 21.5337 14.4874C21.3458 14.7126 21.0676 14.8427 20.7743 14.8427H16.8173C16.2709 14.8427 15.828 14.3998 15.828 13.8535C15.828 13.002 15.5169 12.1799 14.9533 11.5416C14.6497 11.1977 14.284 10.92 13.8792 10.7204V13.8574C13.8792 14.1648 13.7364 14.4547 13.4926 14.6419C13.2842 14.802 13.0222 14.8715 12.765 14.8388H8.90326C6.54197 14.8388 4.27739 13.9008 2.60771 12.2311C0.93802 10.5614 0 8.2968 0 5.93551V0.989252ZM11.9007 12.8603V9.40581C11.9007 9.1221 12.0225 8.85204 12.2352 8.66426C12.4478 8.47648 12.7309 8.38904 13.0124 8.42417C14.336 8.58931 15.5536 9.23221 16.4364 10.232C17.0983 10.9815 17.5378 11.8929 17.7163 12.8642H19.5891L19.3716 11.6671C19.3716 11.6671 19.3716 11.667 19.3716 11.667C19.2339 10.9097 18.8951 10.2033 18.3908 9.62186C17.8864 9.04037 17.2349 8.60519 16.5046 8.36188C16.125 8.2354 15.8589 7.89267 15.8305 7.49353C15.8021 7.09439 16.017 6.71746 16.3749 6.53852C17.1642 6.14388 17.853 5.57417 18.3887 4.87286C18.9244 4.17155 19.2928 3.35715 19.4659 2.49179L19.5677 1.98246H17.7163C17.5378 2.95375 17.0983 3.86515 16.4364 4.61468C15.5536 5.61448 14.336 6.25738 13.0124 6.42252C12.9718 6.42759 12.9309 6.43014 12.8899 6.43014H12.8603C12.3139 6.43014 11.871 5.98723 11.871 5.44089V1.9785H9.89251V9.89252C9.89251 10.1549 9.78829 10.4065 9.60277 10.592C9.41725 10.7775 9.16563 10.8818 8.90326 10.8818C7.59143 10.8818 6.33333 10.3606 5.40573 9.43304C4.47813 8.50544 3.95701 7.24734 3.95701 5.93551V1.9785H1.9785V5.93551C1.9785 7.77207 2.70807 9.53341 4.00672 10.8321C5.30536 12.1307 7.0667 12.8603 8.90326 12.8603H11.9007Z" fill="#7D5C9C"/>
</svg>
