<svg width="21" height="17" viewBox="0 0 21 17" fill="none" xmlns="http://www.w3.org/2000/svg">
<path d="M0.915039 4.57373C0.915039 3.60313 1.30061 2.67228 1.98693 1.98595C2.67325 1.29963 3.6041 0.914063 4.57471 0.914062H15.5537C16.5243 0.914063 17.4552 1.29963 18.1415 1.98595C18.8278 2.67228 19.2134 3.60313 19.2134 4.57373V11.8931C19.2134 12.8637 18.8278 13.7945 18.1415 14.4808C17.4552 15.1672 16.5243 15.5527 15.5537 15.5527H4.57471C3.6041 15.5527 2.67325 15.1672 1.98693 14.4808C1.30061 13.7945 0.915039 12.8637 0.915039 11.8931V4.57373Z" stroke="#7D5C9C" stroke-width="1.82983" stroke-linecap="round" stroke-linejoin="round"/>
<path d="M8.23438 5.48865L12.809 8.2334L8.23438 10.9781V5.48865Z" stroke="#7D5C9C" stroke-width="1.82983" stroke-linecap="round" stroke-linejoin="round"/>
</svg>
