<svg width="81" height="48" viewBox="0 0 81 48" fill="none" xmlns="http://www.w3.org/2000/svg">
<path d="M81.0087 0L0 6.51401L10.5275 43.1829L57.3408 47.2949L81.0087 0Z" fill="#4EA8F3"/>
<path d="M25.2137 35.4732C23.0986 35.4732 21.3499 34.9897 19.9675 34.0228C18.5851 33.0483 17.6295 31.6508 17.1007 29.8303C16.5719 28.0098 16.5266 25.8267 16.9647 23.2809C17.4029 20.7277 18.1847 18.5597 19.3103 16.7769C20.4434 14.9942 21.8484 13.6382 23.5254 12.7091C25.21 11.7799 27.1023 11.3153 29.2023 11.3153C31.3023 11.3153 33.0397 11.7799 34.4146 12.7091C35.7894 13.6382 36.745 14.9942 37.2813 16.7769C37.8177 18.5521 37.8743 20.7201 37.4513 23.2809C37.0283 25.8342 36.2502 28.0211 35.1171 29.8416C33.9915 31.6621 32.5827 33.0559 30.8906 34.0228C29.2061 34.9897 27.3138 35.4732 25.2137 35.4732ZM26.0749 30.3515C27.1627 30.3515 28.1372 29.785 28.9983 28.6519C29.867 27.5112 30.5091 25.7209 30.9246 23.2809C31.1965 21.6946 31.2608 20.3953 31.1172 19.3831C30.9737 18.3633 30.664 17.6116 30.1881 17.1282C29.7122 16.6372 29.1116 16.3917 28.3864 16.3917C27.2987 16.3917 26.3091 16.9469 25.4177 18.0573C24.5339 19.1602 23.8918 20.9014 23.4914 23.2809C23.2195 24.9126 23.159 26.2497 23.3101 27.2921C23.4612 28.3346 23.7785 29.1051 24.2619 29.6037C24.7454 30.1022 25.3497 30.3515 26.0749 30.3515ZM45.2892 35.1559C43.4007 35.1559 41.7804 34.8424 40.4282 34.2154C39.076 33.5809 38.0789 32.7084 37.4368 31.5979C36.8022 30.4875 36.6096 29.2109 36.8589 27.768H43.1136C43.0306 28.2137 43.0872 28.6141 43.2836 28.9691C43.4876 29.3166 43.7973 29.5886 44.2128 29.785C44.6282 29.9814 45.1079 30.0796 45.6518 30.0796C46.3014 30.0796 46.8869 29.9474 47.4081 29.683C47.9369 29.4186 48.3675 29.0749 48.6999 28.6519C49.0398 28.2288 49.2475 27.7832 49.3231 27.3148C49.4062 26.8313 49.3268 26.4385 49.0851 26.1364C48.8434 25.8267 48.4846 25.6 48.0087 25.4565C47.5328 25.3054 46.9738 25.2299 46.3317 25.2299H43.8388L44.564 20.8788H46.7849C47.427 20.8788 48.0162 20.7617 48.5526 20.5275C49.0889 20.2933 49.5346 19.9723 49.8896 19.5644C50.2447 19.1489 50.4637 18.6805 50.5468 18.1593C50.6148 17.7589 50.5808 17.4115 50.4448 17.1168C50.3164 16.8147 50.086 16.5805 49.7536 16.4143C49.4288 16.2481 48.9982 16.165 48.4619 16.165C47.8802 16.165 47.3212 16.267 46.7849 16.471C46.2486 16.6749 45.7991 16.9582 45.4365 17.3208C45.0739 17.6834 44.8586 18.0989 44.7906 18.5672H38.8078C39.042 17.1471 39.6275 15.8931 40.5642 14.8053C41.5009 13.7175 42.6793 12.8639 44.0994 12.2445C45.5272 11.6251 47.0871 11.3153 48.7792 11.3153C50.5468 11.3153 52.0501 11.6402 53.2889 12.2898C54.5278 12.9395 55.4381 13.8006 56.0197 14.8733C56.6014 15.946 56.7865 17.1168 56.5749 18.3859C56.3483 19.7532 55.7327 20.7881 54.728 21.4906C53.7233 22.1932 52.4655 22.6086 50.9547 22.7371V22.9184C52.6015 23.1072 53.8744 23.7115 54.7733 24.7313C55.6722 25.7511 56.0008 27.0051 55.7591 28.4932C55.5551 29.7623 54.9697 30.8992 54.0028 31.9039C53.0359 32.9086 51.797 33.7017 50.2862 34.2834C48.783 34.8651 47.1173 35.1559 45.2892 35.1559Z" fill="white"/>
</svg>
