<svg width="81" height="48" viewBox="0 0 81 48" fill="none" xmlns="http://www.w3.org/2000/svg">
<path d="M81.0087 0L0 6.51401L10.5275 43.1829L57.3408 47.2949L81.0087 0Z" fill="#8E53E8"/>
<path d="M25.2123 35.4728C23.0972 35.4728 21.3484 34.9893 19.966 34.0224C18.5836 33.0479 17.628 31.6505 17.0992 29.8299C16.5705 28.0094 16.5251 25.8263 16.9633 23.2806C17.4014 20.7273 18.1833 18.5593 19.3088 16.7766C20.4419 14.9938 21.847 13.6378 23.524 12.7087C25.2085 11.7796 27.1008 11.315 29.2008 11.315C31.3008 11.315 33.0383 11.7796 34.4131 12.7087C35.7879 13.6378 36.7435 14.9938 37.2799 16.7766C37.8162 18.5518 37.8729 20.7198 37.4498 23.2806C37.0268 25.8338 36.2487 28.0207 35.1156 29.8413C33.9901 31.6618 32.5812 33.0555 30.8891 34.0224C29.2046 34.9893 27.3123 35.4728 25.2123 35.4728ZM26.0734 30.3512C27.1612 30.3512 28.1357 29.7846 28.9969 28.6515C29.8656 27.5108 30.5077 25.7205 30.9231 23.2806C31.1951 21.6942 31.2593 20.3949 31.1158 19.3827C30.9722 18.3629 30.6625 17.6113 30.1866 17.1278C29.7107 16.6368 29.1102 16.3913 28.385 16.3913C27.2972 16.3913 26.3076 16.9465 25.4162 18.057C24.5324 19.1599 23.8903 20.9011 23.49 23.2806C23.218 24.9123 23.1576 26.2493 23.3087 27.2918C23.4597 28.3342 23.777 29.1047 24.2605 29.6033C24.7439 30.1019 25.3483 30.3512 26.0734 30.3512ZM36.3135 31.2123L37.1294 26.3173L48.9137 11.6323H53.3555L52.2677 18.1589H49.7295L43.3841 26.136L43.3388 26.3173H57.1174L56.3015 31.2123H36.3135ZM47.0101 34.8383L47.8712 29.7166L48.3698 27.5864L50.9986 11.6323H56.8907L53.0382 34.8383H47.0101Z" fill="white"/>
</svg>
