<svg width="273" height="55" viewBox="0 0 273 55" fill="none" xmlns="http://www.w3.org/2000/svg">
<path d="M272.376 0L0 5.52329L12.0664 47.5524L245.249 54.2084L272.376 0Z" fill="#7D5C9C"/>
<path d="M44.6337 22.071L43.8179 26.9663H33.5287L34.3446 22.071H44.6337ZM25.5059 28.0541H31.7156C31.5041 29.1873 31.693 30.022 32.2822 30.5584C32.8715 31.0948 33.7553 31.363 34.9338 31.363C36.0368 31.363 36.9131 31.1477 37.5628 30.7171C38.22 30.2789 38.7299 29.5952 39.0926 28.666C39.4627 27.7293 39.7687 26.513 40.0104 25.0172L40.2824 23.6121C40.5241 22.1465 40.5959 20.9491 40.4977 20.02C40.3995 19.0908 40.1011 18.4071 39.6025 17.9689C39.1114 17.5308 38.3862 17.3117 37.4268 17.3117C36.3616 17.3117 35.5193 17.4514 34.8998 17.731C34.2879 18.0105 33.8309 18.4109 33.5287 18.9321C33.2341 19.4534 33.0226 20.0766 32.8941 20.8018H26.6844C27.0923 19.2456 27.7873 17.8292 28.7694 16.5525C29.759 15.2758 31.0433 14.2597 32.6222 13.5042C34.2011 12.7488 36.0746 12.3711 38.2427 12.3711C40.2597 12.3711 41.9406 12.8281 43.2853 13.7422C44.6375 14.6487 45.5856 15.9481 46.1295 17.6403C46.6735 19.3249 46.749 21.3306 46.3562 23.6574L46.1295 25.0172C45.7518 27.344 45.0266 29.3459 43.9538 31.023C42.8811 32.6925 41.5138 33.9768 39.8518 34.8758C38.1974 35.7672 36.3012 36.2129 34.1633 36.2129C32.2067 36.2129 30.5447 35.8805 29.1773 35.2157C27.8175 34.5434 26.8166 33.5991 26.1744 32.3828C25.5323 31.159 25.3095 29.7161 25.5059 28.0541ZM45.3999 35.8956L46.1251 31.1817H46.669C47.009 31.1817 47.3263 31.0834 47.6209 30.887C47.9155 30.6906 48.1913 30.3884 48.4481 29.9805C48.705 29.5726 48.9391 29.0551 49.1507 28.4281C49.3697 27.801 49.5699 27.0569 49.7512 26.1957L51.2924 18.4902H65.6156L62.7147 35.8956H56.8222L58.9526 23.1588H56.0517L55.0091 27.8728C54.6843 29.3535 54.2613 30.6075 53.74 31.6349C53.2263 32.6623 52.6333 33.4895 51.9609 34.1166C51.2886 34.736 50.552 35.1893 49.7512 35.4764C48.958 35.7559 48.1119 35.8956 47.213 35.8956H45.3999ZM72.7303 36.2129C70.8719 36.2129 69.3308 35.8579 68.107 35.1477C66.8832 34.4301 66.0219 33.4027 65.5234 32.0655C65.0248 30.7208 64.9341 29.1117 65.2514 27.2382C65.5536 25.4403 66.1768 23.8689 67.1211 22.5243C68.073 21.1796 69.2704 20.1333 70.7133 19.3854C72.1637 18.6375 73.7879 18.2635 75.5859 18.2635C76.9004 18.2635 78.0524 18.4675 79.042 18.8755C80.0392 19.2834 80.8513 19.8764 81.4784 20.6545C82.1054 21.4326 82.5284 22.3732 82.7475 23.4761C82.9741 24.5715 82.9741 25.8104 82.7475 27.1929L82.5209 28.6434H66.9738L67.5177 25.1985H77.3083C77.3838 24.6999 77.3347 24.2618 77.161 23.8841C76.9948 23.4988 76.7266 23.2004 76.3564 22.9889C75.9938 22.7698 75.5557 22.6602 75.042 22.6602C74.5283 22.6602 74.0448 22.7698 73.5915 22.9889C73.1458 23.2079 72.7643 23.5139 72.447 23.9067C72.1373 24.2995 71.9295 24.7604 71.8238 25.2892L71.1439 28.9153C71.0532 29.4743 71.0872 29.9729 71.2459 30.4111C71.4045 30.8493 71.6802 31.193 72.0731 31.4423C72.4659 31.6916 72.972 31.8162 73.5915 31.8162C74.0146 31.8162 74.4149 31.7596 74.7927 31.6463C75.1779 31.5254 75.5179 31.3516 75.8125 31.125C76.1147 30.8908 76.3564 30.6075 76.5377 30.2751H82.2489C81.841 31.4838 81.1951 32.5339 80.3112 33.4253C79.4349 34.3092 78.3546 34.9967 77.0703 35.4877C75.7936 35.9712 74.347 36.2129 72.7303 36.2129ZM82.6184 35.8956L85.5193 18.4902H91.7744L90.7319 24.6999H91.8198L96.5791 18.4902H103.741L96.715 27.2836L100.885 35.8956H93.6328L91.1852 30.5018H89.7801L88.8735 35.8956H82.6184ZM102.323 23.1588L103.093 18.4902H119.955L119.184 23.1588H113.654L111.524 35.8956H105.631L107.762 23.1588H102.323ZM117.058 42.4227L121.069 18.4902H127.279L126.78 21.5271H126.916C127.234 20.9378 127.649 20.3977 128.163 19.9066C128.684 19.408 129.296 19.0114 129.999 18.7168C130.709 18.4146 131.494 18.2635 132.356 18.2635C133.504 18.2635 134.543 18.5695 135.472 19.1814C136.401 19.7933 137.085 20.7565 137.523 22.071C137.961 23.3855 138.006 25.0928 137.659 27.1929C137.326 29.2024 136.733 30.8681 135.88 32.1902C135.034 33.5122 134.037 34.4981 132.888 35.1477C131.748 35.7974 130.558 36.1223 129.319 36.1223C128.503 36.1223 127.797 35.9901 127.2 35.7257C126.603 35.4537 126.123 35.0873 125.761 34.6265C125.398 34.1581 125.149 33.6293 125.013 33.04H124.877L123.336 42.4227H117.058ZM125.738 27.1929C125.602 28.039 125.591 28.7718 125.704 29.3912C125.825 30.0032 126.063 30.4791 126.418 30.819C126.78 31.1514 127.249 31.3176 127.823 31.3176C128.397 31.3176 128.911 31.1552 129.364 30.8304C129.817 30.498 130.203 30.0258 130.52 29.4139C130.837 28.7944 131.071 28.0541 131.222 27.1929C131.358 26.3317 131.37 25.5951 131.256 24.9832C131.143 24.3638 130.913 23.8916 130.565 23.5668C130.218 23.2344 129.757 23.0682 129.183 23.0682C128.609 23.0682 128.084 23.2344 127.608 23.5668C127.139 23.8916 126.743 24.3638 126.418 24.9832C126.101 25.5951 125.874 26.3317 125.738 27.1929ZM145.887 36.2129C143.998 36.2129 142.442 35.839 141.218 35.0911C140.002 34.3356 139.148 33.2856 138.657 31.9409C138.166 30.5886 138.068 29.0211 138.363 27.2382C138.657 25.4554 139.273 23.8916 140.21 22.5469C141.147 21.1947 142.351 20.1446 143.825 19.3967C145.298 18.6413 146.982 18.2635 148.878 18.2635C150.76 18.2635 152.308 18.6413 153.524 19.3967C154.748 20.1446 155.606 21.1947 156.097 22.5469C156.595 23.8916 156.697 25.4554 156.403 27.2382C156.108 29.0211 155.489 30.5886 154.544 31.9409C153.6 33.2856 152.391 34.3356 150.918 35.0911C149.453 35.839 147.776 36.2129 145.887 36.2129ZM146.657 31.5896C147.201 31.5896 147.696 31.4121 148.142 31.057C148.595 30.7019 148.98 30.1958 149.298 29.5386C149.623 28.8813 149.861 28.0994 150.012 27.1929C150.163 26.2788 150.185 25.4969 150.08 24.8472C149.974 24.19 149.755 23.6839 149.422 23.3288C149.09 22.9737 148.652 22.7962 148.108 22.7962C147.564 22.7962 147.065 22.9737 146.612 23.3288C146.159 23.6839 145.774 24.19 145.456 24.8472C145.139 25.4969 144.905 26.2788 144.754 27.1929C144.603 28.0994 144.576 28.8813 144.674 29.5386C144.78 30.1958 144.999 30.7019 145.332 31.057C145.672 31.4121 146.114 31.5896 146.657 31.5896ZM170.537 24.7906L169.767 29.4592H161.019L161.789 24.7906H170.537ZM165.053 18.4902L162.152 35.8956H156.259L159.16 18.4902H165.053ZM175.251 18.4902L172.35 35.8956H166.503L169.404 18.4902H175.251ZM188.395 24.7906L187.624 29.4592H178.876L179.646 24.7906H188.395ZM182.91 18.4902L180.009 35.8956H174.117L177.018 18.4902H182.91ZM193.109 18.4902L190.208 35.8956H184.36L187.261 18.4902H193.109ZM197.594 23.2042H202.943C205.413 23.2042 207.268 23.7783 208.507 24.9266C209.746 26.0673 210.203 27.6386 209.878 29.6405C209.659 30.9324 209.145 32.0466 208.337 32.9834C207.536 33.9201 206.497 34.6416 205.22 35.1477C203.944 35.6463 202.474 35.8956 200.812 35.8956H191.974L194.875 18.4902H200.767L198.637 31.227H201.583C202.233 31.227 202.788 31.0759 203.249 30.7737C203.717 30.464 203.993 30.0711 204.076 29.5952C204.159 29.0891 204.019 28.6774 203.657 28.3601C203.294 28.0352 202.799 27.8728 202.172 27.8728H196.824L197.594 23.2042ZM210.014 35.8956L212.915 18.4902H219.17L216.269 35.8956H210.014ZM225.42 27.9181L231.857 18.4902H237.749L234.848 35.8956H228.956L230.542 26.4223L224.106 35.8956H218.214L221.114 18.4902H227.007L225.42 27.9181ZM232.673 12.2351H236.616C236.367 13.7082 235.611 14.8867 234.35 15.7706C233.088 16.6469 231.509 17.085 229.613 17.085C227.702 17.085 226.259 16.6469 225.284 15.7706C224.31 14.8867 223.947 13.7082 224.197 12.2351H228.095C228.019 12.711 228.121 13.1492 228.401 13.5496C228.688 13.9424 229.251 14.1388 230.089 14.1388C230.905 14.1388 231.517 13.9462 231.925 13.5609C232.333 13.1756 232.582 12.7337 232.673 12.2351Z" fill="white"/>
</svg>
