<svg width="219" height="55" viewBox="0 0 219 55" fill="none" xmlns="http://www.w3.org/2000/svg">
<path d="M218.399 0L0 5.78988L12.0664 47.819L191.271 54.2084L218.399 0Z" fill="#7D5C9C"/>
<path d="M49.3931 12.9546L45.5403 36.1619H39.3305L42.3674 17.9405H34.5259L31.489 36.1619H25.2792L29.132 12.9546H49.3931ZM56.6806 36.4792C54.8222 36.4792 53.2811 36.1241 52.0572 35.414C50.8334 34.6963 49.9722 33.6689 49.4736 32.3318C48.975 30.9871 48.8844 29.378 49.2017 27.5045C49.5038 25.7065 50.1271 24.1352 51.0714 22.7905C52.0233 21.4458 53.2206 20.3995 54.6635 19.6516C56.114 18.9037 57.7382 18.5298 59.5362 18.5298C60.8506 18.5298 62.0027 18.7337 62.9923 19.1417C63.9895 19.5496 64.8016 20.1427 65.4286 20.9208C66.0556 21.6989 66.4787 22.6394 66.6978 23.7423C66.9244 24.8377 66.9244 26.0767 66.6978 27.4591L66.4711 28.9096H50.9241L51.468 25.4648H61.2586C61.3341 24.9662 61.285 24.528 61.1113 24.1503C60.9451 23.765 60.6769 23.4666 60.3067 23.2551C59.9441 23.036 59.5059 22.9265 58.9922 22.9265C58.4785 22.9265 57.995 23.036 57.5418 23.2551C57.0961 23.4742 56.7146 23.7801 56.3973 24.173C56.0875 24.5658 55.8798 25.0266 55.774 25.5554L55.0941 29.1816C55.0035 29.7406 55.0375 30.2392 55.1961 30.6773C55.3548 31.1155 55.6305 31.4592 56.0233 31.7085C56.4162 31.9578 56.9223 32.0825 57.5418 32.0825C57.9648 32.0825 58.3652 32.0258 58.7429 31.9125C59.1282 31.7916 59.4682 31.6179 59.7628 31.3912C60.065 31.157 60.3067 30.8737 60.488 30.5414H66.1992C65.7912 31.7501 65.1453 32.8001 64.2615 33.6916C63.3851 34.5754 62.3049 35.2629 61.0206 35.7539C59.7439 36.2374 58.2972 36.4792 56.6806 36.4792ZM85.6512 18.7564L82.7503 36.1619H76.9032L79.8041 18.7564H85.6512ZM81.3905 25.9634L80.62 30.632C80.3933 30.768 80.0081 30.904 79.4641 31.0399C78.9278 31.1684 78.3688 31.2779 77.7871 31.3686C77.2054 31.4517 76.7294 31.4932 76.3593 31.4932C73.5112 31.4932 71.3733 30.9871 69.9455 29.9748C68.5177 28.9625 67.9965 27.2778 68.3818 24.9208L69.4243 18.7564H75.2261L74.1836 24.9208C74.1005 25.4497 74.1118 25.85 74.2176 26.122C74.3309 26.394 74.6104 26.579 75.0561 26.6773C75.5094 26.7755 76.2006 26.8246 77.1298 26.8246C77.704 26.8246 78.331 26.7566 79.0109 26.6206C79.6983 26.4771 80.4916 26.258 81.3905 25.9634ZM89.2786 36.4338C88.1757 36.4338 87.2276 36.2525 86.4344 35.8899C85.6487 35.5197 85.0746 34.9607 84.712 34.2128C84.3569 33.4574 84.2776 32.5055 84.474 31.3572C84.6326 30.4054 84.931 29.5933 85.3692 28.9209C85.8074 28.2486 86.3513 27.6971 87.001 27.2665C87.6506 26.8359 88.3796 26.5073 89.188 26.2806C90.0039 26.0465 90.8651 25.8954 91.7716 25.8274C92.7537 25.7518 93.5507 25.6574 94.1626 25.5441C94.7745 25.4308 95.2315 25.2759 95.5337 25.0795C95.8359 24.8831 96.0172 24.6187 96.0776 24.2863V24.2409C96.1456 23.7877 96.0248 23.4402 95.715 23.1984C95.4128 22.9567 94.9898 22.8358 94.4459 22.8358C93.8566 22.8358 93.3467 22.9642 92.9161 23.2211C92.493 23.4779 92.2022 23.8783 92.0436 24.4222H86.2871C86.5288 23.3646 87.0236 22.3901 87.7715 21.4987C88.527 20.5997 89.5279 19.882 90.7744 19.3457C92.0284 18.8017 93.5242 18.5298 95.2618 18.5298C96.5007 18.5298 97.5885 18.6771 98.5253 18.9717C99.462 19.2588 100.236 19.6629 100.848 20.1842C101.468 20.6979 101.902 21.3023 102.151 21.9973C102.408 22.6847 102.469 23.4326 102.333 24.2409L100.338 36.1619H94.4912L94.8991 33.7142H94.7632C94.3099 34.3639 93.8 34.8889 93.2334 35.2893C92.6744 35.6897 92.0624 35.9806 91.3977 36.1619C90.7404 36.3432 90.0341 36.4338 89.2786 36.4338ZM91.9982 32.4904C92.4666 32.4904 92.9274 32.3922 93.3807 32.1958C93.834 31.9994 94.223 31.7161 94.5479 31.3459C94.8727 30.9757 95.0804 30.5262 95.1711 29.9974L95.3977 28.547C95.2315 28.615 95.0465 28.6792 94.8425 28.7396C94.6461 28.7925 94.4383 28.8454 94.2192 28.8983C94.0077 28.9511 93.7811 29.0002 93.5393 29.0456C93.3051 29.0909 93.0634 29.1362 92.8141 29.1816C92.3155 29.2571 91.8962 29.3817 91.5563 29.5555C91.2163 29.7217 90.9519 29.9294 90.7631 30.1787C90.5742 30.4205 90.4571 30.6924 90.4118 30.9946C90.3438 31.4706 90.4533 31.8407 90.7404 32.1051C91.035 32.362 91.4543 32.4904 91.9982 32.4904ZM102.852 23.4251L103.623 18.7564H120.484L119.714 23.4251H114.184L112.054 36.1619H106.161L108.292 23.4251H102.852ZM132.953 25.0568L132.183 29.7255H123.435L124.205 25.0568H132.953ZM127.469 18.7564L124.568 36.1619H118.675L121.576 18.7564H127.469ZM137.667 18.7564L134.766 36.1619H128.919L131.82 18.7564H137.667ZM142.153 23.4704H147.502C149.972 23.4704 151.827 24.0445 153.066 25.1928C154.304 26.3335 154.762 27.9049 154.437 29.9068C154.218 31.1986 153.704 32.3129 152.896 33.2496C152.095 34.1864 151.056 34.9078 149.779 35.414C148.503 35.9126 147.033 36.1619 145.371 36.1619H136.533L139.434 18.7564H145.326L143.196 31.4932H146.142C146.792 31.4932 147.347 31.3421 147.808 31.0399C148.276 30.7302 148.552 30.3374 148.635 29.8615C148.718 29.3553 148.578 28.9436 148.216 28.6263C147.853 28.3015 147.358 28.139 146.731 28.139H141.383L142.153 23.4704ZM154.573 36.1619L157.474 18.7564H163.729L160.828 36.1619H154.573ZM169.979 28.1844L176.416 18.7564H182.308L179.407 36.1619H173.515L175.101 26.6886L168.665 36.1619H162.772L165.673 18.7564H171.566L169.979 28.1844ZM177.232 12.5013H181.175C180.926 13.9744 180.17 15.1529 178.909 16.0368C177.647 16.9131 176.068 17.3513 174.172 17.3513C172.261 17.3513 170.818 16.9131 169.843 16.0368C168.869 15.1529 168.506 13.9744 168.755 12.5013H172.654C172.578 12.9773 172.68 13.4154 172.96 13.8158C173.247 14.2086 173.809 14.405 174.648 14.405C175.464 14.405 176.076 14.2124 176.484 13.8271C176.892 13.4419 177.141 12.9999 177.232 12.5013Z" fill="white"/>
</svg>
