<svg width="152" height="29" viewBox="0 0 152 29" fill="none" xmlns="http://www.w3.org/2000/svg">
<path d="M151.902 -0.000115846L0 3.19751L6.37889 25.4162L137.56 28.6572L151.902 -0.000115846Z" fill="#7D5C9C"/>
<path d="M17.7966 19.5603C16.8102 19.5603 15.9516 19.4086 15.2207 19.105C14.4939 18.7975 13.9507 18.3802 13.5913 17.853C13.2319 17.3219 13.1081 16.7248 13.2199 16.0619C13.3078 15.5587 13.5134 15.0974 13.8369 14.6781C14.1644 14.2587 14.5678 13.9093 15.047 13.6297C15.5262 13.3502 16.0354 13.1704 16.5746 13.0906V12.9947C15.9116 12.8749 15.3944 12.5634 15.023 12.0602C14.6556 11.557 14.5258 10.9659 14.6336 10.287C14.7375 9.64403 15.033 9.07294 15.5202 8.57373C16.0115 8.07052 16.6345 7.67515 17.3893 7.38761C18.1481 7.10006 18.9788 6.95629 19.8813 6.95629C20.7839 6.95629 21.5647 7.10206 22.2236 7.3936C22.8826 7.68114 23.3738 8.07651 23.6973 8.57972C24.0208 9.07893 24.1306 9.64802 24.0268 10.287C23.9149 10.9739 23.5934 11.567 23.0623 12.0662C22.5311 12.5654 21.9021 12.8749 21.1753 12.9947V13.0906C21.6905 13.1704 22.1398 13.3502 22.5231 13.6297C22.9105 13.9053 23.1961 14.2527 23.3798 14.6721C23.5635 15.0914 23.6114 15.5547 23.5236 16.0619C23.4117 16.7208 23.0902 17.3159 22.5591 17.847C22.0279 18.3742 21.349 18.7915 20.5223 19.099C19.6996 19.4066 18.7911 19.5603 17.7966 19.5603ZM18.18 17.26C18.4955 17.26 18.7851 17.1961 19.0487 17.0683C19.3122 16.9365 19.5319 16.7588 19.7076 16.5351C19.8873 16.3075 20.0011 16.0539 20.0491 15.7743C20.097 15.4868 20.069 15.2332 19.9652 15.0135C19.8614 14.7939 19.6956 14.6221 19.468 14.4983C19.2443 14.3745 18.9748 14.3126 18.6593 14.3126C18.3438 14.3126 18.0522 14.3765 17.7847 14.5043C17.5211 14.6281 17.3014 14.7999 17.1257 15.0195C16.95 15.2392 16.8382 15.4908 16.7902 15.7743C16.7423 16.0579 16.7703 16.3135 16.8741 16.5411C16.9819 16.7647 17.1497 16.9405 17.3773 17.0683C17.6049 17.1961 17.8725 17.26 18.18 17.26ZM19.0427 12.0123C19.3222 12.0123 19.5778 11.9544 19.8094 11.8386C20.0451 11.7187 20.2408 11.557 20.3965 11.3533C20.5523 11.1496 20.6521 10.922 20.696 10.6704C20.74 10.4108 20.718 10.1832 20.6301 9.98749C20.5423 9.7878 20.4005 9.63205 20.2048 9.52023C20.0091 9.4084 19.7735 9.35249 19.4979 9.35249C19.2224 9.35249 18.9648 9.4104 18.7252 9.52622C18.4895 9.63804 18.2899 9.79379 18.1261 9.99348C17.9664 10.1892 17.8645 10.4148 17.8206 10.6704C17.7767 10.926 17.8006 11.1556 17.8925 11.3593C17.9843 11.559 18.1281 11.7187 18.3238 11.8386C18.5235 11.9544 18.7631 12.0123 19.0427 12.0123ZM30.8947 19.5603C29.8963 19.5603 29.0736 19.3626 28.4266 18.9673C27.7796 18.5679 27.3264 18.0128 27.0668 17.3019C26.8072 16.587 26.7573 15.7583 26.917 14.8158C27.0688 13.8733 27.3922 13.0466 27.8875 12.3358C28.3867 11.6209 29.0257 11.0658 29.8044 10.6704C30.5872 10.271 31.4778 10.0714 32.4762 10.0714C33.3788 10.0714 34.1316 10.2351 34.7346 10.5626C35.3416 10.8861 35.775 11.3453 36.0345 11.9404C36.2981 12.5315 36.366 13.2264 36.2382 14.0251H33.1711C33.207 13.5458 33.1292 13.1784 32.9375 12.9228C32.7498 12.6672 32.4762 12.5394 32.1168 12.5394C31.8212 12.5394 31.5497 12.6233 31.302 12.791C31.0584 12.9548 30.8488 13.2044 30.673 13.5399C30.5013 13.8713 30.3755 14.2887 30.2956 14.7919C30.2158 15.2951 30.2058 15.7144 30.2657 16.0499C30.3296 16.3814 30.4534 16.631 30.6371 16.7987C30.8248 16.9624 31.0624 17.0443 31.35 17.0443C31.5976 17.0443 31.8252 16.9884 32.0329 16.8766C32.2446 16.7607 32.4263 16.593 32.578 16.3734C32.7338 16.1497 32.8516 15.8781 32.9315 15.5587H35.9986C35.8468 16.3734 35.5413 17.0802 35.0821 17.6793C34.6228 18.2783 34.0377 18.7416 33.3268 19.0691C32.616 19.3966 31.8053 19.5603 30.8947 19.5603ZM39.8751 15.1753L43.2777 10.1912H46.3928L44.8592 19.3926H41.7442L42.5828 14.3845L39.1802 19.3926H36.0652L37.5987 10.1912H40.7138L39.8751 15.1753ZM52.1623 15.966L55.1336 10.1912H57.4819L52.6176 19.3926H50.5568L48.8555 10.1912H51.2038L52.1623 15.966ZM50.5329 10.1912L48.9993 19.3926H45.8843L47.4178 10.1912H50.5329ZM54.3908 19.3926L55.9243 10.1912H58.9915L57.4579 19.3926H54.3908ZM59.4849 22.8431C59.1015 22.8431 58.744 22.8132 58.4126 22.7533C58.0811 22.6973 57.7915 22.6195 57.5439 22.5196L58.6582 20.1713C58.9138 20.2672 59.1494 20.3291 59.365 20.357C59.5847 20.385 59.7784 20.369 59.9461 20.3091C60.1139 20.2492 60.2516 20.1354 60.3595 19.9677L60.4673 19.7999L58.8259 10.1912H62.1566L62.576 16.5651H62.6718L65.2477 10.1912H68.842L63.834 20.1594C63.5784 20.6666 63.2589 21.1218 62.8755 21.5252C62.4961 21.9326 62.0288 22.254 61.4737 22.4897C60.9186 22.7253 60.2556 22.8431 59.4849 22.8431ZM66.4899 19.3926L66.8733 16.9005H67.1609C67.3406 16.9005 67.5083 16.8486 67.6641 16.7448C67.8198 16.6409 67.9656 16.4812 68.1014 16.2655C68.2371 16.0499 68.3609 15.7763 68.4728 15.4448C68.5886 15.1134 68.6944 14.72 68.7903 14.2647L69.605 10.1912H77.177L75.6434 19.3926H72.5283L73.6546 12.6593H72.121L71.5699 15.1513C71.3981 15.9341 71.1745 16.597 70.8989 17.1401C70.6274 17.6833 70.3139 18.1206 69.9584 18.4521C69.603 18.7795 69.2136 19.0192 68.7903 19.1709C68.3709 19.3187 67.9236 19.3926 67.4484 19.3926H66.4899ZM81.8487 19.3926L82.9749 12.6593H81.7289C81.3096 12.6593 80.9861 12.7551 80.7585 12.9468C80.5348 13.1385 80.411 13.3302 80.387 13.5219C80.3391 13.7256 80.403 13.9173 80.5787 14.097C80.7585 14.2727 81.07 14.3606 81.5133 14.3606H83.8615L83.5261 16.3494H81.1778C80.2752 16.3494 79.5164 16.2236 78.9014 15.972C78.2864 15.7204 77.8391 15.3729 77.5595 14.9297C77.28 14.4864 77.1921 13.9772 77.2959 13.4021C77.3918 12.7791 77.6534 12.2259 78.0807 11.7427C78.512 11.2595 79.0731 10.8801 79.764 10.6045C80.4589 10.3289 81.2497 10.1912 82.1363 10.1912H86.4494L84.9159 19.3926H81.8487ZM76.1937 19.3926L79.5244 14.4564H82.5676L79.2369 19.3926H76.1937ZM86.2524 12.6593L86.6598 10.1912H95.5736L95.1663 12.6593H92.2429L91.1167 19.3926H88.0016L89.1278 12.6593H86.2524ZM98.7717 19.5603C97.7733 19.5603 96.9506 19.3626 96.3036 18.9673C95.6607 18.5679 95.2094 18.0128 94.9498 17.3019C94.6902 16.587 94.6383 15.7583 94.794 14.8158C94.9498 13.8733 95.2753 13.0466 95.7705 12.3358C96.2657 11.6209 96.9027 11.0658 97.6815 10.6704C98.4602 10.271 99.3508 10.0714 100.353 10.0714C101.348 10.0714 102.166 10.271 102.809 10.6704C103.456 11.0658 103.91 11.6209 104.169 12.3358C104.433 13.0466 104.487 13.8733 104.331 14.8158C104.175 15.7583 103.848 16.587 103.348 17.3019C102.849 18.0128 102.21 18.5679 101.432 18.9673C100.657 19.3626 99.7701 19.5603 98.7717 19.5603ZM99.1791 17.1162C99.4666 17.1162 99.7282 17.0223 99.9638 16.8346C100.203 16.6469 100.407 16.3794 100.575 16.0319C100.747 15.6845 100.872 15.2711 100.952 14.7919C101.032 14.3086 101.044 13.8953 100.988 13.5518C100.932 13.2044 100.816 12.9368 100.641 12.7491C100.465 12.5614 100.233 12.4676 99.9459 12.4676C99.6583 12.4676 99.3947 12.5614 99.1551 12.7491C98.9155 12.9368 98.7118 13.2044 98.5441 13.5518C98.3763 13.8953 98.2525 14.3086 98.1727 14.7919C98.0928 15.2711 98.0788 15.6845 98.1307 16.0319C98.1866 16.3794 98.3025 16.6469 98.4782 16.8346C98.6579 17.0223 98.8915 17.1162 99.1791 17.1162ZM103.68 22.8431L105.801 10.1912H109.084L108.82 11.7966H108.892C109.06 11.4851 109.279 11.1996 109.551 10.94C109.826 10.6764 110.15 10.4667 110.521 10.311C110.897 10.1512 111.312 10.0714 111.767 10.0714C112.374 10.0714 112.923 10.2331 113.415 10.5566C113.906 10.8801 114.267 11.3893 114.499 12.0842C114.731 12.7791 114.755 13.6816 114.571 14.7919C114.395 15.8542 114.082 16.7348 113.63 17.4337C113.183 18.1326 112.656 18.6537 112.049 18.9972C111.446 19.3407 110.817 19.5124 110.162 19.5124C109.731 19.5124 109.357 19.4425 109.042 19.3027C108.726 19.1589 108.473 18.9653 108.281 18.7216C108.089 18.474 107.957 18.1945 107.885 17.883H107.814L106.999 22.8431H103.68ZM108.269 14.7919C108.197 15.2392 108.191 15.6265 108.251 15.954C108.315 16.2775 108.441 16.5291 108.628 16.7088C108.82 16.8846 109.068 16.9724 109.371 16.9724C109.675 16.9724 109.946 16.8866 110.186 16.7148C110.425 16.5391 110.629 16.2895 110.797 15.966C110.965 15.6385 111.088 15.2471 111.168 14.7919C111.24 14.3366 111.246 13.9472 111.186 13.6237C111.126 13.2962 111.004 13.0466 110.821 12.8749C110.637 12.6992 110.393 12.6113 110.09 12.6113C109.786 12.6113 109.509 12.6992 109.257 12.8749C109.01 13.0466 108.8 13.2962 108.628 13.6237C108.461 13.9472 108.341 14.3366 108.269 14.7919ZM118.921 19.5603C117.922 19.5603 117.099 19.3626 116.453 18.9673C115.81 18.5679 115.358 18.0128 115.099 17.3019C114.839 16.587 114.787 15.7583 114.943 14.8158C115.099 13.8733 115.424 13.0466 115.919 12.3358C116.415 11.6209 117.052 11.0658 117.83 10.6704C118.609 10.271 119.5 10.0714 120.502 10.0714C121.497 10.0714 122.315 10.271 122.958 10.6704C123.605 11.0658 124.058 11.6209 124.318 12.3358C124.582 13.0466 124.636 13.8733 124.48 14.8158C124.324 15.7583 123.997 16.587 123.497 17.3019C122.998 18.0128 122.359 18.5679 121.58 18.9673C120.806 19.3626 119.919 19.5603 118.921 19.5603ZM119.328 17.1162C119.616 17.1162 119.877 17.0223 120.113 16.8346C120.352 16.6469 120.556 16.3794 120.724 16.0319C120.895 15.6845 121.021 15.2711 121.101 14.7919C121.181 14.3086 121.193 13.8953 121.137 13.5518C121.081 13.2044 120.965 12.9368 120.79 12.7491C120.614 12.5614 120.382 12.4676 120.095 12.4676C119.807 12.4676 119.544 12.5614 119.304 12.7491C119.064 12.9368 118.861 13.2044 118.693 13.5518C118.525 13.8953 118.401 14.3086 118.322 14.7919C118.242 15.2711 118.228 15.6845 118.28 16.0319C118.336 16.3794 118.451 16.6469 118.627 16.8346C118.807 17.0223 119.04 17.1162 119.328 17.1162ZM124.404 19.3926L125.938 10.1912H129.963C131.193 10.1912 132.128 10.4008 132.767 10.8202C133.406 11.2395 133.653 11.8685 133.51 12.7072C133.438 13.1625 133.174 13.5658 132.719 13.9173C132.264 14.2687 131.649 14.5043 130.874 14.6241C131.565 14.6561 132.108 14.7839 132.503 15.0075C132.903 15.2272 133.176 15.5027 133.324 15.8342C133.472 16.1617 133.518 16.5012 133.462 16.8526C133.37 17.4117 133.14 17.881 132.773 18.2604C132.405 18.6358 131.91 18.9193 131.287 19.111C130.664 19.2987 129.919 19.3926 129.053 19.3926H124.404ZM127.855 17.0683H129.436C129.708 17.0683 129.931 17.0044 130.107 16.8766C130.283 16.7488 130.387 16.573 130.419 16.3494C130.462 16.1178 130.417 15.9361 130.281 15.8043C130.149 15.6725 129.947 15.6066 129.676 15.6066H128.094L127.855 17.0683ZM128.382 13.9292H129.436C129.608 13.9292 129.758 13.9033 129.885 13.8514C130.017 13.7954 130.125 13.7176 130.209 13.6177C130.293 13.5179 130.347 13.3981 130.371 13.2583C130.403 13.0466 130.345 12.8829 130.197 12.7671C130.053 12.6473 129.839 12.5874 129.556 12.5874H128.597L128.382 13.9292Z" fill="white"/>
</svg>
