<svg width="184" height="50" viewBox="0 0 184 50" fill="none" xmlns="http://www.w3.org/2000/svg">
<path d="M99.391 30.3763C101.234 30.2534 103.061 30.2688 104.904 30.2995V16.7239C103.077 16.7239 101.249 16.7239 99.4217 16.7239M13.0689 0H32.7566C33.4324 2.24213 34.1081 4.48426 34.7838 6.72639C35.4441 4.48426 36.0891 2.24213 36.7495 0H170.709C175.086 13.4528 179.447 26.921 183.809 40.3737H158.593L157.333 36.1506H152.634L151.467 40.3737H140.149C139.918 41.2337 139.688 42.0937 139.442 42.9384C139.12 44.0594 138.797 45.1498 138.459 46.2248C138.444 46.2862 138.413 46.363 138.398 46.4551C138.275 46.9005 138.106 47.5148 137.768 47.9755C137.492 48.3594 136.985 48.6358 136.371 48.8508C135.787 49.0505 135.05 49.2041 134.298 49.3269C132.915 49.5573 131.318 49.7416 129.675 49.7876C128.001 49.8183 126.266 49.6955 124.653 49.2962C123.717 49.0505 122.734 48.6973 121.843 48.1751C121.551 48.0062 121.259 47.8219 120.998 47.6069C120.86 47.9909 120.707 48.3901 120.568 48.7741L120.353 49.373L119.724 49.4344C118.265 49.5726 116.867 49.6341 115.485 49.6494C114.057 49.6494 112.66 49.6034 111.262 49.4959L110.74 49.4498L110.463 49.0044C110.126 48.4362 109.696 47.7298 109.158 46.8237C109.097 46.7162 109.02 46.5934 108.958 46.4859C108.575 47.5455 108.206 48.5591 108.037 49.0044L107.776 49.7262L107.023 49.6801C105.534 49.5726 104.106 49.5419 102.708 49.5726C101.311 49.588 99.8824 49.6648 98.4081 49.7416C98.2239 49.7416 98.0549 49.7416 97.9013 49.6801C97.7785 49.6341 97.671 49.588 97.5635 49.5112C96.6574 49.4805 95.7514 49.4958 94.8453 49.5266C93.8317 49.5726 92.726 49.6494 91.6049 49.7262H91.5896C91.0982 49.7569 90.7603 49.6187 90.5607 49.3884C88.595 49.7262 86.3682 49.9105 84.2182 49.7416C82.7439 49.6187 81.3003 49.3269 79.995 48.8048L79.9489 49.6187H78.9814C77.5072 49.5726 76.0329 49.5573 74.5586 49.5573C73.0843 49.5573 71.61 49.5573 70.1358 49.588H69.1529L69.1222 48.6205L69.0915 47.8987L67.9243 47.6991C67.5558 48.1444 67.0336 48.6973 66.0047 49.5726C65.4211 49.5726 64.8376 49.5726 64.254 49.5726C60.4915 49.5419 57.0669 49.5266 53.3351 49.7108L52.7669 49.7416L52.4444 49.2655C51.4462 47.7605 52.4137 49.2194 51.953 48.513C51.9069 48.4516 51.8608 48.3748 51.8301 48.3134C51.5844 48.6666 51.2619 49.0966 50.8166 49.6494C49.2501 49.588 47.6991 49.588 46.1634 49.6187C44.6277 49.6494 43.0612 49.6955 41.4795 49.7569L40.0205 49.803L40.4966 48.4208C41.0034 46.9159 41.5409 45.3802 42.1091 43.7369C42.5084 42.6005 42.9077 41.4948 43.2916 40.4198H0L13.0382 0.0460693L13.0689 0ZM129.506 30.3763L132.716 20.4249L133.146 19.1042L133.929 16.6164H129.506V30.3763Z" fill="black"/>
<path d="M151.866 35.1831L150.699 39.4063H105.918V15.6181C103.415 15.6181 100.927 15.6181 98.4235 15.6181C98.4081 23.5424 98.3774 31.4666 98.3467 39.4063C92.2346 37.5327 88.1343 37.4098 86.3989 39.4063H1.82749C5.91247 26.6138 9.99745 13.8367 14.0824 1.04428H31.9888C32.9256 4.1157 33.8316 7.20247 34.7684 10.2739C35.6898 7.20247 36.5806 4.1157 37.4866 1.04428H169.957C174.103 13.8367 178.25 26.6138 182.411 39.4063H159.33L158.07 35.1831M128.508 36.7955L128.877 35.6438L134.113 19.4574L135.465 15.5106H128.508V36.7955Z" fill="black"/>
<path fill-rule="evenodd" clip-rule="evenodd" d="M76.2786 17.2153H95.2753V23.696H76.2786V27.781H95.3674L95.4135 36.3809H59.0326C61.0905 29.9924 63.1329 23.6038 65.1908 17.2153M125.529 17.2153L125.575 36.3809H108.759V17.2153H125.529ZM153.816 17.2153L148.472 36.3809H131.579C133.637 29.9924 135.71 23.6038 137.768 17.2153H153.816ZM178.449 36.3963H161.464L160.205 32.1731H152.25L154.538 23.1585H158.393L156.473 17.2306H172.137C173.95 23.5578 176.376 30.0231 178.434 36.3963H178.449ZM55.224 36.3963H45.1344L45.1805 23.8803H43.7062L39.2834 36.3963H30.1613L25.7999 23.8803H24.341V36.3963H5.72819L11.8557 17.2306H61.4129C60.5683 19.8413 59.5701 22.9128 55.224 36.3963Z" fill="#DE127A"/>
<path fill-rule="evenodd" clip-rule="evenodd" d="M12.4392 15.3571L13.1917 13.0228L16.1403 3.77784H29.8081L33.2327 15.3417M76.2786 12.8999V15.3571H65.7744C67.0183 11.5024 68.2468 7.64782 69.4908 3.7932H99.6674L96.7649 12.8999H76.2786ZM125.513 12.8999V15.3571H108.759V12.8999H100.343L103.276 3.77784H138.843L135.864 12.8999H125.513ZM138.367 15.3571C139.611 11.5024 140.855 7.64782 142.099 3.7932H167.853L171.569 15.3571H138.367ZM36.1966 15.3571C37.333 11.5024 38.4695 7.64782 39.6059 3.7932H65.759C63.5783 10.5503 62.6722 13.376 62.0272 15.3571H36.1966Z" fill="#7D5C9C"/>
<path d="M93.9546 39.1145C92.2192 38.577 90.0232 38.193 88.1496 39.007C86.5525 39.7134 86.2607 41.1416 88.3032 41.3412C90.1307 41.5255 93.0485 40.8959 93.4478 40.8498C93.6321 40.2816 93.7549 39.6827 93.9699 39.1145M41.4795 48.7434C43.3991 43.0919 45.3801 37.4713 47.6991 31.9581C50.2483 31.4359 52.7823 31.0674 55.393 31.0213C57.6965 30.9752 60.4608 31.1442 62.4879 32.4342C63.7472 33.2327 64.6226 34.3384 64.9297 35.8127L65.0065 36.1659H65.3751C66.2811 35.0141 67.1718 33.847 68.1086 32.7106C68.7383 31.9427 69.4293 31.5434 70.4122 31.4359C73.33 31.1134 76.0329 31.3131 78.92 31.7431C79.0429 33.0024 79.1657 34.2616 79.2425 35.5209C82.2832 32.342 86.445 31.0213 90.8064 31.0981C92.7414 31.1288 94.7224 31.4359 96.6881 31.9734L96.811 31.6663C100.005 31.2209 103.031 31.2824 106.225 31.3591C108.252 31.2056 110.295 31.2824 112.322 31.3284C112.997 32.8641 113.704 34.3998 114.426 35.9048C114.963 34.4766 115.547 33.0638 116.146 31.6509C119.586 31.1595 122.811 31.2824 126.281 31.3591L125.575 32.987C131.088 29.9002 137.031 31.052 142.683 32.8181C141.777 34.7991 140.87 36.5806 139.611 38.3773C138.997 40.942 138.275 43.4298 137.507 45.933C137.4 46.2862 137.246 46.9926 136.97 47.3766C136.647 47.8219 135.403 48.1291 134.144 48.3441C131.487 48.7741 127.924 49.0966 124.914 48.3287C123.317 47.9294 121.628 47.1462 120.599 45.8102C120.277 46.6855 119.954 47.5609 119.632 48.4362C116.821 48.6973 114.149 48.7126 111.339 48.4823C110.463 47.0387 109.603 45.5952 108.759 44.1362C108.206 45.6412 107.653 47.1462 107.1 48.6512C104.075 48.4362 101.295 48.5591 98.3467 48.7126C98.1471 48.7126 98.0549 48.6051 98.0856 48.4976C95.8896 48.3748 93.7242 48.5437 91.5435 48.6973C91.1442 48.7126 91.221 48.4209 91.2671 48.2059C87.5507 48.9584 82.4675 49.2194 79.0889 47.223L78.9968 48.5744C76.0329 48.513 73.0843 48.5284 70.1204 48.5744L70.059 47.0234L67.4943 46.5934C67.0029 47.2384 66.4961 47.8987 66.0047 48.5437C61.5204 48.513 57.6044 48.4516 53.289 48.6666C52.6441 47.6991 52.383 47.3152 51.7687 46.3477C51.4616 47.1002 51.1544 47.8526 50.8473 48.6051C47.6991 48.4977 44.5816 48.6051 41.4334 48.6973L41.4795 48.7434Z" fill="black"/>
<path fill-rule="evenodd" clip-rule="evenodd" d="M115.808 37.763C116.33 36.3195 116.883 34.9066 117.482 33.4938C119.478 33.2173 121.505 33.2481 123.517 33.3095C122.78 35.0295 122.166 36.5038 121.659 37.763M103.368 37.763C103.891 36.3195 104.443 34.8913 105.042 33.4938C106.578 33.2788 107.991 33.2788 109.481 33.2788H109.573C110.095 33.2788 110.617 33.2788 111.139 33.3095C111.799 34.7838 112.491 36.2734 113.228 37.763H103.368ZM96.4578 37.763C96.9799 36.3195 97.5328 34.8913 98.1317 33.4938C99.0992 33.3556 100.113 33.2788 101.142 33.2788C102.171 33.2788 103.184 33.2788 104.167 33.3095C103.522 34.7991 102.923 36.2888 102.355 37.763H96.4578ZM79.9643 37.763C80.3482 37.2255 80.7475 36.7495 81.1775 36.3502C82.3139 35.2752 83.7114 34.4459 85.2318 33.9084C88.7793 32.6799 92.941 32.8488 96.9799 34.1081C96.381 35.4134 95.4749 36.7188 94.876 37.5634C92.9564 37.0873 89.455 36.1352 86.9364 37.4713C86.7982 37.548 86.6446 37.6402 86.5064 37.7477H79.9643V37.763ZM77.4764 37.763C77.4304 35.8281 77.3536 34.1848 77.2307 33.4938C74.9425 33.1559 72.4393 33.1713 69.9822 33.4938C68.9225 34.7991 67.8015 36.212 66.619 37.763H77.4764ZM63.0715 37.763C63.3172 36.7956 63.1483 35.7666 62.3651 34.8145C61.8429 34.277 61.2133 33.8931 60.4762 33.632C57.5122 32.6184 53.3351 33.0331 50.3712 33.4784C49.8337 33.5552 49.3884 33.632 49.0198 33.7088C48.4516 35.0602 47.8987 36.4116 47.3766 37.7784H53.0433C53.1355 37.5788 53.2276 37.3945 53.3658 37.1641C54.5023 37.2255 55.4237 37.1948 56.038 37.3484C56.4526 37.4559 56.7137 37.5941 56.8672 37.763H63.0715ZM123.164 37.763C123.548 37.2102 123.962 36.7188 124.346 36.3502C125.483 35.2752 126.88 34.4459 128.401 33.9084C131.948 32.6799 136.11 32.8488 140.149 34.1081C139.55 35.4134 138.644 36.7188 138.045 37.5634C136.125 37.0873 132.624 36.1352 130.105 37.4713C129.952 37.5634 129.798 37.6555 129.66 37.7477H123.164V37.763Z" fill="#C2C2C2"/>
<path fill-rule="evenodd" clip-rule="evenodd" d="M98.9763 46.8391C97.2103 46.7162 95.4135 46.7162 93.6474 46.8391C94.3692 44.1516 95.1678 41.4795 96.0739 38.8534H101.925C100.911 41.4948 99.9746 44.1516 98.9763 46.8391ZM85.4314 42.708C87.2282 43.783 91.1596 43.1687 93.0792 42.8923C92.895 43.5987 92.6799 45.2112 92.3267 46.2248C89.5164 46.9619 86.445 47.223 83.9418 46.9159C82.1143 46.7009 80.425 46.1941 79.3654 45.2727C78.4132 44.428 78.0754 43.1227 78.2597 41.6945C78.3825 40.773 78.7511 39.7748 79.2732 38.8534H85.4007C84.4178 40.1127 83.8957 41.8019 85.4314 42.708ZM60.1997 46.8391C61.6894 46.793 62.9026 46.8391 65.1293 46.8391C65.6668 46.1326 66.2044 45.4262 66.7418 44.7351L71.9172 45.6105C71.9172 46.0251 71.9479 46.4244 71.9633 46.8391C73.8368 46.8084 75.6336 46.8084 77.2922 46.8391C77.4611 45.288 77.5225 41.8787 77.4918 38.8534H71.6715C71.7175 40.0359 71.7636 41.2337 71.8097 42.4162L68.8765 41.9248L71.1954 38.8534H65.7897C64.0697 41.1723 62.2115 43.8137 60.1844 46.8391H60.1997ZM44.1055 46.9619C45.8562 46.9619 47.5609 46.8544 49.6494 46.8544C50.2791 45.3187 50.6323 44.5048 51.2312 42.923C51.2619 42.923 51.3541 42.9384 51.4923 42.9537C51.6305 42.9537 51.738 42.9537 51.7994 42.9537C52.5519 44.3205 53.4426 45.6105 54.3026 46.9005C56.2069 46.8084 58.1112 46.7776 60.0154 46.7776C59.1401 45.3187 58.2801 43.8445 57.4201 42.3702C58.4644 42.1245 59.3551 41.802 60.1076 41.4027C61.1058 40.8037 62.0733 39.8977 62.6569 38.8534H56.8672C56.7444 39.0377 56.5755 39.2066 56.3912 39.3448C55.393 40.128 53.4119 40.1434 52.2141 40.0513C52.383 39.5598 52.5212 39.1759 52.6441 38.8534H46.9926C45.9791 41.5409 45.0423 44.2437 44.1362 46.9619H44.1055ZM135.388 46.2555C132.608 46.9773 129.568 47.2076 127.111 46.9159C125.283 46.7009 123.594 46.1941 122.534 45.2727C120.768 43.7216 121.336 41.0034 122.488 38.8534H128.508C127.848 39.7288 127.556 40.7577 127.756 41.5716C128.017 42.6466 129.076 43.0919 130.09 43.2148C130.904 43.3069 131.748 43.2148 132.255 43.138C132.393 42.6159 132.501 42.2473 132.639 41.7252C131.672 41.7252 130.75 41.802 129.829 41.8941C129.982 41.157 130.167 40.3891 130.52 39.483C132.946 39.1452 135.28 39.0377 137.584 39.007C136.739 42.5852 136.125 44.2744 135.557 46.0559C135.511 46.2094 135.495 46.2248 135.357 46.2709L135.388 46.2555ZM107.131 43.4144C106.732 44.5355 106.317 45.6719 105.887 46.8391C104.121 46.7162 102.324 46.7162 100.558 46.8391C101.28 44.1516 102.078 41.4795 102.985 38.8534H113.75C114.072 39.5291 114.41 40.1895 114.748 40.8652C114.963 40.1895 115.193 39.5291 115.424 38.8534H121.229C120.169 41.5716 119.708 43.0152 119.57 43.4144C119.171 44.5355 118.756 45.6719 118.326 46.8391C118.142 46.8391 117.973 46.8084 117.789 46.8084C117.789 46.8084 117.789 46.8391 117.804 46.8391C115.762 46.9005 113.965 46.9312 112.475 46.8391C111.093 44.5662 109.757 42.278 108.375 40.0052C107.96 41.1416 107.546 42.278 107.131 43.4298V43.4144Z" fill="white"/>
</svg>
