<svg width="165" height="55" viewBox="0 0 165 55" fill="none" xmlns="http://www.w3.org/2000/svg">
<path d="M164.972 0.00010758L0 4.11564L12.0664 46.1447L137.844 54.2085L164.972 0.00010758Z" fill="#7D5C9C"/>
<path d="M22.5596 40.0649L24.2821 29.6398H25.9138C26.5106 29.3074 27.0772 28.839 27.6136 28.2347C28.1575 27.6303 28.6787 26.7653 29.1773 25.6397C29.6759 24.5141 30.1594 23.007 30.6278 21.1184L33.0301 11.2825H49.4384L46.4015 29.6398H48.8491L47.1267 40.0649H41.0529L41.9595 34.4897H29.54L28.6334 40.0649H22.5596ZM33.1208 29.6398H40.3277L42.5034 16.3591H37.8347L36.7016 21.1184C36.3616 22.5386 35.9952 23.7813 35.6024 24.8465C35.2096 25.9041 34.8016 26.8258 34.3786 27.6114C33.9631 28.3895 33.5438 29.0657 33.1208 29.6398ZM47.9353 41.0168L51.9468 17.0843H58.1565L57.6579 20.1212H57.7939C58.1112 19.5319 58.5267 18.9918 59.0404 18.5008C59.5616 18.0022 60.1736 17.6055 60.8761 17.3109C61.5862 17.0087 62.3719 16.8577 63.2331 16.8577C64.3814 16.8577 65.4201 17.1636 66.3493 17.7755C67.2785 18.3874 67.9622 19.3506 68.4004 20.6651C68.8385 21.9796 68.8838 23.6869 68.5363 25.787C68.2039 27.7965 67.6109 29.4623 66.7573 30.7843C65.9112 32.1063 64.914 33.0922 63.7657 33.7419C62.625 34.3915 61.4352 34.7164 60.1962 34.7164C59.3803 34.7164 58.674 34.5842 58.0772 34.3198C57.4804 34.0478 57.0007 33.6814 56.6381 33.2206C56.2755 32.7522 56.0262 32.2234 55.8902 31.6342H55.7542L54.2131 41.0168H47.9353ZM56.6154 25.787C56.4794 26.6331 56.4681 27.3659 56.5814 27.9854C56.7023 28.5973 56.9403 29.0732 57.2953 29.4132C57.6579 29.7456 58.1263 29.9117 58.7004 29.9117C59.2746 29.9117 59.7883 29.7493 60.2415 29.4245C60.6948 29.0921 61.0801 28.6199 61.3974 28.008C61.7147 27.3886 61.9489 26.6482 62.0999 25.787C62.2359 24.9258 62.2473 24.1893 62.1339 23.5773C62.0206 22.9579 61.7902 22.4857 61.4427 22.1609C61.0952 21.8285 60.6344 21.6623 60.0602 21.6623C59.4861 21.6623 58.9611 21.8285 58.4851 22.1609C58.0168 22.4857 57.6202 22.9579 57.2953 23.5773C56.978 24.1893 56.7514 24.9258 56.6154 25.787ZM75.6765 26.5122L82.1129 17.0843H88.0054L85.1045 34.4897H79.212L80.7985 25.0165L74.3621 34.4897H68.4696L71.3705 17.0843H77.263L75.6765 26.5122ZM95.2023 40.3822L100.007 11.2825H106.262L101.457 40.3822H95.2023ZM96.1088 34.807C94.681 34.807 93.4081 34.588 92.29 34.1498C91.172 33.7116 90.239 33.0922 89.4911 32.2914C88.7508 31.4906 88.2333 30.5425 87.9387 29.4471C87.644 28.3518 87.6025 27.1468 87.814 25.8323C88.0331 24.5179 88.4712 23.3129 89.1285 22.2175C89.7857 21.1221 90.6167 20.1741 91.6215 19.3733C92.6262 18.5725 93.7631 17.9531 95.0323 17.5149C96.309 17.0767 97.665 16.8577 99.1004 16.8577H100.052L97.0607 34.807H96.1088ZM96.8794 30.1384H97.4686L98.9191 21.5263H98.3298C97.8463 21.5263 97.3817 21.6321 96.936 21.8436C96.4979 22.0476 96.0975 22.3422 95.7349 22.7275C95.3722 23.1127 95.0663 23.5698 94.817 24.0986C94.5752 24.6199 94.4015 25.1978 94.2957 25.8323C94.1597 26.6784 94.1786 27.4263 94.3524 28.076C94.5337 28.7181 94.8396 29.2243 95.2703 29.5945C95.7084 29.9571 96.2448 30.1384 96.8794 30.1384ZM102.364 34.807H101.412L104.404 16.8577H105.355C106.783 16.8577 108.056 17.0767 109.174 17.5149C110.292 17.9531 111.221 18.5725 111.962 19.3733C112.71 20.1741 113.231 21.1221 113.526 22.2175C113.828 23.3129 113.869 24.5179 113.65 25.8323C113.439 27.1468 113.001 28.3518 112.336 29.4471C111.679 30.5425 110.848 31.4906 109.843 32.2914C108.838 33.0922 107.701 33.7116 106.432 34.1498C105.163 34.588 103.807 34.807 102.364 34.807ZM103.134 30.1384C103.625 30.1384 104.09 30.0364 104.528 29.8324C104.966 29.6209 105.367 29.3225 105.729 28.9372C106.092 28.5519 106.398 28.0987 106.647 27.5774C106.897 27.0486 107.07 26.4669 107.169 25.8323C107.304 24.9862 107.282 24.2421 107.101 23.6C106.927 22.9503 106.621 22.4442 106.183 22.0816C105.752 21.7114 105.219 21.5263 104.585 21.5263H103.996L102.545 30.1384H103.134ZM114.258 21.7529L115.028 17.0843H131.89L131.119 21.7529H125.589L123.459 34.4897H117.567L119.697 21.7529H114.258Z" fill="white"/>
</svg>
