<svg width="319" height="55" viewBox="0 0 319 55" fill="none" xmlns="http://www.w3.org/2000/svg">
<path d="M318.122 0L0 3.19942L12.0663 45.2285L290.995 54.2084L318.122 0Z" fill="white"/>
<path d="M22.5592 39.146L24.2816 28.7208H25.9133C26.5101 28.3884 27.0767 27.9201 27.6131 27.3157C28.157 26.7114 28.6783 25.8464 29.1769 24.7208C29.6754 23.5951 30.1589 22.088 30.6273 20.1994L33.0296 10.3635H49.4379L46.401 28.7208H48.8486L47.1262 39.146H41.0525L41.959 33.5708H29.5395L28.6329 39.146H22.5592ZM33.1203 28.7208H40.3272L42.5029 15.4401H37.8343L36.7011 20.1994C36.3611 21.6197 35.9947 22.8624 35.6019 23.9275C35.2091 24.9852 34.8011 25.9068 34.3781 26.6925C33.9626 27.4706 33.5433 28.1467 33.1203 28.7208ZM53.782 33.8428C52.6791 33.8428 51.731 33.6615 50.9378 33.2988C50.1521 32.9287 49.578 32.3696 49.2153 31.6218C48.8603 30.8663 48.781 29.9144 48.9774 28.7662C49.136 27.8143 49.4344 27.0022 49.8726 26.3299C50.3107 25.6575 50.8547 25.106 51.5043 24.6754C52.154 24.2448 52.883 23.9162 53.6914 23.6896C54.5072 23.4554 55.3684 23.3043 56.275 23.2363C57.2571 23.1608 58.054 23.0663 58.666 22.953C59.2779 22.8397 59.7349 22.6848 60.0371 22.4884C60.3393 22.292 60.5206 22.0276 60.581 21.6952V21.6499C60.649 21.1966 60.5281 20.8491 60.2184 20.6074C59.9162 20.3656 59.4932 20.2447 58.9492 20.2447C58.36 20.2447 57.8501 20.3732 57.4195 20.63C56.9964 20.8869 56.7056 21.2873 56.5469 21.8312H50.7904C51.0322 20.7736 51.527 19.799 52.2749 18.9076C53.0303 18.0086 54.0313 17.291 55.2778 16.7546C56.5318 16.2107 58.0276 15.9387 59.7651 15.9387C61.0041 15.9387 62.0919 16.086 63.0287 16.3806C63.9654 16.6677 64.7397 17.0719 65.3516 17.5931C65.9711 18.1068 66.4055 18.7112 66.6548 19.4062C66.9116 20.0937 66.9721 20.8416 66.8361 21.6499L64.8417 33.5708H58.9946L59.4025 31.1232H59.2665C58.8133 31.7728 58.3033 32.2979 57.7368 32.6983C57.1777 33.0986 56.5658 33.3895 55.901 33.5708C55.2438 33.7521 54.5374 33.8428 53.782 33.8428ZM56.5016 29.8993C56.97 29.8993 57.4308 29.8011 57.8841 29.6047C58.3373 29.4083 58.7264 29.125 59.0512 28.7548C59.3761 28.3847 59.5838 27.9352 59.6745 27.4064L59.9011 25.9559C59.7349 26.0239 59.5498 26.0881 59.3459 26.1486C59.1494 26.2014 58.9417 26.2543 58.7226 26.3072C58.5111 26.3601 58.2845 26.4092 58.0427 26.4545C57.8085 26.4998 57.5668 26.5452 57.3175 26.5905C56.8189 26.666 56.3996 26.7907 56.0597 26.9644C55.7197 27.1306 55.4553 27.3384 55.2665 27.5877C55.0776 27.8294 54.9605 28.1014 54.9152 28.4036C54.8472 28.8795 54.9567 29.2497 55.2438 29.5141C55.5384 29.7709 55.9577 29.8993 56.5016 29.8993ZM65.8741 33.5708L66.5994 28.8568H67.1433C67.4832 28.8568 67.8005 28.7586 68.0952 28.5622C68.3898 28.3658 68.6655 28.0636 68.9224 27.6557C69.1792 27.2477 69.4134 26.7302 69.6249 26.1032C69.844 25.4762 70.0442 24.7321 70.2255 23.8709L71.7666 16.1653H86.0899L83.1889 33.5708H77.2965L79.4268 20.834H76.5259L75.4834 25.548C75.1586 27.0286 74.7355 28.2827 74.2143 29.3101C73.7006 30.3375 73.1075 31.1647 72.4352 31.7917C71.7628 32.4112 71.0263 32.8645 70.2255 33.1515C69.4323 33.431 68.5862 33.5708 67.6872 33.5708H65.8741ZM90.5756 20.8793H95.9242C98.3945 20.8793 100.249 21.4535 101.488 22.6017C102.727 23.7425 103.184 25.3138 102.859 27.3157C102.64 28.6075 102.126 29.7218 101.318 30.6586C100.517 31.5953 99.4785 32.3168 98.2018 32.8229C96.9251 33.3215 95.4558 33.5708 93.7938 33.5708H84.9551L87.856 16.1653H93.7485L91.6181 28.9021H94.5644C95.2141 28.9021 95.7693 28.7511 96.2301 28.4489C96.6985 28.1392 96.9742 27.7463 97.0573 27.2704C97.1404 26.7642 97.0007 26.3525 96.6381 26.0352C96.2755 25.7104 95.7806 25.548 95.1536 25.548H89.8051L90.5756 20.8793ZM117.495 22.4658L116.725 27.1344H107.977L108.747 22.4658H117.495ZM112.011 16.1653L109.11 33.5708H103.217L106.118 16.1653H112.011ZM122.209 16.1653L119.308 33.5708H113.461L116.362 16.1653H122.209ZM129.369 33.8881C127.481 33.8881 125.924 33.5141 124.701 32.7663C123.484 32.0108 122.631 30.9607 122.14 29.616C121.649 28.2638 121.55 26.6963 121.845 24.9134C122.14 23.1305 122.755 21.5668 123.692 20.2221C124.629 18.8698 125.834 17.8198 127.307 17.0719C128.78 16.3164 130.465 15.9387 132.361 15.9387C134.242 15.9387 135.791 16.3164 137.007 17.0719C138.231 17.8198 139.088 18.8698 139.579 20.2221C140.078 21.5668 140.18 23.1305 139.885 24.9134C139.59 26.6963 138.971 28.2638 138.027 29.616C137.082 30.9607 135.874 32.0108 134.401 32.7663C132.935 33.5141 131.258 33.8881 129.369 33.8881ZM130.14 29.2648C130.684 29.2648 131.179 29.0872 131.624 28.7322C132.078 28.3771 132.463 27.871 132.78 27.2137C133.105 26.5565 133.343 25.7746 133.494 24.8681C133.645 23.954 133.668 23.1721 133.562 22.5224C133.456 21.8652 133.237 21.359 132.905 21.004C132.572 20.6489 132.134 20.4714 131.59 20.4714C131.046 20.4714 130.548 20.6489 130.095 21.004C129.641 21.359 129.256 21.8652 128.939 22.5224C128.621 23.1721 128.387 23.954 128.236 24.8681C128.085 25.7746 128.059 26.5565 128.157 27.2137C128.263 27.871 128.482 28.3771 128.814 28.7322C129.154 29.0872 129.596 29.2648 130.14 29.2648ZM159.278 9.86493L160.139 14.035C159.61 14.3674 159.066 14.628 158.507 14.8169C157.948 14.9982 157.264 15.1266 156.456 15.2022C155.648 15.2701 154.609 15.3041 153.34 15.3041C151.904 15.3041 150.718 15.4703 149.782 15.8027C148.852 16.1351 148.097 16.6979 147.515 17.4912C146.941 18.2844 146.465 19.3684 146.088 20.7433H146.224C146.881 19.7008 147.7 18.8661 148.683 18.239C149.672 17.612 150.938 17.2985 152.479 17.2985C154.035 17.2985 155.323 17.6271 156.343 18.2844C157.363 18.9416 158.08 19.867 158.496 21.0606C158.911 22.2542 158.991 23.6594 158.734 25.276C158.432 27.0135 157.812 28.5282 156.875 29.82C155.946 31.1118 154.749 32.1128 153.283 32.8229C151.825 33.533 150.152 33.8881 148.263 33.8881C146.375 33.8881 144.815 33.5179 143.583 32.7776C142.359 32.0372 141.506 30.9494 141.022 29.5141C140.546 28.0787 140.482 26.3185 140.83 24.2335L141.011 23.1003C141.759 18.681 143.221 15.4552 145.396 13.4231C147.572 11.3834 150.416 10.3635 153.929 10.3635C154.745 10.3635 155.489 10.3635 156.161 10.3635C156.834 10.3635 157.431 10.3295 157.952 10.2615C158.473 10.1936 158.915 10.0613 159.278 9.86493ZM149.079 29.2648C149.608 29.2648 150.088 29.1212 150.518 28.8342C150.956 28.5395 151.327 28.1165 151.629 27.565C151.938 27.006 152.161 26.3336 152.297 25.548C152.418 24.7472 152.418 24.0673 152.297 23.5083C152.176 22.9492 151.946 22.5224 151.606 22.2278C151.266 21.9332 150.832 21.7859 150.303 21.7859C149.887 21.7859 149.498 21.869 149.136 22.0352C148.781 22.2014 148.46 22.4469 148.173 22.7717C147.893 23.089 147.655 23.4818 147.459 23.9502C147.27 24.411 147.13 24.9436 147.039 25.548C146.835 26.7265 146.915 27.6406 147.277 28.2902C147.64 28.9399 148.241 29.2648 149.079 29.2648ZM167.327 33.8881C165.439 33.8881 163.882 33.5141 162.659 32.7663C161.442 32.0108 160.589 30.9607 160.098 29.616C159.607 28.2638 159.508 26.6963 159.803 24.9134C160.098 23.1305 160.713 21.5668 161.65 20.2221C162.587 18.8698 163.792 17.8198 165.265 17.0719C166.738 16.3164 168.423 15.9387 170.319 15.9387C172.2 15.9387 173.748 16.3164 174.965 17.0719C176.189 17.8198 177.046 18.8698 177.537 20.2221C178.036 21.5668 178.138 23.1305 177.843 24.9134C177.548 26.6963 176.929 28.2638 175.985 29.616C175.04 30.9607 173.832 32.0108 172.358 32.7663C170.893 33.5141 169.216 33.8881 167.327 33.8881ZM168.098 29.2648C168.642 29.2648 169.137 29.0872 169.582 28.7322C170.035 28.3771 170.421 27.871 170.738 27.2137C171.063 26.5565 171.301 25.7746 171.452 24.8681C171.603 23.954 171.626 23.1721 171.52 22.5224C171.414 21.8652 171.195 21.359 170.863 21.004C170.53 20.6489 170.092 20.4714 169.548 20.4714C169.004 20.4714 168.506 20.6489 168.052 21.004C167.599 21.359 167.214 21.8652 166.897 22.5224C166.579 23.1721 166.345 23.954 166.194 24.8681C166.043 25.7746 166.017 26.5565 166.115 27.2137C166.22 27.871 166.44 28.3771 166.772 28.7322C167.112 29.0872 167.554 29.2648 168.098 29.2648ZM184.907 25.5933L191.343 16.1653H197.236L194.335 33.5708H188.442L190.029 24.0975L183.592 33.5708H177.7L180.601 16.1653H186.493L184.907 25.5933ZM192.159 9.91026H196.102C195.853 11.3834 195.098 12.5619 193.836 13.4457C192.574 14.3221 190.996 14.7602 189.099 14.7602C187.188 14.7602 185.745 14.3221 184.771 13.4457C183.796 12.5619 183.434 11.3834 183.683 9.91026H187.581C187.505 10.3862 187.607 10.8243 187.887 11.2247C188.174 11.6176 188.737 11.814 189.575 11.814C190.391 11.814 191.003 11.6213 191.411 11.2361C191.819 10.8508 192.068 10.4089 192.159 9.91026ZM226.779 28.9021L224.829 38.5567H219.3L220.115 33.5708H218.393L219.164 28.9021H226.779ZM199.175 16.1653H205.067L202.937 28.8568H206.744L208.874 16.1653H214.767L212.637 28.8568H216.444L218.574 16.1653H224.467L221.566 33.5708H196.274L199.175 16.1653ZM234.145 25.5933L240.582 16.1653H246.474L243.573 33.5708H237.681L239.267 24.0975L232.831 33.5708H226.938L229.839 16.1653H235.732L234.145 25.5933ZM245.512 33.5708L248.413 16.1653H254.668L253.626 22.3751H254.714L259.473 16.1653H266.635L259.609 24.9587L263.779 33.5708H256.527L254.079 28.1769H252.674L251.767 33.5708H245.512ZM271.2 25.5933L277.636 16.1653H283.528L280.628 33.5708H274.735L276.322 24.0975L269.885 33.5708H263.993L266.894 16.1653H272.786L271.2 25.5933Z" fill="#040A0F"/>
</svg>
