<svg width="161" height="55" viewBox="0 0 161 55" fill="none" xmlns="http://www.w3.org/2000/svg">
<path d="M160.918 2.36102e-05L0 7.41958L12.0664 49.4486L133.79 54.2085L160.918 2.36102e-05Z" fill="white"/>
<path d="M22.5596 43.3682L24.2821 32.943H25.9138C26.5106 32.6106 27.0772 32.1422 27.6136 31.5379C28.1575 30.9335 28.6787 30.0685 29.1773 28.9429C29.6759 27.8173 30.1594 26.3102 30.6278 24.4216L33.0301 14.5857H49.4384L46.4015 32.943H48.8491L47.1267 43.3682H41.0529L41.9595 37.793H29.54L28.6334 43.3682H22.5596ZM33.1208 32.943H40.3277L42.5034 19.6623H37.8347L36.7016 24.4216C36.3616 25.8418 35.9952 27.0845 35.6024 28.1497C35.2096 29.2073 34.8016 30.129 34.3786 30.9146C33.9631 31.6927 33.5438 32.3689 33.1208 32.943ZM57.2726 38.1103C55.4143 38.1103 53.8731 37.7552 52.6493 37.0451C51.4255 36.3274 50.5643 35.3 50.0657 33.9629C49.5671 32.6182 49.4765 31.0091 49.7937 29.1356C50.0959 27.3376 50.7192 25.7663 51.6635 24.4216C52.6153 23.0769 53.8127 22.0306 55.2556 21.2827C56.7061 20.5348 58.3303 20.1609 60.1282 20.1609C61.4427 20.1609 62.5948 20.3649 63.5844 20.7728C64.5816 21.1807 65.3937 21.7738 66.0207 22.5519C66.6477 23.33 67.0708 24.2705 67.2898 25.3735C67.5165 26.4688 67.5165 27.7078 67.2898 29.0902L67.0632 30.5407H51.5162L52.0601 27.0959H61.8506C61.9262 26.5973 61.8771 26.1591 61.7033 25.7814C61.5371 25.3961 61.269 25.0977 60.8988 24.8862C60.5362 24.6671 60.098 24.5576 59.5843 24.5576C59.0706 24.5576 58.5871 24.6671 58.1339 24.8862C57.6881 25.1053 57.3066 25.4112 56.9894 25.8041C56.6796 26.1969 56.4719 26.6577 56.3661 27.1865L55.6862 30.8127C55.5956 31.3717 55.6296 31.8703 55.7882 32.3084C55.9468 32.7466 56.2226 33.0903 56.6154 33.3396C57.0082 33.5889 57.5144 33.7136 58.1339 33.7136C58.5569 33.7136 58.9573 33.6569 59.335 33.5436C59.7203 33.4227 60.0602 33.249 60.3549 33.0223C60.657 32.7881 60.8988 32.5049 61.0801 32.1725H66.7913C66.3833 33.3812 65.7374 34.4312 64.8535 35.3227C63.9772 36.2065 62.8969 36.894 61.6127 37.385C60.336 37.8685 58.8893 38.1103 57.2726 38.1103ZM66.0729 44.32L70.0844 20.3875H76.2941L75.7955 23.4244H75.9315C76.2488 22.8352 76.6643 22.295 77.178 21.804C77.6992 21.3054 78.3111 20.9088 79.0137 20.6141C79.7238 20.312 80.5095 20.1609 81.3707 20.1609C82.519 20.1609 83.5577 20.4668 84.4869 21.0787C85.4161 21.6907 86.0998 22.6538 86.5379 23.9683C86.9761 25.2828 87.0214 26.9901 86.6739 29.0902C86.3415 31.0997 85.7485 32.7655 84.8949 34.0875C84.0488 35.4095 83.0516 36.3954 81.9033 37.0451C80.7626 37.6948 79.5727 38.0196 78.3338 38.0196C77.5179 38.0196 76.8116 37.8874 76.2148 37.623C75.618 37.351 75.1383 36.9846 74.7757 36.5238C74.4131 36.0554 74.1638 35.5266 74.0278 34.9374H73.8918L72.3507 44.32H66.0729ZM74.753 29.0902C74.617 29.9363 74.6057 30.6691 74.719 31.2886C74.8399 31.9005 75.0778 32.3764 75.4329 32.7164C75.7955 33.0488 76.2639 33.215 76.838 33.215C77.4122 33.215 77.9259 33.0526 78.3791 32.7277C78.8324 32.3953 79.2177 31.9232 79.535 31.3113C79.8523 30.6918 80.0864 29.9514 80.2375 29.0902C80.3735 28.229 80.3848 27.4925 80.2715 26.8806C80.1582 26.2611 79.9278 25.7889 79.5803 25.4641C79.2328 25.1317 78.772 24.9655 78.1978 24.9655C77.6237 24.9655 77.0987 25.1317 76.6227 25.4641C76.1544 25.7889 75.7577 26.2611 75.4329 26.8806C75.1156 27.4925 74.889 28.229 74.753 29.0902ZM106.143 14.0871L107.004 18.2572C106.475 18.5896 105.931 18.8502 105.372 19.039C104.813 19.2204 104.13 19.3488 103.321 19.4243C102.513 19.4923 101.474 19.5263 100.205 19.5263C98.7698 19.5263 97.5838 19.6925 96.647 20.0249C95.7179 20.3573 94.9624 20.9201 94.3807 21.7133C93.8066 22.5065 93.3306 23.5906 92.9529 24.9655H93.0889C93.7461 23.923 94.5658 23.0882 95.5479 22.4612C96.5375 21.8342 97.8029 21.5207 99.344 21.5207C100.9 21.5207 102.188 21.8493 103.208 22.5065C104.228 23.1638 104.946 24.0892 105.361 25.2828C105.777 26.4764 105.856 27.8815 105.599 29.4982C105.297 31.2357 104.677 32.7504 103.741 34.0422C102.811 35.334 101.614 36.335 100.149 37.0451C98.6905 37.7552 97.0172 38.1103 95.1286 38.1103C93.24 38.1103 91.68 37.7401 90.4486 36.9998C89.2248 36.2594 88.3711 35.1716 87.8877 33.7362C87.4117 32.3009 87.3475 30.5407 87.695 28.4557L87.8763 27.3225C88.6242 22.9031 90.086 19.6774 92.2617 17.6452C94.4374 15.6055 97.2816 14.5857 100.794 14.5857C101.61 14.5857 102.354 14.5857 103.027 14.5857C103.699 14.5857 104.296 14.5517 104.817 14.4837C105.338 14.4157 105.78 14.2835 106.143 14.0871ZM95.9445 33.4869C96.4733 33.4869 96.953 33.3434 97.3836 33.0563C97.8218 32.7617 98.1919 32.3387 98.4941 31.7872C98.8038 31.2282 99.0267 30.5558 99.1627 29.7701C99.2836 28.9694 99.2836 28.2895 99.1627 27.7304C99.0418 27.1714 98.8114 26.7446 98.4714 26.45C98.1315 26.1553 97.6971 26.008 97.1683 26.008C96.7528 26.008 96.3638 26.0911 96.0011 26.2573C95.6461 26.4235 95.325 26.669 95.038 26.9939C94.7584 27.3112 94.5205 27.704 94.3241 28.1724C94.1352 28.6332 93.9954 29.1658 93.9048 29.7701C93.7008 30.9486 93.7801 31.8627 94.1427 32.5124C94.5054 33.1621 95.1059 33.4869 95.9445 33.4869ZM113.105 29.8155L119.541 20.3875H125.434L122.533 37.793H116.64L118.227 28.3197L111.79 37.793H105.898L108.799 20.3875H114.691L113.105 29.8155Z" fill="#121212"/>
</svg>
