<svg width="98" height="32" viewBox="0 0 98 32" fill="none" xmlns="http://www.w3.org/2000/svg">
<path d="M97.7087 0L0 4.32755L7.08766 29.015L81.7742 31.8415L97.7087 0Z" fill="#7D5C9C"/>
<path d="M14.2632 22.5469L14.7025 19.8844L20.4933 15.6778C20.8794 15.3982 21.2122 15.1364 21.4918 14.8923C21.7757 14.6438 22.0043 14.3887 22.1773 14.1269C22.3504 13.8651 22.4635 13.5744 22.5168 13.2549C22.5745 12.9044 22.5479 12.6049 22.4369 12.3564C22.3304 12.1034 22.1574 11.9104 21.9177 11.7773C21.6781 11.6442 21.3897 11.5776 21.0524 11.5776C20.7108 11.5776 20.3979 11.6464 20.1139 11.7839C19.8299 11.9215 19.5925 12.1234 19.4017 12.3896C19.2154 12.6559 19.0911 12.9798 19.029 13.3614H15.5146C15.6743 12.403 16.0271 11.5776 16.5729 10.8854C17.1231 10.1931 17.8198 9.66063 18.6629 9.28789C19.5104 8.91515 20.4623 8.72878 21.5184 8.72878C22.61 8.72878 23.5285 8.90406 24.274 9.25461C25.0195 9.60073 25.5586 10.0888 25.8914 10.719C26.2287 11.3491 26.3241 12.0879 26.1777 12.9354C26.0889 13.4591 25.8914 13.9782 25.5853 14.493C25.2835 15.0077 24.7976 15.5801 24.1276 16.2103C23.462 16.8359 22.539 17.5814 21.3586 18.4467L19.9076 19.5117L19.8943 19.5916H25.2192L24.7266 22.5469H14.2632ZM26.2433 22.5469L33.352 11.9503L33.3786 11.8705H27.0953L27.5745 8.91515H37.6918L37.2126 11.8705L30.0506 22.5469H26.2433ZM41.5581 22.7332C40.462 22.7332 39.508 22.5646 38.6959 22.2274C37.8883 21.8857 37.2849 21.422 36.8855 20.8363C36.4861 20.2461 36.3486 19.5827 36.4728 18.8461C36.5704 18.287 36.799 17.7744 37.1584 17.3085C37.5223 16.8426 37.9704 16.4543 38.5029 16.1437C39.0354 15.8331 39.6012 15.6334 40.2002 15.5446V15.4381C39.4636 15.305 38.889 14.9589 38.4763 14.3998C38.0681 13.8407 37.9238 13.1839 38.0436 12.4296C38.159 11.7152 38.4874 11.0806 39.0288 10.5259C39.5746 9.96682 40.2668 9.52751 41.1055 9.20802C41.9486 8.88853 42.8716 8.72878 43.8744 8.72878C44.8773 8.72878 45.7448 8.89074 46.4769 9.21468C47.2091 9.53417 47.7549 9.97347 48.1144 10.5326C48.4738 11.0873 48.5958 11.7196 48.4804 12.4296C48.3562 13.1928 47.999 13.8518 47.4088 14.4064C46.8186 14.9611 46.1197 15.305 45.3121 15.4381V15.5446C45.8846 15.6334 46.3838 15.8331 46.8098 16.1437C47.2402 16.4499 47.5575 16.8359 47.7616 17.3019C47.9657 17.7678 48.0189 18.2825 47.9213 18.8461C47.7971 19.5782 47.4399 20.2394 46.8497 20.8296C46.2595 21.4153 45.5052 21.879 44.5866 22.2207C43.6725 22.5624 42.663 22.7332 41.5581 22.7332ZM41.9841 20.1773C42.3346 20.1773 42.6563 20.1063 42.9492 19.9643C43.2421 19.8179 43.4861 19.6204 43.6814 19.3719C43.8811 19.119 44.0075 18.8372 44.0608 18.5266C44.114 18.2071 44.083 17.9253 43.9676 17.6813C43.8522 17.4372 43.6681 17.2464 43.4151 17.1088C43.1666 16.9713 42.8671 16.9025 42.5166 16.9025C42.166 16.9025 41.8421 16.9735 41.5448 17.1155C41.2519 17.253 41.0078 17.4439 40.8126 17.6879C40.6173 17.932 40.4931 18.2115 40.4399 18.5266C40.3866 18.8416 40.4177 19.1256 40.533 19.3786C40.6528 19.6271 40.8392 19.8223 41.0921 19.9643C41.3451 20.1063 41.6424 20.1773 41.9841 20.1773ZM42.9425 14.3465C43.2532 14.3465 43.5372 14.2822 43.7945 14.1535C44.0563 14.0204 44.2738 13.8407 44.4468 13.6144C44.6199 13.3881 44.7308 13.1351 44.7796 12.8556C44.8284 12.5671 44.804 12.3142 44.7064 12.0968C44.6088 11.8749 44.4513 11.7018 44.2338 11.5776C44.0164 11.4533 43.7546 11.3912 43.4484 11.3912C43.1422 11.3912 42.856 11.4556 42.5898 11.5843C42.328 11.7085 42.1061 11.8816 41.9242 12.1034C41.7467 12.3209 41.6335 12.5716 41.5847 12.8556C41.5359 13.1396 41.5625 13.3947 41.6646 13.621C41.7666 13.8429 41.9264 14.0204 42.1438 14.1535C42.3657 14.2822 42.6319 14.3465 42.9425 14.3465ZM54.0856 22.9196C52.8431 22.9196 51.8159 22.6356 51.0038 22.0676C50.1918 21.4952 49.6305 20.6743 49.3198 19.6049C49.0092 18.5355 48.9826 17.253 49.24 15.7576C49.4973 14.2578 49.9566 12.9843 50.6178 11.937C51.2834 10.8898 52.1088 10.0933 53.0939 9.54748C54.0834 9.00168 55.195 8.72878 56.4286 8.72878C57.6622 8.72878 58.6828 9.00168 59.4904 9.54748C60.298 10.0933 60.8593 10.8898 61.1744 11.937C61.4894 12.9798 61.5227 14.2534 61.2742 15.7576C61.0257 17.2575 60.5687 18.5421 59.9031 19.6115C59.2419 20.6809 58.4143 21.4996 57.4203 22.0676C56.4308 22.6356 55.3192 22.9196 54.0856 22.9196ZM54.5915 19.9111C55.2305 19.9111 55.8029 19.5782 56.3088 18.9126C56.8191 18.2426 57.1962 17.1909 57.4403 15.7576C57.6 14.8258 57.6378 14.0625 57.5535 13.4679C57.4691 12.8689 57.2872 12.4274 57.0077 12.1434C56.7281 11.8549 56.3753 11.7107 55.9493 11.7107C55.3103 11.7107 54.729 12.0369 54.2054 12.6892C53.6862 13.337 53.3091 14.3599 53.0739 15.7576C52.9141 16.7161 52.8786 17.5015 52.9674 18.1139C53.0561 18.7263 53.2425 19.1789 53.5265 19.4717C53.8105 19.7646 54.1655 19.9111 54.5915 19.9111ZM72.4347 18.0207H64.9532L65.4324 15.1453H72.7808C73.2556 15.1453 73.6527 15.0876 73.9722 14.9722C74.2962 14.8524 74.5469 14.6793 74.7244 14.453C74.9063 14.2223 75.0217 13.9383 75.0705 13.6011C75.1282 13.2816 75.1082 12.9887 75.0106 12.7224C74.9174 12.4562 74.7421 12.2432 74.4848 12.0835C74.2318 11.9237 73.8946 11.8438 73.473 11.8438H71.4496L69.6657 22.5469H65.9915L68.2546 8.91515H73.9523C75.0749 8.91515 76.0245 9.11261 76.8011 9.50754C77.5821 9.90247 78.1478 10.4483 78.4984 11.1449C78.8534 11.8416 78.9532 12.6426 78.7979 13.5478C78.6426 14.524 78.2676 15.345 77.673 16.0106C77.0784 16.6717 76.3285 17.1732 75.4233 17.5149C74.518 17.8521 73.5218 18.0207 72.4347 18.0207ZM73.2866 18.6331L72.8074 21.5085H64.3941L64.8733 18.6331H73.2866Z" fill="white"/>
</svg>
