<svg width="93" height="32" viewBox="0 0 93 32" fill="none" xmlns="http://www.w3.org/2000/svg">
<path d="M93.0088 0L0 4.28813L7.08766 28.9756L77.0742 31.8415L93.0088 0Z" fill="#4EA8F3"/>
<path d="M23.209 8.87609L20.946 22.5078H17.2451L18.9491 12.284H18.8692L15.5944 14.0679L16.1003 10.9262L19.8011 8.87609H23.209ZM28.4797 22.6942C27.3704 22.6942 26.4186 22.51 25.6243 22.1417C24.83 21.769 24.2442 21.2565 23.8671 20.6042C23.4943 19.9519 23.3812 19.2019 23.5276 18.3544H27.2018C27.153 18.6162 27.1862 18.8514 27.3016 19.0599C27.4214 19.2641 27.6034 19.4238 27.8474 19.5392C28.0915 19.6546 28.3732 19.7122 28.6927 19.7122C29.0744 19.7122 29.4183 19.6346 29.7244 19.4793C30.0351 19.324 30.288 19.1221 30.4832 18.8736C30.6829 18.6251 30.8049 18.3633 30.8493 18.0882C30.8981 17.8042 30.8515 17.5734 30.7095 17.3959C30.5675 17.214 30.3568 17.0809 30.0772 16.9965C29.7977 16.9078 29.4693 16.8634 29.0921 16.8634H27.6278L28.0537 14.3075H29.3583C29.7355 14.3075 30.0816 14.2387 30.3967 14.1011C30.7118 13.9636 30.9736 13.775 31.1821 13.5354C31.3907 13.2913 31.5194 13.0162 31.5682 12.71C31.6081 12.4748 31.5881 12.2707 31.5083 12.0976C31.4328 11.9202 31.2975 11.7826 31.1023 11.685C30.9114 11.5873 30.6585 11.5385 30.3435 11.5385C30.0018 11.5385 29.6734 11.5984 29.3583 11.7182C29.0433 11.8381 28.7793 12.0045 28.5663 12.2175C28.3533 12.4305 28.2268 12.6745 28.1869 12.9496H24.6724C24.81 12.1154 25.1539 11.3788 25.7041 10.7398C26.2544 10.1008 26.9466 9.59938 27.7808 9.23552C28.6195 8.87165 29.5358 8.68972 30.5298 8.68972C31.5682 8.68972 32.4512 8.88052 33.179 9.26214C33.9067 9.64376 34.4414 10.1496 34.7831 10.7797C35.1248 11.4098 35.2335 12.0976 35.1092 12.8431C34.9761 13.6463 34.6145 14.2542 34.0243 14.6669C33.4341 15.0796 32.6953 15.3236 31.8078 15.3991V15.5056C32.7752 15.6165 33.5229 15.9715 34.0509 16.5706C34.579 17.1696 34.772 17.9062 34.63 18.7804C34.5102 19.5259 34.1663 20.1937 33.5983 20.7839C33.0303 21.3741 32.3026 21.84 31.4151 22.1817C30.532 22.5233 29.5536 22.6942 28.4797 22.6942ZM42.3751 8.68972C43.1916 8.68972 43.9437 8.82062 44.6315 9.08243C45.3193 9.34423 45.8984 9.75469 46.3688 10.3138C46.8392 10.8685 47.1609 11.5873 47.3339 12.4704C47.507 13.3534 47.487 14.4184 47.274 15.6653C47.0876 16.7614 46.7859 17.7443 46.3688 18.614C45.9561 19.4837 45.4458 20.2225 44.8379 20.8305C44.23 21.434 43.5444 21.8954 42.7811 22.2149C42.0223 22.5344 41.2036 22.6942 40.325 22.6942C39.3133 22.6942 38.448 22.5034 37.7291 22.1218C37.0147 21.7401 36.4756 21.2254 36.1117 20.5775C35.7523 19.9297 35.5948 19.2064 35.6391 18.4076H39.2334C39.229 18.8336 39.3577 19.1309 39.6195 19.2996C39.8857 19.4682 40.2008 19.5525 40.5647 19.5525C41.3723 19.5525 42.0334 19.1975 42.5482 18.4875C43.0629 17.7731 43.4223 16.8501 43.6265 15.7186L43.52 15.9049C43.2803 16.3221 42.9653 16.6726 42.5748 16.9566C42.1887 17.2406 41.7583 17.4558 41.2835 17.6023C40.8131 17.7487 40.325 17.8219 39.8192 17.8219C38.9761 17.8219 38.2661 17.6267 37.6892 17.2362C37.1123 16.8457 36.7019 16.3132 36.4578 15.6387C36.2138 14.9642 36.1627 14.201 36.3047 13.349C36.4645 12.4083 36.8261 11.5896 37.3897 10.8929C37.9532 10.1918 38.6654 9.65042 39.5263 9.2688C40.3872 8.88274 41.3368 8.68972 42.3751 8.68972ZM42.242 11.4853C41.8515 11.4853 41.4832 11.5785 41.1371 11.7648C40.791 11.9468 40.5025 12.1975 40.2718 12.517C40.041 12.832 39.899 13.1893 39.8458 13.5886C39.8014 13.9259 39.8303 14.2254 39.9323 14.4872C40.0344 14.749 40.203 14.9531 40.4382 15.0996C40.6734 15.246 40.964 15.3192 41.3101 15.3192C41.603 15.3192 41.8826 15.266 42.1488 15.1595C42.4151 15.053 42.6569 14.9065 42.8743 14.7202C43.0962 14.5293 43.2781 14.3053 43.4201 14.0479C43.5666 13.7905 43.662 13.5132 43.7063 13.2159C43.7596 12.8698 43.733 12.568 43.6265 12.3106C43.52 12.0488 43.3491 11.8469 43.1139 11.7049C42.8788 11.5585 42.5881 11.4853 42.242 11.4853ZM52.8592 22.8806C51.6168 22.8806 50.5895 22.5966 49.7774 22.0286C48.9654 21.4561 48.4041 20.6352 48.0935 19.5658C47.7828 18.4964 47.7562 17.214 48.0136 15.7186C48.2709 14.2187 48.7302 12.9452 49.3914 11.898C50.057 10.8507 50.8824 10.0542 51.8675 9.50842C52.857 8.96262 53.9686 8.68972 55.2022 8.68972C56.4358 8.68972 57.4564 8.96262 58.264 9.50842C59.0716 10.0542 59.6329 10.8507 59.948 11.898C60.263 12.9408 60.2963 14.2143 60.0478 15.7186C59.7993 17.2184 59.3423 18.503 58.6767 19.5725C58.0155 20.6419 57.1879 21.4606 56.1939 22.0286C55.2044 22.5966 54.0928 22.8806 52.8592 22.8806ZM53.3651 19.872C54.0041 19.872 54.5765 19.5392 55.0824 18.8736C55.5927 18.2035 55.9699 17.1519 56.2139 15.7186C56.3737 14.7867 56.4114 14.0235 56.3271 13.4289C56.2428 12.8298 56.0608 12.3883 55.7813 12.1043C55.5017 11.8159 55.1489 11.6717 54.7229 11.6717C54.084 11.6717 53.5027 11.9978 52.979 12.6501C52.4599 13.298 52.0827 14.3208 51.8475 15.7186C51.6878 16.6771 51.6523 17.4625 51.741 18.0748C51.8298 18.6872 52.0161 19.1398 52.3001 19.4327C52.5841 19.7256 52.9391 19.872 53.3651 19.872ZM71.2083 17.9817H63.7268L64.206 15.1062H71.5544C72.0292 15.1062 72.4263 15.0485 72.7458 14.9332C73.0698 14.8133 73.3205 14.6403 73.498 14.414C73.6799 14.1832 73.7953 13.8992 73.8441 13.562C73.9018 13.2425 73.8818 12.9496 73.7842 12.6834C73.691 12.4171 73.5157 12.2041 73.2584 12.0444C73.0054 11.8847 72.6682 11.8048 72.2466 11.8048H70.2232L68.4393 22.5078H64.7652L67.0282 8.87609H72.7259C73.8485 8.87609 74.7981 9.07355 75.5747 9.46848C76.3557 9.86341 76.9214 10.4092 77.272 11.1059C77.627 11.8026 77.7268 12.6035 77.5715 13.5087C77.4162 14.485 77.0413 15.3059 76.4466 15.9715C75.852 16.6327 75.1021 17.1341 74.1969 17.4758C73.2916 17.813 72.2954 17.9817 71.2083 17.9817ZM72.0603 18.594L71.581 21.4695H63.1677L63.6469 18.594H72.0603Z" fill="white"/>
</svg>
