<svg width="21" height="21" viewBox="0 0 21 21" fill="none" xmlns="http://www.w3.org/2000/svg">
<path d="M7.26399 8.28406C7.26399 8.42167 7.31865 8.55364 7.41595 8.65095C7.51326 8.74825 7.64523 8.80292 7.78284 8.80292C7.92045 8.80292 8.05242 8.74825 8.14973 8.65095C8.24703 8.55364 8.3017 8.42167 8.3017 8.28406V7.24635C8.3017 7.10874 8.24703 6.97677 8.14973 6.87946C8.05242 6.78216 7.92045 6.7275 7.78284 6.7275C7.64523 6.7275 7.51326 6.78216 7.41595 6.87946C7.31865 6.97677 7.26399 7.10874 7.26399 7.24635V8.28406ZM7.26399 8.28406C7.26399 9.66015 7.81064 10.9799 8.78368 11.9529C9.75672 12.926 11.0765 13.4726 12.4525 13.4726M12.4525 13.4726H13.4903C13.6279 13.4726 13.7598 13.418 13.8571 13.3206C13.9544 13.2233 14.0091 13.0914 14.0091 12.9538C14.0091 12.8162 13.9544 12.6842 13.8571 12.5869C13.7598 12.4896 13.6279 12.4349 13.4903 12.4349H12.4525C12.3149 12.4349 12.183 12.4896 12.0857 12.5869C11.9884 12.6842 11.9337 12.8162 11.9337 12.9538C11.9337 13.0914 11.9884 13.2233 12.0857 13.3206C12.183 13.418 12.3149 13.4726 12.4525 13.4726ZM1.03772 19.6989L2.74994 15.7556C1.44 13.8961 0.853699 11.6224 1.10107 9.36132C1.34843 7.10022 2.41246 5.00711 4.09348 3.47481C5.77449 1.94251 7.95692 1.07634 10.2312 1.03887C12.5055 1.00139 14.7153 1.79518 16.4458 3.27127C18.1764 4.74735 19.3088 6.80426 19.6306 9.05598C19.9523 11.3077 19.4412 13.5994 18.1933 15.5011C16.9453 17.4028 15.0462 18.7836 12.8525 19.3846C10.6587 19.9855 8.32103 19.7652 6.27816 18.7649L1.03772 19.6989Z" stroke="#DE127A" stroke-width="2.07542" stroke-linecap="round" stroke-linejoin="round"/>
</svg>
