<svg width="339" height="35" viewBox="0 0 339 35" fill="none" xmlns="http://www.w3.org/2000/svg">
<path d="M229.617 19.8713C230.192 20.0181 230.881 20.0972 231.638 20.1423C232.417 20.1875 233.252 20.1875 234.099 20.1536C236.753 20.052 239.395 19.6681 242.026 19.2842C242.218 19.2616 242.399 19.2277 242.67 19.1938C242.884 18.505 243.11 17.8162 243.336 17.1162C243.517 16.5516 243.709 15.987 243.889 15.4337C242.455 15.0724 240.987 14.7223 239.531 14.4739C237.792 14.1803 236.03 14.0448 234.314 14.2594C233.772 14.3271 233.252 14.4287 232.767 14.5642C232.293 14.6997 231.83 14.8917 231.389 15.1175C230.971 15.3434 230.509 15.7047 230.057 16.1564C229.617 16.608 229.199 17.1275 228.871 17.692C228.476 18.3583 228.273 18.8664 228.363 19.1825C228.442 19.4423 228.826 19.6794 229.628 19.8713M178.499 22.9427C178.036 23.1798 177.562 23.4056 177.065 23.6202C177.155 23.767 177.257 23.9363 177.37 24.1396C177.415 24.2186 177.46 24.2977 177.505 24.3767C177.833 23.9025 178.16 23.4282 178.488 22.9427H178.499ZM325.381 32.5632C322.479 33.3085 319.464 33.8392 316.45 34.0763C313.627 34.3021 310.77 34.2795 307.97 33.9408C305.542 33.6472 302.764 33.0826 300.336 31.9422C298.451 31.0501 296.768 29.8306 295.605 28.1256C295.413 28.645 295.221 29.1644 295.029 29.6951C294.521 31.084 294.081 32.2809 293.765 33.1391L293.561 33.7037L292.963 33.7262C290.524 33.8279 288.074 33.9069 285.601 33.9182C283.128 33.9182 280.666 33.8843 278.227 33.7375L277.753 33.7149L277.505 33.3197C276.24 31.2421 274.67 28.5998 273.09 25.9576C272.875 25.5962 272.66 25.2349 272.446 24.8736C272.039 26.0027 271.633 27.1206 271.215 28.2498C270.515 30.1806 269.883 31.897 269.341 33.3762L269.115 34.0085L268.46 33.9634C263.785 33.6585 258.952 33.523 254.142 33.5343C249.275 33.5569 244.397 33.7375 239.666 34.0763L238.424 34.1666L238.706 33.1052C237.859 33.2859 237.013 33.4439 236.166 33.5794C234.777 33.8053 233.444 33.9747 232.18 34.0763C229.628 34.2908 226.918 34.3247 224.219 34.0763C221.904 33.8505 219.623 33.3988 217.512 32.6422C216.642 32.3261 215.807 31.9535 215.016 31.5244C214.757 31.3776 214.497 31.2195 214.249 31.0614L213.932 33.9069H213.119C210.613 33.8392 208.106 33.8166 205.61 33.8279C203.115 33.8279 200.608 33.8504 198.101 33.8956H197.232L197.198 33.0375L197.119 30.9372L191.733 30.0226C191.631 30.1581 191.518 30.3049 191.394 30.4629C191.134 30.8017 190.863 31.1517 190.604 31.4905C190.344 31.8292 190.073 32.1793 189.813 32.518L189.057 33.5117L188.786 33.8617H188.345C187.058 33.8617 185.816 33.8392 184.585 33.8279C177.799 33.7714 171.487 33.7262 164.701 34.065L164.192 34.0876L163.91 33.6585C163.142 32.4842 162.962 32.2244 162.815 31.9873C162.228 31.1066 161.72 30.3387 161.02 29.2434C160.861 29.6274 160.692 30.0339 160.523 30.4516C160.252 31.1179 159.981 31.7841 159.348 33.3197L159.134 33.8392L158.58 33.873C152.235 34.2795 145.843 34.2344 139.43 34.1892C137.442 34.1779 135.444 34.1666 133.445 34.1666H132.779L132.587 33.5343L131.718 30.621H127.833L127.043 33.5117L126.862 34.1666H87.6913V14.1916C86.9347 14.1916 86.1895 14.1916 85.4329 14.1916C84.6764 14.1916 83.9311 14.1916 83.1746 14.1916L83.1181 33.2633V34.1553H0L0.372628 32.9923C3.8053 22.2539 7.23798 11.5155 10.6594 0.777085L10.8626 0.156039H27.213L27.4049 0.788388C27.6759 1.70301 27.9582 2.62892 28.2292 3.54355C28.4325 4.24363 28.647 4.93243 28.8729 5.68898C29.0761 5.01148 29.2568 4.35656 29.4487 3.71293C29.7988 2.5273 30.1375 1.35297 30.3069 0.788388L30.4989 0.144753H143.032L143.235 0.7658C144.251 3.88231 145.256 6.99881 146.273 10.1266C146.815 11.8091 147.368 13.4915 147.91 15.174C148.576 13.3899 149.254 11.6284 149.942 9.87818C150.936 7.36014 151.975 4.81951 153.059 2.24501L153.24 1.81592L153.691 1.7256C156.074 1.22877 158.456 0.82225 160.85 0.528666C163.255 0.235082 165.683 0.0544251 168.111 0.00925834C170.279 -0.0246167 172.695 0.0205521 175.066 0.381886C177.483 0.754512 179.843 1.45459 181.853 2.71926C182.27 2.99026 182.677 3.27256 183.061 3.57744C183.445 3.8936 183.806 4.22106 184.156 4.5824L184.292 4.70661L184.348 4.76305C184.529 4.97759 184.698 5.20344 184.856 5.42927C185.003 5.63252 185.161 5.88093 185.331 6.17451C186.335 7.85697 186.753 9.61848 186.697 11.3687C186.697 11.4364 186.697 11.5042 186.697 11.5719C187.273 10.8041 187.86 10.0363 188.447 9.26844C190.096 7.12302 191.789 4.97761 193.517 2.85477C194.014 2.24502 194.545 1.80464 195.154 1.47718C195.753 1.16101 196.419 0.969057 197.187 0.878723C198.361 0.743223 199.49 0.641593 200.586 0.573843C201.692 0.506093 202.81 0.472222 203.917 0.472222C205.452 0.472222 206.988 0.562552 208.535 0.698052C210.082 0.844844 211.595 1.0368 213.085 1.26264L213.718 1.35297L214.147 3.7468C214.271 4.45818 214.373 5.5196 214.463 6.82943C214.508 7.5521 214.553 8.35382 214.587 9.23457C215.716 7.91344 216.981 6.72781 218.359 5.68898C220.47 4.09685 222.842 2.85475 225.382 1.974C227.245 1.33037 229.187 0.85613 231.175 0.551255C233.219 0.246379 235.307 0.110878 237.419 0.144753C239.429 0.178628 241.495 0.370593 243.562 0.698052C245.402 0.991636 247.243 1.39814 249.072 1.91756L249.162 1.70301L249.354 1.24005L249.851 1.1723L251.24 0.980344C253.306 0.68676 255.373 0.562548 257.439 0.517381C259.494 0.472214 261.549 0.517384 263.593 0.573843C264.045 0.573843 264.451 0.596419 264.847 0.619002C265.987 0.664169 267.094 0.698055 268.223 0.630305C271.407 0.427054 274.614 0.506087 277.809 0.585128C278.137 0.585128 278.464 0.596425 278.792 0.607717H279.356L279.582 1.13843C280.35 2.85476 281.163 4.65014 282.044 6.53585C282.586 7.6989 283.128 8.85064 283.681 10.0024C284.076 8.92968 284.494 7.86827 284.901 6.81815C285.556 5.15827 286.267 3.45322 287.001 1.7143L287.193 1.25133L287.69 1.18359L289.079 0.99163C293.663 0.336712 298.293 0.47221 302.877 0.619002C303.634 0.641585 304.39 0.664166 305.101 0.686749L306.423 0.720623L305.903 1.92884C305.723 2.35793 305.531 2.78701 305.35 3.21609C305.192 3.57743 305.034 3.93877 304.887 4.3001C304.887 4.3001 304.898 4.30009 304.91 4.2888C305.677 3.82584 306.479 3.39677 307.303 3.01285C308.139 2.61764 308.975 2.27889 309.81 1.9853C311.673 1.34168 313.615 0.867416 315.603 0.56254C317.647 0.257664 319.736 0.122164 321.847 0.156039C323.97 0.189914 326.127 0.404465 328.306 0.7658C330.508 1.13843 332.698 1.66913 334.878 2.34663L338.547 3.49839L338.118 4.41301L336.933 6.97623C336.617 7.67631 336.244 8.3764 335.86 9.07648C335.476 9.76528 335.07 10.4428 334.674 11.0751C334.279 11.6962 333.895 12.272 333.545 12.8027C333.24 13.2544 332.935 13.6948 332.642 14.09L332.213 15.8967C331.513 18.8664 330.869 21.2263 330.282 23.2363C329.695 25.2688 329.175 26.8496 328.69 28.3514C328.588 28.6563 328.577 28.6788 328.543 28.7918C328.34 29.4354 328.656 28.4417 328.193 29.9096C328.114 30.1806 328.035 30.3952 327.911 30.6436C327.775 30.9033 327.617 31.1517 327.369 31.434C327.086 31.7502 326.793 31.9873 326.465 32.1793C326.149 32.3599 325.81 32.4729 325.404 32.5745L325.381 32.5632ZM108.445 25.4043L111.042 17.3759H111.02L111.426 16.2015L112.16 14.0674H108.457V25.4043H108.445Z" fill="#040405"/>
<path d="M228.115 20.2327C229.368 20.9779 231.705 21.136 234.133 21.0457C236.877 20.944 239.632 20.5263 241.439 20.2665L243.347 19.9955C243.72 18.8099 244.092 17.6356 244.488 16.4612C244.668 15.9079 244.849 15.3659 245.041 14.8127L244.725 14.7336C242.907 14.2819 240.332 13.6044 237.769 13.3673C235.387 13.1528 232.925 13.2883 230.971 14.3497C230.012 14.8691 228.871 15.9757 228.115 17.2517C227.776 17.8162 227.539 18.3808 227.46 18.9002C227.403 19.2164 227.426 19.51 227.539 19.7132C227.64 19.8939 227.821 20.0746 228.126 20.2552L228.115 20.2327ZM182.767 18.4034C182.158 19.1148 181.48 19.781 180.769 20.3682C180.102 20.9215 179.346 21.4522 178.555 21.9264L178.454 21.9829C177.618 22.4232 176.726 22.8185 175.778 23.1685C176.331 24.1057 176.884 25.0542 177.472 26.0366C179.301 23.3266 181.074 20.7972 182.779 18.4034H182.767ZM325.155 31.705C322.276 32.4503 319.284 32.9471 316.416 33.1729C313.525 33.4101 310.668 33.3762 308.071 33.0713C306.005 32.8229 304.006 32.4051 302.233 31.7728C300.528 31.163 299.004 30.3387 297.773 29.2547C297.547 29.0515 297.333 28.8595 297.152 28.6675C296.384 27.8545 295.82 26.9399 295.447 25.9688C294.611 28.261 293.776 30.5646 292.929 32.8568C288.04 33.06 283.162 33.1504 278.272 32.8568L277.595 31.7389C276.782 30.4065 275.077 27.5271 273.361 24.659C272.999 24.0606 272.638 23.4508 272.254 22.8072C272.073 23.2927 271.87 23.8799 271.61 24.5913C271.61 24.5913 271.226 25.6527 270.402 27.911C269.781 29.6048 269.363 30.7678 269.16 31.2985L268.505 33.06C263.582 32.7439 258.997 32.7777 254.549 32.789C249.445 32.8003 244.522 32.8229 239.587 33.1729L239.926 31.897C237.306 32.5293 234.641 32.9584 232.089 33.1729C227.415 33.5569 222.243 33.3762 217.783 31.7728C216.157 31.1856 214.689 30.4065 213.481 29.3902C213.447 29.8758 213.402 30.3274 213.356 30.7114L213.108 32.9697C208.083 32.8794 203.081 32.8794 198.068 32.9697L197.977 30.5307C197.977 30.3952 197.977 30.271 197.966 30.1468L191.338 29.0176C191.112 29.3112 190.897 29.5935 190.671 29.8871C190.141 30.5758 189.621 31.2646 189.091 31.9534L188.334 32.9471C180.035 32.9019 172.661 32.7551 164.644 33.1503C163.165 30.9146 162.533 30.0113 160.828 27.3125C160.59 27.911 160.342 28.4869 160.094 29.0966C159.563 30.3839 159.032 31.6824 158.513 32.9697C153.194 33.3084 147.865 33.2859 142.546 33.1955L143.653 29.8984C145.166 25.4156 146.679 21.0118 148.237 16.7661C149.807 12.4753 151.489 8.16185 153.341 3.78067L153.849 2.58375L155.114 2.32405C155.554 2.23372 155.972 2.15467 156.401 2.07563C156.909 1.9853 157.406 1.90625 157.892 1.8385C160.884 1.38683 164.486 0.957744 168.088 0.901286C172.345 0.833535 177.562 1.09324 181.345 3.47579C182.124 3.97262 182.835 4.5485 183.479 5.20342L183.614 5.33893C183.942 5.72285 184.235 6.16322 184.518 6.63747C186.076 9.25714 186.076 11.9784 185.127 14.4852C184.879 15.1288 184.574 15.7499 184.224 16.3596C184.721 15.6708 185.218 15.0046 185.703 14.3384C188.684 10.296 191.496 6.69393 194.161 3.43063C194.996 2.41438 195.933 1.92883 197.232 1.78204C199.468 1.52233 201.703 1.38684 203.86 1.38684C206.92 1.38684 209.89 1.72559 212.905 2.16597L213.221 3.92747C213.469 5.30505 213.627 8.27477 213.718 11.7978C216.586 7.5521 220.786 4.51463 225.608 2.84346C229.289 1.5675 233.264 1.00292 237.34 1.07067C241.337 1.13842 245.459 1.81591 249.512 3.03541L249.908 2.0982L251.297 1.90625C252.403 1.74816 253.431 1.63524 254.368 1.56749C255.339 1.49974 256.389 1.46588 257.518 1.45458C258.546 1.45458 259.551 1.45458 260.544 1.45458C261.572 1.45458 262.554 1.47716 263.503 1.49974L267.184 1.59008V1.62395C267.94 1.5562 268.686 1.52233 269.431 1.48846C270.865 1.44329 272.322 1.4433 273.835 1.4433H273.925C273.982 1.4433 274.038 1.4433 274.049 1.4433C274.591 1.4433 275.099 1.44329 275.596 1.46587C276.15 1.46587 276.658 1.48845 277.132 1.49974L278.69 1.53362L279.334 2.96767C280.339 5.22601 281.479 7.67631 282.721 10.2621C283.049 10.9509 283.388 11.6397 283.715 12.3059C283.918 11.7413 284.121 11.188 284.313 10.6347C285.205 8.21831 286.154 5.80188 287.193 3.37417L287.746 2.08692L289.135 1.89496C291.224 1.60138 293.29 1.47716 295.334 1.432C297.355 1.39812 299.354 1.44329 301.341 1.48846L305.022 1.57879L303.566 4.955C303.295 5.57604 303.046 6.17451 302.798 6.76168C303.588 6.14063 304.424 5.56476 305.305 5.03405C306.807 4.13071 308.387 3.39675 310.047 2.82087C313.728 1.54491 317.703 0.980333 321.779 1.04808C325.98 1.11583 330.304 1.86108 334.561 3.1935L337.26 4.04037L336.075 6.60359C335.442 7.96989 334.652 9.34746 333.861 10.6008C333.105 11.8091 332.36 12.8818 331.761 13.7174L331.298 15.6821C329.875 21.6667 328.791 25.0316 327.798 28.0691C327.73 28.2949 327.651 28.5095 327.301 29.6273C327.154 30.1016 327.052 30.3839 326.657 30.8243C326.217 31.3211 325.799 31.5244 325.144 31.6937L325.155 31.705Z" fill="#040405"/>
<path fill-rule="evenodd" clip-rule="evenodd" d="M261.775 13.0737C262.825 10.1266 263.966 7.20207 265.185 4.33398C268.189 3.90489 270.944 3.91617 273.88 3.91617C273.936 3.91617 274.004 3.91617 274.061 3.91617C275.088 3.91617 276.093 3.93877 277.109 3.96135C278.453 6.97623 279.887 10.0137 281.366 13.0737M248.282 13.0737C249.332 10.1266 250.472 7.20207 251.692 4.33398C253.589 4.06298 255.554 3.92746 257.575 3.91617C259.596 3.90488 261.572 3.91618 263.48 3.97263C262.17 7.02139 260.951 10.0476 259.777 13.085H248.27L248.282 13.0737ZM215.875 13.0737C216.688 11.8768 217.591 10.8041 218.506 9.93465C220.73 7.83439 223.451 6.20839 226.444 5.16955C233.388 2.76442 241.529 3.10318 249.411 5.56477C248.237 8.11669 246.475 10.6799 245.312 12.3172C241.552 11.38 234.698 9.51686 229.797 12.1478C229.368 12.3849 228.905 12.7011 228.453 13.0737H215.875ZM211.29 13.0737C211.211 9.13293 211.053 5.74544 210.805 4.33398C206.344 3.66777 201.444 3.69035 196.633 4.33398C194.454 6.97623 192.173 9.86689 189.757 13.0737H211.301H211.29ZM183.016 13.0737C183.625 11.0525 183.388 8.90711 181.728 6.90848C180.712 5.86965 179.481 5.09052 178.036 4.5824C172.232 2.61764 164.068 3.39677 158.276 4.26623C157.226 4.42431 156.345 4.58238 155.645 4.72918C154.47 7.49564 153.364 10.2734 152.291 13.0737H163.346C163.571 12.543 163.82 12.0688 164.136 11.4929C166.372 11.6058 168.167 11.5607 169.364 11.8655C170.459 12.1365 171.035 12.5769 171.261 13.0737H183.016ZM300.359 13.0737C301.183 11.8204 302.075 10.7364 302.922 9.93465C305.147 7.83439 307.868 6.20839 310.86 5.16955C317.805 2.76442 325.946 3.10318 333.828 5.56477C332.653 8.11669 330.892 10.6799 329.729 12.3172C325.968 11.38 319.114 9.51686 314.214 12.1478C313.706 12.4188 313.231 12.735 312.802 13.0737H300.359ZM286.109 13.0737C287.159 10.1266 288.288 7.21336 289.519 4.33398C293.415 3.78068 297.389 3.87102 301.319 3.96135C299.794 7.50694 298.552 10.5218 297.547 13.0737H286.109Z" fill="white"/>
<path fill-rule="evenodd" clip-rule="evenodd" d="M253.352 30.4291C249.885 30.1807 246.385 30.1807 242.918 30.4291C244.352 25.1107 245.933 19.8036 247.751 14.5868H259.201C257.202 19.8375 255.316 25.0881 253.352 30.4291ZM226.85 22.3668C230.362 24.4671 238.04 23.2701 241.8 22.7168C241.439 24.0831 241.01 27.2448 240.344 29.2321C234.845 30.6775 228.826 31.1743 223.948 30.5872C220.369 30.1581 217.06 29.187 214.994 27.369C213.119 25.7317 212.487 23.1685 212.848 20.3682C213.085 18.4937 213.876 16.4499 214.937 14.5755H226.963C224.919 17.0484 223.745 20.5037 226.85 22.3555V22.3668ZM177.505 30.4291C180.407 30.3274 182.79 30.4065 187.148 30.4291C188.199 29.0515 189.249 27.6739 190.299 26.2963L200.405 28.0239C200.428 28.8256 200.461 29.6274 200.495 30.4291C204.165 30.3726 207.665 30.3613 210.929 30.4291C211.268 27.369 211.392 20.5714 211.324 14.5868H199.953C200.032 16.992 200.145 19.3858 200.224 21.7909L194.499 20.8198L199.197 14.5981H188.628C185.206 19.2051 181.514 24.4332 177.505 30.4404V30.4291ZM146.024 30.6662C149.457 30.6436 152.777 30.4629 156.864 30.4629C158.084 27.4594 158.795 25.8785 159.958 22.762C160.026 22.7846 160.206 22.8072 160.466 22.8185C160.737 22.8298 160.94 22.8411 161.076 22.8411C162.566 25.5059 164.283 28.0352 165.965 30.5758C169.692 30.3952 173.395 30.3161 177.133 30.3161C175.416 27.4481 173.734 24.58 172.04 21.7006C174.073 21.215 175.823 20.5714 177.291 19.7923C179.323 18.5841 181.288 16.7097 182.395 14.5755H171.08C170.832 15.0046 170.448 15.4224 170.019 15.7612C168.066 17.2968 164.204 17.3307 161.844 17.15C162.228 16.066 162.521 15.2417 162.758 14.5755H151.715C149.705 19.8939 147.842 25.2575 146.024 30.6662ZM324.546 29.2886C319.114 30.6888 313.175 31.163 308.365 30.5984C304.785 30.1694 301.477 29.1983 299.41 27.3803C295.887 24.2977 297.107 18.8438 299.456 14.5868H311.289C309.867 16.3596 309.246 18.4712 309.641 20.1423C310.149 22.2539 312.215 23.1233 314.214 23.3492C315.817 23.5298 317.443 23.3492 318.437 23.2137C318.708 22.1748 318.922 21.4748 319.182 20.4359C317.296 20.4585 315.49 20.5827 313.706 20.7634C313.988 19.318 314.372 17.8049 315.072 16.0547C319.815 15.3885 324.388 15.174 328.904 15.1175C327.244 22.1184 326.059 25.4268 324.952 28.8934C324.862 29.1757 324.839 29.2321 324.557 29.3112L324.546 29.2886ZM269.273 23.7444C268.483 25.935 267.669 28.1594 266.834 30.4404C263.367 30.1919 259.867 30.1919 256.4 30.4404C257.834 25.1107 259.415 19.8149 261.222 14.5981H282.1C282.778 15.987 283.478 17.3759 284.178 18.7647C284.63 17.3646 285.093 15.987 285.567 14.5981H296.926C294.792 20.0633 293.878 22.9653 293.595 23.7557C292.805 25.9463 291.992 28.1707 291.156 30.4516C287.52 30.1919 283.568 30.6775 279.706 30.4516C277.008 26.0027 274.377 21.5199 271.689 17.071C270.876 19.2955 270.063 21.5312 269.25 23.7557L269.273 23.7444Z" fill="#C2C2C2"/>
<path d="M127.178 29.6951L126.207 33.2407H88.6059V13.2657C86.5056 13.2657 84.4167 13.2657 82.3164 13.2657L82.26 33.2294H1.2195C4.65218 22.491 8.08485 11.7526 11.5062 1.01421H26.5468C27.3259 3.60001 28.105 6.1858 28.8841 8.7716C29.652 6.1858 30.3972 3.60001 31.1651 1.01421H142.388C145.877 11.7526 149.355 22.491 152.844 33.2294H133.468L132.406 29.6838M107.553 31.0501L107.87 30.079L112.262 16.4838L113.391 13.1754H107.553V31.0501Z" fill="#040405"/>
<path fill-rule="evenodd" clip-rule="evenodd" d="M63.719 14.6207H79.6629V20.052H63.719V23.4847H79.7419L79.7871 30.7001H49.2431C50.9707 25.3365 52.687 19.973 54.4147 14.6094M105.058 14.6207L105.103 30.7114H90.9771V14.6207H105.058ZM128.804 14.6207L124.322 30.7114H110.139C111.878 25.3478 113.606 19.9843 115.345 14.6207H128.816H128.804ZM149.491 30.7114H135.229L134.168 27.1658H127.494L129.414 19.6003H132.655L131.051 14.6207H144.195C145.719 19.9391 147.752 25.3591 149.491 30.7114ZM46.0362 30.7114H37.5562L37.59 20.1988H36.348L32.633 30.7114H24.9772L21.3074 20.1988H20.0766V30.7114H4.44892L9.58664 14.6207H51.1965C50.4851 16.8113 49.6609 19.3858 46.0023 30.7114H46.0362Z" fill="#DE127A"/>
<path fill-rule="evenodd" clip-rule="evenodd" d="M10.1174 13.0512L10.7384 11.0977L13.2226 3.3403H24.7062L27.5856 13.0512M63.719 13.0512H54.9115C55.9503 9.81044 56.9892 6.58101 58.028 3.3403H83.3665L80.9276 10.9848H63.719V13.0512ZM105.047 10.9848V13.0399H90.9771V10.9848H83.9086L86.3701 3.32901H116.237L113.741 10.9848H105.047ZM115.841 13.0512C116.892 9.81044 117.93 6.58101 118.981 3.3403H140.604L143.721 13.0512H115.841ZM30.0585 13.0512C31.007 9.81044 31.9668 6.58101 32.9153 3.3403H54.8663C53.0371 9.02002 52.2692 11.3913 51.7272 13.0512H30.0472H30.0585Z" fill="#7D5C9C"/>
</svg>
