<svg width="1252" height="150" viewBox="0 0 1252 150" fill="none" xmlns="http://www.w3.org/2000/svg">
<path d="M377.761 26.1183H359.517C359.649 24.5652 359.561 23.1652 359.255 21.9184C358.949 20.6715 358.424 19.5996 357.68 18.7028C356.936 17.7841 355.963 17.0841 354.76 16.6028C353.557 16.1216 352.124 15.881 350.461 15.881C347.268 15.881 344.413 16.6794 341.897 18.2762C339.382 19.8512 337.293 22.1152 335.63 25.0683C333.968 27.9995 332.787 31.4994 332.087 35.5681C331.474 39.5055 331.452 42.7758 332.021 45.3789C332.612 47.9819 333.76 49.9288 335.466 51.2194C337.194 52.51 339.436 53.1553 342.193 53.1553C344.03 53.1553 345.714 52.9365 347.246 52.499C348.799 52.0615 350.177 51.4381 351.38 50.6288C352.605 49.7975 353.644 48.8132 354.497 47.6757C355.372 46.5163 356.039 45.2367 356.499 43.8367H374.873C374.173 46.6804 372.926 49.5897 371.133 52.5647C369.339 55.5177 367.02 58.2411 364.177 60.7348C361.333 63.2066 357.986 65.2082 354.136 66.7394C350.286 68.2706 345.955 69.0362 341.143 69.0362C334.843 69.0362 329.407 67.6581 324.835 64.9019C320.285 62.1457 316.982 58.1208 314.926 52.8272C312.892 47.5335 312.487 41.0805 313.712 33.4681C314.937 26.1183 317.354 19.9606 320.963 14.995C324.573 10.0295 328.959 6.28895 334.121 3.77337C339.283 1.25779 344.774 4.56251e-06 350.593 4.56251e-06C354.989 4.56251e-06 358.927 0.579681 362.405 1.73903C365.905 2.89839 368.847 4.59367 371.231 6.82488C373.637 9.03421 375.409 11.7576 376.547 14.995C377.684 18.2325 378.089 21.9402 377.761 26.1183ZM375.451 68.1175L386.607 0.918738H435.038L432.544 15.6185H402.357L400.519 27.1683H428.213L425.719 41.868H398.026L396.188 53.4178H426.244L423.75 68.1175H375.451ZM436.058 15.6185L438.552 0.918738H496.957L494.463 15.6185H474.251L465.589 68.1175H447.608L456.27 15.6185H436.058ZM508.002 23.4933H521.914C527.58 23.4933 532.37 24.4011 536.286 26.2167C540.223 28.0323 543.089 30.5916 544.883 33.8947C546.698 37.1978 547.223 41.0805 546.458 45.5429C545.736 50.0053 543.909 53.9318 540.978 57.3224C538.047 60.7129 534.306 63.3598 529.756 65.2629C525.206 67.1659 520.099 68.1175 514.433 68.1175H489.365L500.521 0.918738H518.764L509.971 53.8115H516.796C519.005 53.8115 520.919 53.4506 522.538 52.7287C524.178 52.0069 525.491 51.0116 526.475 49.7428C527.481 48.4741 528.105 47.0304 528.345 45.4117C528.761 43.1148 528.225 41.2117 526.738 39.7024C525.25 38.1712 522.855 37.4056 519.552 37.4056H505.64L508.002 23.4933ZM605.461 68.1175L589.383 40.9492H586.823L582.295 68.1175H564.052L575.208 0.918738H593.451L589.251 26.2495H591.614L615.107 0.918738H638.076L607.167 33.2056L628.363 68.1175H605.461ZM627.333 68.1175L629.696 54.074L631.533 53.8115C633.852 53.4615 635.875 52.499 637.603 50.9241C639.353 49.3272 640.906 46.8007 642.263 43.3445C643.641 39.8665 644.92 35.1306 646.102 29.137L651.877 0.918738H700.569L689.413 68.1175H671.826L680.62 15.0935H666.314L661.72 36.2243C660.058 44.0554 657.98 50.3006 655.486 54.9599C653.014 59.6192 649.864 62.977 646.036 65.0332C642.23 67.0894 637.483 68.1175 631.796 68.1175H627.333ZM703.936 69.0362L706.299 54.8615H709.58C711.505 54.8615 713.047 54.7084 714.206 54.4021C715.388 54.074 716.35 53.5053 717.094 52.6959C717.859 51.8647 718.592 50.7053 719.292 49.2178L720.342 47.2491L702.755 0.918738H721.392L730.973 28.2182L746.198 0.918738H764.573L732.811 53.4178C731.061 56.174 729.114 58.7442 726.97 61.1286C724.826 63.491 722.333 65.405 719.489 66.8706C716.645 68.3144 713.299 69.0362 709.449 69.0362H703.936ZM755.627 68.1175L766.783 0.918738H814.032L811.538 15.6185H782.532L781.22 23.4933H788.176C793.82 23.4933 798.599 24.4011 802.515 26.2167C806.452 28.0323 809.318 30.5916 811.112 33.8947C812.927 37.1978 813.463 41.0805 812.719 45.5429C811.976 50.0053 810.138 53.9318 807.207 57.3224C804.298 60.7129 800.557 63.3598 795.985 65.2629C791.435 67.1659 786.339 68.1175 780.695 68.1175H755.627ZM776.233 53.8115H783.057C785.245 53.8115 787.148 53.4506 788.767 52.7287C790.407 52.0069 791.72 51.0116 792.704 49.7428C793.71 48.4741 794.345 47.0304 794.607 45.4117C795.001 43.1148 794.454 41.2117 792.967 39.7024C791.479 38.1712 789.095 37.4056 785.814 37.4056H778.989L776.233 53.8115ZM882.235 35.6993C881.01 43.0055 878.582 49.1303 874.951 54.074C871.32 59.0177 866.912 62.7473 861.728 65.2629C856.543 67.7784 850.998 69.0362 845.092 69.0362C838.792 69.0362 833.323 67.6691 828.686 64.9347C824.049 62.2004 820.669 58.1974 818.547 52.9256C816.425 47.6538 815.999 41.2117 817.268 33.5994C818.449 26.2933 820.855 20.1465 824.486 15.1591C828.117 10.1717 832.547 6.39833 837.775 3.839C843.003 1.27967 848.592 4.56251e-06 854.542 4.56251e-06C860.798 4.56251e-06 866.234 1.3781 870.849 4.1343C875.487 6.8905 878.855 10.9264 880.955 16.2419C883.077 21.5574 883.504 28.0432 882.235 35.6993ZM863.86 33.5994C864.473 29.7495 864.517 26.512 863.992 23.8871C863.467 21.2402 862.362 19.2496 860.678 17.9153C858.993 16.5591 856.729 15.881 853.886 15.881C850.648 15.881 847.783 16.6684 845.289 18.2434C842.795 19.8184 840.728 22.0824 839.087 25.0355C837.447 27.9885 836.298 31.5432 835.642 35.6993C834.942 39.593 834.877 42.8305 835.445 45.4117C836.036 47.9929 837.195 49.9288 838.923 51.2194C840.673 52.51 842.948 53.1553 845.748 53.1553C848.942 53.1553 851.764 52.3897 854.214 50.8584C856.686 49.3272 858.731 47.1069 860.35 44.1976C861.99 41.2883 863.16 37.7556 863.86 33.5994ZM881.599 68.1175L892.755 0.918738H921.892C927.01 0.918738 931.199 1.60779 934.459 2.98589C937.74 4.36399 940.059 6.31082 941.415 8.8264C942.793 11.342 943.198 14.306 942.629 17.7184C942.191 20.1684 941.251 22.4105 939.807 24.4449C938.385 26.4573 936.581 28.1635 934.393 29.5635C932.228 30.9416 929.81 31.8932 927.142 32.4182L927.01 33.0744C929.898 33.1619 932.414 33.8838 934.557 35.24C936.701 36.5743 938.276 38.4337 939.282 40.818C940.288 43.1805 940.529 45.9367 940.004 49.0866C939.392 52.7615 937.893 56.0318 935.509 58.8974C933.124 61.7629 930.029 64.016 926.223 65.6566C922.417 67.2972 918.086 68.1175 913.23 68.1175H881.599ZM902.336 53.549H910.867C913.886 53.549 916.259 52.9693 917.987 51.81C919.737 50.6506 920.776 48.9553 921.104 46.7241C921.367 45.1492 921.236 43.8148 920.711 42.7211C920.186 41.6274 919.3 40.7961 918.053 40.2274C916.806 39.6586 915.242 39.3743 913.361 39.3743H904.567L902.336 53.549ZM906.536 28.087H914.017C915.592 28.087 917.036 27.8354 918.348 27.3323C919.661 26.8292 920.743 26.0964 921.597 25.1339C922.45 24.1714 922.986 23.0121 923.204 21.6559C923.532 19.5559 923.029 17.959 921.695 16.8653C920.382 15.7716 918.611 15.2247 916.379 15.2247H908.636L906.536 28.087Z" fill="white"/>
<path d="M58.4053 80.9187L55.9115 95.6185H26.9058L18.2435 148.117H8.30169e-05L11.1561 80.9187H58.4053ZM117.675 115.699C116.45 123.005 114.022 129.13 110.391 134.074C106.76 139.018 102.352 142.747 97.1679 145.263C91.9836 147.778 86.4384 149.036 80.5323 149.036C74.2324 149.036 68.7637 147.669 64.1263 144.935C59.4889 142.2 56.1093 138.197 53.9875 132.926C51.8656 127.654 51.4391 121.212 52.7078 113.599C53.889 106.293 56.2952 100.147 59.9264 95.1591C63.5576 90.1717 67.9872 86.3983 73.2152 83.839C78.4433 81.2797 84.0322 80 89.9821 80C96.2382 80 101.674 81.3781 106.29 84.1343C110.927 86.8905 114.296 90.9264 116.396 96.2419C118.518 101.557 118.944 108.043 117.675 115.699ZM99.3007 113.599C99.9132 109.749 99.9569 106.512 99.4319 103.887C98.9069 101.24 97.8023 99.2496 96.1179 97.9153C94.4336 96.5591 92.1696 95.881 89.3259 95.881C86.0884 95.881 83.2229 96.6684 80.7291 98.2434C78.2354 99.8184 76.1683 102.082 74.5277 105.035C72.8871 107.989 71.7387 111.543 71.0825 115.699C70.3825 119.593 70.3168 122.83 70.8856 125.412C71.4762 127.993 72.6355 129.929 74.3636 131.219C76.1136 132.51 78.3886 133.155 81.1885 133.155C84.3822 133.155 87.204 132.39 89.654 130.858C92.1258 129.327 94.1711 127.107 95.7898 124.198C97.4304 121.288 98.6007 117.756 99.3007 113.599ZM117.039 148.117L128.195 80.9187H146.439L142.107 107.168H166.257L170.588 80.9187H188.832L177.675 148.117H159.432L163.763 121.868H139.614L135.283 148.117H117.039ZM253.122 115.699C251.897 123.005 249.469 129.13 245.838 134.074C242.206 139.018 237.799 142.747 232.614 145.263C227.43 147.778 221.885 149.036 215.979 149.036C209.679 149.036 204.21 147.669 199.573 144.935C194.935 142.2 191.556 138.197 189.434 132.926C187.312 127.654 186.886 121.212 188.154 113.599C189.336 106.293 191.742 100.147 195.373 95.1591C199.004 90.1717 203.434 86.3983 208.662 83.839C213.89 81.2797 219.479 80 225.429 80C231.685 80 237.121 81.3781 241.736 84.1343C246.374 86.8905 249.742 90.9264 251.842 96.2419C253.964 101.557 254.391 108.043 253.122 115.699ZM234.747 113.599C235.36 109.749 235.403 106.512 234.878 103.887C234.353 101.24 233.249 99.2496 231.564 97.9153C229.88 96.5591 227.616 95.881 224.772 95.881C221.535 95.881 218.669 96.6684 216.176 98.2434C213.682 99.8184 211.615 102.082 209.974 105.035C208.334 107.989 207.185 111.543 206.529 115.699C205.829 119.593 205.763 122.83 206.332 125.412C206.923 127.993 208.082 129.929 209.81 131.219C211.56 132.51 213.835 133.155 216.635 133.155C219.829 133.155 222.651 132.39 225.1 130.858C227.572 129.327 229.618 127.107 231.236 124.198C232.877 121.288 234.047 117.756 234.747 113.599ZM263.09 80.9187H280.678L277.134 102.05C276.784 104.15 276.871 105.867 277.396 107.201C277.921 108.535 279.004 109.52 280.645 110.154C282.285 110.788 284.615 111.106 287.634 111.106C288.202 111.106 289.099 111.095 290.324 111.073C291.571 111.029 292.916 110.974 294.36 110.909C295.826 110.821 297.171 110.723 298.396 110.613C299.621 110.482 300.496 110.34 301.021 110.187L298.79 123.968C298.177 124.165 297.193 124.34 295.837 124.493C294.48 124.624 293.048 124.744 291.538 124.854C290.029 124.941 288.684 125.018 287.502 125.084C286.321 125.127 285.577 125.149 285.271 125.149C279.365 125.149 274.334 124.307 270.178 122.623C266.022 120.938 262.992 118.39 261.089 114.977C259.186 111.565 258.672 107.256 259.547 102.05L263.09 80.9187ZM302.465 80.9187H320.183L309.027 148.117H291.309L302.465 80.9187ZM315.118 148.117L326.274 80.9187H344.517L340.186 107.168H364.336L368.667 80.9187H386.91L375.754 148.117H357.511L361.842 121.868H337.693L333.361 148.117H315.118ZM399.752 103.493H413.664C419.329 103.493 424.12 104.401 428.035 106.217C431.973 108.032 434.838 110.592 436.632 113.895C438.448 117.198 438.973 121.08 438.207 125.543C437.485 130.005 435.659 133.932 432.728 137.322C429.796 140.713 426.056 143.36 421.506 145.263C416.956 147.166 411.848 148.117 406.183 148.117H381.114L392.271 80.9187H410.514L401.72 133.812H408.545C410.755 133.812 412.669 133.451 414.287 132.729C415.928 132.007 417.24 131.012 418.225 129.743C419.231 128.474 419.854 127.03 420.095 125.412C420.511 123.115 419.975 121.212 418.487 119.702C417 118.171 414.604 117.406 411.301 117.406H397.389L399.752 103.493ZM468.525 80.9187L457.369 148.117H439.126L450.282 80.9187H468.525ZM492.219 80.9187L499.963 100.475H500.488L514.925 80.9187H536.056L510.463 114.518L525.687 148.117H505.344L497.207 128.168H496.682L481.982 148.117H460.72L486.969 114.518L472.532 80.9187H492.219ZM613.409 106.118H595.165C595.297 104.565 595.209 103.165 594.903 101.918C594.597 100.671 594.072 99.5996 593.328 98.7028C592.584 97.7841 591.611 97.0841 590.408 96.6028C589.205 96.1216 587.772 95.881 586.109 95.881C582.916 95.881 580.061 96.6794 577.546 98.2762C575.03 99.8512 572.941 102.115 571.278 105.068C569.616 107.999 568.435 111.499 567.735 115.568C567.122 119.506 567.1 122.776 567.669 125.379C568.26 127.982 569.408 129.929 571.114 131.219C572.842 132.51 575.085 133.155 577.841 133.155C579.678 133.155 581.363 132.937 582.894 132.499C584.447 132.062 585.825 131.438 587.028 130.629C588.253 129.798 589.292 128.813 590.145 127.676C591.02 126.516 591.687 125.237 592.147 123.837H610.521C609.821 126.68 608.575 129.59 606.781 132.565C604.987 135.518 602.668 138.241 599.825 140.735C596.981 143.207 593.634 145.208 589.784 146.739C585.934 148.271 581.603 149.036 576.791 149.036C570.491 149.036 565.055 147.658 560.483 144.902C555.933 142.146 552.63 138.121 550.574 132.827C548.54 127.533 548.135 121.08 549.36 113.468C550.585 106.118 553.002 99.9606 556.612 94.995C560.221 90.0295 564.607 86.2889 569.769 83.7734C574.931 81.2578 580.422 80 586.241 80C590.637 80 594.575 80.5797 598.053 81.739C601.553 82.8984 604.495 84.5937 606.879 86.8249C609.286 89.0342 611.057 91.7576 612.195 94.995C613.332 98.2325 613.737 101.94 613.409 106.118ZM622.255 80.9187H640.499L634.658 116.093H635.183L664.911 80.9187H680.398L669.242 148.117H650.999L656.839 112.812H656.445L626.324 148.117H611.099L622.255 80.9187ZM685.332 80.9187H708.037L717.356 118.981H718.143L740.062 80.9187H762.768L751.612 148.117H733.762L740.193 109.268H739.668L718.406 147.593H707.644L699.113 109.006H698.588L692.025 148.117H674.175L685.332 80.9187ZM766.143 149.036L768.505 134.861H771.786C773.711 134.861 775.253 134.708 776.413 134.402C777.594 134.074 778.557 133.505 779.3 132.696C780.066 131.865 780.799 130.705 781.499 129.218L782.549 127.249L764.961 80.9187H783.599L793.18 108.218L808.404 80.9187H826.779L795.017 133.418C793.267 136.174 791.32 138.744 789.177 141.129C787.033 143.491 784.539 145.405 781.696 146.871C778.852 148.314 775.505 149.036 771.655 149.036H766.143ZM809.134 148.117L811.497 134.074L813.334 133.812C815.653 133.462 817.676 132.499 819.404 130.924C821.154 129.327 822.707 126.801 824.064 123.345C825.442 119.866 826.721 115.131 827.903 109.137L833.677 80.9187H882.37L871.214 148.117H853.627L862.421 95.0935H848.115L843.521 116.224C841.859 124.055 839.78 130.301 837.287 134.96C834.815 139.619 831.665 142.977 827.837 145.033C824.031 147.089 819.284 148.117 813.597 148.117H809.134ZM931.543 148.117H913.299L922.027 95.4872H915.596C913.474 95.4872 911.593 95.7825 909.952 96.3731C908.334 96.9419 907.01 97.8387 905.982 99.0637C904.976 100.267 904.309 101.831 903.981 103.756C903.674 105.659 903.827 107.201 904.44 108.382C905.074 109.564 906.113 110.428 907.557 110.974C909.001 111.499 910.784 111.762 912.905 111.762H926.555L924.193 125.937H906.868C901.771 125.937 897.44 125.094 893.874 123.41C890.331 121.726 887.76 119.232 886.164 115.929C884.567 112.626 884.162 108.568 884.95 103.756C885.759 98.9872 887.487 94.8966 890.134 91.4842C892.781 88.0717 896.128 85.4577 900.174 83.6421C904.221 81.8265 908.727 80.9187 913.693 80.9187H942.699L931.543 148.117ZM897.287 117.274H916.712L895.187 148.117H875.369L897.287 117.274ZM943.35 95.6185L945.844 80.9187H1004.25L1001.76 95.6185H981.543L972.881 148.117H954.9L963.562 95.6185H943.35ZM1063.58 115.699C1062.36 123.005 1059.93 129.13 1056.3 134.074C1052.67 139.018 1048.26 142.747 1043.08 145.263C1037.89 147.778 1032.35 149.036 1026.44 149.036C1020.14 149.036 1014.67 147.669 1010.04 144.935C1005.4 142.2 1002.02 138.197 999.897 132.926C997.775 127.654 997.348 121.212 998.617 113.599C999.798 106.293 1002.2 100.147 1005.84 95.1591C1009.47 90.1717 1013.9 86.3983 1019.12 83.839C1024.35 81.2797 1029.94 80 1035.89 80C1042.15 80 1047.58 81.3781 1052.2 84.1343C1056.84 86.8905 1060.21 90.9264 1062.31 96.2419C1064.43 101.557 1064.85 108.043 1063.58 115.699ZM1045.21 113.599C1045.82 109.749 1045.87 106.512 1045.34 103.887C1044.82 101.24 1043.71 99.2496 1042.03 97.9153C1040.34 96.5591 1038.08 95.881 1035.24 95.881C1032 95.881 1029.13 96.6684 1026.64 98.2434C1024.14 99.8184 1022.08 102.082 1020.44 105.035C1018.8 107.989 1017.65 111.543 1016.99 115.699C1016.29 119.593 1016.23 122.83 1016.8 125.412C1017.39 127.993 1018.54 129.929 1020.27 131.219C1022.02 132.51 1024.3 133.155 1027.1 133.155C1030.29 133.155 1033.11 132.39 1035.56 130.858C1038.04 129.327 1040.08 127.107 1041.7 124.198C1043.34 121.288 1044.51 117.756 1045.21 113.599ZM1062.95 148.117L1074.1 80.9187H1103.11C1108.1 80.9187 1112.3 81.9031 1115.71 83.8718C1119.12 85.8405 1121.57 88.6077 1123.06 92.1732C1124.55 95.7388 1124.9 99.9059 1124.11 104.675C1123.32 109.531 1121.57 113.72 1118.86 117.242C1116.17 120.741 1112.74 123.443 1108.56 125.346C1104.4 127.227 1099.74 128.168 1094.58 128.168H1077.25L1079.62 113.993H1093.27C1095.45 113.993 1097.38 113.621 1099.04 112.878C1100.7 112.112 1102.05 111.04 1103.08 109.662C1104.11 108.262 1104.77 106.6 1105.08 104.675C1105.39 102.75 1105.24 101.109 1104.65 99.7528C1104.08 98.3747 1103.1 97.3247 1101.7 96.6028C1100.32 95.8591 1098.56 95.4872 1096.42 95.4872H1089.99L1081.19 148.117H1062.95ZM1190.37 115.699C1189.14 123.005 1186.72 129.13 1183.08 134.074C1179.45 139.018 1175.05 142.747 1169.86 145.263C1164.68 147.778 1159.13 149.036 1153.23 149.036C1146.93 149.036 1141.46 147.669 1136.82 144.935C1132.18 142.2 1128.8 138.197 1126.68 132.926C1124.56 127.654 1124.13 121.212 1125.4 113.599C1126.58 106.293 1128.99 100.147 1132.62 95.1591C1136.25 90.1717 1140.68 86.3983 1145.91 83.839C1151.14 81.2797 1156.73 80 1162.68 80C1168.93 80 1174.37 81.3781 1178.98 84.1343C1183.62 86.8905 1186.99 90.9264 1189.09 96.2419C1191.21 101.557 1191.64 108.043 1190.37 115.699ZM1171.99 113.599C1172.61 109.749 1172.65 106.512 1172.13 103.887C1171.6 101.24 1170.5 99.2496 1168.81 97.9153C1167.13 96.5591 1164.86 95.881 1162.02 95.881C1158.78 95.881 1155.92 96.6684 1153.42 98.2434C1150.93 99.8184 1148.86 102.082 1147.22 105.035C1145.58 107.989 1144.43 111.543 1143.78 115.699C1143.08 119.593 1143.01 122.83 1143.58 125.412C1144.17 127.993 1145.33 129.929 1147.06 131.219C1148.81 132.51 1151.08 133.155 1153.88 133.155C1157.08 133.155 1159.9 132.39 1162.35 130.858C1164.82 129.327 1166.86 127.107 1168.48 124.198C1170.12 121.288 1171.29 117.756 1171.99 113.599ZM1189.73 148.117L1200.89 80.9187H1230.03C1235.14 80.9187 1239.33 81.6078 1242.59 82.9859C1245.87 84.364 1248.19 86.3108 1249.55 88.8264C1250.93 91.342 1251.33 94.306 1250.76 97.7184C1250.33 100.168 1249.38 102.411 1247.94 104.445C1246.52 106.457 1244.71 108.164 1242.53 109.564C1240.36 110.942 1237.94 111.893 1235.28 112.418L1235.14 113.074C1238.03 113.162 1240.55 113.884 1242.69 115.24C1244.83 116.574 1246.41 118.434 1247.42 120.818C1248.42 123.18 1248.66 125.937 1248.14 129.087C1247.53 132.762 1246.03 136.032 1243.64 138.897C1241.26 141.763 1238.16 144.016 1234.36 145.657C1230.55 147.297 1226.22 148.117 1221.36 148.117H1189.73ZM1210.47 133.549H1219C1222.02 133.549 1224.39 132.969 1226.12 131.81C1227.87 130.651 1228.91 128.955 1229.24 126.724C1229.5 125.149 1229.37 123.815 1228.84 122.721C1228.32 121.627 1227.43 120.796 1226.19 120.227C1224.94 119.659 1223.38 119.374 1221.49 119.374H1212.7L1210.47 133.549ZM1214.67 108.087H1222.15C1223.73 108.087 1225.17 107.835 1226.48 107.332C1227.79 106.829 1228.88 106.096 1229.73 105.134C1230.58 104.171 1231.12 103.012 1231.34 101.656C1231.67 99.5559 1231.16 97.959 1229.83 96.8653C1228.52 95.7716 1226.74 95.2247 1224.51 95.2247H1216.77L1214.67 108.087Z" fill="#DE127A"/>
</svg>
