<svg width="143" height="51" viewBox="0 0 143 51" fill="none" xmlns="http://www.w3.org/2000/svg">
<path d="M143 0.000213482L0 8.32089L10.2956 47.8624L119.853 51.0002L143 0.000213482Z" fill="white"/>
<path d="M32.6023 37.6518C30.7992 37.6518 29.2522 37.3525 27.9613 36.7539C26.6703 36.1481 25.7183 35.3151 25.1053 34.2549C24.4995 33.1947 24.3156 31.9759 24.5536 30.5984H30.5252C30.4458 31.0239 30.4999 31.4061 30.6874 31.7451C30.8822 32.0768 31.1779 32.3365 31.5745 32.524C31.9712 32.7115 32.4292 32.8053 32.9484 32.8053C33.5687 32.8053 34.1276 32.679 34.6252 32.4266C35.1301 32.1742 35.5412 31.846 35.8585 31.4422C36.1831 31.0383 36.3814 30.6128 36.4535 30.1656C36.5328 29.7041 36.4571 29.329 36.2263 29.0405C35.9955 28.7448 35.653 28.5285 35.1986 28.3915C34.7442 28.2472 34.2106 28.1751 33.5975 28.1751H31.2175L31.9099 24.0209H34.0303C34.6433 24.0209 35.2058 23.9091 35.7179 23.6856C36.2299 23.462 36.6555 23.1555 36.9944 22.766C37.3334 22.3694 37.5425 21.9222 37.6219 21.4246C37.6868 21.0423 37.6543 20.7106 37.5245 20.4293C37.4019 20.1408 37.1819 19.9172 36.8646 19.7586C36.5545 19.5999 36.1434 19.5206 35.6313 19.5206C35.076 19.5206 34.5423 19.6179 34.0303 19.8127C33.5182 20.0074 33.0891 20.2778 32.7429 20.624C32.3967 20.9702 32.1912 21.3669 32.1263 21.814H26.4143C26.6379 20.4582 27.1968 19.2609 28.0911 18.2224C28.9854 17.1839 30.1105 16.3689 31.4664 15.7775C32.8294 15.1861 34.3187 14.8904 35.9342 14.8904C37.6219 14.8904 39.0571 15.2005 40.2399 15.8208C41.4226 16.441 42.2917 17.2632 42.847 18.2873C43.4024 19.3114 43.5791 20.4293 43.3771 21.6409C43.1608 22.9463 42.573 23.9344 41.6138 24.6051C40.6546 25.2758 39.4537 25.6725 38.0113 25.7951V25.9682C39.5836 26.1485 40.7988 26.7255 41.657 27.6991C42.5153 28.6727 42.829 29.8699 42.5982 31.2907C42.4035 32.5023 41.8446 33.5878 40.9214 34.547C39.9983 35.5062 38.8155 36.2635 37.3731 36.8188C35.9379 37.3741 34.3476 37.6518 32.6023 37.6518ZM55.1863 14.8904C56.5133 14.8904 57.7358 15.1032 58.8537 15.5287C59.9715 15.9542 60.9127 16.6213 61.6772 17.53C62.4417 18.4316 62.9646 19.5999 63.2458 21.0351C63.5271 22.4703 63.4946 24.2012 63.1485 26.2278C62.8456 28.0092 62.3551 29.6067 61.6772 31.0203C61.0065 32.4338 60.1771 33.6346 59.189 34.6227C58.201 35.6036 57.0867 36.3536 55.8462 36.8729C54.613 37.3921 53.2823 37.6518 51.8543 37.6518C50.21 37.6518 48.8036 37.3417 47.6353 36.7214C46.4741 36.1012 45.5978 35.2646 45.0064 34.2116C44.4223 33.1587 44.1662 31.9831 44.2384 30.6849H50.0802C50.0729 31.3773 50.2821 31.8605 50.7076 32.1345C51.1403 32.4086 51.6524 32.5456 52.2438 32.5456C53.5564 32.5456 54.631 31.9687 55.4676 30.8147C56.3042 29.6536 56.8884 28.1535 57.2201 26.3144L57.047 26.6173C56.6576 27.2952 56.1455 27.865 55.5109 28.3265C54.8834 28.7881 54.1838 29.1379 53.4121 29.3759C52.6477 29.6139 51.8543 29.7329 51.0321 29.7329C49.6619 29.7329 48.5079 29.4156 47.5703 28.7809C46.6328 28.1462 45.9657 27.2808 45.569 26.1846C45.1723 25.0883 45.0894 23.8478 45.3202 22.4631C45.5798 20.9341 46.1676 19.6035 47.0835 18.4712C47.9995 17.3317 49.157 16.4518 50.5562 15.8316C51.9553 15.2041 53.4987 14.8904 55.1863 14.8904ZM54.97 19.434C54.3353 19.434 53.7367 19.5855 53.1741 19.8884C52.6116 20.1841 52.1428 20.5916 51.7678 21.1108C51.3928 21.6229 51.162 22.2035 51.0754 22.8526C51.0033 23.4007 51.0502 23.8875 51.2161 24.313C51.3819 24.7385 51.656 25.0703 52.0382 25.3083C52.4205 25.5463 52.8929 25.6653 53.4554 25.6653C53.9314 25.6653 54.3858 25.5787 54.8185 25.4056C55.2512 25.2326 55.6443 24.9946 55.9977 24.6917C56.3583 24.3815 56.654 24.0173 56.8848 23.599C57.1228 23.1807 57.2778 22.73 57.3499 22.2468C57.4365 21.6842 57.3932 21.1938 57.2201 20.7755C57.047 20.35 56.7694 20.0218 56.3871 19.791C56.0049 19.553 55.5325 19.434 54.97 19.434ZM72.2261 37.9547C70.2067 37.9547 68.5371 37.4931 67.2173 36.57C65.8975 35.6396 64.9851 34.3054 64.4803 32.5673C63.9754 30.8291 63.9322 28.7448 64.3505 26.3144C64.7688 23.8767 65.5152 21.8068 66.5898 20.1048C67.6716 18.4027 69.0131 17.1081 70.6142 16.221C72.2225 15.334 74.0291 14.8904 76.0341 14.8904C78.039 14.8904 79.6978 15.334 81.0104 16.221C82.323 17.1081 83.2353 18.4027 83.7474 20.1048C84.2595 21.7996 84.3135 23.8695 83.9097 26.3144C83.5058 28.7521 82.7629 30.84 81.6811 32.5781C80.6065 34.3162 79.2615 35.6468 77.646 36.57C76.0377 37.4931 74.231 37.9547 72.2261 37.9547ZM73.0483 33.0649C74.0868 33.0649 75.0172 32.524 75.8393 31.4422C76.6687 30.3531 77.2818 28.6439 77.6784 26.3144C77.9381 24.7998 77.9994 23.5594 77.8623 22.5929C77.7253 21.6193 77.4296 20.9017 76.9752 20.4401C76.5209 19.9713 75.9475 19.7369 75.2552 19.7369C74.2166 19.7369 73.2718 20.267 72.4208 21.3272C71.577 22.3802 70.964 24.0426 70.5817 26.3144C70.3221 27.8722 70.2644 29.1487 70.4086 30.144C70.5529 31.1393 70.8558 31.8749 71.3174 32.3509C71.7789 32.8269 72.3559 33.0649 73.0483 33.0649ZM102.049 29.9925H89.8891L90.668 25.3191H102.611C103.383 25.3191 104.028 25.2253 104.548 25.0378C105.074 24.8431 105.482 24.5618 105.77 24.194C106.066 23.819 106.253 23.3574 106.333 22.8093C106.426 22.29 106.394 21.814 106.235 21.3813C106.084 20.9486 105.799 20.6024 105.381 20.3428C104.97 20.0831 104.421 19.9533 103.736 19.9533H100.448L97.5483 37.3489H91.5767L95.2549 15.1933H104.515C106.34 15.1933 107.883 15.5143 109.145 16.1561C110.415 16.798 111.334 17.6851 111.904 18.8174C112.481 19.9497 112.643 21.2515 112.391 22.7227C112.138 24.3094 111.529 25.6436 110.563 26.7255C109.596 27.8001 108.377 28.615 106.906 29.1704C105.435 29.7185 103.816 29.9925 102.049 29.9925ZM103.433 30.9878L102.654 35.6612H88.9803L89.7593 30.9878H103.433Z" fill="#121212"/>
</svg>
