<svg width="99" height="30" viewBox="0 0 99 30" fill="none" xmlns="http://www.w3.org/2000/svg">
<path d="M98.4438 0L0 4.16093L6.5325 26.9147L83.7574 29.3474L98.4438 0Z" fill="white"/>
<path d="M17.6855 20.5331C16.663 20.5331 15.8205 20.3307 15.158 19.9258C14.4995 19.5168 14.0373 18.9483 13.7715 18.2203C13.5057 17.4882 13.4525 16.6396 13.612 15.6744C13.7715 14.7092 14.1048 13.8626 14.612 13.1346C15.1191 12.4025 15.7714 11.834 16.569 11.4291C17.3665 11.0201 18.2785 10.8156 19.3051 10.8156C20.3234 10.8156 21.1618 11.0201 21.8203 11.4291C22.4829 11.834 22.9471 12.4025 23.2129 13.1346C23.4828 13.8626 23.538 14.7092 23.3785 15.6744C23.219 16.6396 22.8837 17.4882 22.3724 18.2203C21.8612 18.9483 21.2068 19.5168 20.4093 19.9258C19.6159 20.3307 18.7079 20.5331 17.6855 20.5331ZM18.1026 18.0301C18.3971 18.0301 18.665 17.934 18.9063 17.7418C19.1517 17.5496 19.3603 17.2755 19.532 16.9197C19.7079 16.5639 19.8367 16.1406 19.9185 15.6498C20.0003 15.155 20.0126 14.7317 19.9553 14.3799C19.8981 14.0241 19.7795 13.7501 19.5995 13.5579C19.4196 13.3657 19.1824 13.2695 18.8879 13.2695C18.5934 13.2695 18.3235 13.3657 18.0781 13.5579C17.8327 13.7501 17.6241 14.0241 17.4524 14.3799C17.2806 14.7317 17.1538 15.155 17.072 15.6498C16.9902 16.1406 16.9759 16.5639 17.0291 16.9197C17.0863 17.2755 17.2049 17.5496 17.3849 17.7418C17.5689 17.934 17.8082 18.0301 18.1026 18.0301ZM23.7105 13.4659L24.1277 10.9383H33.2562L32.839 13.4659H29.8452L28.6919 20.3613H25.5018L26.6552 13.4659H23.7105ZM43.2234 7.79734L41.1376 20.3613H37.7267L39.2972 10.9383H39.2236L36.2053 12.5825L36.6715 9.68685L40.0824 7.79734H43.2234ZM49.9217 7.62557C50.6743 7.62557 51.3675 7.74622 52.0014 7.98752C52.6353 8.22882 53.1691 8.60713 53.6026 9.12245C54.0361 9.63368 54.3326 10.2962 54.4921 11.1101C54.6516 11.924 54.6332 12.9056 54.4369 14.0548C54.2651 15.065 53.987 15.9709 53.6026 16.7725C53.2222 17.5741 52.7519 18.2551 52.1916 18.8154C51.6313 19.3716 50.9994 19.7969 50.296 20.0914C49.5966 20.3859 48.842 20.5331 48.0322 20.5331C47.0997 20.5331 46.3022 20.3572 45.6397 20.0055C44.9812 19.6538 44.4843 19.1794 44.1489 18.5822C43.8177 17.9851 43.6725 17.3185 43.7134 16.5823H47.0261C47.022 16.9749 47.1406 17.249 47.3819 17.4044C47.6273 17.5598 47.9177 17.6375 48.2531 17.6375C48.9974 17.6375 49.6068 17.3103 50.0812 16.6559C50.5557 15.9975 50.8869 15.1468 51.0751 14.1039L50.9769 14.2756C50.7561 14.6601 50.4657 14.9832 50.1058 15.2449C49.75 15.5067 49.3532 15.705 48.9156 15.84C48.4821 15.975 48.0322 16.0425 47.566 16.0425C46.7889 16.0425 46.1345 15.8625 45.6029 15.5026C45.0712 15.1427 44.6929 14.6519 44.4679 14.0303C44.243 13.4086 44.196 12.7051 44.3268 11.9199C44.4741 11.0529 44.8074 10.2983 45.3268 9.65617C45.8462 9.00998 46.5026 8.51102 47.2961 8.15929C48.0895 7.80348 48.9647 7.62557 49.9217 7.62557ZM49.799 10.2022C49.4391 10.2022 49.0997 10.2881 48.7807 10.4598C48.4617 10.6275 48.1958 10.8586 47.9832 11.1531C47.7705 11.4434 47.6396 11.7727 47.5905 12.1408C47.5496 12.4516 47.5762 12.7276 47.6703 12.9689C47.7643 13.2102 47.9198 13.3984 48.1365 13.5333C48.3533 13.6683 48.6212 13.7358 48.9402 13.7358C49.2101 13.7358 49.4678 13.6867 49.7132 13.5886C49.9585 13.4904 50.1814 13.3554 50.3818 13.1837C50.5863 13.0078 50.754 12.8013 50.8849 12.564C51.0199 12.3268 51.1078 12.0712 51.1487 11.7972C51.1978 11.4782 51.1732 11.2001 51.0751 10.9629C50.9769 10.7216 50.8195 10.5355 50.6027 10.4046C50.3859 10.2697 50.118 10.2022 49.799 10.2022ZM59.5847 20.7049C58.4395 20.7049 57.4927 20.4431 56.7443 19.9196C55.9958 19.392 55.4785 18.6354 55.1922 17.6498C54.9059 16.6641 54.8813 15.4821 55.1186 14.1039C55.3558 12.7215 55.7791 11.5477 56.3884 10.5825C57.0019 9.61732 57.7626 8.88319 58.6706 8.38014C59.5826 7.87709 60.6071 7.62557 61.7441 7.62557C62.8811 7.62557 63.8217 7.87709 64.5661 8.38014C65.3104 8.88319 65.8278 9.61732 66.1182 10.5825C66.4086 11.5436 66.4392 12.7174 66.2102 14.1039C65.9812 15.4862 65.5599 16.6702 64.9464 17.6559C64.337 18.6416 63.5743 19.3961 62.6582 19.9196C61.7461 20.4431 60.7216 20.7049 59.5847 20.7049ZM60.0509 17.932C60.6398 17.932 61.1674 17.6252 61.6337 17.0117C62.104 16.3942 62.4516 15.4249 62.6766 14.1039C62.8238 13.245 62.8586 12.5416 62.7809 11.9935C62.7032 11.4414 62.5355 11.0344 62.2778 10.7727C62.0202 10.5069 61.695 10.3739 61.3024 10.3739C60.7135 10.3739 60.1777 10.6745 59.6951 11.2758C59.2166 11.8729 58.8689 12.8156 58.6522 14.1039C58.5049 14.9873 58.4722 15.7112 58.554 16.2756C58.6358 16.84 58.8076 17.2571 59.0693 17.5271C59.3311 17.797 59.6583 17.932 60.0509 17.932ZM76.4965 16.1897H69.601L70.0427 13.5395H76.8155C77.2531 13.5395 77.6191 13.4863 77.9136 13.38C78.2122 13.2695 78.4432 13.11 78.6068 12.9015C78.7745 12.6888 78.8808 12.427 78.9258 12.1162C78.979 11.8217 78.9606 11.5518 78.8706 11.3064C78.7847 11.061 78.6232 10.8647 78.386 10.7175C78.1529 10.5703 77.842 10.4966 77.4535 10.4966H75.5885L73.9444 20.3613H70.558L72.6438 7.79734H77.8952C78.9299 7.79734 79.8051 7.97934 80.5209 8.34334C81.2407 8.70733 81.7621 9.21038 82.0852 9.85249C82.4124 10.4946 82.5044 11.2328 82.3613 12.0671C82.2182 12.9669 81.8726 13.7235 81.3245 14.337C80.7765 14.9464 80.0853 15.4085 79.251 15.7235C78.4166 16.0343 77.4985 16.1897 76.4965 16.1897ZM77.2817 16.7541L76.84 19.4043H69.0857L69.5274 16.7541H77.2817Z" fill="#121212"/>
</svg>
