<svg width="51" height="29" viewBox="0 0 51 29" fill="none" xmlns="http://www.w3.org/2000/svg">
<path d="M50.9264 0L0 3.61901L6.37033 25.8377L36.6046 28.6574L50.9264 0Z" fill="white"/>
<path d="M18.115 20.1519C16.9968 20.1519 16.0723 19.8963 15.3414 19.3851C14.6106 18.8699 14.1054 18.1311 13.8258 17.1686C13.5463 16.2061 13.5223 15.052 13.7539 13.7061C13.9856 12.3562 14.3989 11.21 14.994 10.2675C15.593 9.32504 16.3358 8.60817 17.2224 8.11695C18.113 7.62573 19.1134 7.38012 20.2237 7.38012C21.3339 7.38012 22.2525 7.62573 22.9793 8.11695C23.7062 8.60817 24.2114 9.32504 24.4949 10.2675C24.7785 11.2061 24.8084 12.3522 24.5848 13.7061C24.3611 15.056 23.9498 16.2121 23.3507 17.1746C22.7557 18.1371 22.0108 18.8739 21.1163 19.3851C20.2257 19.8963 19.2253 20.1519 18.115 20.1519ZM18.5703 17.4442C19.1454 17.4442 19.6606 17.1446 20.1158 16.5456C20.5751 15.9425 20.9146 14.996 21.1342 13.7061C21.278 12.8674 21.3119 12.1805 21.2361 11.6454C21.1602 11.1062 20.9964 10.7088 20.7448 10.4532C20.4932 10.1937 20.1757 10.0639 19.7924 10.0639C19.2173 10.0639 18.6941 10.3574 18.2228 10.9445C17.7556 11.5275 17.4161 12.4481 17.2045 13.7061C17.0607 14.5687 17.0287 15.2756 17.1086 15.8267C17.1885 16.3779 17.3562 16.7852 17.6118 17.0488C17.8674 17.3124 18.1869 17.4442 18.5703 17.4442ZM24.6588 17.8994L25.0901 15.3115L31.3202 7.54785H33.6685L33.0934 10.9984H31.7516L28.3969 15.2157L28.3729 15.3115H35.6574L35.2261 17.8994H24.6588ZM30.3138 19.8164L30.7691 17.1087L31.0327 15.9825L32.4225 7.54785H35.5376L33.5008 19.8164H30.3138Z" fill="#DE127A"/>
</svg>
