<svg width="51" height="29" viewBox="0 0 51 29" fill="none" xmlns="http://www.w3.org/2000/svg">
<path d="M50.9264 0L0 3.61901L6.37033 25.8377L36.6046 28.6574L50.9264 0Z" fill="white"/>
<path d="M18.115 20.1519C16.9968 20.1519 16.0723 19.8963 15.3414 19.3851C14.6106 18.8699 14.1054 18.1311 13.8258 17.1686C13.5463 16.2061 13.5223 15.052 13.7539 13.7061C13.9856 12.3562 14.3989 11.21 14.994 10.2675C15.593 9.32504 16.3358 8.60817 17.2224 8.11695C18.113 7.62573 19.1134 7.38012 20.2237 7.38012C21.3339 7.38012 22.2525 7.62573 22.9793 8.11695C23.7062 8.60817 24.2114 9.32504 24.4949 10.2675C24.7785 11.2061 24.8084 12.3522 24.5848 13.7061C24.3611 15.056 23.9498 16.2121 23.3507 17.1746C22.7557 18.1371 22.0108 18.8739 21.1163 19.3851C20.2257 19.8963 19.2253 20.1519 18.115 20.1519ZM18.5703 17.4442C19.1454 17.4442 19.6606 17.1446 20.1158 16.5456C20.5751 15.9425 20.9146 14.996 21.1342 13.7061C21.278 12.8674 21.3119 12.1805 21.2361 11.6454C21.1602 11.1062 20.9964 10.7088 20.7448 10.4532C20.4932 10.1937 20.1757 10.0639 19.7924 10.0639C19.2173 10.0639 18.6941 10.3574 18.2228 10.9445C17.7556 11.5275 17.4161 12.4481 17.2045 13.7061C17.0607 14.5687 17.0287 15.2756 17.1086 15.8267C17.1885 16.3779 17.3562 16.7852 17.6118 17.0488C17.8674 17.3124 18.1869 17.4442 18.5703 17.4442ZM29.4033 19.9841C28.4049 19.9841 27.5482 19.8184 26.8334 19.4869C26.1185 19.1515 25.5913 18.6902 25.2519 18.1031C24.9164 17.5161 24.8146 16.8411 24.9463 16.0783H28.2531C28.2092 16.314 28.2391 16.5256 28.343 16.7133C28.4508 16.897 28.6145 17.0408 28.8342 17.1446C29.0538 17.2485 29.3074 17.3004 29.595 17.3004C29.9384 17.3004 30.2479 17.2305 30.5235 17.0907C30.8031 16.9509 31.0307 16.7692 31.2064 16.5456C31.3861 16.3219 31.496 16.0863 31.5359 15.8387C31.5798 15.5831 31.5379 15.3754 31.4101 15.2157C31.2823 15.052 31.0926 14.9321 30.841 14.8563C30.5894 14.7764 30.2939 14.7365 29.9544 14.7365H28.6365L29.0199 12.4361H30.194C30.5335 12.4361 30.845 12.3742 31.1285 12.2504C31.4121 12.1266 31.6477 11.9569 31.8354 11.7412C32.0231 11.5216 32.1389 11.2739 32.1829 10.9984C32.2188 10.7867 32.2008 10.603 32.129 10.4473C32.0611 10.2875 31.9393 10.1637 31.7635 10.0758C31.5918 9.98798 31.3642 9.94405 31.0806 9.94405C30.7731 9.94405 30.4776 9.99797 30.194 10.1058C29.9105 10.2136 29.6729 10.3634 29.4812 10.5551C29.2895 10.7468 29.1756 10.9664 29.1397 11.214H25.9767C26.1005 10.4632 26.41 9.80028 26.9052 9.22519C27.4005 8.65011 28.0235 8.19882 28.7743 7.87134C29.5291 7.54386 30.3538 7.38012 31.2484 7.38012C32.1829 7.38012 32.9776 7.55185 33.6326 7.8953C34.2875 8.23876 34.7688 8.69404 35.0763 9.26114C35.3838 9.82824 35.4816 10.4473 35.3698 11.1182C35.25 11.841 34.9245 12.3882 34.3934 12.7596C33.8622 13.131 33.1973 13.3507 32.3985 13.4185V13.5144C33.2692 13.6142 33.9421 13.9337 34.4173 14.4729C34.8926 15.012 35.0663 15.675 34.9385 16.4617C34.8307 17.1327 34.5212 17.7337 34.01 18.2649C33.4988 18.796 32.8438 19.2154 32.0451 19.5229C31.2504 19.8304 30.3697 19.9841 29.4033 19.9841Z" fill="#DE127A"/>
</svg>
