<svg width="243" height="47" viewBox="0 0 243 47" fill="none" xmlns="http://www.w3.org/2000/svg">
<path d="M242.019 0L0 6.63903L10.3536 42.751L218.742 46.5766L242.019 0Z" fill="#B2A288"/>
<path d="M22.8217 17.3809L23.5616 13.019H40.8923L40.1523 17.3809H34.1548L31.5844 32.959H26.2489L28.8192 17.3809H22.8217ZM51.8711 22.8721H47.0419C47.0678 22.5606 47.0126 22.2945 46.8763 22.0738C46.74 21.8531 46.5485 21.6843 46.3019 21.5675C46.0617 21.4506 45.7891 21.3922 45.484 21.3922C44.9518 21.3922 44.4682 21.5123 44.0333 21.7525C43.5984 21.9861 43.355 22.2945 43.3031 22.6774C43.2707 22.8267 43.3193 22.9663 43.4492 23.0961C43.579 23.2259 43.9197 23.346 44.4715 23.4563L47.4313 24.0016C48.9112 24.2742 49.9887 24.7707 50.6638 25.4912C51.3453 26.2052 51.592 27.1496 51.4037 28.3245C51.2285 29.3436 50.7806 30.2198 50.0601 30.9533C49.3396 31.6868 48.4244 32.2515 47.3145 32.6474C46.211 33.0369 44.9907 33.2316 43.6536 33.2316C41.2974 33.2316 39.5319 32.761 38.3571 31.8198C37.1887 30.8787 36.6564 29.6486 36.7603 28.1298H41.979C41.9919 28.6166 42.1542 28.9833 42.4658 29.23C42.7838 29.4701 43.2057 29.5967 43.7315 29.6097C44.3027 29.6292 44.8025 29.5156 45.2309 29.2689C45.6593 29.0158 45.8995 28.701 45.9514 28.3245C45.9709 28.1103 45.8767 27.948 45.669 27.8377C45.4678 27.7273 45.0816 27.617 44.5104 27.5066L41.94 27.0393C40.4601 26.7732 39.3826 26.2409 38.7076 25.4425C38.0325 24.6377 37.7988 23.6121 38.0065 22.3659C38.1753 21.3728 38.5777 20.5387 39.2138 19.8636C39.8564 19.1886 40.7003 18.679 41.7453 18.335C42.7903 17.9845 43.9976 17.8093 45.3672 17.8093C47.6066 17.8093 49.3007 18.2604 50.4496 19.1626C51.6049 20.0584 52.0788 21.2949 51.8711 22.8721ZM62.3752 26.4162L63.7772 18.004H69.1517L66.6592 32.959H61.5574L62.0247 30.116H61.8689C61.4081 31.0701 60.72 31.8166 59.8048 32.3553C58.8961 32.8876 57.8835 33.1537 56.7671 33.1537C55.7221 33.1537 54.849 32.9135 54.148 32.4332C53.447 31.9529 52.9504 31.2908 52.6584 30.447C52.3663 29.6032 52.3078 28.6361 52.4831 27.5456L54.0799 18.004H59.4543L58.0523 26.4162C57.9419 27.1561 58.0361 27.7371 58.3346 28.159C58.6397 28.5809 59.1298 28.7918 59.8048 28.7918C60.2527 28.7918 60.6551 28.6977 61.0121 28.5095C61.3756 28.3148 61.6742 28.0421 61.9079 27.6916C62.148 27.3346 62.3038 26.9095 62.3752 26.4162ZM75.1114 24.5468L73.7094 32.959H68.3349L70.8274 18.004H75.9292L75.4619 20.847H75.6177C76.0915 19.8928 76.7828 19.1496 77.6915 18.6174C78.6067 18.0786 79.6161 17.8093 80.7195 17.8093C81.7775 17.8093 82.657 18.0494 83.3581 18.5297C84.0591 19.0101 84.5556 19.6721 84.8477 20.516C85.1398 21.3598 85.1917 22.3269 85.0035 23.4174L83.4067 32.959H78.0323L79.4343 24.5468C79.5577 23.8068 79.4668 23.2259 79.1617 22.804C78.8631 22.3821 78.3698 22.1711 77.6818 22.1711C77.2469 22.1711 76.8477 22.2685 76.4842 22.4632C76.1272 22.6515 75.8286 22.9241 75.5885 23.2811C75.3548 23.6316 75.1958 24.0535 75.1114 24.5468ZM89.0524 33.1927C88.1048 33.1927 87.2902 33.0369 86.6086 32.7253C85.9336 32.4073 85.4403 31.9269 85.1287 31.2843C84.8236 30.6352 84.7555 29.8174 84.9242 28.8308C85.0606 28.0129 85.3169 27.3152 85.6934 26.7375C86.0699 26.1598 86.5372 25.6859 87.0954 25.316C87.6537 24.946 88.28 24.6636 88.9746 24.4689C89.6756 24.2677 90.4155 24.1379 91.1944 24.0795C92.0383 24.0145 92.723 23.9334 93.2488 23.836C93.7746 23.7387 94.1673 23.6056 94.4269 23.4369C94.6865 23.2681 94.8423 23.0409 94.8942 22.7553V22.7164C94.9527 22.3269 94.8488 22.0283 94.5827 21.8206C94.323 21.6129 93.9596 21.5091 93.4922 21.5091C92.9859 21.5091 92.5478 21.6194 92.1778 21.8401C91.8143 22.0608 91.5644 22.4048 91.4281 22.8721H86.4821C86.6898 21.9634 87.1149 21.1261 87.7575 20.3602C88.4066 19.5878 89.2666 18.9711 90.3376 18.5103C91.4151 18.0429 92.7003 17.8093 94.1932 17.8093C95.2577 17.8093 96.1924 17.9358 96.9973 18.189C97.8022 18.4356 98.4675 18.7829 98.9932 19.2308C99.5255 19.6721 99.8987 20.1914 100.113 20.7886C100.334 21.3792 100.386 22.0218 100.269 22.7164L98.5551 32.959H93.5312L93.8817 30.8559H93.7648C93.3754 31.4142 92.9372 31.8653 92.4504 32.2093C91.9701 32.5533 91.4443 32.8032 90.8731 32.959C90.3084 33.1148 89.7015 33.1927 89.0524 33.1927ZM91.3892 29.8044C91.7916 29.8044 92.1875 29.72 92.577 29.5513C92.9665 29.3825 93.3007 29.1391 93.5798 28.821C93.859 28.503 94.0374 28.1168 94.1153 27.6624L94.3101 26.4162C94.1673 26.4746 94.0082 26.5298 93.833 26.5817C93.6642 26.6271 93.4857 26.6726 93.2975 26.718C93.1157 26.7634 92.921 26.8056 92.7133 26.8446C92.5121 26.8835 92.3044 26.9225 92.0902 26.9614C91.6618 27.0263 91.3015 27.1334 91.0095 27.2827C90.7174 27.4255 90.4902 27.604 90.3279 27.8182C90.1656 28.0259 90.065 28.2596 90.0261 28.5192C89.9677 28.9281 90.0618 29.2462 90.3084 29.4734C90.5616 29.6941 90.9218 29.8044 91.3892 29.8044ZM100.065 32.959L102.558 18.004H107.66L107.192 20.847H107.348C107.809 19.9123 108.461 19.1723 109.305 18.6271C110.149 18.0819 111.093 17.8093 112.138 17.8093C113.183 17.8093 114.04 18.0884 114.709 18.6466C115.377 19.1983 115.715 19.9318 115.721 20.847H115.877C116.28 19.9318 116.938 19.1983 117.854 18.6466C118.769 18.0884 119.785 17.8093 120.901 17.8093C122.323 17.8093 123.403 18.2701 124.143 19.1918C124.89 20.1135 125.133 21.3403 124.873 22.8721L123.199 32.959H117.824L119.304 24.2352C119.395 23.5797 119.304 23.0669 119.032 22.6969C118.759 22.3204 118.344 22.1322 117.785 22.1322C117.234 22.1322 116.766 22.3204 116.383 22.6969C116.007 23.0669 115.773 23.5797 115.682 24.2352L114.202 32.959H109.062L110.542 24.2352C110.632 23.5797 110.542 23.0669 110.269 22.6969C109.996 22.3204 109.581 22.1322 109.023 22.1322C108.659 22.1322 108.328 22.2166 108.03 22.3853C107.738 22.5541 107.494 22.7975 107.299 23.1156C107.111 23.4271 106.985 23.8003 106.92 24.2352L105.44 32.959H100.065ZM124.714 32.959L127.206 18.004H132.581L130.088 32.959H124.714ZM130.127 16.4462C129.4 16.4462 128.813 16.206 128.365 15.7257C127.917 15.2389 127.752 14.6612 127.868 13.9926C127.985 13.3111 128.342 12.7334 128.939 12.2596C129.537 11.7792 130.199 11.5391 130.926 11.5391C131.659 11.5391 132.243 11.7792 132.678 12.2596C133.113 12.7334 133.275 13.3111 133.165 13.9926C133.061 14.6612 132.711 15.2389 132.114 15.7257C131.523 16.206 130.861 16.4462 130.127 16.4462ZM136.017 32.959L139.328 13.019H147.935C149.415 13.019 150.661 13.3111 151.673 13.8953C152.686 14.4794 153.413 15.3005 153.854 16.3585C154.296 17.4166 154.4 18.6531 154.166 20.0681C153.932 21.5091 153.413 22.7521 152.608 23.7971C151.81 24.8356 150.791 25.6373 149.551 26.202C148.318 26.7602 146.935 27.0393 145.403 27.0393H140.263L140.964 22.8332H145.014C145.663 22.8332 146.234 22.7229 146.727 22.5022C147.221 22.275 147.62 21.9569 147.925 21.548C148.23 21.1326 148.428 20.6393 148.519 20.0681C148.61 19.4969 148.568 19.0101 148.392 18.6076C148.224 18.1987 147.931 17.8871 147.516 17.6729C147.107 17.4523 146.585 17.3419 145.949 17.3419H144.04L141.431 32.959H136.017ZM152.991 32.959L155.484 18.004H160.858L158.366 32.959H152.991ZM158.405 16.4462C157.678 16.4462 157.09 16.206 156.643 15.7257C156.195 15.2389 156.029 14.6612 156.146 13.9926C156.263 13.3111 156.62 12.7334 157.217 12.2596C157.814 11.7792 158.476 11.5391 159.203 11.5391C159.937 11.5391 160.521 11.7792 160.956 12.2596C161.391 12.7334 161.553 13.3111 161.443 13.9926C161.339 14.6612 160.988 15.2389 160.391 15.7257C159.8 16.206 159.138 16.4462 158.405 16.4462ZM167.173 33.2316C165.551 33.2316 164.214 32.9103 163.162 32.2677C162.111 31.6186 161.374 30.7164 160.952 29.561C160.53 28.3991 160.449 27.0523 160.709 25.5204C160.955 23.9886 161.481 22.645 162.286 21.4896C163.097 20.3277 164.136 19.4255 165.401 18.7829C166.674 18.1338 168.121 17.8093 169.744 17.8093C171.211 17.8093 172.434 18.0754 173.414 18.6076C174.401 19.1334 175.105 19.8799 175.527 20.847C175.956 21.8076 176.066 22.9371 175.858 24.2352H170.873C170.932 23.4563 170.805 22.8592 170.494 22.4438C170.188 22.0283 169.744 21.8206 169.16 21.8206C168.679 21.8206 168.238 21.9569 167.835 22.2296C167.44 22.4957 167.099 22.9014 166.813 23.4466C166.534 23.9853 166.33 24.6636 166.2 25.4815C166.07 26.2993 166.054 26.9809 166.151 27.5261C166.255 28.0649 166.456 28.4705 166.755 28.7432C167.06 29.0093 167.446 29.1423 167.913 29.1423C168.316 29.1423 168.686 29.0515 169.023 28.8697C169.367 28.6815 169.663 28.4089 169.909 28.0519C170.162 27.6884 170.354 27.247 170.484 26.7277H175.469C175.222 28.0519 174.726 29.2008 173.979 30.1744C173.233 31.148 172.282 31.901 171.126 32.4332C169.971 32.9655 168.653 33.2316 167.173 33.2316ZM182.353 24.5468L180.951 32.959H175.577L178.069 18.004H183.171L182.704 20.847H182.86C183.334 19.8928 184.025 19.1496 184.934 18.6174C185.849 18.0786 186.858 17.8093 187.962 17.8093C189.02 17.8093 189.899 18.0494 190.6 18.5297C191.301 19.0101 191.798 19.6721 192.09 20.516C192.382 21.3598 192.434 22.3269 192.246 23.4174L190.649 32.959H185.274L186.676 24.5468C186.8 23.8068 186.709 23.2259 186.404 22.804C186.105 22.3821 185.612 22.1711 184.924 22.1711C184.489 22.1711 184.09 22.2685 183.726 22.4632C183.369 22.6515 183.071 22.9241 182.831 23.2811C182.597 23.6316 182.438 24.0535 182.353 24.5468ZM192.166 32.959L194.659 18.004H200.033L197.541 32.959H192.166ZM197.58 16.4462C196.853 16.4462 196.265 16.206 195.817 15.7257C195.37 15.2389 195.204 14.6612 195.321 13.9926C195.438 13.3111 195.795 12.7334 196.392 12.2596C196.989 11.7792 197.651 11.5391 198.378 11.5391C199.112 11.5391 199.696 11.7792 200.131 12.2596C200.565 12.7334 200.728 13.3111 200.617 13.9926C200.514 14.6612 200.163 15.2389 199.566 15.7257C198.975 16.206 198.313 16.4462 197.58 16.4462ZM206.348 33.2316C204.726 33.2316 203.388 32.9103 202.337 32.2677C201.285 31.6186 200.549 30.7164 200.127 29.561C199.705 28.3991 199.624 27.0523 199.883 25.5204C200.13 23.9886 200.656 22.645 201.461 21.4896C202.272 20.3277 203.311 19.4255 204.576 18.7829C205.849 18.1338 207.296 17.8093 208.919 17.8093C210.386 17.8093 211.609 18.0754 212.589 18.6076C213.576 19.1334 214.28 19.8799 214.702 20.847C215.13 21.8076 215.241 22.9371 215.033 24.2352H210.048C210.107 23.4563 209.98 22.8592 209.668 22.4438C209.363 22.0283 208.919 21.8206 208.335 21.8206C207.854 21.8206 207.413 21.9569 207.01 22.2296C206.614 22.4957 206.274 22.9014 205.988 23.4466C205.709 23.9853 205.505 24.6636 205.375 25.4815C205.245 26.2993 205.229 26.9809 205.326 27.5261C205.43 28.0649 205.631 28.4705 205.93 28.7432C206.235 29.0093 206.621 29.1423 207.088 29.1423C207.491 29.1423 207.861 29.0515 208.198 28.8697C208.542 28.6815 208.838 28.4089 209.084 28.0519C209.337 27.6884 209.529 27.247 209.659 26.7277H214.644C214.397 28.0519 213.9 29.2008 213.154 30.1744C212.408 31.148 211.457 31.901 210.301 32.4332C209.146 32.9655 207.828 33.2316 206.348 33.2316Z" fill="white"/>
</svg>
