<svg width="219" height="47" viewBox="0 0 219 47" fill="none" xmlns="http://www.w3.org/2000/svg">
<path d="M151.366 0L0 6.28449L10.3536 42.3964L128.089 46.5766L151.366 0Z" fill="#0077FF"/>
<path d="M29.5592 12.6635L31.3117 26.7228H31.4675L37.8935 12.6635H44.0079L34.1158 32.6035H26.7162L23.4448 12.6635H29.5592ZM41.5214 32.6035L44.8317 12.6635H50.2451L48.921 20.7252H49.1936L56.5153 12.6635H62.8244L54.6459 21.543L59.6699 32.6035H53.2049L50.0114 25.126L47.7916 27.5017L46.9348 32.6035H41.5214ZM64.3893 32.6035L67.6996 12.6635H81.7199L80.98 17.0254H72.373L71.8278 20.4526H79.5779L78.838 24.8145H71.0879L69.8027 32.6035H64.3893ZM85.4111 32.8761C83.8143 32.8761 82.4902 32.5711 81.4386 31.9609C80.3871 31.3443 79.6472 30.4615 79.2188 29.3126C78.7904 28.1573 78.7125 26.7747 78.9851 25.165C79.2447 23.6201 79.7802 22.27 80.5916 21.1146C81.4094 19.9593 82.4382 19.0603 83.678 18.4177C84.9242 17.7751 86.3198 17.4538 87.8646 17.4538C88.994 17.4538 89.9839 17.629 90.8342 17.9796C91.691 18.3301 92.3888 18.8396 92.9275 19.5082C93.4663 20.1767 93.8297 20.9848 94.018 21.9325C94.2127 22.8737 94.2127 23.9382 94.018 25.126L93.8233 26.3723H80.465L80.9324 23.4124H89.3445C89.4094 22.984 89.3673 22.6076 89.218 22.283C89.0752 21.952 88.8447 21.6956 88.5267 21.5138C88.2151 21.3256 87.8387 21.2315 87.3973 21.2315C86.9559 21.2315 86.5405 21.3256 86.151 21.5138C85.7681 21.7021 85.4403 21.965 85.1677 22.3025C84.9015 22.64 84.723 23.036 84.6322 23.4903L84.048 26.6059C83.9701 27.0863 83.9993 27.5147 84.1356 27.8911C84.2719 28.2676 84.5088 28.5629 84.8464 28.7771C85.1839 28.9913 85.6188 29.0984 86.151 29.0984C86.5145 29.0984 86.8585 29.0498 87.1831 28.9524C87.5141 28.8485 87.8062 28.6992 88.0593 28.5045C88.319 28.3033 88.5267 28.0599 88.6825 27.7743H93.5896C93.2391 28.8128 92.6841 29.7151 91.9247 30.481C91.1717 31.2404 90.2435 31.8311 89.1401 32.253C88.0431 32.6684 86.8001 32.8761 85.4111 32.8761ZM109.174 22.5167H104.344C104.37 22.2051 104.315 21.939 104.179 21.7183C104.043 21.4976 103.851 21.3288 103.604 21.212C103.364 21.0952 103.092 21.0368 102.787 21.0368C102.254 21.0368 101.771 21.1568 101.336 21.397C100.901 21.6307 100.658 21.939 100.606 22.322C100.573 22.4712 100.622 22.6108 100.752 22.7406C100.882 22.8704 101.222 22.9905 101.774 23.1009L104.734 23.6461C106.214 23.9187 107.291 24.4153 107.966 25.1358C108.648 25.8497 108.895 26.7942 108.706 27.969C108.531 28.9881 108.083 29.8644 107.363 30.5978C106.642 31.3313 105.727 31.896 104.617 32.292C103.514 32.6814 102.293 32.8761 100.956 32.8761C98.6 32.8761 96.8345 32.4055 95.6596 31.4644C94.4913 30.5232 93.959 29.2932 94.0629 27.7743H99.2815C99.2945 28.2611 99.4568 28.6278 99.7683 28.8745C100.086 29.1147 100.508 29.2412 101.034 29.2542C101.605 29.2737 102.105 29.1601 102.533 28.9134C102.962 28.6603 103.202 28.3455 103.254 27.969C103.273 27.7548 103.179 27.5926 102.972 27.4822C102.77 27.3719 102.384 27.2615 101.813 27.1512L99.2426 26.6838C97.7627 26.4177 96.6852 25.8854 96.0101 25.0871C95.3351 24.2822 95.1014 23.2566 95.3091 22.0104C95.4779 21.0173 95.8803 20.1832 96.5164 19.5082C97.159 18.8331 98.0028 18.3236 99.0479 17.9796C100.093 17.629 101.3 17.4538 102.67 17.4538C104.909 17.4538 106.603 17.9049 107.752 18.8071C108.908 19.7029 109.381 20.9394 109.174 22.5167ZM120.301 17.6485L119.639 21.543H109.786L110.448 17.6485H120.301ZM112.94 14.0655H118.315L116.036 27.7938C116.004 28.0015 116.01 28.1767 116.056 28.3195C116.101 28.4558 116.192 28.5597 116.328 28.6311C116.471 28.696 116.66 28.7285 116.893 28.7285C117.049 28.7285 117.24 28.709 117.468 28.67C117.695 28.6246 117.867 28.5921 117.984 28.5727L118.139 32.3504C117.867 32.4283 117.5 32.5159 117.039 32.6133C116.585 32.7171 116.056 32.7853 115.452 32.8177C114.193 32.8761 113.167 32.7431 112.376 32.4185C111.59 32.094 111.045 31.5877 110.74 30.8997C110.441 30.2051 110.389 29.3386 110.584 28.3001L112.94 14.0655Z" fill="white"/>
</svg>
