<svg width="175" height="47" viewBox="0 0 175 47" fill="none" xmlns="http://www.w3.org/2000/svg">
<path d="M174.868 0L0 5.69925L10.3536 41.8112L151.591 46.5766L174.868 0Z" fill="#E52C4B"/>
<path d="M28.5856 32.0186H20.7965L24.1069 12.0786H31.5844C33.6355 12.0786 35.3491 12.4907 36.7251 13.3151C38.1012 14.1394 39.0781 15.3175 39.6558 16.8494C40.2335 18.3812 40.3471 20.2051 39.9966 22.3212C39.659 24.3593 38.9742 26.1021 37.9422 27.5496C36.9166 28.997 35.6055 30.1037 34.0087 30.8697C32.4184 31.6356 30.6107 32.0186 28.5856 32.0186ZM26.9693 27.423H28.9361C29.9227 27.423 30.8022 27.251 31.5746 26.907C32.3535 26.5565 33.0026 25.9723 33.5219 25.1544C34.0477 24.3301 34.4274 23.2039 34.661 21.7759C34.8817 20.4258 34.8752 19.384 34.6416 18.6506C34.4079 17.9106 33.9633 17.3978 33.3077 17.1122C32.6521 16.8201 31.8051 16.6741 30.7665 16.6741H28.7608L26.9693 27.423ZM39.8857 32.0186L42.3782 17.0636H47.5968L47.1295 19.9066H47.2853C47.7331 18.855 48.2946 18.0859 48.9696 17.5991C49.6447 17.1122 50.3814 16.8688 51.1798 16.8688C51.4135 16.8688 51.6374 16.8883 51.8516 16.9272C52.0723 16.9597 52.2897 17.0051 52.5039 17.0636L51.725 21.6591C51.4719 21.5617 51.1571 21.4936 50.7806 21.4546C50.4041 21.4092 50.0699 21.3865 49.7778 21.3865C49.2585 21.3865 48.7717 21.5066 48.3173 21.7467C47.8694 21.9804 47.4865 22.3114 47.1684 22.7398C46.8569 23.1617 46.6492 23.6583 46.5453 24.2295L45.2601 32.0186H39.8857ZM50.677 32.0186L53.1695 17.0636H58.544L56.0515 32.0186H50.677ZM56.0904 15.5057C55.3634 15.5057 54.776 15.2656 54.3281 14.7853C53.8803 14.2984 53.7147 13.7207 53.8316 13.0522C53.9484 12.3706 54.3054 11.793 54.9026 11.3191C55.4997 10.8388 56.1618 10.5986 56.8888 10.5986C57.6223 10.5986 58.2064 10.8388 58.6413 11.3191C59.0762 11.793 59.2385 12.3706 59.1281 13.0522C59.0243 13.7207 58.6738 14.2984 58.0766 14.7853C57.4859 15.2656 56.8239 15.5057 56.0904 15.5057ZM69.1625 17.0636L68.5004 20.9581H58.4915L59.1536 17.0636H69.1625ZM58.5499 32.0186L61.1203 16.6352C61.3215 15.4019 61.7077 14.3796 62.2789 13.5682C62.8566 12.7569 63.5803 12.15 64.4501 11.7475C65.3264 11.3451 66.3065 11.1439 67.3905 11.1439C68.0785 11.1439 68.7373 11.1958 69.367 11.2997C69.9966 11.4035 70.4542 11.4944 70.7398 11.5723L69.3378 15.4279C69.1495 15.3694 68.9321 15.324 68.6854 15.2915C68.4388 15.2526 68.2148 15.2331 68.0136 15.2331C67.5138 15.2331 67.1568 15.3402 66.9426 15.5544C66.7349 15.7686 66.5986 16.051 66.5337 16.4015L63.9244 32.0186H58.5499ZM79.0386 17.0636L78.3766 20.9581H68.5234L69.1855 17.0636H79.0386ZM71.678 13.4806H77.0524L74.7741 27.2088C74.7417 27.4165 74.7482 27.5918 74.7936 27.7346C74.839 27.8709 74.9299 27.9747 75.0662 28.0461C75.209 28.111 75.3973 28.1435 75.6309 28.1435C75.7867 28.1435 75.9782 28.124 76.2054 28.0851C76.4325 28.0396 76.6046 28.0072 76.7214 27.9877L76.8772 31.7654C76.6046 31.8433 76.2378 31.9309 75.777 32.0283C75.3226 32.1321 74.7936 32.2003 74.1899 32.2328C72.9307 32.2912 71.9052 32.1581 71.1133 31.8336C70.3279 31.509 69.7826 31.0027 69.4776 30.3147C69.179 29.6202 69.1271 28.7536 69.3218 27.7151L71.678 13.4806ZM81.93 32.0186L85.2404 12.0786H99.6112L98.8712 16.4404H89.9138L89.3686 19.8676H97.5861L96.8461 24.2295H88.6286L88.0834 27.6567H97.0019L96.2619 32.0186H81.93ZM105.094 17.0636L106.496 21.698L109.573 17.0636H114.908L109.65 24.5411L112.61 32.0186H107.314L105.561 27.2672L102.329 32.0186H96.9543L102.446 24.5411L99.7194 17.0636H105.094ZM112.334 37.6267L115.781 17.0636H121.116L120.688 19.6729H120.804C121.077 19.1666 121.434 18.7025 121.875 18.2806C122.323 17.8522 122.849 17.5114 123.453 17.2583C124.063 16.9986 124.738 16.8688 125.478 16.8688C126.465 16.8688 127.357 17.1317 128.155 17.6575C128.954 18.1832 129.541 19.0108 129.918 20.1402C130.294 21.2696 130.333 22.7366 130.035 24.5411C129.749 26.2676 129.239 27.6989 128.506 28.8348C127.779 29.9707 126.922 30.8177 125.936 31.376C124.955 31.9342 123.933 32.2133 122.869 32.2133C122.168 32.2133 121.561 32.0997 121.048 31.8725C120.535 31.6388 120.123 31.324 119.811 30.9281C119.5 30.5257 119.286 30.0713 119.169 29.565H119.052L117.728 37.6267H112.334ZM119.792 24.5411C119.675 25.268 119.665 25.8977 119.763 26.4299C119.867 26.9557 120.071 27.3646 120.376 27.6567C120.688 27.9423 121.09 28.0851 121.583 28.0851C122.077 28.0851 122.518 27.9455 122.908 27.6664C123.297 27.3808 123.628 26.9751 123.901 26.4494C124.173 25.9171 124.374 25.281 124.504 24.5411C124.621 23.8011 124.631 23.1682 124.533 22.6425C124.436 22.1102 124.238 21.7045 123.94 21.4254C123.641 21.1398 123.245 20.997 122.752 20.997C122.258 20.997 121.807 21.1398 121.398 21.4254C120.996 21.7045 120.655 22.1102 120.376 22.6425C120.103 23.1682 119.909 23.8011 119.792 24.5411ZM137.104 32.2912C135.481 32.2912 134.144 31.9699 133.093 31.3273C132.048 30.6782 131.314 29.776 130.892 28.6206C130.47 27.4587 130.386 26.1118 130.639 24.58C130.892 23.0482 131.421 21.7045 132.226 20.5492C133.031 19.3873 134.066 18.4851 135.332 17.8425C136.598 17.1934 138.045 16.8688 139.675 16.8688C141.291 16.8688 142.621 17.1934 143.666 17.8425C144.718 18.4851 145.455 19.3873 145.877 20.5492C146.305 21.7045 146.393 23.0482 146.139 24.58C145.886 26.1118 145.354 27.4587 144.543 28.6206C143.731 29.776 142.693 30.6782 141.427 31.3273C140.168 31.9699 138.727 32.2912 137.104 32.2912ZM137.766 28.3188C138.234 28.3188 138.659 28.1662 139.042 27.8611C139.431 27.5561 139.762 27.1212 140.035 26.5565C140.314 25.9918 140.518 25.32 140.648 24.5411C140.778 23.7557 140.797 23.0839 140.707 22.5256C140.616 21.9609 140.427 21.526 140.142 21.221C139.856 20.9159 139.48 20.7634 139.012 20.7634C138.545 20.7634 138.117 20.9159 137.727 21.221C137.338 21.526 137.007 21.9609 136.734 22.5256C136.462 23.0839 136.26 23.7557 136.131 24.5411C136.001 25.32 135.978 25.9918 136.062 26.5565C136.153 27.1212 136.341 27.5561 136.627 27.8611C136.919 28.1662 137.299 28.3188 137.766 28.3188Z" fill="white"/>
</svg>
