<svg width="145" height="47" viewBox="0 0 145 47" fill="none" xmlns="http://www.w3.org/2000/svg">
<path d="M144.396 -0.000151951L0 6.11394L10.3536 42.2259L121.119 46.5765L144.396 -0.000151951Z" fill="#ED008C"/>
<path d="M20.7965 32.4326L24.1069 12.4926H32.7138C34.1937 12.4926 35.4432 12.762 36.4623 13.3007C37.4813 13.8395 38.2148 14.6151 38.6627 15.6277C39.1105 16.6403 39.2176 17.8541 38.984 19.2691C38.7503 20.6971 38.2343 21.9012 37.4359 22.8813C36.644 23.8549 35.6347 24.5949 34.4079 25.1012C33.1876 25.601 31.818 25.8509 30.2992 25.8509H25.1584L25.8594 21.6448H29.9097C30.5458 21.6448 31.104 21.5669 31.5844 21.4111C32.0647 21.2488 32.4541 20.9957 32.7527 20.6517C33.0513 20.3012 33.246 19.8403 33.3369 19.2691C33.4278 18.6979 33.3823 18.2338 33.2006 17.8768C33.0189 17.5133 32.717 17.2472 32.2951 17.0784C31.8732 16.9032 31.3507 16.8155 30.7276 16.8155H28.8192L26.2099 32.4326H20.7965ZM33.999 23.2805L37.4651 32.4326H31.5844L28.2351 23.2805H33.999ZM46.0707 32.4326H38.2816L41.5919 12.4926H49.0694C51.1206 12.4926 52.8342 12.9048 54.2102 13.7291C55.5863 14.5535 56.5632 15.7316 57.1409 17.2634C57.7185 18.7953 57.8321 20.6192 57.4816 22.7352C57.1441 24.7734 56.4593 26.5162 55.4273 27.9636C54.4017 29.4111 53.0905 30.5178 51.4938 31.2837C49.9035 32.0497 48.0958 32.4326 46.0707 32.4326ZM44.4544 27.8371H46.4212C47.4078 27.8371 48.2873 27.6651 49.0597 27.321C49.8386 26.9705 50.4877 26.3864 51.007 25.5685C51.5327 24.7442 51.9125 23.618 52.1461 22.19C52.3668 20.8399 52.3603 19.7981 52.1267 19.0646C51.893 18.3247 51.4484 17.8119 50.7928 17.5263C50.1372 17.2342 49.2901 17.0882 48.2516 17.0882H46.2459L44.4544 27.8371ZM70.3006 18.7239C70.359 18.0813 70.2032 17.5782 69.8332 17.2147C69.4633 16.8448 68.8401 16.6598 67.9639 16.6598C67.4056 16.6598 66.9383 16.7247 66.5618 16.8545C66.1918 16.9843 65.903 17.1628 65.6953 17.39C65.4941 17.6172 65.3675 17.8801 65.3156 18.1786C65.2572 18.4123 65.2604 18.6265 65.3253 18.8212C65.3967 19.0095 65.5298 19.1815 65.7245 19.3373C65.9257 19.493 66.1886 19.6326 66.5131 19.7559C66.8442 19.8792 67.2369 19.9896 67.6912 20.087L69.2491 20.4375C70.3136 20.6711 71.2061 20.9795 71.9265 21.3624C72.6535 21.7389 73.2247 22.1868 73.6401 22.706C74.0556 23.2253 74.3282 23.8062 74.458 24.4488C74.5943 25.0914 74.5975 25.7924 74.4677 26.5519C74.247 27.863 73.7375 28.973 72.9391 29.8817C72.1407 30.7904 71.099 31.4817 69.8138 31.9555C68.5286 32.4294 67.0422 32.6663 65.3545 32.6663C63.6279 32.6663 62.161 32.4099 60.9537 31.8971C59.7529 31.3778 58.8831 30.586 58.3444 29.5215C57.8121 28.4505 57.6823 27.0841 57.9549 25.4225H63.0957C63.0178 26.0326 63.0827 26.5454 63.2904 26.9608C63.4981 27.3762 63.8324 27.691 64.2933 27.9052C64.7541 28.1194 65.3286 28.2265 66.0166 28.2265C66.6008 28.2265 67.1006 28.1551 67.516 28.0123C67.9314 27.8695 68.2592 27.6716 68.4994 27.4184C68.7395 27.1653 68.8856 26.8764 68.9375 26.5519C68.9894 26.2533 68.9375 25.9872 68.7817 25.7535C68.6259 25.5198 68.3436 25.3089 67.9346 25.1206C67.5257 24.9324 66.9643 24.7604 66.2503 24.6046L64.3419 24.1762C62.6478 23.7868 61.3691 23.1442 60.5058 22.2484C59.6425 21.3527 59.3375 20.1259 59.5906 18.5681C59.7983 17.2959 60.3208 16.1859 61.1582 15.2383C62.002 14.2841 63.073 13.5441 64.3712 13.0184C65.6758 12.4861 67.12 12.22 68.7038 12.22C70.3136 12.22 71.6604 12.4894 72.7444 13.0281C73.8349 13.5669 74.617 14.323 75.0909 15.2967C75.5712 16.2703 75.701 17.4127 75.4803 18.7239H70.3006ZM93.9912 19.0744C93.9652 18.7304 93.8938 18.4285 93.777 18.1689C93.6602 17.9028 93.4947 17.6788 93.2805 17.4971C93.0663 17.3089 92.8001 17.1693 92.4821 17.0784C92.1705 16.9811 91.8038 16.9324 91.3819 16.9324C90.4731 16.9324 89.6456 17.1498 88.8991 17.5847C88.1527 18.0196 87.5263 18.646 87.02 19.4638C86.5202 20.2817 86.1762 21.2683 85.9879 22.4237C85.7932 23.592 85.777 24.5916 85.9393 25.4225C86.1015 26.2533 86.452 26.8894 86.9908 27.3308C87.536 27.7722 88.2727 27.9929 89.2009 27.9929C90.0318 27.9929 90.749 27.8728 91.3527 27.6326C91.9563 27.3924 92.4399 27.0517 92.8034 26.6103C93.1669 26.1689 93.394 25.6496 93.4849 25.0525L94.4196 25.1498H89.863L90.4861 21.2943H99.3267L98.8788 24.0594C98.5803 25.8768 97.9377 27.4314 96.951 28.7231C95.9709 30.0083 94.7506 30.9949 93.2902 31.6829C91.8297 32.3645 90.2265 32.7052 88.4804 32.7052C86.5462 32.7052 84.9137 32.2931 83.5831 31.4687C82.2524 30.6444 81.3015 29.4695 80.7303 27.9442C80.1656 26.4188 80.0553 24.6046 80.3993 22.5016C80.6719 20.8529 81.1652 19.3924 81.8792 18.1202C82.5997 16.848 83.4792 15.7738 84.5178 14.8975C85.5563 14.0147 86.7019 13.3494 87.9547 12.9015C89.2074 12.4472 90.5056 12.22 91.8492 12.22C93.0241 12.22 94.0918 12.3888 95.0525 12.7263C96.0131 13.0573 96.8342 13.5312 97.5158 14.1478C98.1973 14.7579 98.7068 15.4817 99.0444 16.319C99.3884 17.1563 99.5279 18.0748 99.463 19.0744H93.9912ZM98.9042 32.4326L102.215 12.4926H110.822C112.301 12.4926 113.548 12.7847 114.56 13.3689C115.573 13.9531 116.3 14.7742 116.741 15.8322C117.183 16.8902 117.286 18.1267 117.053 19.5417C116.819 20.9827 116.3 22.2257 115.495 23.2707C114.697 24.3093 113.678 25.1109 112.438 25.6756C111.204 26.2338 109.822 26.5129 108.29 26.5129H103.149L103.85 22.3068H107.901C108.55 22.3068 109.121 22.1965 109.614 21.9758C110.108 21.7486 110.507 21.4306 110.812 21.0216C111.117 20.6062 111.315 20.1129 111.406 19.5417C111.497 18.9705 111.454 18.4837 111.279 18.0813C111.11 17.6723 110.818 17.3608 110.403 17.1466C109.994 16.9259 109.471 16.8155 108.835 16.8155H106.927L104.318 32.4326H98.9042Z" fill="white"/>
</svg>
