<svg width="146" height="47" viewBox="0 0 146 47" fill="none" xmlns="http://www.w3.org/2000/svg">
<path d="M146.008 0L0 5.23642L10.3536 41.3484L122.731 46.5766L146.008 0Z" fill="white"/>
<path d="M20.7968 31.5554L24.1071 11.6154H32.714C34.1939 11.6154 35.4402 11.9075 36.4528 12.4917C37.4654 13.0759 38.1923 13.897 38.6337 14.955C39.0751 16.013 39.1789 17.2495 38.9453 18.6645C38.7116 20.1055 38.1923 21.3485 37.3875 22.3935C36.5891 23.4321 35.57 24.2337 34.3303 24.7984C33.097 25.3566 31.7144 25.6357 30.1826 25.6357H25.0418L25.7428 21.4296H29.7931C30.4422 21.4296 31.0134 21.3193 31.5067 21.0986C32 20.8714 32.3992 20.5534 32.7043 20.1444C33.0094 19.729 33.2073 19.2357 33.2982 18.6645C33.3891 18.0933 33.3469 17.6065 33.1716 17.2041C33.0029 16.7951 32.7108 16.4836 32.2954 16.2694C31.8864 16.0487 31.3639 15.9383 30.7278 15.9383H28.8195L26.2102 31.5554H20.7968ZM40.1269 37.1635C39.5037 37.1635 38.9228 37.1149 38.3841 37.0175C37.8453 36.9266 37.3747 36.8001 36.9723 36.6378L38.7833 32.8211C39.1987 32.9769 39.5816 33.0775 39.9321 33.123C40.2891 33.1684 40.604 33.1424 40.8766 33.0451C41.1492 32.9477 41.3731 32.7627 41.5484 32.4901L41.7236 32.2175L39.0559 16.6004H44.4693L45.1508 26.9599H45.3066L49.4932 16.6004H55.335L47.1954 32.8017C46.78 33.626 46.2608 34.366 45.6376 35.0216C45.021 35.6836 44.2616 36.2061 43.3593 36.5891C42.4571 36.9721 41.3796 37.1635 40.1269 37.1635ZM69.3345 16.6004L66.842 31.5554H61.818L64.3105 16.6004H69.3345ZM65.6736 22.7927L65.0116 26.8041C64.8168 26.9209 64.4858 27.0378 64.0185 27.1546C63.5576 27.2649 63.0773 27.3591 62.5775 27.437C62.0777 27.5084 61.6688 27.5441 61.3507 27.5441C58.9036 27.5441 57.0667 27.1092 55.8399 26.2394C54.6132 25.3696 54.1653 23.9221 54.4963 21.897L55.3921 16.6004H60.3771L59.4813 21.897C59.4099 22.3513 59.4197 22.6954 59.5105 22.929C59.6079 23.1627 59.8481 23.3217 60.231 23.4061C60.6205 23.4905 61.2144 23.5327 62.0128 23.5327C62.5061 23.5327 63.0448 23.4743 63.629 23.3574C64.2197 23.2341 64.9012 23.0459 65.6736 22.7927ZM80.6297 22.0138L79.9676 26.0252H72.4512L73.1133 22.0138H80.6297ZM75.9173 16.6004L73.4248 31.5554H68.3619L70.8544 16.6004H75.9173ZM84.68 16.6004L82.1875 31.5554H77.1636L79.6561 16.6004H84.68ZM89.8973 24.701L95.4276 16.6004H100.49L97.9979 31.5554H92.9351L94.2981 23.4159L88.7679 31.5554H83.705L86.1975 16.6004H91.2604L89.8973 24.701ZM99.6639 31.5554L102.156 16.6004H107.531L106.635 21.9359H107.57L111.659 16.6004H117.812L111.776 24.1558L115.359 31.5554H109.128L107.025 26.9209H105.817L105.038 31.5554H99.6639Z" fill="#7D5C9C"/>
</svg>
