<svg width="219" height="47" viewBox="0 0 219 47" fill="none" xmlns="http://www.w3.org/2000/svg">
<path d="M217.592 4.18245e-05L0 5.80265L10.3536 41.9146L194.315 46.5767L217.592 4.18245e-05Z" fill="white"/>
<path d="M24.1071 12.1806H30.8446L33.6098 23.4747H33.8434L40.3473 12.1806H47.0848L43.7745 32.1206H38.4779L40.3862 20.5928H40.2305L33.9213 31.9648H30.7278L28.1964 20.5149H28.0406L26.0933 32.1206H20.7968L24.1071 12.1806ZM52.4871 32.3932C50.8644 32.3932 49.5273 32.0719 48.4758 31.4293C47.4307 30.7802 46.6973 29.878 46.2754 28.7226C45.8535 27.5608 45.7691 26.2139 46.0222 24.6821C46.2754 23.1502 46.8044 21.8066 47.6092 20.6512C48.4141 19.4893 49.4494 18.5871 50.7151 17.9445C51.9809 17.2954 53.4283 16.9709 55.0575 16.9709C56.6738 16.9709 58.0044 17.2954 59.0494 17.9445C60.1009 18.5871 60.8377 19.4893 61.2596 20.6512C61.688 21.8066 61.7756 23.1502 61.5225 24.6821C61.2693 26.2139 60.7371 27.5608 59.9257 28.7226C59.1143 29.878 58.0758 30.7802 56.8101 31.4293C55.5508 32.0719 54.1099 32.3932 52.4871 32.3932ZM53.1492 28.4208C53.6166 28.4208 54.0417 28.2683 54.4247 27.9632C54.8141 27.6581 55.1452 27.2232 55.4178 26.6585C55.6969 26.0938 55.9013 25.422 56.0312 24.6431C56.161 23.8577 56.1805 23.1859 56.0896 22.6277C55.9987 22.063 55.8105 21.6281 55.5249 21.323C55.2393 21.0179 54.8628 20.8654 54.3955 20.8654C53.9281 20.8654 53.4997 21.0179 53.1103 21.323C52.7208 21.6281 52.3898 22.063 52.1172 22.6277C51.8445 23.1859 51.6433 23.8577 51.5135 24.6431C51.3837 25.422 51.361 26.0938 51.4454 26.6585C51.5362 27.2232 51.7245 27.6581 52.0101 27.9632C52.3021 28.2683 52.6819 28.4208 53.1492 28.4208ZM73.6672 22.579L73.0051 26.5904H65.4886L66.1507 22.579H73.6672ZM68.9548 17.1656L66.4623 32.1206H61.3994L63.8919 17.1656H68.9548ZM77.7175 17.1656L75.225 32.1206H70.201L72.6935 17.1656H77.7175ZM82.9348 25.2662L88.465 17.1656H93.5279L91.0354 32.1206H85.9725L87.3356 23.981L81.8054 32.1206H76.7425L79.235 17.1656H84.2979L82.9348 25.2662ZM93.3513 21.177L94.0134 17.1656H108.501L107.839 21.177H103.088L101.257 32.1206H96.1943L98.0247 21.177H93.3513ZM113.699 32.3932C112.076 32.3932 110.739 32.0719 109.687 31.4293C108.642 30.7802 107.909 29.878 107.487 28.7226C107.065 27.5608 106.981 26.2139 107.234 24.6821C107.487 23.1502 108.016 21.8066 108.821 20.6512C109.626 19.4893 110.661 18.5871 111.927 17.9445C113.193 17.2954 114.64 16.9709 116.269 16.9709C117.885 16.9709 119.216 17.2954 120.261 17.9445C121.313 18.5871 122.049 19.4893 122.471 20.6512C122.9 21.8066 122.987 23.1502 122.734 24.6821C122.481 26.2139 121.949 27.5608 121.137 28.7226C120.326 29.878 119.288 30.7802 118.022 31.4293C116.763 32.0719 115.322 32.3932 113.699 32.3932ZM114.361 28.4208C114.828 28.4208 115.253 28.2683 115.636 27.9632C116.026 27.6581 116.357 27.2232 116.629 26.6585C116.909 26.0938 117.113 25.422 117.243 24.6431C117.373 23.8577 117.392 23.1859 117.301 22.6277C117.21 22.063 117.022 21.6281 116.737 21.323C116.451 21.0179 116.075 20.8654 115.607 20.8654C115.14 20.8654 114.711 21.0179 114.322 21.323C113.933 21.6281 113.601 22.063 113.329 22.6277C113.056 23.1859 112.855 23.8577 112.725 24.6431C112.595 25.422 112.573 26.0938 112.657 26.6585C112.748 27.2232 112.936 27.6581 113.222 27.9632C113.514 28.2683 113.894 28.4208 114.361 28.4208ZM121.676 37.7287L125.123 17.1656H130.459L130.03 19.7749H130.147C130.42 19.2687 130.777 18.8046 131.218 18.3826C131.666 17.9542 132.192 17.6135 132.795 17.3603C133.405 17.1007 134.08 16.9709 134.82 16.9709C135.807 16.9709 136.7 17.2338 137.498 17.7595C138.296 18.2853 138.884 19.1129 139.26 20.2423C139.637 21.3717 139.676 22.8386 139.377 24.6431C139.091 26.3697 138.582 27.8009 137.848 28.9368C137.121 30.0727 136.265 30.9198 135.278 31.478C134.298 32.0362 133.276 32.3153 132.211 32.3153C131.51 32.3153 130.903 32.2017 130.39 31.9746C129.878 31.7409 129.465 31.4261 129.154 31.0301C128.842 30.6277 128.628 30.1733 128.511 29.6671H128.394L127.07 37.7287H121.676ZM129.134 24.6431C129.018 25.3701 129.008 25.9997 129.105 26.532C129.209 27.0577 129.414 27.4666 129.719 27.7587C130.03 28.0443 130.433 28.1871 130.926 28.1871C131.419 28.1871 131.861 28.0476 132.25 27.7685C132.64 27.4829 132.971 27.0772 133.243 26.5514C133.516 26.0192 133.717 25.3831 133.847 24.6431C133.964 23.9031 133.973 23.2703 133.876 22.7445C133.779 22.2123 133.581 21.8066 133.282 21.5275C132.984 21.2419 132.588 21.0991 132.094 21.0991C131.601 21.0991 131.15 21.2419 130.741 21.5275C130.338 21.8066 129.998 22.2123 129.719 22.7445C129.446 23.2703 129.251 23.9031 129.134 24.6431ZM143.919 29.005L144.62 24.7989L154.746 12.1806H158.562L157.627 17.7887H155.447L149.994 24.6431L149.955 24.7989H161.795L161.094 29.005H143.919ZM153.11 32.1206L153.85 27.7198L154.278 25.8894L156.537 12.1806H161.6L158.29 32.1206H153.11ZM172.705 11.908C173.9 11.908 175 12.0995 176.006 12.4824C177.012 12.8654 177.859 13.4658 178.547 14.2837C179.235 15.095 179.706 16.1465 179.959 17.4382C180.212 18.7299 180.183 20.2877 179.871 22.1117C179.599 23.7149 179.157 25.1526 178.547 26.4249C177.943 27.6971 177.197 28.7778 176.308 29.6671C175.418 30.5498 174.416 31.2249 173.299 31.6922C172.189 32.1596 170.992 32.3932 169.706 32.3932C168.227 32.3932 166.961 32.1141 165.909 31.5559C164.864 30.9977 164.076 30.2447 163.543 29.2971C163.018 28.3494 162.787 27.2914 162.852 26.123H168.11C168.103 26.7462 168.291 27.181 168.674 27.4277C169.064 27.6743 169.525 27.7977 170.057 27.7977C171.238 27.7977 172.205 27.2784 172.958 26.2399C173.711 25.1948 174.237 23.8447 174.536 22.1896L174.38 22.4622C174.029 23.0723 173.569 23.5851 172.997 24.0005C172.433 24.4159 171.803 24.7307 171.109 24.9449C170.42 25.1591 169.706 25.2662 168.967 25.2662C167.733 25.2662 166.695 24.9806 165.851 24.4094C165.007 23.8382 164.407 23.0593 164.05 22.0727C163.693 21.0861 163.618 19.9697 163.826 18.7234C164.059 17.3474 164.588 16.1498 165.413 15.1307C166.237 14.1052 167.279 13.3133 168.538 12.755C169.797 12.1903 171.186 11.908 172.705 11.908ZM172.511 15.9972C171.939 15.9972 171.401 16.1336 170.894 16.4062C170.388 16.6723 169.966 17.039 169.629 17.5064C169.291 17.9672 169.083 18.4897 169.005 19.0739C168.941 19.5672 168.983 20.0054 169.132 20.3883C169.281 20.7713 169.528 21.0699 169.872 21.2841C170.216 21.4983 170.641 21.6054 171.147 21.6054C171.576 21.6054 171.985 21.5275 172.374 21.3717C172.764 21.2159 173.117 21.0017 173.435 20.7291C173.76 20.45 174.026 20.1222 174.234 19.7457C174.448 19.3693 174.588 18.9636 174.653 18.5287C174.73 18.0224 174.691 17.581 174.536 17.2046C174.38 16.8216 174.13 16.5263 173.786 16.3185C173.442 16.1043 173.017 15.9972 172.511 15.9972ZM187.223 12.1806L186.834 14.5173C186.73 15.1534 186.496 15.7895 186.133 16.4256C185.769 17.0553 185.347 17.6427 184.867 18.1879C184.387 18.7267 183.913 19.1778 183.446 19.5413L181.381 18.4119C181.725 17.9445 182.06 17.4025 182.384 16.7859C182.709 16.1693 182.946 15.4131 183.095 14.5173L183.484 12.1806H187.223ZM192.052 12.1806L191.663 14.5173C191.559 15.1534 191.325 15.7895 190.962 16.4256C190.598 17.0553 190.177 17.6427 189.696 18.1879C189.216 18.7267 188.742 19.1778 188.275 19.5413L186.211 18.4119C186.555 17.9445 186.889 17.4025 187.213 16.7859C187.538 16.1693 187.775 15.4131 187.924 14.5173L188.314 12.1806H192.052Z" fill="#7D5C9C"/>
</svg>
