<svg width="127" height="47" viewBox="0 0 127 47" fill="none" xmlns="http://www.w3.org/2000/svg">
<path d="M126.35 0.000109314L0 5.88164L10.3536 41.9936L103.073 46.5767L126.35 0.000109314Z" fill="white"/>
<path d="M33.084 32.2009L28.3132 24.1392H27.5538L26.2102 32.2009H20.7968L24.1071 12.2609H29.5205L28.2743 19.7774H28.9753L35.9465 12.2609H42.7619L33.5903 21.8415L39.88 32.2009H33.084ZM46.3825 32.4735C44.7597 32.4735 43.4226 32.1522 42.3711 31.5096C41.3261 30.8606 40.5926 29.9583 40.1707 28.8029C39.7488 27.6411 39.6644 26.2942 39.9175 24.7624C40.1707 23.2305 40.6997 21.8869 41.5046 20.7315C42.3094 19.5697 43.3447 18.6674 44.6105 18.0248C45.8762 17.3757 47.3236 17.0512 48.9529 17.0512C50.5691 17.0512 51.8997 17.3757 52.9447 18.0248C53.9963 18.6674 54.733 19.5697 55.1549 20.7315C55.5833 21.8869 55.6709 23.2305 55.4178 24.7624C55.1646 26.2942 54.6324 27.6411 53.821 28.8029C53.0097 29.9583 51.9711 30.8606 50.7054 31.5096C49.4462 32.1522 48.0052 32.4735 46.3825 32.4735ZM47.0445 28.5011C47.5119 28.5011 47.937 28.3486 48.32 28.0435C48.7094 27.7384 49.0405 27.3036 49.3131 26.7388C49.5922 26.1741 49.7967 25.5023 49.9265 24.7234C50.0563 23.938 50.0758 23.2662 49.9849 22.708C49.894 22.1433 49.7058 21.7084 49.4202 21.4033C49.1346 21.0983 48.7581 20.9457 48.2908 20.9457C47.8234 20.9457 47.395 21.0983 47.0056 21.4033C46.6161 21.7084 46.2851 22.1433 46.0125 22.708C45.7399 23.2662 45.5386 23.938 45.4088 24.7234C45.279 25.5023 45.2563 26.1741 45.3407 26.7388C45.4315 27.3036 45.6198 27.7384 45.9054 28.0435C46.1975 28.3486 46.5772 28.5011 47.0445 28.5011ZM55.2947 32.2009L57.7872 17.2459H64.33C66.3292 17.2459 67.8481 17.5867 68.8866 18.2682C69.9252 18.9498 70.3276 19.9721 70.0939 21.3352C69.9771 22.0751 69.5487 22.7307 68.8087 23.3019C68.0688 23.8731 67.0692 24.2561 65.8099 24.4508C66.9329 24.5027 67.8156 24.7104 68.4582 25.0739C69.1073 25.4309 69.5519 25.8788 69.7921 26.4175C70.0323 26.9498 70.1069 27.5015 70.016 28.0727C69.8667 28.9814 69.4935 29.7441 68.8964 30.3608C68.2992 30.9709 67.4943 31.4318 66.4817 31.7433C65.4692 32.0484 64.2586 32.2009 62.8501 32.2009H55.2947ZM60.9028 28.4232H63.4732C63.9146 28.4232 64.2781 28.3194 64.5637 28.1117C64.8493 27.904 65.0181 27.6184 65.07 27.2549C65.1414 26.8784 65.0667 26.5831 64.846 26.3689C64.6318 26.1547 64.3041 26.0476 63.8627 26.0476H61.2923L60.9028 28.4232ZM61.7596 23.3214H63.4732C63.7523 23.3214 63.9957 23.2792 64.2034 23.1948C64.4176 23.104 64.5929 22.9774 64.7292 22.8151C64.8655 22.6528 64.9531 22.4581 64.9921 22.2309C65.044 21.8869 64.9499 21.6208 64.7097 21.4325C64.4761 21.2378 64.1288 21.1405 63.668 21.1405H62.1101L61.7596 23.3214ZM72.809 17.2459H77.8719L76.0415 28.1506H79.3129L81.1433 17.2459H86.2062L84.3758 28.1506H87.6472L89.4776 17.2459H94.5405L92.048 32.2009H70.3165L72.809 17.2459Z" fill="#7D5C9C"/>
</svg>
