<svg width="284" height="47" viewBox="0 0 284 47" fill="none" xmlns="http://www.w3.org/2000/svg">
<path d="M283.919 7.55391e-05L0 5.25737L10.3536 41.3693L260.642 46.5767L283.919 7.55391e-05Z" fill="white"/>
<path d="M41.4572 19.1149H36.0438C36.0828 18.654 36.0568 18.2386 35.966 17.8686C35.8751 17.4987 35.7193 17.1806 35.4986 16.9145C35.2779 16.6419 34.9891 16.4342 34.6321 16.2914C34.2751 16.1486 33.8499 16.0772 33.3566 16.0772C32.409 16.0772 31.5619 16.3141 30.8154 16.7879C30.069 17.2553 29.4491 17.9271 28.9558 18.8033C28.4625 19.6731 28.112 20.7117 27.9043 21.919C27.7225 23.0873 27.716 24.0577 27.8848 24.8301C28.0601 25.6025 28.4008 26.1802 28.9071 26.5632C29.4199 26.9461 30.0852 27.1376 30.9031 27.1376C31.4483 27.1376 31.9481 27.0727 32.4025 26.9429C32.8633 26.8131 33.2722 26.6281 33.6292 26.3879C33.9927 26.1413 34.301 25.8492 34.5542 25.5117C34.8138 25.1676 35.0118 24.7879 35.1481 24.3725H40.6004C40.3927 25.2163 40.0228 26.0796 39.4905 26.9624C38.9583 27.8386 38.2702 28.6468 37.4264 29.3867C36.5826 30.1202 35.5895 30.7141 34.4471 31.1685C33.3047 31.6228 32.0195 31.85 30.5915 31.85C28.7221 31.85 27.1091 31.4411 25.7525 30.6232C24.4024 29.8054 23.4223 28.6111 22.8122 27.0403C22.2085 25.4695 22.0884 23.5547 22.4519 21.2958C22.8154 19.1149 23.5327 17.2877 24.6037 15.8143C25.6747 14.3408 26.9761 13.2309 28.5079 12.4845C30.0398 11.738 31.669 11.3648 33.3956 11.3648C34.7002 11.3648 35.8686 11.5368 36.9006 11.8808C37.9392 12.2248 38.8122 12.7279 39.5197 13.3899C40.2337 14.0455 40.7595 14.8536 41.097 15.8143C41.4345 16.7749 41.5546 17.8751 41.4572 19.1149ZM40.8887 31.5774L43.3812 16.6224H57.3237L54.8312 31.5774H49.7683L51.5987 20.6338H47.7042L45.8737 31.5774H40.8887ZM63.6266 31.85C62.0038 31.85 60.6667 31.5287 59.6152 30.8861C58.5702 30.237 57.8367 29.3348 57.4148 28.1794C56.9929 27.0175 56.9085 25.6707 57.1616 24.1388C57.4148 22.607 57.9438 21.2634 58.7487 20.108C59.5535 18.9461 60.5888 18.0439 61.8546 17.4013C63.1203 16.7522 64.5677 16.4277 66.197 16.4277C67.8132 16.4277 69.1438 16.7522 70.1889 17.4013C71.2404 18.0439 71.9771 18.9461 72.399 20.108C72.8274 21.2634 72.915 22.607 72.6619 24.1388C72.4087 25.6707 71.8765 27.0175 71.0651 28.1794C70.2538 29.3348 69.2152 30.237 67.9495 30.8861C66.6903 31.5287 65.2493 31.85 63.6266 31.85ZM64.2886 27.8776C64.756 27.8776 65.1811 27.7251 65.5641 27.42C65.9536 27.1149 66.2846 26.68 66.5572 26.1153C66.8363 25.5506 67.0408 24.8788 67.1706 24.0999C67.3004 23.3145 67.3199 22.6427 67.229 22.0845C67.1381 21.5198 66.9499 21.0849 66.6643 20.7798C66.3787 20.4747 66.0022 20.3222 65.5349 20.3222C65.0675 20.3222 64.6391 20.4747 64.2497 20.7798C63.8602 21.0849 63.5292 21.5198 63.2566 22.0845C62.984 22.6427 62.7828 23.3145 62.6529 24.0999C62.5231 24.8788 62.5004 25.5506 62.5848 26.1153C62.6757 26.68 62.8639 27.1149 63.1495 27.42C63.4416 27.7251 63.8213 27.8776 64.2886 27.8776ZM71.6041 37.1855L75.0508 16.6224H80.3863L79.9579 19.2317H80.0747C80.3473 18.7254 80.7043 18.2613 81.1457 17.8394C81.5936 17.411 82.1194 17.0703 82.723 16.8171C83.3332 16.5575 84.0082 16.4277 84.7482 16.4277C85.7348 16.4277 86.6273 16.6905 87.4257 17.2163C88.224 17.7421 88.8115 18.5697 89.1879 19.6991C89.5644 20.8285 89.6034 22.2954 89.3048 24.0999C89.0192 25.8265 88.5096 27.2577 87.7762 28.3936C87.0492 29.5295 86.1924 30.3766 85.2058 30.9348C84.2257 31.493 83.2033 31.7721 82.1388 31.7721C81.4378 31.7721 80.8309 31.6585 80.3181 31.4313C79.8054 31.1977 79.3932 30.8829 79.0816 30.4869C78.7701 30.0845 78.5559 29.6301 78.439 29.1238H78.3222L76.9981 37.1855H71.6041ZM79.0622 24.0999C78.9453 24.8269 78.9356 25.4565 79.0329 25.9887C79.1368 26.5145 79.3413 26.9234 79.6463 27.2155C79.9579 27.5011 80.3603 27.6439 80.8536 27.6439C81.3469 27.6439 81.7883 27.5044 82.1778 27.2253C82.5672 26.9397 82.8983 26.534 83.1709 26.0082C83.4435 25.476 83.6447 24.8399 83.7745 24.0999C83.8914 23.3599 83.9011 22.7271 83.8037 22.2013C83.7064 21.6691 83.5084 21.2634 83.2098 20.9843C82.9112 20.6987 82.5153 20.5559 82.022 20.5559C81.5287 20.5559 81.0776 20.6987 80.6686 20.9843C80.2662 21.2634 79.9254 21.6691 79.6463 22.2013C79.3737 22.7271 79.179 23.3599 79.0622 24.0999ZM89.8973 20.6338L90.5594 16.6224H105.047L104.385 20.6338H99.6337L97.8032 31.5774H92.7403L94.5708 20.6338H89.8973ZM109.685 24.723L115.215 16.6224H120.278L117.786 31.5774H112.723L114.086 23.4378L108.556 31.5774H103.493L105.985 16.6224H111.048L109.685 24.723ZM119.452 31.5774L121.944 16.6224H128.487C130.486 16.6224 132.005 16.9632 133.044 17.6447C134.082 18.3263 134.485 19.3486 134.251 20.7117C134.134 21.4516 133.706 22.1072 132.966 22.6784C132.226 23.2496 131.226 23.6325 129.967 23.8273C131.09 23.8792 131.973 24.0869 132.615 24.4504C133.264 24.8074 133.709 25.2553 133.949 25.794C134.189 26.3263 134.264 26.878 134.173 27.4492C134.024 28.3579 133.65 29.1206 133.053 29.7372C132.456 30.3474 131.651 30.8082 130.639 31.1198C129.626 31.4249 128.416 31.5774 127.007 31.5774H119.452ZM125.06 27.7997H127.63C128.072 27.7997 128.435 27.6958 128.721 27.4881C129.006 27.2804 129.175 26.9948 129.227 26.6313C129.298 26.2549 129.224 25.9595 129.003 25.7453C128.789 25.5311 128.461 25.424 128.02 25.424H125.449L125.06 27.7997ZM125.917 22.6979H127.63C127.909 22.6979 128.153 22.6557 128.36 22.5713C128.575 22.4804 128.75 22.3538 128.886 22.1916C129.022 22.0293 129.11 21.8346 129.149 21.6074C129.201 21.2634 129.107 20.9972 128.867 20.809C128.633 20.6143 128.286 20.5169 127.825 20.5169H126.267L125.917 22.6979ZM146.741 22.0358L146.079 26.0472H138.563L139.225 22.0358H146.741ZM142.029 16.6224L139.536 31.5774H134.473L136.966 16.6224H142.029ZM150.792 16.6224L148.299 31.5774H143.275L145.768 16.6224H150.792ZM154.646 20.6727H159.241C161.364 20.6727 162.957 21.166 164.022 22.1526C165.086 23.1328 165.479 24.4829 165.2 26.2029C165.012 27.3129 164.57 28.2703 163.876 29.0752C163.188 29.88 162.295 30.4999 161.198 30.9348C160.101 31.3632 158.839 31.5774 157.411 31.5774H149.817L152.309 16.6224H157.372L155.541 27.566H158.073C158.631 27.566 159.108 27.4362 159.504 27.1766C159.907 26.9104 160.144 26.5729 160.215 26.164C160.286 25.7291 160.166 25.3754 159.855 25.1027C159.543 24.8236 159.118 24.6841 158.579 24.6841H153.984L154.646 20.6727ZM165.317 31.5774L167.809 16.6224H173.184L170.691 31.5774H165.317ZM178.554 24.723L184.085 16.6224H189.147L186.655 31.5774H181.592L182.955 23.4378L177.425 31.5774H172.362L174.855 16.6224H179.917L178.554 24.723ZM184.786 11.2479H188.174C187.96 12.5137 187.311 13.5262 186.227 14.2857C185.143 15.0386 183.786 15.4151 182.157 15.4151C180.515 15.4151 179.275 15.0386 178.438 14.2857C177.6 13.5262 177.289 12.5137 177.503 11.2479H180.852C180.787 11.6569 180.875 12.0333 181.115 12.3774C181.362 12.7149 181.845 12.8836 182.566 12.8836C183.267 12.8836 183.793 12.7181 184.143 12.3871C184.494 12.0561 184.708 11.6763 184.786 11.2479ZM191.752 37.1855L195.198 16.6224H200.534L200.105 19.2317H200.222C200.495 18.7254 200.852 18.2613 201.293 17.8394C201.741 17.411 202.267 17.0703 202.871 16.8171C203.481 16.5575 204.156 16.4277 204.896 16.4277C205.882 16.4277 206.775 16.6905 207.573 17.2163C208.372 17.7421 208.959 18.5697 209.335 19.6991C209.712 20.8285 209.751 22.2954 209.452 24.0999C209.167 25.8265 208.657 27.2577 207.924 28.3936C207.197 29.5295 206.34 30.3766 205.353 30.9348C204.373 31.493 203.351 31.7721 202.286 31.7721C201.585 31.7721 200.978 31.6585 200.466 31.4313C199.953 31.1977 199.541 30.8829 199.229 30.4869C198.918 30.0845 198.703 29.6301 198.587 29.1238H198.47L197.146 37.1855H191.752ZM199.21 24.0999C199.093 24.8269 199.083 25.4565 199.18 25.9887C199.284 26.5145 199.489 26.9234 199.794 27.2155C200.105 27.5011 200.508 27.6439 201.001 27.6439C201.494 27.6439 201.936 27.5044 202.325 27.2253C202.715 26.9397 203.046 26.534 203.318 26.0082C203.591 25.476 203.792 24.8399 203.922 24.0999C204.039 23.3599 204.049 22.7271 203.951 22.2013C203.854 21.6691 203.656 21.2634 203.357 20.9843C203.059 20.6987 202.663 20.5559 202.17 20.5559C201.676 20.5559 201.225 20.6987 200.816 20.9843C200.414 21.2634 200.073 21.6691 199.794 22.2013C199.521 22.7271 199.327 23.3599 199.21 24.0999ZM211.257 37.1855C210.634 37.1855 210.053 37.1368 209.514 37.0395C208.975 36.9486 208.505 36.822 208.102 36.6598L209.913 32.8431C210.329 32.9989 210.712 33.0995 211.062 33.1449C211.419 33.1904 211.734 33.1644 212.007 33.0671C212.279 32.9697 212.503 32.7847 212.679 32.5121L212.854 32.2395L210.186 16.6224H215.599L216.281 26.9818H216.437L220.623 16.6224H226.465L218.326 32.8236C217.91 33.648 217.391 34.3879 216.768 35.0435C216.151 35.7056 215.392 36.2281 214.489 36.6111C213.587 36.994 212.51 37.1855 211.257 37.1855ZM222.642 31.5774L223.265 27.5271H223.733C224.025 27.5271 224.297 27.4427 224.551 27.2739C224.804 27.1052 225.041 26.8455 225.261 26.495C225.482 26.1445 225.683 25.6999 225.865 25.1612C226.053 24.6224 226.225 23.9831 226.381 23.2431L227.705 16.6224H240.012L237.519 31.5774H232.457L234.287 20.6338H231.794L230.899 24.6841C230.62 25.9563 230.256 27.0338 229.808 27.9165C229.367 28.7993 228.857 29.51 228.28 30.0488C227.702 30.581 227.069 30.9705 226.381 31.2171C225.7 31.4573 224.973 31.5774 224.2 31.5774H222.642ZM243.866 20.6727H248.462C250.584 20.6727 252.178 21.166 253.242 22.1526C254.307 23.1328 254.699 24.4829 254.42 26.2029C254.232 27.3129 253.791 28.2703 253.096 29.0752C252.408 29.88 251.516 30.4999 250.419 30.9348C249.322 31.3632 248.059 31.5774 246.631 31.5774H239.037L241.529 16.6224H246.592L244.762 27.566H247.293C247.852 27.566 248.329 27.4362 248.725 27.1766C249.127 26.9104 249.364 26.5729 249.435 26.164C249.507 25.7291 249.387 25.3754 249.075 25.1027C248.764 24.8236 248.338 24.6841 247.8 24.6841H243.204L243.866 20.6727Z" fill="#7D5C9C"/>
</svg>
