<svg width="17" height="17" viewBox="0 0 17 17" fill="none" xmlns="http://www.w3.org/2000/svg">
<path d="M12.7331 4.24448V4.25391M0.943359 4.71606C0.943359 3.71548 1.34084 2.75588 2.04836 2.04836C2.75588 1.34084 3.71548 0.943359 4.71606 0.943359H12.2615C13.2621 0.943359 14.2217 1.34084 14.9292 2.04836C15.6367 2.75588 16.0342 3.71548 16.0342 4.71606V12.2615C16.0342 13.2621 15.6367 14.2217 14.9292 14.9292C14.2217 15.6367 13.2621 16.0342 12.2615 16.0342H4.71606C3.71548 16.0342 2.75588 15.6367 2.04836 14.9292C1.34084 14.2217 0.943359 13.2621 0.943359 12.2615V4.71606ZM5.65924 8.48877C5.65924 9.23921 5.95735 9.95891 6.48799 10.4895C7.01863 11.0202 7.73833 11.3183 8.48877 11.3183C9.23921 11.3183 9.95891 11.0202 10.4895 10.4895C11.0202 9.95891 11.3183 9.23921 11.3183 8.48877C11.3183 7.73833 11.0202 7.01863 10.4895 6.48799C9.95891 5.95735 9.23921 5.65924 8.48877 5.65924C7.73833 5.65924 7.01863 5.95735 6.48799 6.48799C5.95735 7.01863 5.65924 7.73833 5.65924 8.48877Z" stroke="#7D5C9C" stroke-width="1.88635" stroke-linecap="round" stroke-linejoin="round"/>
</svg>
