<svg width="21" height="21" viewBox="0 0 21 21" fill="none" xmlns="http://www.w3.org/2000/svg">
<path d="M7.26386 8.28418C7.26386 8.42179 7.31853 8.55377 7.41583 8.65107C7.51314 8.74838 7.64511 8.80304 7.78272 8.80304C7.92033 8.80304 8.0523 8.74838 8.14961 8.65107C8.24691 8.55377 8.30157 8.42179 8.30157 8.28418V7.24647C8.30157 7.10886 8.24691 6.97689 8.14961 6.87959C8.0523 6.78228 7.92033 6.72762 7.78272 6.72762C7.64511 6.72762 7.51314 6.78228 7.41583 6.87959C7.31853 6.97689 7.26386 7.10886 7.26386 7.24647V8.28418ZM7.26386 8.28418C7.26386 9.66027 7.81051 10.98 8.78356 11.953C9.7566 12.9261 11.0763 13.4727 12.4524 13.4727M12.4524 13.4727H13.4901C13.6277 13.4727 13.7597 13.4181 13.857 13.3208C13.9543 13.2235 14.009 13.0915 14.009 12.9539C14.009 12.8163 13.9543 12.6843 13.857 12.587C13.7597 12.4897 13.6277 12.435 13.4901 12.435H12.4524C12.3148 12.435 12.1828 12.4897 12.0855 12.587C11.9882 12.6843 11.9336 12.8163 11.9336 12.9539C11.9336 13.0915 11.9882 13.2235 12.0855 13.3208C12.1828 13.4181 12.3148 13.4727 12.4524 13.4727ZM1.0376 19.699L2.74982 15.7557C1.43988 13.8962 0.853577 11.6225 1.10094 9.36144C1.34831 7.10034 2.41234 5.00724 4.09335 3.47493C5.77436 1.94263 7.95679 1.07646 10.2311 1.03899C12.5054 1.00151 14.7151 1.7953 16.4457 3.27139C18.1763 4.74747 19.3087 6.80438 19.6305 9.0561C19.9522 11.3078 19.4411 13.5996 18.1931 15.5012C16.9452 17.4029 15.0461 18.7838 12.8523 19.3847C10.6586 19.9856 8.3209 19.7653 6.27804 18.7651L1.0376 19.699Z" stroke="#7D5C9C" stroke-width="2.07542" stroke-linecap="round" stroke-linejoin="round"/>
</svg>
