<svg width="125" height="52" viewBox="0 0 125 52" fill="none" xmlns="http://www.w3.org/2000/svg">
<path d="M124.233 0.000232906L0 7.92993L11.5195 48.0543L98.3344 51.752L124.233 0.000232906Z" fill="#FFD409"/>
<path d="M34.5694 37.59C32.8746 37.59 31.4177 37.2871 30.1989 36.6813C28.98 36.0755 28.0821 35.2425 27.5052 34.1823C26.9282 33.1221 26.7443 31.9069 26.9535 30.5366H32.7952C32.6943 31.2939 32.889 31.9033 33.3794 32.3649C33.8698 32.8192 34.5117 33.0464 35.3051 33.0464C35.9325 33.0464 36.5023 32.9166 37.0143 32.6569C37.5264 32.3901 37.9555 32.0187 38.3017 31.5427C38.6479 31.0595 38.875 30.4933 38.9832 29.8442C39.0914 29.1951 39.0517 28.6326 38.8642 28.1566C38.6767 27.6734 38.3702 27.302 37.9447 27.0423C37.5192 26.7755 36.9999 26.6421 36.3869 26.6421C35.745 26.6421 35.132 26.7971 34.5478 27.1072C33.9636 27.4101 33.4948 27.8321 33.1414 28.373L28.0353 27.3344L30.9345 15.1316H45.8203L45.0414 19.9348H35.0887L33.8338 24.8246H33.9636C34.4252 24.1539 35.1175 23.5986 36.0407 23.1586C36.971 22.7115 37.9952 22.4879 39.113 22.4879C40.4329 22.4879 41.5579 22.7944 42.4883 23.4074C43.4187 24.0205 44.093 24.8679 44.5113 25.9497C44.9296 27.0315 45.0197 28.272 44.7817 29.6711C44.5437 31.2145 43.9596 32.5812 43.0292 33.7712C42.0988 34.9612 40.9089 35.8952 39.4592 36.5731C38.0096 37.251 36.3797 37.59 34.5694 37.59ZM47.6957 37.6333C46.8519 37.6333 46.1632 37.3412 45.6295 36.757C45.103 36.1656 44.883 35.448 44.9695 34.6042C45.0561 33.782 45.4275 33.0789 46.0838 32.4947C46.7473 31.9105 47.501 31.6184 48.3448 31.6184C49.1454 31.6184 49.8125 31.9105 50.3462 32.4947C50.8871 33.0789 51.1143 33.782 51.0277 34.6042C50.97 35.1668 50.7717 35.6788 50.4327 36.1404C50.101 36.5947 49.6899 36.959 49.1994 37.233C48.7162 37.4999 48.215 37.6333 47.6957 37.6333ZM61.1601 37.8929C59.1407 37.8929 57.4711 37.4314 56.1513 36.5082C54.8315 35.5778 53.9191 34.2436 53.4143 32.5055C52.9095 30.7674 52.8662 28.6831 53.2845 26.2526C53.7028 23.8149 54.4492 21.745 55.5238 20.043C56.6057 18.3409 57.9471 17.0464 59.5482 16.1593C61.1565 15.2722 62.9631 14.8286 64.9681 14.8286C66.973 14.8286 68.6318 15.2722 69.9444 16.1593C71.257 17.0464 72.1694 18.3409 72.6814 20.043C73.1935 21.7378 73.2476 23.8077 72.8437 26.2526C72.4398 28.6903 71.697 30.7782 70.6151 32.5163C69.5405 34.2544 68.1955 35.5851 66.58 36.5082C64.9717 37.4314 63.1651 37.8929 61.1601 37.8929ZM61.9823 33.0031C63.0208 33.0031 63.9512 32.4622 64.7733 31.3804C65.6027 30.2914 66.2158 28.5821 66.6124 26.2526C66.8721 24.7381 66.9334 23.4976 66.7963 22.5312C66.6593 21.5575 66.3636 20.8399 65.9093 20.3784C65.4549 19.9096 64.8815 19.6752 64.1892 19.6752C63.1506 19.6752 62.2058 20.2053 61.3548 21.2654C60.511 22.3184 59.898 23.9808 59.5157 26.2526C59.2561 27.8104 59.1984 29.087 59.3426 30.0822C59.4869 31.0775 59.7898 31.8131 60.2514 32.2891C60.7129 32.7651 61.2899 33.0031 61.9823 33.0031Z" fill="#121212"/>
<path d="M84.6865 22.7553L79.1831 23.5532L79.0856 23.573C78.9381 23.6122 78.8035 23.6898 78.6958 23.798C78.5881 23.9062 78.5109 24.041 78.4724 24.1887C78.4338 24.3364 78.4351 24.4917 78.4761 24.6388C78.5172 24.7858 78.5965 24.9193 78.7061 25.0257L82.6931 28.9066L81.7528 34.3885L81.7416 34.4833C81.7326 34.636 81.7643 34.7882 81.8334 34.9246C81.9026 35.0609 82.0067 35.1764 82.1352 35.2593C82.2637 35.3421 82.4119 35.3893 82.5647 35.3961C82.7174 35.4028 82.8692 35.3689 83.0045 35.2976L87.9265 32.7098L92.8374 35.2976L92.9236 35.3373C93.066 35.3934 93.2207 35.4106 93.372 35.3872C93.5232 35.3637 93.6654 35.3004 93.7842 35.2039C93.9029 35.1073 93.9937 34.9809 94.0475 34.8376C94.1012 34.6943 94.1158 34.5393 94.0899 34.3885L93.1488 28.9066L97.1375 25.0248L97.2048 24.9515C97.3009 24.8331 97.3639 24.6914 97.3874 24.5407C97.4109 24.3901 97.394 24.2359 97.3385 24.0938C97.283 23.9518 97.1909 23.827 97.0715 23.7322C96.952 23.6374 96.8096 23.5759 96.6587 23.5541L91.1553 22.7553L88.6951 17.7694C88.6239 17.6249 88.5137 17.5033 88.377 17.4182C88.2402 17.3332 88.0824 17.2881 87.9213 17.2881C87.7603 17.2881 87.6025 17.3332 87.4657 17.4182C87.329 17.5033 87.2188 17.6249 87.1476 17.7694L84.6865 22.7553Z" fill="#121212"/>
</svg>
