<svg width="77" height="32" viewBox="0 0 77 32" fill="none" xmlns="http://www.w3.org/2000/svg">
<path d="M76.4371 0.000143301L0 4.87908L7.08766 29.5665L60.5026 31.8417L76.4371 0.000143301Z" fill="#FFD409"/>
<path d="M21.2698 23.284C20.227 23.284 19.3306 23.0977 18.5807 22.7249C17.8308 22.3522 17.2783 21.8397 16.9234 21.1874C16.5684 20.5351 16.4552 19.7873 16.5839 18.9442H20.1782C20.1161 19.4102 20.2359 19.7851 20.5376 20.0691C20.8394 20.3487 21.2343 20.4885 21.7224 20.4885C22.1085 20.4885 22.459 20.4086 22.7741 20.2488C23.0891 20.0847 23.3532 19.8561 23.5662 19.5633C23.7792 19.266 23.9189 18.9176 23.9855 18.5182C24.0521 18.1189 24.0276 17.7728 23.9123 17.4799C23.7969 17.1826 23.6083 16.9541 23.3465 16.7943C23.0847 16.6301 22.7652 16.548 22.388 16.548C21.9931 16.548 21.6159 16.6434 21.2565 16.8343C20.8971 17.0206 20.6086 17.2802 20.3912 17.613L17.2495 16.974L19.0333 9.46593H28.1922L27.7129 12.4212H21.5893L20.8172 15.4298H20.8971C21.181 15.0171 21.607 14.6755 22.175 14.4048C22.7475 14.1296 23.3776 13.9921 24.0654 13.9921C24.8774 13.9921 25.5696 14.1807 26.1421 14.5579C26.7145 14.935 27.1294 15.4564 27.3868 16.122C27.6441 16.7877 27.6996 17.5509 27.5532 18.4118C27.4067 19.3614 27.0473 20.2022 26.4749 20.9344C25.9025 21.6666 25.1703 22.2412 24.2784 22.6584C23.3864 23.0755 22.3836 23.284 21.2698 23.284ZM29.3461 23.3107C28.8269 23.3107 28.4031 23.1309 28.0747 22.7715C27.7508 22.4076 27.6155 21.9661 27.6687 21.4469C27.722 20.9411 27.9505 20.5084 28.3543 20.149C28.7625 19.7896 29.2262 19.6099 29.7454 19.6099C30.238 19.6099 30.6484 19.7896 30.9768 20.149C31.3096 20.5084 31.4494 20.9411 31.3961 21.4469C31.3606 21.7931 31.2386 22.1081 31.0301 22.3921C30.8259 22.6717 30.573 22.8958 30.2713 23.0644C29.974 23.2286 29.6656 23.3107 29.3461 23.3107ZM37.6303 23.4704C36.3879 23.4704 35.3606 23.1864 34.5485 22.6184C33.7365 22.046 33.1752 21.2251 32.8645 20.1557C32.5539 19.0862 32.5273 17.8038 32.7847 16.3084C33.042 14.8086 33.5013 13.535 34.1625 12.4878C34.8281 11.4406 35.6535 10.6441 36.6386 10.0983C37.6281 9.55246 38.7397 9.27956 39.9733 9.27956C41.2069 9.27956 42.2275 9.55246 43.0351 10.0983C43.8427 10.6441 44.404 11.4406 44.7191 12.4878C45.0341 13.5306 45.0674 14.8041 44.8189 16.3084C44.5704 17.8083 44.1134 19.0929 43.4478 20.1623C42.7866 21.2317 41.959 22.0504 40.965 22.6184C39.9755 23.1864 38.8639 23.4704 37.6303 23.4704ZM38.1362 20.4618C38.7752 20.4618 39.3476 20.129 39.8535 19.4634C40.3638 18.7934 40.741 17.7417 40.985 16.3084C41.1448 15.3766 41.1825 14.6133 41.0982 14.0187C41.0139 13.4197 40.8319 12.9781 40.5524 12.6941C40.2728 12.4057 39.92 12.2615 39.494 12.2615C38.8551 12.2615 38.2738 12.5876 37.7501 13.2399C37.231 13.8878 36.8538 14.9106 36.6186 16.3084C36.4589 17.2669 36.4234 18.0523 36.5121 18.6647C36.6008 19.277 36.7872 19.7297 37.0712 20.0225C37.3552 20.3154 37.7102 20.4618 38.1362 20.4618Z" fill="#121212"/>
<path d="M52.1053 14.0005L48.7192 14.4915L48.6592 14.5037C48.5684 14.5278 48.4857 14.5756 48.4194 14.6421C48.3531 14.7087 48.3056 14.7916 48.2819 14.8825C48.2581 14.9734 48.2589 15.0689 48.2842 15.1594C48.3095 15.2499 48.3583 15.332 48.4257 15.3975L50.8788 17.7853L50.3003 21.1581L50.2934 21.2165C50.2878 21.3104 50.3073 21.4041 50.3499 21.488C50.3924 21.5719 50.4565 21.6429 50.5356 21.6939C50.6146 21.7449 50.7058 21.7739 50.7998 21.7781C50.8937 21.7822 50.9871 21.7613 51.0704 21.7175L54.0988 20.1253L57.1203 21.7175L57.1734 21.7419C57.261 21.7764 57.3562 21.787 57.4492 21.7726C57.5423 21.7582 57.6298 21.7192 57.7028 21.6598C57.7759 21.6004 57.8318 21.5226 57.8648 21.4344C57.8979 21.3463 57.9069 21.2509 57.8909 21.1581L57.3119 17.7853L59.766 15.3969L59.8074 15.3518C59.8666 15.279 59.9053 15.1918 59.9198 15.0991C59.9343 15.0064 59.9239 14.9115 59.8897 14.8241C59.8556 14.7367 59.7989 14.66 59.7254 14.6016C59.652 14.5433 59.5643 14.5055 59.4715 14.492L56.0853 14.0005L54.5717 10.9329C54.5279 10.844 54.4601 10.7691 54.3759 10.7168C54.2918 10.6645 54.1947 10.6367 54.0956 10.6367C53.9965 10.6367 53.8994 10.6645 53.8153 10.7168C53.7311 10.7691 53.6633 10.844 53.6195 10.9329L52.1053 14.0005Z" fill="#121212"/>
</svg>
