<svg width="224" height="52" viewBox="0 0 224 52" fill="none" xmlns="http://www.w3.org/2000/svg">
<path d="M223.59 -3.29031e-06L0 5.97555L11.5195 46.0999L197.692 51.7518L223.59 -3.29031e-06Z" fill="white"/>
<path d="M39.351 35.3328L34.0502 26.3753H33.2063L31.7134 35.3328H25.6985L29.3767 13.1772H35.3916L34.0069 21.5288H34.7858L42.5316 13.1772H50.1043L39.9136 23.8223L46.9021 35.3328H39.351ZM51.9716 35.5924C50.9186 35.5924 50.0135 35.4193 49.2562 35.0731C48.5062 34.7197 47.9581 34.186 47.6119 33.472C47.2729 32.7508 47.1972 31.8421 47.3847 30.7459C47.5362 29.8371 47.821 29.0618 48.2393 28.42C48.6576 27.7781 49.1769 27.2516 49.7971 26.8405C50.4174 26.4294 51.1134 26.1157 51.885 25.8993C52.664 25.6758 53.4861 25.5315 54.3516 25.4666C55.2892 25.3945 56.05 25.3043 56.6342 25.1962C57.2184 25.088 57.6547 24.9401 57.9432 24.7526C58.2317 24.5651 58.4048 24.3127 58.4625 23.9954V23.9521C58.5274 23.5194 58.412 23.1876 58.1163 22.9568C57.8278 22.726 57.4239 22.6106 56.9047 22.6106C56.3421 22.6106 55.8553 22.7332 55.4442 22.9784C55.0403 23.2237 54.7627 23.6059 54.6112 24.1252H49.1156C49.3464 23.1155 49.8188 22.1851 50.5328 21.3341C51.254 20.4758 52.2096 19.7907 53.3996 19.2786C54.5968 18.7594 56.0248 18.4997 57.6836 18.4997C58.8664 18.4997 59.9049 18.6404 60.7992 18.9216C61.6935 19.1957 62.4327 19.5815 63.0169 20.0792C63.6083 20.5696 64.023 21.1466 64.261 21.8101C64.5062 22.4664 64.5639 23.1804 64.4341 23.9521L62.5301 35.3328H56.9479L57.3374 32.996H57.2076C56.7748 33.6163 56.288 34.1175 55.7471 34.4998C55.2134 34.882 54.6292 35.1597 53.9946 35.3328C53.3671 35.5059 52.6928 35.5924 51.9716 35.5924ZM54.5679 31.8277C55.0151 31.8277 55.455 31.7339 55.8878 31.5464C56.3205 31.3589 56.6919 31.0884 57.002 30.7351C57.3121 30.3817 57.5105 29.9525 57.597 29.4477L57.8134 28.063C57.6547 28.1279 57.478 28.1892 57.2833 28.2469C57.0958 28.2974 56.8975 28.3479 56.6883 28.3983C56.4864 28.4488 56.27 28.4957 56.0392 28.539C55.8156 28.5822 55.5849 28.6255 55.3469 28.6688C54.8709 28.7409 54.4706 28.8599 54.146 29.0258C53.8215 29.1845 53.5691 29.3828 53.3888 29.6208C53.2085 29.8516 53.0967 30.1112 53.0534 30.3997C52.9885 30.8541 53.0931 31.2074 53.3671 31.4599C53.6484 31.7051 54.0487 31.8277 54.5679 31.8277ZM64.2081 35.3328L66.9775 18.7161H72.9492L71.9539 24.6444H72.9924L77.5361 18.7161H84.3731L77.6659 27.111L81.6469 35.3328H74.7233L72.3866 30.1833H71.0452L70.1797 35.3328H64.2081ZM86.7014 35.3328L89.4708 18.7161H104.962L102.193 35.3328H96.5675L98.6014 23.1732H94.2741L92.2403 35.3328H86.7014ZM103.008 41.564L106.838 18.7161H112.766L112.29 21.6154H112.42C112.723 21.0528 113.12 20.5372 113.61 20.0684C114.108 19.5924 114.692 19.2137 115.363 18.9325C116.04 18.644 116.791 18.4997 117.613 18.4997C118.709 18.4997 119.701 18.7918 120.588 19.376C121.475 19.9602 122.127 20.8797 122.546 22.1346C122.964 23.3895 123.007 25.0195 122.676 27.0244C122.358 28.9428 121.792 30.5331 120.977 31.7952C120.169 33.0573 119.217 33.9985 118.121 34.6188C117.032 35.239 115.896 35.5491 114.713 35.5491C113.935 35.5491 113.26 35.4229 112.69 35.1705C112.121 34.9109 111.663 34.5611 111.317 34.1211C110.97 33.674 110.732 33.1691 110.603 32.6066H110.473L109.001 41.564H103.008ZM111.295 27.0244C111.165 27.8322 111.154 28.5318 111.262 29.1232C111.378 29.7073 111.605 30.1617 111.944 30.4862C112.29 30.8036 112.737 30.9622 113.285 30.9622C113.834 30.9622 114.324 30.8072 114.757 30.4971C115.189 30.1797 115.557 29.729 115.86 29.1448C116.163 28.5534 116.387 27.8466 116.531 27.0244C116.661 26.2023 116.672 25.4991 116.563 24.9149C116.455 24.3235 116.235 23.8727 115.903 23.5626C115.572 23.2453 115.132 23.0866 114.584 23.0866C114.036 23.0866 113.534 23.2453 113.08 23.5626C112.633 23.8727 112.254 24.3235 111.944 24.9149C111.641 25.4991 111.425 26.2023 111.295 27.0244ZM130.531 35.6357C128.728 35.6357 127.242 35.2787 126.074 34.5647C124.913 33.8435 124.098 32.841 123.629 31.5572C123.16 30.2663 123.066 28.7698 123.348 27.0677C123.629 25.3656 124.217 23.8727 125.111 22.589C126.005 21.298 127.156 20.2955 128.562 19.5815C129.968 18.8603 131.577 18.4997 133.387 18.4997C135.183 18.4997 136.661 18.8603 137.822 19.5815C138.991 20.2955 139.809 21.298 140.278 22.589C140.754 23.8727 140.851 25.3656 140.57 27.0677C140.289 28.7698 139.697 30.2663 138.796 31.5572C137.894 32.841 136.74 33.8435 135.334 34.5647C133.935 35.2787 132.334 35.6357 130.531 35.6357ZM131.266 31.2219C131.786 31.2219 132.258 31.0524 132.684 30.7134C133.116 30.3744 133.484 29.8912 133.787 29.2638C134.097 28.6363 134.324 27.8899 134.469 27.0244C134.613 26.1518 134.634 25.4053 134.533 24.7851C134.433 24.1576 134.223 23.6744 133.906 23.3354C133.589 22.9965 133.17 22.827 132.651 22.827C132.132 22.827 131.656 22.9965 131.223 23.3354C130.79 23.6744 130.423 24.1576 130.12 24.7851C129.817 25.4053 129.593 26.1518 129.449 27.0244C129.305 27.8899 129.279 28.6363 129.373 29.2638C129.474 29.8912 129.683 30.3744 130.001 30.7134C130.325 31.0524 130.747 31.2219 131.266 31.2219ZM147.314 27.7168L153.458 18.7161H159.084L156.314 35.3328H150.689L152.203 26.2888L146.059 35.3328H140.433L143.203 18.7161H148.828L147.314 27.7168ZM154.237 12.7445H158.002C157.764 14.1508 157.043 15.2759 155.838 16.1197C154.634 16.9563 153.127 17.3746 151.316 17.3746C149.492 17.3746 148.114 16.9563 147.184 16.1197C146.253 15.2759 145.907 14.1508 146.145 12.7445H149.867C149.795 13.1988 149.892 13.6171 150.159 13.9994C150.433 14.3744 150.97 14.5619 151.771 14.5619C152.55 14.5619 153.134 14.378 153.523 14.0102C153.913 13.6424 154.151 13.2205 154.237 12.7445ZM158.888 23.1732L159.623 18.7161H175.721L174.985 23.1732H169.706L167.672 35.3328H162.046L164.08 23.1732H158.888ZM180.874 27.7168L187.019 18.7161H192.644L189.875 35.3328H184.249L185.764 26.2888L179.619 35.3328H173.994L176.763 18.7161H182.388L180.874 27.7168Z" fill="#121212"/>
</svg>
