<svg width="81" height="48" viewBox="0 0 81 48" fill="none" xmlns="http://www.w3.org/2000/svg">
<path d="M81.0087 0L0 6.51401L10.5275 43.1829L57.3408 47.2949L81.0087 0Z" fill="#43A382"/>
<path d="M27.0116 36.1984C24.8965 36.1984 23.1477 35.7149 21.7653 34.748C20.3829 33.7735 19.4273 32.376 18.8986 30.5555C18.3698 28.735 18.3245 26.5519 18.7626 24.0062C19.2007 21.4529 19.9826 19.2849 21.1081 17.5021C22.2412 15.7194 23.6463 14.3634 25.3233 13.4343C27.0078 12.5051 28.9001 12.0406 31.0001 12.0406C33.1002 12.0406 34.8376 12.5051 36.2124 13.4343C37.5873 14.3634 38.5428 15.7194 39.0792 17.5021C39.6155 19.2773 39.6722 21.4453 39.2491 24.0062C38.8261 26.5594 38.048 28.7463 36.9149 30.5668C35.7894 32.3874 34.3806 33.7811 32.6885 34.748C31.0039 35.7149 29.1116 36.1984 27.0116 36.1984ZM27.8728 31.0767C28.9605 31.0767 29.935 30.5102 30.7962 29.3771C31.6649 28.2364 32.307 26.4461 32.7225 24.0062C32.9944 22.4198 33.0586 21.1205 32.9151 20.1083C32.7716 19.0885 32.4618 18.3369 31.9859 17.8534C31.51 17.3624 30.9095 17.1169 30.1843 17.1169C29.0965 17.1169 28.1069 17.6721 27.2156 18.7825C26.3317 19.8854 25.6896 21.6266 25.2893 24.0062C25.0173 25.6378 24.9569 26.9749 25.108 28.0174C25.2591 29.0598 25.5763 29.8303 26.0598 30.3289C26.5432 30.8275 27.1476 31.0767 27.8728 31.0767ZM52.9792 12.3578L49.1266 35.5638H42.8266L45.7273 18.1593H45.5914L40.0165 21.1961L40.8776 15.8478L47.1777 12.3578H52.9792Z" fill="white"/>
</svg>
