<svg width="81" height="48" viewBox="0 0 81 48" fill="none" xmlns="http://www.w3.org/2000/svg">
<path d="M81.0087 0L0 6.51401L10.5275 43.1829L57.3408 47.2949L81.0087 0Z" fill="#DE127A"/>
<path d="M25.2123 35.4729C23.0972 35.4729 21.3484 34.9895 19.966 34.0225C18.5836 33.0481 17.628 31.6506 17.0992 29.8301C16.5705 28.0095 16.5251 25.8264 16.9633 23.2807C17.4014 20.7274 18.1833 18.5594 19.3088 16.7767C20.4419 14.9939 21.847 13.638 23.524 12.7088C25.2085 11.7797 27.1008 11.3151 29.2008 11.3151C31.3008 11.3151 33.0383 11.7797 34.4131 12.7088C35.7879 13.638 36.7435 14.9939 37.2799 16.7767C37.8162 18.5519 37.8729 20.7199 37.4498 23.2807C37.0268 25.834 36.2487 28.0209 35.1156 29.8414C33.9901 31.6619 32.5812 33.0556 30.8891 34.0225C29.2046 34.9895 27.3123 35.4729 25.2123 35.4729ZM26.0734 30.3513C27.1612 30.3513 28.1357 29.7847 28.9969 28.6516C29.8656 27.511 30.5077 25.7207 30.9231 23.2807C31.1951 21.6944 31.2593 20.3951 31.1158 19.3828C30.9722 18.363 30.6625 17.6114 30.1866 17.1279C29.7107 16.6369 29.1102 16.3914 28.385 16.3914C27.2972 16.3914 26.3076 16.9466 25.4162 18.0571C24.5324 19.16 23.8903 20.9012 23.49 23.2807C23.218 24.9124 23.1576 26.2494 23.3087 27.2919C23.4597 28.3344 23.777 29.1049 24.2605 29.6034C24.7439 30.102 25.3483 30.3513 26.0734 30.3513ZM35.951 34.8384L36.6988 30.306L46.5568 23.1447C47.214 22.6688 47.7806 22.2231 48.2565 21.8077C48.7399 21.3846 49.129 20.9503 49.4236 20.5046C49.7182 20.0589 49.9108 19.5641 50.0015 19.0202C50.0997 18.4235 50.0543 17.9136 49.8655 17.4905C49.6842 17.0599 49.3896 16.7313 48.9817 16.5047C48.5738 16.2781 48.0827 16.1648 47.5086 16.1648C46.927 16.1648 46.3944 16.2819 45.911 16.5161C45.4275 16.7502 45.0234 17.0939 44.6985 17.5472C44.3813 18.0004 44.1697 18.5519 44.064 19.2015H38.0812C38.3531 17.5698 38.9537 16.1648 39.8828 14.9864C40.8195 13.8079 42.0055 12.9015 43.4408 12.2669C44.8836 11.6324 46.5039 11.3151 48.3018 11.3151C50.1601 11.3151 51.7238 11.6135 52.9929 12.2103C54.2619 12.7995 55.1798 13.6304 55.7463 14.7031C56.3204 15.7758 56.4828 17.0335 56.2335 18.4763C56.0825 19.3677 55.7463 20.2515 55.2251 21.1278C54.7114 22.0041 53.8842 22.9785 52.7436 24.0512C51.6105 25.1163 50.0392 26.3854 48.0299 27.8584L45.5597 29.6714L45.537 29.8074H54.6019L53.7634 34.8384H35.951Z" fill="white"/>
</svg>
