<svg width="176" height="36" viewBox="0 0 176 36" fill="none" xmlns="http://www.w3.org/2000/svg">
<path d="M175.677 -0.000164917L0 4.28825L9.26118 32.8822L161.3 35.9391L175.677 -0.000164917Z" fill="#7D5C9C"/>
<path d="M20.8673 24.7106C19.9961 24.7106 19.1935 24.5709 18.4596 24.2915C17.7257 24.0122 17.1078 23.5742 16.6059 22.9776C16.104 22.3763 15.7607 21.5998 15.5761 20.6481C15.3914 19.6964 15.4127 18.5505 15.64 17.2106C15.8341 16.0505 16.1537 15.0136 16.5988 14.0998C17.0439 13.1812 17.5908 12.4 18.2394 11.756C18.8881 11.1074 19.6196 10.6149 20.434 10.2788C21.2484 9.93785 22.122 9.7674 23.0548 9.7674C24.1343 9.7674 25.0553 9.971 25.8176 10.3782C26.5846 10.7807 27.1623 11.3252 27.5505 12.0117C27.9388 12.6935 28.1069 13.4511 28.0548 14.2844H24.2195C24.2195 13.863 24.0799 13.5647 23.8005 13.3896C23.5212 13.2096 23.1874 13.1197 22.7991 13.1197C21.9421 13.1197 21.239 13.4985 20.6897 14.256C20.1405 15.0089 19.7546 15.9748 19.532 17.1538L19.6457 16.9549C19.9061 16.5098 20.2423 16.1358 20.6542 15.8327C21.0709 15.5297 21.5302 15.3001 22.032 15.1438C22.5387 14.9876 23.0595 14.9094 23.5945 14.9094C24.4989 14.9094 25.2588 15.1178 25.8744 15.5344C26.4899 15.9511 26.9279 16.5217 27.1883 17.2461C27.4487 17.9705 27.5008 18.792 27.3445 19.7106C27.1788 20.7238 26.7953 21.6045 26.194 22.3526C25.5927 23.1007 24.8327 23.6808 23.9142 24.0927C22.9956 24.5046 21.98 24.7106 20.8673 24.7106ZM21.0093 21.7276C21.4307 21.7276 21.8237 21.6306 22.1883 21.4364C22.5576 21.2376 22.8654 20.9677 23.1116 20.6268C23.3578 20.2811 23.5093 19.8905 23.5661 19.4549C23.623 19.0856 23.5945 18.7612 23.4809 18.4819C23.372 18.1978 23.1921 17.9776 22.9411 17.8214C22.6902 17.6604 22.3777 17.5799 22.0036 17.5799C21.6959 17.5799 21.3999 17.6367 21.1159 17.7504C20.8318 17.864 20.5737 18.0226 20.3417 18.2262C20.1097 18.4298 19.9156 18.6713 19.7593 18.9506C19.6031 19.2253 19.4989 19.5259 19.4468 19.8526C19.3947 20.2362 19.4255 20.5676 19.5392 20.8469C19.6528 21.1263 19.8351 21.3441 20.086 21.5004C20.3417 21.6519 20.6495 21.7276 21.0093 21.7276ZM35.9771 24.7106C34.7934 24.7106 33.8181 24.4762 33.051 24.0075C32.284 23.534 31.7466 22.8758 31.4388 22.033C31.131 21.1855 31.0718 20.203 31.2612 19.0856C31.4412 17.9682 31.8247 16.988 32.4118 16.1452C33.0037 15.2977 33.7612 14.6396 34.6845 14.1708C35.6126 13.6973 36.6684 13.4606 37.8521 13.4606C38.9222 13.4606 39.8147 13.6547 40.5297 14.043C41.2494 14.4265 41.7631 14.971 42.0709 15.6765C42.3834 16.3772 42.4639 17.2011 42.3124 18.1481H38.676C38.7186 17.5799 38.6263 17.1443 38.399 16.8413C38.1765 16.5382 37.8521 16.3867 37.426 16.3867C37.0756 16.3867 36.7537 16.4862 36.4601 16.685C36.1713 16.8791 35.9227 17.1751 35.7144 17.5728C35.5108 17.9658 35.3616 18.4606 35.2669 19.0572C35.1722 19.6538 35.1604 20.1509 35.2314 20.5487C35.3072 20.9416 35.4539 21.2376 35.6718 21.4364C35.8943 21.6306 36.176 21.7276 36.5169 21.7276C36.8105 21.7276 37.0804 21.6613 37.3266 21.5288C37.5775 21.3915 37.793 21.1926 37.9729 20.9322C38.1575 20.667 38.2972 20.3451 38.3919 19.9663H42.0283C41.8484 20.9322 41.4861 21.7702 40.9416 22.4805C40.3971 23.1907 39.7035 23.7399 38.8607 24.1282C38.0179 24.5165 37.0567 24.7106 35.9771 24.7106ZM46.6242 19.5117L50.6583 13.6026H54.3515L52.5333 24.5117H48.8401L49.8345 18.5742L45.8004 24.5117H42.1072L43.9254 13.6026H47.6186L46.6242 19.5117ZM61.1918 20.4492L64.7145 13.6026H67.4986L61.7316 24.5117H59.2884L57.2713 13.6026H60.0554L61.1918 20.4492ZM59.26 13.6026L57.4418 24.5117H53.7486L55.5668 13.6026H59.26ZM63.8338 24.5117L65.652 13.6026H69.2884L67.4702 24.5117H63.8338ZM69.8733 28.6026C69.4188 28.6026 68.995 28.5671 68.602 28.4961C68.209 28.4298 67.8657 28.3375 67.5722 28.2191L68.8932 25.435C69.1962 25.5487 69.4756 25.622 69.7313 25.6552C69.9917 25.6883 70.2213 25.6694 70.4202 25.5984C70.6191 25.5273 70.7824 25.3924 70.9102 25.1935L71.0381 24.9947L69.0921 13.6026H73.0409L73.5381 21.1594H73.6517L76.7057 13.6026H80.9671L75.0296 25.4208C74.7265 26.0221 74.3477 26.5619 73.8932 27.0401C73.4434 27.5231 72.8894 27.9042 72.2313 28.1836C71.5731 28.4629 70.7871 28.6026 69.8733 28.6026ZM78.1784 24.5117L78.633 21.5572H78.9739C79.187 21.5572 79.3858 21.4956 79.5705 21.3725C79.7551 21.2494 79.928 21.06 80.0889 20.8043C80.2499 20.5487 80.3967 20.2243 80.5293 19.8313C80.6666 19.4383 80.7921 18.9719 80.9057 18.4322L81.8716 13.6026H90.8489L89.0307 24.5117H85.3375L86.6727 16.5288H84.8546L84.2012 19.4833C83.9976 20.4113 83.7324 21.1973 83.4057 21.8413C83.0837 22.4852 82.712 23.0037 82.2906 23.3967C81.8692 23.7849 81.4076 24.069 80.9057 24.2489C80.4085 24.4241 79.8782 24.5117 79.3148 24.5117H78.1784ZM96.3877 24.5117L97.7229 16.5288H96.2456C95.7485 16.5288 95.3649 16.6424 95.095 16.8697C94.8299 17.0969 94.6831 17.3242 94.6547 17.5515C94.5979 17.793 94.6736 18.0202 94.882 18.2333C95.095 18.4416 95.4644 18.5458 95.9899 18.5458H98.774L98.3763 20.9038H95.5922C94.5221 20.9038 93.6225 20.7546 92.8933 20.4563C92.1642 20.158 91.6339 19.7461 91.3024 19.2205C90.971 18.695 90.8668 18.0913 90.9899 17.4094C91.1036 16.6708 91.4137 16.015 91.9203 15.4421C92.4317 14.8692 93.0969 14.4194 93.9161 14.0927C94.7399 13.766 95.6774 13.6026 96.7286 13.6026H101.842L100.024 24.5117H96.3877ZM89.6831 24.5117L93.632 18.6594H97.2399L93.2911 24.5117H89.6831ZM101.609 16.5288L102.092 13.6026H112.66L112.177 16.5288H108.711L107.376 24.5117H103.682L105.018 16.5288H101.609ZM116.451 24.7106C115.268 24.7106 114.292 24.4762 113.525 24.0075C112.763 23.534 112.228 22.8758 111.92 22.033C111.612 21.1855 111.551 20.203 111.735 19.0856C111.92 17.9682 112.306 16.988 112.893 16.1452C113.48 15.2977 114.235 14.6396 115.159 14.1708C116.082 13.6973 117.138 13.4606 118.326 13.4606C119.505 13.4606 120.476 13.6973 121.238 14.1708C122.005 14.6396 122.543 15.2977 122.851 16.1452C123.163 16.988 123.227 17.9682 123.042 19.0856C122.858 20.203 122.469 21.1855 121.878 22.033C121.286 22.8758 120.528 23.534 119.605 24.0075C118.686 24.4762 117.635 24.7106 116.451 24.7106ZM116.934 21.8129C117.275 21.8129 117.585 21.7016 117.865 21.479C118.149 21.2565 118.39 20.9393 118.589 20.5273C118.793 20.1154 118.942 19.6254 119.037 19.0572C119.131 18.4843 119.145 17.9942 119.079 17.587C119.013 17.1751 118.876 16.8578 118.667 16.6353C118.459 16.4128 118.184 16.3015 117.843 16.3015C117.503 16.3015 117.19 16.4128 116.906 16.6353C116.622 16.8578 116.38 17.1751 116.181 17.587C115.983 17.9942 115.836 18.4843 115.741 19.0572C115.646 19.6254 115.63 20.1154 115.691 20.5273C115.758 20.9393 115.895 21.2565 116.103 21.479C116.316 21.7016 116.593 21.8129 116.934 21.8129ZM122.271 28.6026L124.785 13.6026H128.677L128.364 15.506H128.45C128.649 15.1367 128.909 14.7982 129.231 14.4904C129.558 14.1779 129.941 13.9293 130.381 13.7447C130.827 13.5553 131.319 13.4606 131.859 13.4606C132.578 13.4606 133.229 13.6523 133.812 14.0359C134.394 14.4194 134.823 15.0231 135.097 15.8469C135.372 16.6708 135.4 17.7409 135.183 19.0572C134.974 20.3166 134.603 21.3607 134.068 22.1893C133.537 23.0179 132.912 23.6358 132.193 24.043C131.478 24.4502 130.732 24.6538 129.955 24.6538C129.444 24.6538 129.001 24.5709 128.627 24.4052C128.253 24.2347 127.953 24.0051 127.725 23.7163C127.498 23.4227 127.342 23.0913 127.256 22.7219H127.171L126.205 28.6026H122.271ZM127.711 19.0572C127.626 19.5875 127.619 20.0468 127.69 20.435C127.765 20.8185 127.915 21.1168 128.137 21.3299C128.364 21.5382 128.658 21.6424 129.018 21.6424C129.378 21.6424 129.7 21.5406 129.984 21.337C130.268 21.1287 130.509 20.8327 130.708 20.4492C130.907 20.061 131.054 19.5969 131.149 19.0572C131.234 18.5174 131.241 18.0558 131.17 17.6722C131.099 17.284 130.954 16.988 130.737 16.7844C130.519 16.5761 130.23 16.4719 129.87 16.4719C129.51 16.4719 129.181 16.5761 128.883 16.7844C128.589 16.988 128.341 17.284 128.137 17.6722C127.938 18.0558 127.796 18.5174 127.711 19.0572ZM140.34 24.7106C139.156 24.7106 138.181 24.4762 137.414 24.0075C136.651 23.534 136.116 22.8758 135.808 22.033C135.501 21.1855 135.439 20.203 135.624 19.0856C135.808 17.9682 136.194 16.988 136.781 16.1452C137.369 15.2977 138.124 14.6396 139.047 14.1708C139.97 13.6973 141.026 13.4606 142.215 13.4606C143.394 13.4606 144.364 13.6973 145.127 14.1708C145.894 14.6396 146.431 15.2977 146.739 16.1452C147.051 16.988 147.115 17.9682 146.931 19.0856C146.746 20.203 146.358 21.1855 145.766 22.033C145.174 22.8758 144.416 23.534 143.493 24.0075C142.574 24.4762 141.523 24.7106 140.34 24.7106ZM140.823 21.8129C141.164 21.8129 141.474 21.7016 141.753 21.479C142.037 21.2565 142.279 20.9393 142.477 20.5273C142.681 20.1154 142.83 19.6254 142.925 19.0572C143.02 18.4843 143.034 17.9942 142.967 17.587C142.901 17.1751 142.764 16.8578 142.556 16.6353C142.347 16.4128 142.073 16.3015 141.732 16.3015C141.391 16.3015 141.078 16.4128 140.794 16.6353C140.51 16.8578 140.269 17.1751 140.07 17.587C139.871 17.9942 139.724 18.4843 139.629 19.0572C139.535 19.6254 139.518 20.1154 139.58 20.5273C139.646 20.9393 139.783 21.2565 139.992 21.479C140.205 21.7016 140.482 21.8129 140.823 21.8129ZM146.841 24.5117L148.659 13.6026H153.432C154.89 13.6026 155.998 13.8512 156.756 14.3484C157.513 14.8455 157.807 15.5913 157.636 16.5856C157.551 17.1254 157.239 17.6036 156.699 18.0202C156.159 18.4369 155.43 18.7163 154.511 18.8583C155.33 18.8962 155.974 19.0477 156.443 19.3129C156.917 19.5733 157.241 19.9 157.416 20.293C157.591 20.6812 157.646 21.0837 157.579 21.5004C157.471 22.1632 157.198 22.7196 156.763 23.1694C156.327 23.6145 155.74 23.9506 155.001 24.1779C154.263 24.4004 153.38 24.5117 152.352 24.5117H146.841ZM150.932 21.756H152.807C153.129 21.756 153.394 21.6803 153.602 21.5288C153.81 21.3772 153.934 21.1689 153.971 20.9038C154.024 20.6291 153.969 20.4137 153.808 20.2575C153.652 20.1012 153.413 20.0231 153.091 20.0231H151.216L150.932 21.756ZM151.557 18.0344H152.807C153.01 18.0344 153.188 18.0037 153.339 17.9421C153.496 17.8758 153.623 17.7835 153.723 17.6651C153.822 17.5468 153.886 17.4047 153.915 17.239C153.953 16.988 153.884 16.7939 153.709 16.6566C153.538 16.5146 153.285 16.4435 152.949 16.4435H151.812L151.557 18.0344Z" fill="white"/>
</svg>
