<svg width="1800" height="303" viewBox="0 0 1800 303" fill="none" xmlns="http://www.w3.org/2000/svg">
<g opacity="0.02">
<path d="M973.485 298.162C991.574 296.956 1009.51 297.107 1027.6 297.408V164.155C1009.66 164.155 991.725 164.155 973.787 164.155M126.181 0H319.429C326.061 22.0079 332.694 44.0158 339.326 66.0237C345.808 44.0158 352.139 22.0079 358.621 0H1673.52C1716.48 132.047 1759.29 264.246 1802.1 396.293H1554.58L1542.22 354.84H1496.1L1484.64 396.293H1373.55C1371.29 404.734 1369.02 413.176 1366.61 421.466C1363.45 432.47 1360.28 443.173 1356.97 453.724C1356.81 454.327 1356.51 455.081 1356.36 455.986C1355.16 460.357 1353.5 466.387 1350.18 470.909C1347.47 474.677 1342.49 477.39 1336.46 479.501C1330.74 481.46 1323.5 482.968 1316.12 484.174C1302.55 486.435 1286.87 488.244 1270.74 488.696C1254.31 488.997 1237.28 487.792 1221.45 483.872C1212.26 481.46 1202.61 477.994 1193.87 472.868C1191 471.21 1188.14 469.401 1185.58 467.291C1184.22 471.06 1182.71 474.979 1181.35 478.747L1179.24 484.626L1173.06 485.229C1158.74 486.586 1145.03 487.189 1131.46 487.339C1117.44 487.339 1103.72 486.887 1090.01 485.832L1084.88 485.38L1082.17 481.008C1078.85 475.431 1074.63 468.497 1069.36 459.603C1068.75 458.548 1068 457.342 1067.4 456.287C1063.63 466.688 1060.01 476.637 1058.35 481.008L1055.79 488.093L1048.4 487.641C1033.78 486.586 1019.76 486.284 1006.05 486.586C992.328 486.736 978.309 487.49 963.838 488.244C962.029 488.244 960.371 488.244 958.864 487.641C957.658 487.189 956.603 486.736 955.547 485.983C946.654 485.681 937.76 485.832 928.867 486.133C918.918 486.586 908.065 487.339 897.061 488.093H896.91C892.086 488.394 888.77 487.038 886.81 484.777C867.516 488.093 845.659 489.902 824.555 488.244C810.084 487.038 795.915 484.174 783.102 479.049L782.65 487.038H773.153C758.682 486.586 744.211 486.435 729.74 486.435C715.269 486.435 700.798 486.435 686.328 486.736H676.68L676.379 477.24L676.077 470.155L664.621 468.195C661.003 472.567 655.878 477.993 645.779 486.586C640.051 486.586 634.323 486.586 628.594 486.586C591.663 486.284 558.049 486.133 521.419 487.942L515.842 488.244L512.676 483.571C502.878 468.798 512.375 483.119 507.853 476.185C507.4 475.582 506.948 474.828 506.647 474.225C504.235 477.692 501.069 481.913 496.698 487.339C481.322 486.736 466.098 486.736 451.024 487.038C435.95 487.339 420.575 487.792 405.048 488.394L390.728 488.847L395.401 475.28C400.376 460.508 405.651 445.434 411.229 429.305C415.148 418.15 419.067 407.297 422.836 396.745H-2.09766L125.88 0.452199L126.181 0ZM1269.08 298.162L1300.59 200.483L1304.81 187.519L1312.5 163.1H1269.08V298.162Z" fill="white"/>
<path d="M1488.56 345.343L1477.1 386.796H1037.55V153.302C1012.98 153.302 988.559 153.302 963.989 153.302C963.838 231.083 963.537 308.864 963.235 386.796C903.241 368.406 862.994 367.2 845.96 386.796H15.8403C55.9369 261.231 96.0334 135.816 136.13 10.2503H311.892C321.087 40.3981 329.98 70.6966 339.176 100.844C348.22 70.6966 356.963 40.3981 365.856 10.2503H1666.13C1706.83 135.816 1747.53 261.231 1788.38 386.796H1561.82L1549.46 345.343M1259.29 361.171L1262.9 349.865L1314.31 190.986L1327.57 152.246H1259.29V361.171Z" fill="white"/>
<path fill-rule="evenodd" clip-rule="evenodd" d="M746.623 168.978H933.087V232.59H746.623V272.687H933.992L934.444 357.101H577.343C597.542 294.393 617.591 231.686 637.79 168.978M1230.04 168.978L1230.5 357.101H1065.44V168.978H1230.04ZM1507.7 168.978L1455.25 357.101H1289.43C1309.63 294.393 1329.98 231.686 1350.18 168.978H1507.7ZM1749.49 357.251H1582.77L1570.41 315.798H1492.33L1514.79 227.314H1552.62L1533.78 169.129H1687.54C1705.32 231.234 1729.14 294.695 1749.34 357.251H1749.49ZM539.96 357.251H440.924L441.377 234.399H426.906L383.493 357.251H293.954L251.144 234.399H236.824V357.251H54.128L114.273 169.129H600.708C592.417 194.755 582.619 224.903 539.96 357.251Z" fill="#040405"/>
<path fill-rule="evenodd" clip-rule="evenodd" d="M120.001 150.739L127.387 127.827L156.329 37.0818H290.487L324.102 150.588M746.623 126.621V150.739H643.518C655.728 112.904 667.787 75.0681 679.997 37.2326H976.199L947.709 126.621H746.623ZM1229.89 126.621V150.739H1065.44V126.621H982.831L1011.62 37.0818H1360.73L1331.49 126.621H1229.89ZM1356.06 150.739C1368.27 112.904 1380.48 75.0681 1392.69 37.2326H1645.48L1681.96 150.739H1356.06ZM353.194 150.739C364.349 112.904 375.504 75.0681 386.658 37.2326H643.367C621.962 103.558 613.068 131.294 606.737 150.739H353.194Z" fill="#040405"/>
<path d="M920.124 383.932C903.09 378.657 881.535 374.888 863.144 382.877C847.468 389.811 844.604 403.83 864.652 405.79C882.59 407.598 911.23 401.418 915.149 400.966C916.958 395.389 918.164 389.51 920.275 383.932M405.048 478.446C423.891 422.974 443.336 367.803 466.098 313.688C491.12 308.563 515.992 304.945 541.618 304.493C564.229 304.041 591.362 305.699 611.26 318.361C623.62 326.199 632.212 337.053 635.227 351.523L635.981 354.991H639.598C648.492 343.685 657.235 332.229 666.43 321.074C672.61 313.537 679.394 309.618 689.041 308.563C717.681 305.397 744.211 307.357 772.55 311.578C773.756 323.938 774.962 336.299 775.716 348.659C805.562 317.456 846.412 304.493 889.222 305.247C908.215 305.548 927.661 308.563 946.955 313.839L948.161 310.824C979.515 306.453 1009.21 307.055 1040.56 307.809C1060.46 306.302 1080.51 307.056 1100.41 307.508C1107.04 322.582 1113.97 337.655 1121.06 352.428C1126.33 338.409 1132.06 324.541 1137.94 310.673C1171.71 305.85 1203.36 307.055 1237.43 307.809L1230.5 323.788C1284.61 293.489 1342.95 304.794 1398.42 322.129C1389.53 341.575 1380.63 359.06 1368.27 376.697C1362.24 401.87 1355.16 426.29 1347.62 450.861C1346.56 454.328 1345.06 461.262 1342.34 465.03C1339.18 469.401 1326.97 472.416 1314.61 474.527C1288.53 478.747 1253.56 481.913 1224.01 474.376C1208.34 470.457 1191.76 462.769 1181.66 449.655C1178.49 458.247 1175.32 466.839 1172.16 475.431C1144.57 477.994 1118.35 478.144 1090.76 475.883C1082.17 461.714 1073.73 447.544 1065.44 433.224C1060.01 447.996 1054.58 462.769 1049.16 477.541C1019.46 475.431 992.177 476.637 963.235 478.144C961.276 478.144 960.371 477.089 960.673 476.034C939.117 474.828 917.863 476.486 896.458 477.994C892.539 478.144 893.292 475.28 893.745 473.17C857.266 480.556 807.371 483.119 774.208 463.523L773.304 476.788C744.211 476.185 715.269 476.335 686.177 476.788L685.574 461.563L660.4 457.342C655.577 463.673 650.602 470.155 645.779 476.486C601.763 476.185 563.324 475.582 520.967 477.692C514.636 468.196 512.073 464.427 506.044 454.931C503.029 462.317 500.014 469.703 496.999 477.089C466.098 476.034 435.498 477.089 404.596 477.994L405.048 478.446Z" fill="white"/>
<path fill-rule="evenodd" clip-rule="evenodd" d="M1134.63 370.667C1139.75 356.498 1145.18 342.63 1151.06 328.762C1170.65 326.048 1190.55 326.35 1210.3 326.953C1203.06 343.836 1197.03 358.307 1192.06 370.667M1012.53 370.667C1017.65 356.498 1023.08 342.479 1028.96 328.762C1044.03 326.651 1057.9 326.651 1072.52 326.651H1073.43C1078.55 326.651 1083.68 326.651 1088.8 326.953C1095.28 341.424 1102.07 356.046 1109.3 370.667H1012.53ZM944.694 370.667C949.819 356.498 955.246 342.479 961.125 328.762C970.621 327.405 980.57 326.651 990.67 326.651C1000.77 326.651 1010.72 326.651 1020.37 326.953C1014.03 341.575 1008.16 356.196 1002.58 370.667H944.694ZM782.801 370.667C786.569 365.391 790.488 360.718 794.709 356.799C805.864 346.248 819.581 338.108 834.504 332.832C869.325 320.773 910.175 322.431 949.819 334.791C943.941 347.604 935.047 360.417 929.168 368.708C910.326 364.035 875.957 354.689 851.236 367.803C849.879 368.557 848.372 369.461 847.015 370.517H782.801V370.667ZM758.381 370.667C757.929 351.674 757.175 335.545 755.969 328.762C733.509 325.445 708.938 325.596 684.82 328.762C674.419 341.575 663.415 355.443 651.808 370.667H758.381ZM616.988 370.667C619.399 361.171 617.741 351.071 610.054 341.725C604.929 336.449 598.748 332.681 591.513 330.118C562.42 320.17 521.419 324.24 492.326 328.611C487.05 329.365 482.679 330.118 479.061 330.872C473.484 344.137 468.057 357.402 462.932 370.818H518.555C519.459 368.858 520.364 367.049 521.721 364.788C532.875 365.391 541.92 365.09 547.949 366.597C552.019 367.652 554.582 369.009 556.089 370.667H616.988ZM1206.83 370.667C1210.6 365.241 1214.67 360.417 1218.44 356.799C1229.59 346.248 1243.31 338.108 1258.23 332.832C1293.05 320.773 1333.9 322.431 1373.55 334.791C1367.67 347.604 1358.77 360.417 1352.9 368.708C1334.05 364.035 1299.68 354.689 1274.96 367.803C1273.46 368.708 1271.95 369.612 1270.59 370.517H1206.83V370.667Z" fill="#040405"/>
<path fill-rule="evenodd" clip-rule="evenodd" d="M969.415 459.754C952.08 458.548 934.444 458.548 917.109 459.754C924.194 433.375 932.032 407.146 940.926 381.37H998.357C988.409 407.297 979.213 433.375 969.415 459.754ZM836.464 419.205C854.1 429.757 892.689 423.727 911.532 421.014C909.723 427.948 907.612 443.776 904.145 453.724C876.56 460.96 846.412 463.523 821.842 460.508C803.904 458.397 787.323 453.423 776.922 444.379C767.576 436.088 764.26 423.275 766.068 409.257C767.274 400.212 770.892 390.414 776.017 381.37H836.162C826.515 393.73 821.39 410.312 836.464 419.205ZM588.799 459.754C603.421 459.302 615.329 459.754 637.187 459.754C642.462 452.82 647.738 445.886 653.014 439.103L703.813 447.695C703.813 451.765 704.115 455.684 704.266 459.754C722.656 459.453 740.292 459.453 756.572 459.754C758.23 444.529 758.833 411.065 758.532 381.37H701.401C701.854 392.977 702.306 404.734 702.758 416.341L673.967 411.518L696.729 381.37H643.668C626.786 404.131 608.546 430.059 588.649 459.754H588.799ZM430.825 460.96C448.009 460.96 464.741 459.905 485.242 459.905C491.422 444.831 494.889 436.842 500.768 421.316C501.069 421.316 501.974 421.466 503.33 421.617C504.687 421.617 505.742 421.617 506.345 421.617C513.731 435.033 522.474 447.695 530.916 460.357C549.607 459.453 568.299 459.151 586.991 459.151C578.398 444.831 569.957 430.36 561.516 415.889C571.766 413.477 580.509 410.312 587.895 406.392C597.693 400.514 607.19 391.62 612.918 381.37H556.089C554.883 383.179 553.225 384.837 551.416 386.193C541.618 393.881 522.173 394.032 510.415 393.127C512.073 388.304 513.43 384.535 514.636 381.37H459.164C449.215 407.749 440.02 434.279 431.126 460.96H430.825ZM1326.82 454.026C1299.53 461.111 1269.69 463.372 1245.57 460.508C1227.63 458.397 1211.05 453.423 1200.65 444.379C1183.31 429.154 1188.89 402.473 1200.2 381.37H1259.29C1252.8 389.962 1249.94 400.061 1251.9 408.051C1254.46 418.602 1264.86 422.974 1274.81 424.18C1282.8 425.084 1291.09 424.18 1296.07 423.426C1297.42 418.301 1298.48 414.683 1299.84 409.558C1290.34 409.558 1281.29 410.312 1272.25 411.216C1273.76 403.981 1275.57 396.444 1279.03 387.55C1302.85 384.234 1325.76 383.179 1348.37 382.877C1340.08 417.999 1334.05 434.581 1328.48 452.066C1328.02 453.574 1327.87 453.724 1326.52 454.177L1326.82 454.026ZM1049.46 426.139C1045.54 437.143 1041.47 448.298 1037.25 459.754C1019.91 458.548 1002.28 458.548 984.942 459.754C992.026 433.375 999.865 407.146 1008.76 381.37H1114.43C1117.59 388.002 1120.91 394.484 1124.22 401.117C1126.33 394.484 1128.6 388.002 1130.86 381.37H1187.84C1177.44 408.051 1172.91 422.22 1171.56 426.139C1167.64 437.143 1163.57 448.298 1159.35 459.754C1157.54 459.754 1155.88 459.453 1154.07 459.453C1154.07 459.453 1154.07 459.754 1154.22 459.754C1134.17 460.357 1116.54 460.659 1101.92 459.754C1088.35 437.445 1075.23 414.985 1061.67 392.675C1057.6 403.83 1053.53 414.985 1049.46 426.29V426.139Z" fill="#040405"/>
</g>
</svg>
