<svg width="178" height="55" viewBox="0 0 178 55" fill="none" xmlns="http://www.w3.org/2000/svg">
<path d="M177.332 -0.000194439L0 5.12371L12.0664 47.1528L150.204 54.2082L177.332 -0.000194439Z" fill="white"/>
<path d="M29.6306 12.2869H35.7497L32.7128 30.6442H38.3787L41.4156 12.2869H47.4893L44.4524 30.6442H49.9823L53.0192 12.2869H59.093L55.2402 35.4941H25.7778L29.6306 12.2869ZM63.3804 35.7661C62.2775 35.7661 61.3294 35.5848 60.5362 35.2222C59.7505 34.852 59.1764 34.293 58.8138 33.5451C58.4587 32.7896 58.3794 31.8378 58.5758 30.6895C58.7344 29.7376 59.0328 28.9255 59.471 28.2532C59.9091 27.5809 60.4531 27.0294 61.1028 26.5988C61.7524 26.1682 62.4814 25.8396 63.2898 25.6129C64.1056 25.3787 64.9669 25.2276 65.8734 25.1597C66.8555 25.0841 67.6525 24.9897 68.2644 24.8764C68.8763 24.763 69.3333 24.6082 69.6355 24.4118C69.9377 24.2153 70.119 23.9509 70.1794 23.6185V23.5732C70.2474 23.1199 70.1265 22.7724 69.8168 22.5307C69.5146 22.289 69.0916 22.1681 68.5477 22.1681C67.9584 22.1681 67.4485 22.2965 67.0179 22.5534C66.5948 22.8102 66.304 23.2106 66.1453 23.7545H60.3889C60.6306 22.6969 61.1254 21.7224 61.8733 20.831C62.6288 19.932 63.6297 19.2143 64.8762 18.6779C66.1302 18.134 67.626 17.8621 69.3635 17.8621C70.6025 17.8621 71.6903 18.0094 72.6271 18.304C73.5638 18.5911 74.3381 18.9952 74.9501 19.5165C75.5695 20.0302 76.0039 20.6345 76.2532 21.3295C76.5101 22.017 76.5705 22.7649 76.4345 23.5732L74.4401 35.4941H68.593L69.0009 33.0465H68.865C68.4117 33.6962 67.9018 34.2212 67.3352 34.6216C66.7761 35.022 66.1642 35.3128 65.4994 35.4941C64.8422 35.6754 64.1359 35.7661 63.3804 35.7661ZM66.1 31.8227C66.5684 31.8227 67.0292 31.7245 67.4825 31.5281C67.9358 31.3316 68.3248 31.0483 68.6496 30.6782C68.9745 30.308 69.1822 29.8585 69.2729 29.3297L69.4995 27.8793C69.3333 27.9472 69.1482 28.0115 68.9443 28.0719C68.7479 28.1248 68.5401 28.1777 68.321 28.2305C68.1095 28.2834 67.8829 28.3325 67.6411 28.3778C67.4069 28.4232 67.1652 28.4685 66.9159 28.5138C66.4173 28.5894 65.998 28.714 65.6581 28.8878C65.3181 29.054 65.0537 29.2617 64.8649 29.511C64.676 29.7528 64.5589 30.0247 64.5136 30.3269C64.4456 30.8028 64.5551 31.173 64.8422 31.4374C65.1368 31.6943 65.5561 31.8227 66.1 31.8227ZM79.0987 18.0887H84.9912L82.8608 30.7802H86.6683L88.7986 18.0887H94.6911L92.5607 30.7802H96.3682L98.4985 18.0887H104.391L101.49 35.4941H76.1978L79.0987 18.0887ZM103.248 35.4941L106.149 18.0887H112.404L111.361 24.2984H112.449L117.208 18.0887H124.37L117.344 26.8821L121.514 35.4941H114.262L111.814 30.1003H110.409L109.503 35.4941H103.248ZM128.935 27.5166L135.371 18.0887H141.264L138.363 35.4941H132.471L134.057 26.0209L127.621 35.4941H121.728L124.629 18.0887H130.522L128.935 27.5166Z" fill="#040A0F"/>
</svg>
