<svg width="293" height="55" viewBox="0 0 293 55" fill="none" xmlns="http://www.w3.org/2000/svg">
<path d="M292.208 -8.17492e-05L0 2.54258L12.0664 44.5716L265.08 54.2084L292.208 -8.17492e-05Z" fill="#DE127A"/>
<path d="M38.5378 32.915L32.9853 23.5324H32.1014L30.5376 32.915H24.2372L28.09 9.70777H34.3904L32.9399 18.4558H33.7558L41.8693 9.70777H49.8015L39.127 20.8581L46.4473 32.915H38.5378ZM54.0153 33.2323C52.1267 33.2323 50.5705 32.8584 49.3466 32.1105C48.1304 31.355 47.2767 30.305 46.7857 28.9603C46.2946 27.608 46.1964 26.0405 46.491 24.2576C46.7857 22.4748 47.4014 20.911 48.3381 19.5663C49.2749 18.2141 50.4798 17.164 51.9529 16.4161C53.426 15.6607 55.1107 15.283 57.0068 15.283C58.8879 15.283 60.4366 15.6607 61.6528 16.4161C62.8767 17.164 63.7341 18.2141 64.2251 19.5663C64.7237 20.911 64.8257 22.4748 64.5311 24.2576C64.2365 26.0405 63.617 27.608 62.6727 28.9603C61.7284 30.305 60.5197 31.355 59.0465 32.1105C57.581 32.8584 55.9039 33.2323 54.0153 33.2323ZM54.7858 28.609C55.3298 28.609 55.8246 28.4315 56.2703 28.0764C56.7236 27.7214 57.1088 27.2152 57.4261 26.558C57.751 25.9007 57.9889 25.1188 58.14 24.2123C58.2911 23.2982 58.3138 22.5163 58.208 21.8667C58.1022 21.2094 57.8832 20.7033 57.5508 20.3482C57.2184 19.9932 56.7802 19.8156 56.2363 19.8156C55.6924 19.8156 55.1938 19.9932 54.7405 20.3482C54.2872 20.7033 53.902 21.2094 53.5847 21.8667C53.2674 22.5163 53.0332 23.2982 52.8821 24.2123C52.731 25.1188 52.7046 25.9007 52.8028 26.558C52.9086 27.2152 53.1276 27.7214 53.46 28.0764C53.8 28.4315 54.2419 28.609 54.7858 28.609ZM63.6626 32.915L64.3878 28.2011H64.9318C65.2717 28.2011 65.589 28.1029 65.8836 27.9064C66.1782 27.71 66.454 27.4078 66.7108 26.9999C66.9677 26.592 67.2019 26.0745 67.4134 25.4475C67.6325 24.8204 67.8327 24.0763 68.014 23.2151L69.5551 15.5096H83.8783L80.9774 32.915H75.0849L77.2153 20.1782H74.3144L73.2719 24.8922C72.947 26.3729 72.524 27.6269 72.0027 28.6543C71.489 29.6817 70.896 30.5089 70.2237 31.136C69.5513 31.7554 68.8148 32.2087 68.014 32.4958C67.2208 32.7753 66.3747 32.915 65.4757 32.915H63.6626ZM88.3641 20.2236H93.7126C96.1829 20.2236 98.0376 20.7977 99.2765 21.946C100.515 23.0867 100.972 24.658 100.648 26.66C100.429 27.9518 99.9148 29.066 99.1065 30.0028C98.3057 30.9396 97.267 31.661 95.9903 32.1671C94.7136 32.6657 93.2443 32.915 91.5823 32.915H82.7436L85.6445 15.5096H91.537L89.4066 28.2464H92.3528C93.0025 28.2464 93.5578 28.0953 94.0186 27.7931C94.487 27.4834 94.7627 27.0906 94.8458 26.6146C94.9289 26.1085 94.7891 25.6968 94.4265 25.3795C94.0639 25.0546 93.5691 24.8922 92.9421 24.8922H87.5935L88.3641 20.2236ZM120.088 15.5096L117.845 28.9943H120.814L119.272 38.4676H113.244L114.151 32.915H100.96L103.861 15.5096H109.754L107.624 28.2464H112.156L114.287 15.5096H120.088ZM129.277 33.2323C127.388 33.2323 125.832 32.8584 124.608 32.1105C123.392 31.355 122.538 30.305 122.047 28.9603C121.556 27.608 121.458 26.0405 121.753 24.2576C122.047 22.4748 122.663 20.911 123.6 19.5663C124.536 18.2141 125.741 17.164 127.214 16.4161C128.688 15.6607 130.372 15.283 132.268 15.283C134.149 15.283 135.698 15.6607 136.914 16.4161C138.138 17.164 138.996 18.2141 139.487 19.5663C139.985 20.911 140.087 22.4748 139.793 24.2576C139.498 26.0405 138.878 27.608 137.934 28.9603C136.99 30.305 135.781 31.355 134.308 32.1105C132.842 32.8584 131.165 33.2323 129.277 33.2323ZM130.047 28.609C130.591 28.609 131.086 28.4315 131.532 28.0764C131.985 27.7214 132.37 27.2152 132.688 26.558C133.012 25.9007 133.25 25.1188 133.401 24.2123C133.553 23.2982 133.575 22.5163 133.469 21.8667C133.364 21.2094 133.145 20.7033 132.812 20.3482C132.48 19.9932 132.042 19.8156 131.498 19.8156C130.954 19.8156 130.455 19.9932 130.002 20.3482C129.549 20.7033 129.163 21.2094 128.846 21.8667C128.529 22.5163 128.295 23.2982 128.144 24.2123C127.993 25.1188 127.966 25.9007 128.064 26.558C128.17 27.2152 128.389 27.7214 128.722 28.0764C129.061 28.4315 129.503 28.609 130.047 28.609ZM151.937 24.9375L158.373 15.5096H164.266L161.365 32.915H155.472L157.059 23.4418L150.622 32.915H144.73L147.631 15.5096H153.523L151.937 24.9375ZM167.297 39.4421L171.308 15.5096H177.518L177.019 18.5465H177.155C177.473 17.9572 177.888 17.4171 178.402 16.926C178.923 16.4274 179.535 16.0308 180.237 15.7362C180.948 15.434 181.733 15.283 182.594 15.283C183.743 15.283 184.781 15.5889 185.711 16.2008C186.64 16.8127 187.324 17.7759 187.762 19.0904C188.2 20.4049 188.245 22.1122 187.898 24.2123C187.565 26.2218 186.972 27.8876 186.119 29.2096C185.272 30.5316 184.275 31.5175 183.127 32.1671C181.986 32.8168 180.796 33.1417 179.558 33.1417C178.742 33.1417 178.035 33.0095 177.439 32.7451C176.842 32.4731 176.362 32.1067 175.999 31.6459C175.637 31.1775 175.387 30.6487 175.252 30.0595H175.116L173.574 39.4421H167.297ZM175.977 24.2123C175.841 25.0584 175.829 25.7912 175.943 26.4107C176.064 27.0226 176.302 27.4985 176.657 27.8384C177.019 28.1708 177.488 28.337 178.062 28.337C178.636 28.337 179.15 28.1746 179.603 27.8498C180.056 27.5174 180.441 27.0452 180.759 26.4333C181.076 25.8139 181.31 25.0735 181.461 24.2123C181.597 23.3511 181.609 22.6145 181.495 22.0026C181.382 21.3832 181.152 20.911 180.804 20.5862C180.457 20.2538 179.996 20.0876 179.422 20.0876C178.847 20.0876 178.322 20.2538 177.846 20.5862C177.378 20.911 176.981 21.3832 176.657 22.0026C176.339 22.6145 176.113 23.3511 175.977 24.2123ZM192.59 33.187C191.487 33.187 190.539 33.0057 189.746 32.6431C188.96 32.2729 188.386 31.7139 188.024 30.966C187.669 30.2105 187.589 29.2587 187.786 28.1104C187.944 27.1585 188.243 26.3464 188.681 25.6741C189.119 25.0018 189.663 24.4503 190.313 24.0197C190.962 23.5891 191.691 23.2605 192.5 23.0338C193.315 22.7996 194.177 22.6485 195.083 22.5805C196.065 22.505 196.862 22.4106 197.474 22.2973C198.086 22.1839 198.543 22.0291 198.845 21.8327C199.148 21.6362 199.329 21.3718 199.389 21.0394V20.9941C199.457 20.5408 199.336 20.1933 199.027 19.9516C198.724 19.7099 198.301 19.589 197.757 19.589C197.168 19.589 196.658 19.7174 196.228 19.9743C195.805 20.2311 195.514 20.6315 195.355 21.1754H189.599C189.84 20.1178 190.335 19.1433 191.083 18.2518C191.839 17.3529 192.84 16.6352 194.086 16.0988C195.34 15.5549 196.836 15.283 198.573 15.283C199.812 15.283 200.9 15.4303 201.837 15.7249C202.774 16.012 203.548 16.4161 204.16 16.9374C204.779 17.4511 205.214 18.0554 205.463 18.7504C205.72 19.4379 205.78 20.1858 205.644 20.9941L203.65 32.915H197.803L198.211 30.4674H198.075C197.622 31.1171 197.112 31.6421 196.545 32.0425C195.986 32.4429 195.374 32.7337 194.709 32.915C194.052 33.0963 193.346 33.187 192.59 33.187ZM195.31 29.2436C195.778 29.2436 196.239 29.1454 196.692 28.949C197.146 28.7525 197.535 28.4692 197.859 28.0991C198.184 27.7289 198.392 27.2794 198.483 26.7506L198.709 25.3002C198.543 25.3681 198.358 25.4324 198.154 25.4928C197.958 25.5457 197.75 25.5986 197.531 25.6514C197.319 25.7043 197.093 25.7534 196.851 25.7987C196.617 25.8441 196.375 25.8894 196.126 25.9347C195.627 26.0103 195.208 26.1349 194.868 26.3087C194.528 26.4749 194.264 26.6826 194.075 26.9319C193.886 27.1737 193.769 27.4456 193.723 27.7478C193.655 28.2237 193.765 28.5939 194.052 28.8583C194.347 29.1152 194.766 29.2436 195.31 29.2436ZM204.682 32.915L205.408 28.2011H205.952C206.291 28.2011 206.609 28.1029 206.903 27.9064C207.198 27.71 207.474 27.4078 207.731 26.9999C207.987 26.592 208.222 26.0745 208.433 25.4475C208.652 24.8204 208.852 24.0763 209.034 23.2151L210.575 15.5096H224.898L221.997 32.915H216.105L218.235 20.1782H215.334L214.292 24.8922C213.967 26.3729 213.544 27.6269 213.022 28.6543C212.509 29.6817 211.916 30.5089 211.243 31.136C210.571 31.7554 209.835 32.2087 209.034 32.4958C208.241 32.7753 207.394 32.915 206.495 32.915H204.682ZM223.038 32.915L223.763 28.2011H224.307C224.647 28.2011 224.964 28.1029 225.259 27.9064C225.554 27.71 225.829 27.4078 226.086 26.9999C226.343 26.592 226.577 26.0745 226.789 25.4475C227.008 24.8204 227.208 24.0763 227.389 23.2151L228.931 15.5096H243.254L240.353 32.915H234.46L236.591 20.1782H233.69L232.647 24.8922C232.323 26.3729 231.899 27.6269 231.378 28.6543C230.865 29.6817 230.271 30.5089 229.599 31.136C228.927 31.7554 228.19 32.2087 227.389 32.4958C226.596 32.7753 225.75 32.915 224.851 32.915H223.038ZM249.326 24.9375L255.762 15.5096H261.655L258.754 32.915H252.861L254.448 23.4418L248.012 32.915H242.119L245.02 15.5096H250.912L249.326 24.9375Z" fill="white"/>
</svg>
