<svg width="398" height="55" viewBox="0 0 398 55" fill="none" xmlns="http://www.w3.org/2000/svg">
<path d="M397.837 -5.96009e-05L0 6.25207L12.0664 48.2812L370.71 54.2084L397.837 -5.96009e-05Z" fill="#DE127A"/>
<path d="M38.5368 36.6157L32.9843 27.2331H32.1004L30.5367 36.6157H24.2362L28.089 13.4084H34.3894L32.939 22.1565H33.7549L41.8683 13.4084H49.8005L39.1261 24.5588L46.4463 36.6157H38.5368ZM51.7565 36.8877C50.6535 36.8877 49.7054 36.7064 48.9122 36.3438C48.1266 35.9736 47.5524 35.4146 47.1898 34.6667C46.8347 33.9112 46.7554 32.9594 46.9518 31.8111C47.1105 30.8592 47.4089 30.0471 47.847 29.3748C48.2852 28.7024 48.8291 28.151 49.4788 27.7204C50.1285 27.2898 50.8575 26.9611 51.6658 26.7345C52.4817 26.5003 53.3429 26.3492 54.2494 26.2812C55.2315 26.2057 56.0285 26.1113 56.6404 25.9979C57.2523 25.8846 57.7094 25.7298 58.0116 25.5333C58.3137 25.3369 58.495 25.0725 58.5555 24.7401V24.6948C58.6235 24.2415 58.5026 23.894 58.1929 23.6523C57.8907 23.4105 57.4676 23.2897 56.9237 23.2897C56.3345 23.2897 55.8245 23.4181 55.3939 23.6749C54.9709 23.9318 54.68 24.3322 54.5214 24.8761H48.7649C49.0066 23.8185 49.5015 22.844 50.2494 21.9525C51.0048 21.0536 52.0058 20.3359 53.2522 19.7995C54.5063 19.2556 56.0021 18.9836 57.7396 18.9836C58.9785 18.9836 60.0664 19.1309 61.0031 19.4256C61.9399 19.7126 62.7142 20.1168 63.3261 20.6381C63.9456 21.1518 64.38 21.7561 64.6293 22.4511C64.8861 23.1386 64.9465 23.8865 64.8106 24.6948L62.8162 36.6157H56.969L57.377 34.1681H57.241C56.7877 34.8178 56.2778 35.3428 55.7112 35.7432C55.1522 36.1436 54.5403 36.4344 53.8755 36.6157C53.2183 36.797 52.5119 36.8877 51.7565 36.8877ZM54.4761 32.9443C54.9444 32.9443 55.4053 32.8461 55.8585 32.6496C56.3118 32.4532 56.7009 32.1699 57.0257 31.7998C57.3505 31.4296 57.5583 30.9801 57.6489 30.4513L57.8756 29.0008C57.7094 29.0688 57.5243 29.133 57.3203 29.1935C57.1239 29.2464 56.9162 29.2992 56.6971 29.3521C56.4856 29.405 56.2589 29.4541 56.0172 29.4994C55.783 29.5448 55.5412 29.5901 55.292 29.6354C54.7934 29.711 54.3741 29.8356 54.0341 30.0094C53.6942 30.1756 53.4298 30.3833 53.2409 30.6326C53.0521 30.8743 52.935 31.1463 52.8896 31.4485C52.8216 31.9244 52.9312 32.2946 53.2183 32.559C53.5129 32.8158 53.9321 32.9443 54.4761 32.9443ZM63.486 43.1428L67.4974 19.2103H73.7072L73.2086 22.2472H73.3446C73.6618 21.6579 74.0773 21.1178 74.591 20.6267C75.1123 20.1281 75.7242 19.7315 76.4268 19.4369C77.1369 19.1347 77.9226 18.9836 78.7838 18.9836C79.932 18.9836 80.9708 19.2896 81.9 19.9015C82.8292 20.5134 83.5128 21.4766 83.951 22.7911C84.3892 24.1056 84.4345 25.8129 84.087 27.913C83.7546 29.9225 83.1616 31.5882 82.3079 32.9103C81.4618 34.2323 80.4646 35.2181 79.3164 35.8678C78.1756 36.5175 76.9858 36.8424 75.7469 36.8424C74.931 36.8424 74.2247 36.7102 73.6278 36.4457C73.031 36.1738 72.5513 35.8074 72.1887 35.3466C71.8261 34.8782 71.5768 34.3494 71.4408 33.7601H71.3049L69.7637 43.1428H63.486ZM72.1661 27.913C72.0301 28.7591 72.0188 29.4919 72.1321 30.1113C72.2529 30.7233 72.4909 31.1992 72.846 31.5391C73.2086 31.8715 73.677 32.0377 74.2511 32.0377C74.8252 32.0377 75.3389 31.8753 75.7922 31.5505C76.2455 31.2181 76.6307 30.7459 76.948 30.134C77.2653 29.5145 77.4995 28.7742 77.6506 27.913C77.7866 27.0518 77.7979 26.3152 77.6846 25.7033C77.5713 25.0839 77.3409 24.6117 76.9934 24.2869C76.6459 23.9545 76.185 23.7883 75.6109 23.7883C75.0368 23.7883 74.5117 23.9545 74.0358 24.2869C73.5674 24.6117 73.1708 25.0839 72.846 25.7033C72.5287 26.3152 72.302 27.0518 72.1661 27.913ZM84.7766 23.8789L85.5472 19.2103H102.409L101.638 23.8789H96.1083L93.978 36.6157H88.0855L90.2158 23.8789H84.7766ZM107.807 28.6382L114.243 19.2103H120.136L117.235 36.6157H111.342L112.929 27.1424L106.492 36.6157H100.6L103.501 19.2103H109.393L107.807 28.6382ZM133.452 25.5107L132.681 30.1793H123.933L124.703 25.5107H133.452ZM127.967 19.2103L125.066 36.6157H119.174L122.075 19.2103H127.967ZM138.165 19.2103L135.265 36.6157H129.417L132.318 19.2103H138.165ZM152.623 19.2103L151.853 23.8789H145.19L143.059 36.6157H137.031L139.932 19.2103H152.623ZM163.093 28.6382L169.53 19.2103H175.422L172.521 36.6157H166.629L168.215 27.1424L161.779 36.6157H155.886L158.787 19.2103H164.68L163.093 28.6382ZM192.867 15.7201H199.077C201.033 15.7201 202.699 16.1167 204.074 16.9099C205.449 17.7032 206.442 18.8288 207.054 20.2868C207.666 21.7448 207.802 23.471 207.462 25.4654C207.152 27.354 206.454 28.9895 205.366 30.372C204.278 31.7544 202.918 32.8234 201.286 33.5788C199.655 34.3343 197.86 34.712 195.904 34.712H189.694C187.737 34.712 186.064 34.3381 184.674 33.5902C183.284 32.8423 182.276 31.7733 181.649 30.3833C181.022 28.9933 180.863 27.3389 181.173 25.42C181.513 23.4257 182.238 21.7032 183.348 20.2528C184.466 18.8023 185.849 17.6843 187.496 16.8986C189.15 16.1129 190.941 15.7201 192.867 15.7201ZM192.006 20.8874C191.228 20.8874 190.48 21.0347 189.762 21.3293C189.052 21.6239 188.44 22.1036 187.926 22.7684C187.42 23.4332 187.073 24.3171 186.884 25.42C186.725 26.4323 186.801 27.2406 187.11 27.845C187.42 28.4494 187.885 28.8837 188.504 29.1481C189.124 29.4126 189.807 29.5448 190.555 29.5448H196.81C197.588 29.5448 198.317 29.4088 198.997 29.1368C199.685 28.8573 200.266 28.4191 200.742 27.8223C201.226 27.218 201.547 26.4323 201.706 25.4654C201.894 24.3624 201.853 23.4748 201.581 22.8024C201.317 22.1301 200.89 21.6428 200.3 21.3406C199.719 21.0384 199.039 20.8874 198.261 20.8874H192.006ZM199.303 13.0005L195.269 37.5676H189.377L193.411 13.0005H199.303ZM215.665 36.933C213.776 36.933 212.22 36.5591 210.996 35.8112C209.78 35.0557 208.926 34.0057 208.435 32.661C207.944 31.3087 207.846 29.7412 208.14 27.9583C208.435 26.1755 209.051 24.6117 209.987 23.267C210.924 21.9148 212.129 20.8647 213.602 20.1168C215.075 19.3614 216.76 18.9836 218.656 18.9836C220.537 18.9836 222.086 19.3614 223.302 20.1168C224.526 20.8647 225.383 21.9148 225.874 23.267C226.373 24.6117 226.475 26.1755 226.18 27.9583C225.886 29.7412 225.266 31.3087 224.322 32.661C223.378 34.0057 222.169 35.0557 220.696 35.8112C219.23 36.5591 217.553 36.933 215.665 36.933ZM216.435 32.3097C216.979 32.3097 217.474 32.1322 217.92 31.7771C218.373 31.422 218.758 30.9159 219.075 30.2587C219.4 29.6014 219.638 28.8195 219.789 27.913C219.94 26.9989 219.963 26.217 219.857 25.5673C219.752 24.9101 219.533 24.404 219.2 24.0489C218.868 23.6938 218.43 23.5163 217.886 23.5163C217.342 23.5163 216.843 23.6938 216.39 24.0489C215.937 24.404 215.551 24.9101 215.234 25.5673C214.917 26.217 214.683 26.9989 214.531 27.913C214.38 28.8195 214.354 29.6014 214.452 30.2587C214.558 30.9159 214.777 31.422 215.109 31.7771C215.449 32.1322 215.891 32.3097 216.435 32.3097ZM224.949 43.1428L228.961 19.2103H235.171L234.672 22.2472H234.808C235.125 21.6579 235.541 21.1178 236.054 20.6267C236.576 20.1281 237.188 19.7315 237.89 19.4369C238.6 19.1347 239.386 18.9836 240.247 18.9836C241.395 18.9836 242.434 19.2896 243.363 19.9015C244.293 20.5134 244.976 21.4766 245.414 22.7911C245.853 24.1056 245.898 25.8129 245.55 27.913C245.218 29.9225 244.625 31.5882 243.771 32.9103C242.925 34.2323 241.928 35.2181 240.78 35.8678C239.639 36.5175 238.449 36.8424 237.21 36.8424C236.394 36.8424 235.688 36.7102 235.091 36.4457C234.494 36.1738 234.015 35.8074 233.652 35.3466C233.289 34.8782 233.04 34.3494 232.904 33.7601H232.768L231.227 43.1428H224.949ZM233.629 27.913C233.493 28.7591 233.482 29.4919 233.595 30.1113C233.716 30.7233 233.954 31.1992 234.309 31.5391C234.672 31.8715 235.14 32.0377 235.714 32.0377C236.289 32.0377 236.802 31.8753 237.256 31.5505C237.709 31.2181 238.094 30.7459 238.411 30.134C238.729 29.5145 238.963 28.7742 239.114 27.913C239.25 27.0518 239.261 26.3152 239.148 25.7033C239.035 25.0839 238.804 24.6117 238.457 24.2869C238.109 23.9545 237.648 23.7883 237.074 23.7883C236.5 23.7883 235.975 23.9545 235.499 24.2869C235.031 24.6117 234.634 25.0839 234.309 25.7033C233.992 26.3152 233.765 27.0518 233.629 27.913ZM247.651 43.1428C246.926 43.1428 246.249 43.0861 245.622 42.9728C244.995 42.867 244.448 42.7197 243.979 42.5309L246.087 38.0888C246.57 38.2701 247.016 38.3872 247.424 38.4401C247.84 38.493 248.206 38.4628 248.523 38.3495C248.841 38.2362 249.101 38.0209 249.305 37.7036L249.509 37.3863L246.404 19.2103H252.705L253.498 31.2672H253.679L258.552 19.2103H265.351L255.878 38.0662C255.394 39.0256 254.79 39.8868 254.065 40.6498C253.347 41.4204 252.463 42.0285 251.413 42.4742C250.363 42.9199 249.109 43.1428 247.651 43.1428ZM274.874 30.134L280.494 19.2103H284.936L275.735 36.6157H271.837L268.618 19.2103H273.06L274.874 30.134ZM271.791 19.2103L268.89 36.6157H262.998L265.899 19.2103H271.791ZM279.089 36.6157L281.99 19.2103H287.792L284.891 36.6157H279.089ZM291.411 36.8877C290.308 36.8877 289.36 36.7064 288.566 36.3438C287.781 35.9736 287.206 35.4146 286.844 34.6667C286.489 33.9112 286.41 32.9594 286.606 31.8111C286.765 30.8592 287.063 30.0471 287.501 29.3748C287.939 28.7024 288.483 28.151 289.133 27.7204C289.783 27.2898 290.512 26.9611 291.32 26.7345C292.136 26.5003 292.997 26.3492 293.904 26.2812C294.886 26.2057 295.683 26.1113 296.295 25.9979C296.906 25.8846 297.363 25.7298 297.666 25.5333C297.968 25.3369 298.149 25.0725 298.21 24.7401V24.6948C298.278 24.2415 298.157 23.894 297.847 23.6523C297.545 23.4105 297.122 23.2897 296.578 23.2897C295.989 23.2897 295.479 23.4181 295.048 23.6749C294.625 23.9318 294.334 24.3322 294.175 24.8761H288.419C288.661 23.8185 289.156 22.844 289.903 21.9525C290.659 21.0536 291.66 20.3359 292.906 19.7995C294.16 19.2556 295.656 18.9836 297.394 18.9836C298.633 18.9836 299.72 19.1309 300.657 19.4256C301.594 19.7126 302.368 20.1168 302.98 20.6381C303.6 21.1518 304.034 21.7561 304.283 22.4511C304.54 23.1386 304.601 23.8865 304.465 24.6948L302.47 36.6157H296.623L297.031 34.1681H296.895C296.442 34.8178 295.932 35.3428 295.365 35.7432C294.806 36.1436 294.194 36.4344 293.53 36.6157C292.872 36.797 292.166 36.8877 291.411 36.8877ZM294.13 32.9443C294.599 32.9443 295.059 32.8461 295.513 32.6496C295.966 32.4532 296.355 32.1699 296.68 31.7998C297.005 31.4296 297.212 30.9801 297.303 30.4513L297.53 29.0008C297.363 29.0688 297.178 29.133 296.974 29.1935C296.778 29.2464 296.57 29.2992 296.351 29.3521C296.14 29.405 295.913 29.4541 295.671 29.4994C295.437 29.5448 295.195 29.5901 294.946 29.6354C294.447 29.711 294.028 29.8356 293.688 30.0094C293.348 30.1756 293.084 30.3833 292.895 30.6326C292.706 30.8743 292.589 31.1463 292.544 31.4485C292.476 31.9244 292.585 32.2946 292.872 32.559C293.167 32.8158 293.586 32.9443 294.13 32.9443ZM303.503 36.6157L304.228 31.9017H304.772C305.112 31.9017 305.429 31.8035 305.724 31.6071C306.018 31.4107 306.294 31.1085 306.551 30.7006C306.808 30.2926 307.042 29.7752 307.253 29.1481C307.473 28.5211 307.673 27.777 307.854 26.9158L309.395 19.2103H323.718L320.817 36.6157H314.925L317.055 23.8789H314.154L313.112 28.5929C312.787 30.0736 312.364 31.3276 311.843 32.355C311.329 33.3824 310.736 34.2096 310.064 34.8366C309.391 35.4561 308.655 35.9094 307.854 36.1965C307.061 36.476 306.215 36.6157 305.316 36.6157H303.503ZM327.343 36.8877C326.24 36.8877 325.292 36.7064 324.499 36.3438C323.713 35.9736 323.139 35.4146 322.776 34.6667C322.421 33.9112 322.342 32.9594 322.538 31.8111C322.697 30.8592 322.995 30.0471 323.434 29.3748C323.872 28.7024 324.416 28.151 325.065 27.7204C325.715 27.2898 326.444 26.9611 327.252 26.7345C328.068 26.5003 328.929 26.3492 329.836 26.2812C330.818 26.2057 331.615 26.1113 332.227 25.9979C332.839 25.8846 333.296 25.7298 333.598 25.5333C333.9 25.3369 334.082 25.0725 334.142 24.7401V24.6948C334.21 24.2415 334.089 23.894 333.779 23.6523C333.477 23.4105 333.054 23.2897 332.51 23.2897C331.921 23.2897 331.411 23.4181 330.98 23.6749C330.557 23.9318 330.267 24.3322 330.108 24.8761H324.351C324.593 23.8185 325.088 22.844 325.836 21.9525C326.591 21.0536 327.592 20.3359 328.839 19.7995C330.093 19.2556 331.589 18.9836 333.326 18.9836C334.565 18.9836 335.653 19.1309 336.59 19.4256C337.526 19.7126 338.301 20.1168 338.913 20.6381C339.532 21.1518 339.966 21.7561 340.216 22.4511C340.473 23.1386 340.533 23.8865 340.397 24.6948L338.403 36.6157H332.556L332.963 34.1681H332.827C332.374 34.8178 331.864 35.3428 331.298 35.7432C330.739 36.1436 330.127 36.4344 329.462 36.6157C328.805 36.797 328.098 36.8877 327.343 36.8877ZM330.063 32.9443C330.531 32.9443 330.992 32.8461 331.445 32.6496C331.898 32.4532 332.287 32.1699 332.612 31.7998C332.937 31.4296 333.145 30.9801 333.235 30.4513L333.462 29.0008C333.296 29.0688 333.111 29.133 332.907 29.1935C332.71 29.2464 332.503 29.2992 332.284 29.3521C332.072 29.405 331.845 29.4541 331.604 29.4994C331.369 29.5448 331.128 29.5901 330.878 29.6354C330.38 29.711 329.961 29.8356 329.621 30.0094C329.281 30.1756 329.016 30.3833 328.827 30.6326C328.639 30.8743 328.521 31.1463 328.476 31.4485C328.408 31.9244 328.518 32.2946 328.805 32.559C329.099 32.8158 329.519 32.9443 330.063 32.9443ZM360.38 13.4084L356.527 36.6157H350.227L353.128 19.2103H352.992L347.417 22.2472L348.278 16.8986L354.578 13.4084H360.38Z" fill="white"/>
</svg>
