<svg width="393" height="55" viewBox="0 0 393 55" fill="none" xmlns="http://www.w3.org/2000/svg">
<path d="M392.341 -3.41194e-05L0 4.28839L12.0664 46.3175L365.214 54.2084L392.341 -3.41194e-05Z" fill="#7D5C9C"/>
<path d="M48.2821 20.1468H41.9817C42.027 19.6105 41.9968 19.127 41.891 18.6964C41.7852 18.2658 41.6039 17.8956 41.3471 17.5859C41.0902 17.2686 40.7541 17.0268 40.3386 16.8606C39.9231 16.6944 39.4282 16.6113 38.8541 16.6113C37.7512 16.6113 36.7653 16.8871 35.8965 17.4386C35.0278 17.9825 34.3063 18.7644 33.7322 19.7842C33.1581 20.7965 32.7501 22.0052 32.5084 23.4103C32.2968 24.7701 32.2893 25.8995 32.4857 26.7985C32.6897 27.6975 33.0863 28.3698 33.6755 28.8156C34.2723 29.2613 35.0467 29.4841 35.9985 29.4841C36.6331 29.4841 37.2148 29.4086 37.7436 29.2575C38.28 29.1064 38.7559 28.8911 39.1714 28.6116C39.5944 28.3245 39.9533 27.9846 40.2479 27.5917C40.5501 27.1913 40.7805 26.7494 40.9391 26.2659H47.2849C47.0431 27.248 46.6125 28.2527 45.9931 29.2802C45.3736 30.3 44.5728 31.2405 43.5907 32.1017C42.6087 32.9554 41.4528 33.6466 40.1233 34.1754C38.7937 34.7042 37.2979 34.9687 35.6359 34.9687C33.4602 34.9687 31.5829 34.4927 30.0041 33.5409C28.4327 32.589 27.292 31.199 26.5819 29.3708C25.8793 27.5426 25.7396 25.3141 26.1626 22.6851C26.5857 20.1468 27.4204 18.0202 28.6669 16.3054C29.9134 14.5905 31.4281 13.2987 33.2109 12.4299C34.9938 11.5612 36.8899 11.1268 38.8994 11.1268C40.4179 11.1268 41.7777 11.327 42.9788 11.7274C44.1876 12.1278 45.2036 12.7132 46.0271 13.4838C46.858 14.2468 47.47 15.1873 47.8628 16.3054C48.2556 17.4234 48.3954 18.7039 48.2821 20.1468ZM54.8274 26.6739L61.2637 17.2459H67.1562L64.2553 34.6514H58.3628L59.9493 25.1781L53.5129 34.6514H47.6204L50.5213 17.2459H56.4138L54.8274 26.6739ZM78.0699 28.1696L83.6904 17.2459H88.1324L78.9311 34.6514H75.033L71.8148 17.2459H76.2568L78.0699 28.1696ZM74.9876 17.2459L72.0867 34.6514H66.1943L69.0952 17.2459H74.9876ZM82.2852 34.6514L85.1862 17.2459H90.988L88.0871 34.6514H82.2852ZM91.9213 41.1784C91.196 41.1784 90.5199 41.1218 89.8929 41.0084C89.2659 40.9027 88.7182 40.7554 88.2498 40.5665L90.3575 36.1245C90.841 36.3058 91.2867 36.4229 91.6946 36.4758C92.1101 36.5286 92.4765 36.4984 92.7938 36.3851C93.1111 36.2718 93.3717 36.0565 93.5757 35.7392L93.7796 35.4219L90.6748 17.2459H96.9752L97.7684 29.3028H97.9497L102.822 17.2459H109.621L100.148 36.1018C99.6646 37.0612 99.0602 37.9224 98.335 38.6854C97.6173 39.456 96.7334 40.0641 95.6834 40.5098C94.6333 40.9556 93.3793 41.1784 91.9213 41.1784ZM105.172 34.6514L105.897 29.9374H106.441C106.781 29.9374 107.098 29.8392 107.393 29.6428C107.688 29.4464 107.963 29.1442 108.22 28.7362C108.477 28.3283 108.711 27.8108 108.923 27.1838C109.142 26.5568 109.342 25.8127 109.523 24.9515L111.065 17.2459H125.388L122.487 34.6514H116.594L118.725 21.9146H115.824L114.781 26.6285C114.456 28.1092 114.033 29.3633 113.512 30.3907C112.998 31.4181 112.405 32.2453 111.733 32.8723C111.061 33.4918 110.324 33.945 109.523 34.2321C108.73 34.5116 107.884 34.6514 106.985 34.6514H105.172ZM134.225 34.6514L136.355 21.9146H133.998C133.205 21.9146 132.593 22.0959 132.163 22.4585C131.739 22.8211 131.505 23.1837 131.46 23.5463C131.369 23.9316 131.49 24.2942 131.823 24.6342C132.163 24.9666 132.752 25.1328 133.59 25.1328H138.032L137.398 28.8949H132.956C131.248 28.8949 129.813 28.6569 128.65 28.181C127.486 27.705 126.64 27.0478 126.111 26.2093C125.583 25.3707 125.416 24.4075 125.613 23.3197C125.794 22.1412 126.289 21.0949 127.097 20.1808C127.913 19.2667 128.975 18.5491 130.281 18.0278C131.596 17.5065 133.092 17.2459 134.769 17.2459H142.928L140.027 34.6514H134.225ZM123.528 34.6514L129.828 25.3141H135.585L129.284 34.6514H123.528ZM142.555 21.9146L143.325 17.2459H160.187L159.416 21.9146H153.887L151.756 34.6514H145.864L147.994 21.9146H142.555ZM166.237 34.9687C164.348 34.9687 162.792 34.5947 161.568 33.8468C160.352 33.0914 159.498 32.0413 159.007 30.6966C158.516 29.3444 158.418 27.7768 158.712 25.994C159.007 24.2111 159.623 22.6473 160.559 21.3027C161.496 19.9504 162.701 18.9003 164.174 18.1524C165.647 17.397 167.332 17.0193 169.228 17.0193C171.109 17.0193 172.658 17.397 173.874 18.1524C175.098 18.9003 175.955 19.9504 176.446 21.3027C176.945 22.6473 177.047 24.2111 176.752 25.994C176.458 27.7768 175.838 29.3444 174.894 30.6966C173.95 32.0413 172.741 33.0914 171.268 33.8468C169.802 34.5947 168.125 34.9687 166.237 34.9687ZM167.007 30.3453C167.551 30.3453 168.046 30.1678 168.492 29.8127C168.945 29.4577 169.33 28.9515 169.647 28.2943C169.972 27.6371 170.21 26.8552 170.361 25.9486C170.512 25.0346 170.535 24.2527 170.429 23.603C170.324 22.9457 170.104 22.4396 169.772 22.0845C169.44 21.7295 169.001 21.5519 168.458 21.5519C167.914 21.5519 167.415 21.7295 166.962 22.0845C166.509 22.4396 166.123 22.9457 165.806 23.603C165.489 24.2527 165.254 25.0346 165.103 25.9486C164.952 26.8552 164.926 27.6371 165.024 28.2943C165.13 28.9515 165.349 29.4577 165.681 29.8127C166.021 30.1678 166.463 30.3453 167.007 30.3453ZM175.521 41.1784L179.533 17.2459H185.742L185.244 20.2828H185.38C185.697 19.6936 186.113 19.1534 186.626 18.6624C187.148 18.1638 187.759 17.7672 188.462 17.4725C189.172 17.1704 189.958 17.0193 190.819 17.0193C191.967 17.0193 193.006 17.3252 193.935 17.9371C194.864 18.5491 195.548 19.5122 195.986 20.8267C196.424 22.1412 196.47 23.8485 196.122 25.9486C195.79 27.9581 195.197 29.6239 194.343 30.9459C193.497 32.2679 192.5 33.2538 191.352 33.9035C190.211 34.5532 189.021 34.878 187.782 34.878C186.966 34.878 186.26 34.7458 185.663 34.4814C185.066 34.2094 184.587 33.843 184.224 33.3822C183.861 32.9138 183.612 32.385 183.476 31.7958H183.34L181.799 41.1784H175.521ZM184.201 25.9486C184.065 26.7947 184.054 27.5275 184.167 28.147C184.288 28.7589 184.526 29.2348 184.881 29.5748C185.244 29.9072 185.712 30.0734 186.286 30.0734C186.86 30.0734 187.374 29.9109 187.827 29.5861C188.281 29.2537 188.666 28.7816 188.983 28.1696C189.301 27.5502 189.535 26.8098 189.686 25.9486C189.822 25.0874 189.833 24.3509 189.72 23.739C189.607 23.1195 189.376 22.6473 189.029 22.3225C188.681 21.9901 188.22 21.8239 187.646 21.8239C187.072 21.8239 186.547 21.9901 186.071 22.3225C185.603 22.6473 185.206 23.1195 184.881 23.739C184.564 24.3509 184.337 25.0874 184.201 25.9486ZM201.136 34.6514L204.037 17.2459H211.652C213.979 17.2459 215.746 17.6425 216.955 18.4357C218.164 19.229 218.632 20.4188 218.36 22.0052C218.224 22.8664 217.726 23.6294 216.865 24.2942C216.003 24.959 214.84 25.4047 213.374 25.6314C214.681 25.6918 215.709 25.9335 216.457 26.3566C217.212 26.7721 217.73 27.2933 218.009 27.9204C218.289 28.5398 218.375 29.1819 218.27 29.8467C218.096 30.9044 217.662 31.792 216.967 32.5097C216.272 33.2198 215.335 33.7562 214.156 34.1188C212.978 34.4738 211.569 34.6514 209.93 34.6514H201.136ZM207.663 30.2547H210.655C211.168 30.2547 211.592 30.1338 211.924 29.8921C212.256 29.6503 212.453 29.3179 212.513 28.8949C212.596 28.4567 212.509 28.113 212.253 27.8637C212.003 27.6144 211.622 27.4897 211.108 27.4897H208.116L207.663 30.2547ZM208.66 24.3169H210.655C210.98 24.3169 211.263 24.2678 211.505 24.1696C211.754 24.0638 211.958 23.9165 212.117 23.7276C212.275 23.5388 212.377 23.3121 212.423 23.0477C212.483 22.6473 212.373 22.3376 212.094 22.1185C211.822 21.8919 211.418 21.7786 210.881 21.7786H209.068L208.66 24.3169ZM226.914 34.9687C225.026 34.9687 223.469 34.5947 222.246 33.8468C221.029 33.0914 220.176 32.0413 219.685 30.6966C219.194 29.3444 219.095 27.7768 219.39 25.994C219.685 24.2111 220.3 22.6473 221.237 21.3027C222.174 19.9504 223.379 18.9003 224.852 18.1524C226.325 17.397 228.01 17.0193 229.906 17.0193C231.787 17.0193 233.335 17.397 234.552 18.1524C235.776 18.9003 236.633 19.9504 237.124 21.3027C237.623 22.6473 237.725 24.2111 237.43 25.994C237.135 27.7768 236.516 29.3444 235.572 30.6966C234.627 32.0413 233.419 33.0914 231.945 33.8468C230.48 34.5947 228.803 34.9687 226.914 34.9687ZM227.685 30.3453C228.229 30.3453 228.723 30.1678 229.169 29.8127C229.622 29.4577 230.008 28.9515 230.325 28.2943C230.65 27.6371 230.888 26.8552 231.039 25.9486C231.19 25.0346 231.213 24.2527 231.107 23.603C231.001 22.9457 230.782 22.4396 230.45 22.0845C230.117 21.7295 229.679 21.5519 229.135 21.5519C228.591 21.5519 228.093 21.7295 227.639 22.0845C227.186 22.4396 226.801 22.9457 226.484 23.603C226.166 24.2527 225.932 25.0346 225.781 25.9486C225.63 26.8552 225.603 27.6371 225.702 28.2943C225.807 28.9515 226.027 29.4577 226.359 29.8127C226.699 30.1678 227.141 30.3453 227.685 30.3453ZM235.471 34.6514L242.451 25.45L238.372 17.2459H245.443L248.026 23.637H248.298L249.386 17.2459H255.641L254.553 23.637H254.825L259.585 17.2459H266.656L259.857 25.45L263.755 34.6514H256.502L254.009 28.3056H253.783L252.74 34.6514H246.485L247.528 28.3056H247.301L242.723 34.6514H235.471ZM262.62 39.8186L264.252 29.9374H265.521C265.944 29.7787 266.318 29.4048 266.643 28.8156C266.975 28.2188 267.27 27.52 267.527 26.7192C267.783 25.9184 268.006 25.1101 268.195 24.2942C268.384 23.4708 268.55 22.7531 268.694 22.1412L269.872 17.2459H284.739L282.654 29.9374H285.374L283.742 39.8186H277.85L278.711 34.6514H269.555L268.694 39.8186H262.62ZM271.504 29.9374H276.853L278.212 21.7786H274.314L274.224 22.1412C273.831 24.0223 273.427 25.5898 273.011 26.8438C272.596 28.0903 272.093 29.1215 271.504 29.9374ZM293.933 34.9687C292.075 34.9687 290.534 34.6136 289.31 33.9035C288.086 33.1858 287.225 32.1584 286.726 30.8213C286.228 29.4766 286.137 27.8675 286.455 25.994C286.757 24.196 287.38 22.6247 288.324 21.28C289.276 19.9353 290.473 18.889 291.916 18.1411C293.367 17.3932 294.991 17.0193 296.789 17.0193C298.103 17.0193 299.256 17.2232 300.245 17.6312C301.242 18.0391 302.054 18.6322 302.681 19.4103C303.308 20.1884 303.732 21.1289 303.951 22.2318C304.177 23.3272 304.177 24.5662 303.951 25.9486L303.724 27.3991H288.177L288.721 23.9543H298.511C298.587 23.4557 298.538 23.0175 298.364 22.6398C298.198 22.2545 297.93 21.9561 297.56 21.7446C297.197 21.5255 296.759 21.416 296.245 21.416C295.731 21.416 295.248 21.5255 294.795 21.7446C294.349 21.9637 293.967 22.2696 293.65 22.6625C293.34 23.0553 293.133 23.5161 293.027 24.0449L292.347 27.6711C292.256 28.2301 292.29 28.7287 292.449 29.1668C292.608 29.605 292.883 29.9487 293.276 30.198C293.669 30.4473 294.175 30.572 294.795 30.572C295.218 30.572 295.618 30.5153 295.996 30.402C296.381 30.2811 296.721 30.1074 297.016 29.8807C297.318 29.6465 297.56 29.3633 297.741 29.0309H303.452C303.044 30.2396 302.398 31.2896 301.514 32.1811C300.638 33.0649 299.558 33.7524 298.273 34.2434C296.997 34.7269 295.55 34.9687 293.933 34.9687ZM318.099 23.5463L317.329 28.215H308.581L309.351 23.5463H318.099ZM312.615 17.2459L309.714 34.6514H303.822L306.722 17.2459H312.615ZM322.813 17.2459L319.913 34.6514H314.065L316.966 17.2459H322.813ZM328.886 26.6739L335.322 17.2459H341.214L338.314 34.6514H332.421L334.008 25.1781L327.571 34.6514H321.679L324.58 17.2459H330.472L328.886 26.6739ZM350.224 34.6514L352.355 21.9146H349.998C349.205 21.9146 348.593 22.0959 348.162 22.4585C347.739 22.8211 347.505 23.1837 347.46 23.5463C347.369 23.9316 347.49 24.2942 347.822 24.6342C348.162 24.9666 348.751 25.1328 349.59 25.1328H354.032L353.397 28.8949H348.955C347.248 28.8949 345.813 28.6569 344.649 28.181C343.486 27.705 342.64 27.0478 342.111 26.2093C341.582 25.3707 341.416 24.4075 341.612 23.3197C341.794 22.1412 342.288 21.0949 343.097 20.1808C343.913 19.2667 344.974 18.5491 346.281 18.0278C347.595 17.5065 349.091 17.2459 350.768 17.2459H358.927L356.026 34.6514H350.224ZM339.527 34.6514L345.828 25.3141H351.584L345.284 34.6514H339.527Z" fill="white"/>
</svg>
