<svg width="94" height="32" viewBox="0 0 94 32" fill="none" xmlns="http://www.w3.org/2000/svg">
<path d="M94.0015 5.62909e-05L0 4.56334L7.08766 29.2508L78.067 31.8416L94.0015 5.62909e-05Z" fill="#DE127A"/>
<path d="M14.4762 20.6532L14.9554 17.7778L21.8778 9.15148H24.487L23.848 12.9854H22.357L18.6296 17.6713L18.603 17.7778H26.6968L26.2176 20.6532H14.4762ZM20.7596 22.7832L21.2654 19.7746L21.5583 18.5233L23.1025 9.15148H26.5637L24.3006 22.7832H20.7596ZM35.437 9.15148L33.174 22.7832H29.4732L31.1771 12.5594H31.0973L27.8224 14.3432L28.3283 11.2016L32.0291 9.15148H35.437ZM35.8355 22.7832L42.9442 12.1867L42.9708 12.1068H36.6875L37.1667 9.15148H47.284L46.8048 12.1068L39.6428 22.7832H35.8355ZM51.5047 23.1559C50.2622 23.1559 49.235 22.872 48.4229 22.304C47.6109 21.7315 47.0495 20.9106 46.7389 19.8412C46.4283 18.7718 46.4017 17.4894 46.6591 15.994C46.9164 14.4941 47.3757 13.2206 48.0369 12.1734C48.7025 11.1261 49.5278 10.3296 50.5129 9.78381C51.5025 9.23801 52.6141 8.96511 53.8477 8.96511C55.0813 8.96511 56.1019 9.23801 56.9095 9.78381C57.7171 10.3296 58.2784 11.1261 58.5935 12.1734C58.9085 13.2161 58.9418 14.4897 58.6933 15.994C58.4448 17.4938 57.9878 18.7784 57.3222 19.8479C56.661 20.9173 55.8334 21.736 54.8394 22.304C53.8499 22.872 52.7383 23.1559 51.5047 23.1559ZM52.0106 20.1474C52.6496 20.1474 53.222 19.8146 53.7279 19.149C54.2382 18.4789 54.6153 17.4272 54.8594 15.994C55.0191 15.0621 55.0569 14.2989 54.9725 13.7043C54.8882 13.1052 54.7063 12.6637 54.4267 12.3797C54.1472 12.0913 53.7944 11.947 53.3684 11.947C52.7294 11.947 52.1481 12.2732 51.6245 12.9255C51.1053 13.5734 50.7282 14.5962 50.493 15.994C50.3332 16.9524 50.2977 17.7379 50.3865 18.3502C50.4752 18.9626 50.6616 19.4152 50.9456 19.7081C51.2296 20.0009 51.5846 20.1474 52.0106 20.1474ZM69.8538 18.257H62.3723L62.8515 15.3816H70.1999C70.6747 15.3816 71.0718 15.3239 71.3913 15.2085C71.7153 15.0887 71.966 14.9157 72.1435 14.6894C72.3254 14.4586 72.4408 14.1746 72.4896 13.8374C72.5473 13.5179 72.5273 13.225 72.4297 12.9588C72.3365 12.6925 72.1612 12.4795 71.9038 12.3198C71.6509 12.16 71.3137 12.0802 70.8921 12.0802H68.8687L67.0848 22.7832H63.4106L65.6737 9.15148H71.3714C72.494 9.15148 73.4436 9.34894 74.2202 9.74387C75.0012 10.1388 75.5669 10.6846 75.9175 11.3813C76.2725 12.078 76.3723 12.8789 76.217 13.7841C76.0617 14.7604 75.6867 15.5813 75.0921 16.2469C74.4975 16.9081 73.7476 17.4095 72.8424 17.7512C71.9371 18.0884 70.9409 18.257 69.8538 18.257ZM70.7057 18.8694L70.2265 21.7448H61.8132L62.2924 18.8694H70.7057Z" fill="white"/>
</svg>
