<svg width="17" height="17" viewBox="0 0 17 17" fill="none" xmlns="http://www.w3.org/2000/svg">
<path d="M12.7329 4.24423V4.25366M0.943237 4.71582C0.943237 3.71524 1.34072 2.75563 2.04824 2.04811C2.75576 1.3406 3.71536 0.943115 4.71594 0.943115H12.2614C13.2619 0.943115 14.2215 1.3406 14.9291 2.04811C15.6366 2.75563 16.0341 3.71524 16.0341 4.71582V12.2612C16.0341 13.2618 15.6366 14.2214 14.9291 14.9289C14.2215 15.6365 13.2619 16.0339 12.2614 16.0339H4.71594C3.71536 16.0339 2.75576 15.6365 2.04824 14.9289C1.34072 14.2214 0.943237 13.2618 0.943237 12.2612V4.71582ZM5.65912 8.48853C5.65912 9.23896 5.95723 9.95867 6.48787 10.4893C7.01851 11.0199 7.73821 11.3181 8.48865 11.3181C9.23909 11.3181 9.95879 11.0199 10.4894 10.4893C11.0201 9.95867 11.3182 9.23896 11.3182 8.48853C11.3182 7.73809 11.0201 7.01839 10.4894 6.48775C9.95879 5.95711 9.23909 5.659 8.48865 5.659C7.73821 5.659 7.01851 5.95711 6.48787 6.48775C5.95723 7.01839 5.65912 7.73809 5.65912 8.48853Z" stroke="#DE127A" stroke-width="1.88635" stroke-linecap="round" stroke-linejoin="round"/>
</svg>
