<svg width="21" height="17" viewBox="0 0 21 17" fill="none" xmlns="http://www.w3.org/2000/svg">
<path d="M0.914917 4.57446C0.914917 3.60386 1.30049 2.67301 1.98681 1.98669C2.67313 1.30037 3.60398 0.914795 4.57458 0.914795H15.5536C16.5242 0.914795 17.455 1.30037 18.1414 1.98669C18.8277 2.67301 19.2133 3.60386 19.2133 4.57446V11.8938C19.2133 12.8644 18.8277 13.7953 18.1414 14.4816C17.455 15.1679 16.5242 15.5535 15.5536 15.5535H4.57458C3.60398 15.5535 2.67313 15.1679 1.98681 14.4816C1.30049 13.7953 0.914917 12.8644 0.914917 11.8938V4.57446Z" stroke="#DE127A" stroke-width="1.82983" stroke-linecap="round" stroke-linejoin="round"/>
<path d="M8.23425 5.48938L12.8088 8.23413L8.23425 10.9789V5.48938Z" stroke="#DE127A" stroke-width="1.82983" stroke-linecap="round" stroke-linejoin="round"/>
</svg>
