<svg width="201" height="52" viewBox="0 0 201 52" fill="none" xmlns="http://www.w3.org/2000/svg">
<path d="M200.121 6.74687e-05L0 7.56175L11.5195 47.6861L174.223 51.7519L200.121 6.74687e-05Z" fill="#DE127A"/>
<path d="M23.1385 36.917L26.8167 14.7614H32.8315L29.9756 32.0705H38.933L38.1108 36.917H23.1385ZM39.4102 36.917L42.1796 20.3003H48.1512L45.3818 36.917H39.4102ZM45.425 18.5694C44.6173 18.5694 43.9646 18.3026 43.467 17.7689C42.9693 17.228 42.7854 16.5861 42.9152 15.8433C43.0451 15.086 43.4417 14.4441 44.1052 13.9176C44.7687 13.3839 45.5044 13.1171 46.3121 13.1171C47.1271 13.1171 47.7762 13.3839 48.2594 13.9176C48.7426 14.4441 48.9229 15.086 48.8003 15.8433C48.6849 16.5861 48.2955 17.228 47.6319 17.7689C46.9756 18.3026 46.24 18.5694 45.425 18.5694ZM66.7217 20.3003L58.3701 36.917H51.4465L48.6338 20.3003H54.692L55.5574 31.2916H55.7305L60.2309 20.3003H66.7217ZM71.8453 37.2199C70.0712 37.2199 68.5999 36.8809 67.4315 36.203C66.2632 35.5178 65.441 34.537 64.965 33.2605C64.489 31.9767 64.4024 30.4405 64.7054 28.6519C64.9938 26.9355 65.5888 25.4353 66.4903 24.1516C67.3991 22.8678 68.5422 21.869 69.9197 21.155C71.3044 20.441 72.855 20.084 74.5715 20.084C75.8264 20.084 76.9262 20.2787 77.871 20.6681C78.823 21.0576 79.5983 21.6237 80.1969 22.3666C80.7955 23.1094 81.1994 24.0073 81.4086 25.0603C81.6249 26.1061 81.6249 27.2888 81.4086 28.6087L81.1922 29.9934H66.3497L66.869 26.7047H76.2159C76.288 26.2287 76.2411 25.8104 76.0752 25.4498C75.9166 25.0819 75.6605 24.7971 75.3071 24.5951C74.961 24.386 74.5427 24.2814 74.0522 24.2814C73.5618 24.2814 73.1002 24.386 72.6675 24.5951C72.242 24.8043 71.8778 25.0964 71.5749 25.4714C71.2792 25.8464 71.0808 26.2864 70.9799 26.7912L70.3308 30.253C70.2442 30.7867 70.2767 31.2627 70.4282 31.681C70.5796 32.0993 70.8428 32.4275 71.2179 32.6655C71.5929 32.9035 72.0761 33.0225 72.6675 33.0225C73.0714 33.0225 73.4536 32.9684 73.8142 32.8602C74.182 32.7448 74.5066 32.5789 74.7879 32.3626C75.0763 32.139 75.3071 31.8685 75.4802 31.5512H80.9326C80.5431 32.7051 79.9265 33.7076 79.0827 34.5586C78.2461 35.4025 77.2147 36.0588 75.9887 36.5275C74.7698 36.9891 73.3887 37.2199 71.8453 37.2199ZM95.7423 14.7614L97.6895 30.3828H97.8626L105.003 14.7614H111.796L100.805 36.917H92.5834L88.9485 14.7614H95.7423ZM109.12 36.917L111.89 20.3003H117.861L115.092 36.917H109.12ZM115.135 18.5694C114.327 18.5694 113.675 18.3026 113.177 17.7689C112.679 17.228 112.495 16.5861 112.625 15.8433C112.755 15.086 113.152 14.4441 113.815 13.9176C114.479 13.3839 115.214 13.1171 116.022 13.1171C116.837 13.1171 117.486 13.3839 117.969 13.9176C118.453 14.4441 118.633 15.086 118.51 15.8433C118.395 16.5861 118.005 17.228 117.342 17.7689C116.686 18.3026 115.95 18.5694 115.135 18.5694ZM122.909 37.1334C121.726 37.1334 120.688 36.8232 119.793 36.203C118.906 35.5828 118.268 34.6416 117.879 33.3795C117.496 32.1173 117.464 30.5271 117.781 28.6087C118.113 26.6037 118.694 24.9738 119.523 23.7189C120.36 22.464 121.319 21.5444 122.401 20.9602C123.49 20.3761 124.582 20.084 125.678 20.084C126.501 20.084 127.197 20.2282 127.766 20.5167C128.343 20.798 128.801 21.1766 129.14 21.6526C129.479 22.1214 129.71 22.637 129.833 23.1996H129.919L131.326 14.7614H137.297L133.619 36.917H127.691L128.145 34.1908H128.015C127.691 34.7534 127.276 35.2582 126.771 35.7054C126.273 36.1453 125.7 36.4951 125.051 36.7547C124.402 37.0071 123.688 37.1334 122.909 37.1334ZM125.873 32.5465C126.421 32.5465 126.919 32.3878 127.366 32.0705C127.813 31.7459 128.192 31.2916 128.502 30.7074C128.812 30.116 129.032 29.4164 129.162 28.6087C129.299 27.7865 129.31 27.0833 129.194 26.4991C129.079 25.9077 128.848 25.457 128.502 25.1469C128.163 24.8295 127.719 24.6709 127.171 24.6709C126.623 24.6709 126.129 24.8295 125.689 25.1469C125.249 25.457 124.878 25.9077 124.575 26.4991C124.279 27.0833 124.063 27.7865 123.926 28.6087C123.789 29.4308 123.771 30.1376 123.872 30.729C123.98 31.3132 124.204 31.764 124.543 32.0813C124.882 32.3914 125.325 32.5465 125.873 32.5465ZM143.251 37.2199C141.477 37.2199 140.006 36.8809 138.837 36.203C137.669 35.5178 136.847 34.537 136.371 33.2605C135.895 31.9767 135.808 30.4405 136.111 28.6519C136.4 26.9355 136.995 25.4353 137.896 24.1516C138.805 22.8678 139.948 21.869 141.325 21.155C142.71 20.441 144.261 20.084 145.977 20.084C147.232 20.084 148.332 20.2787 149.277 20.6681C150.229 21.0576 151.004 21.6237 151.603 22.3666C152.201 23.1094 152.605 24.0073 152.814 25.0603C153.031 26.1061 153.031 27.2888 152.814 28.6087L152.598 29.9934H137.755L138.275 26.7047H147.622C147.694 26.2287 147.647 25.8104 147.481 25.4498C147.322 25.0819 147.066 24.7971 146.713 24.5951C146.367 24.386 145.948 24.2814 145.458 24.2814C144.967 24.2814 144.506 24.386 144.073 24.5951C143.648 24.8043 143.283 25.0964 142.981 25.4714C142.685 25.8464 142.487 26.2864 142.386 26.7912L141.736 30.253C141.65 30.7867 141.682 31.2627 141.834 31.681C141.985 32.0993 142.249 32.4275 142.624 32.6655C142.999 32.9035 143.482 33.0225 144.073 33.0225C144.477 33.0225 144.859 32.9684 145.22 32.8602C145.588 32.7448 145.912 32.5789 146.194 32.3626C146.482 32.139 146.713 31.8685 146.886 31.5512H152.338C151.949 32.7051 151.332 33.7076 150.488 34.5586C149.652 35.4025 148.62 36.0588 147.394 36.5275C146.176 36.9891 144.794 37.2199 143.251 37.2199ZM160.61 37.2199C158.807 37.2199 157.321 36.8629 156.153 36.1489C154.992 35.4277 154.177 34.4252 153.708 33.1415C153.239 31.8505 153.145 30.354 153.427 28.6519C153.708 26.9499 154.296 25.457 155.19 24.1732C156.084 22.8823 157.235 21.8798 158.641 21.1658C160.047 20.4446 161.656 20.084 163.466 20.084C165.262 20.084 166.74 20.4446 167.901 21.1658C169.07 21.8798 169.888 22.8823 170.357 24.1732C170.833 25.457 170.93 26.9499 170.649 28.6519C170.368 30.354 169.776 31.8505 168.875 33.1415C167.973 34.4252 166.82 35.4277 165.413 36.1489C164.014 36.8629 162.413 37.2199 160.61 37.2199ZM161.346 32.8061C161.865 32.8061 162.337 32.6366 162.763 32.2976C163.195 31.9587 163.563 31.4755 163.866 30.848C164.176 30.2206 164.403 29.4741 164.548 28.6087C164.692 27.736 164.714 26.9895 164.613 26.3693C164.512 25.7419 164.303 25.2586 163.985 24.9197C163.668 24.5807 163.25 24.4112 162.73 24.4112C162.211 24.4112 161.735 24.5807 161.302 24.9197C160.87 25.2586 160.502 25.7419 160.199 26.3693C159.896 26.9895 159.672 27.736 159.528 28.6087C159.384 29.4741 159.359 30.2206 159.452 30.848C159.553 31.4755 159.762 31.9587 160.08 32.2976C160.404 32.6366 160.826 32.8061 161.346 32.8061Z" fill="white"/>
</svg>
