<svg width="199" height="21" viewBox="0 0 199 21" fill="none" xmlns="http://www.w3.org/2000/svg">
<path d="M134.787 11.6646C135.125 11.7508 135.529 11.7972 135.973 11.8237C136.43 11.8502 136.921 11.8502 137.418 11.8303C138.976 11.7707 140.527 11.5453 142.071 11.3199C142.184 11.3067 142.29 11.2868 142.449 11.2669C142.575 10.8626 142.707 10.4583 142.84 10.0473C142.946 9.7159 143.059 9.38449 143.165 9.0597C142.323 8.84759 141.461 8.64211 140.606 8.49629C139.585 8.32395 138.551 8.24441 137.544 8.37035C137.226 8.41012 136.921 8.46978 136.636 8.54932C136.357 8.62886 136.086 8.74153 135.827 8.8741C135.582 9.00666 135.31 9.21878 135.045 9.48391C134.787 9.74904 134.541 10.0539 134.349 10.3854C134.117 10.7764 133.998 11.0747 134.051 11.2603C134.097 11.4127 134.323 11.5519 134.793 11.6646M104.78 13.4675C104.508 13.6067 104.23 13.7393 103.938 13.8652C103.991 13.9514 104.051 14.0508 104.117 14.1701C104.144 14.2165 104.17 14.2629 104.197 14.3093C104.389 14.0309 104.581 13.7525 104.774 13.4675H104.78ZM191.001 19.1148C189.298 19.5523 187.528 19.8638 185.758 20.003C184.101 20.1356 182.424 20.1223 180.78 19.9235C179.355 19.7512 177.725 19.4197 176.3 18.7503C175.193 18.2266 174.205 17.5108 173.522 16.5099C173.41 16.8148 173.297 17.1197 173.184 17.4312C172.886 18.2465 172.628 18.9491 172.442 19.4529L172.323 19.7843L171.971 19.7976C170.54 19.8572 169.101 19.9036 167.65 19.9102C166.198 19.9102 164.753 19.8903 163.321 19.8042L163.043 19.7909L162.897 19.5589C162.155 18.3393 161.234 16.7883 160.306 15.2373C160.18 15.0252 160.054 14.8131 159.928 14.601C159.689 15.2638 159.45 15.92 159.205 16.5828C158.794 17.7163 158.423 18.7238 158.105 19.5921L157.972 19.9633L157.588 19.9367C154.844 19.7578 152.007 19.6782 149.183 19.6849C146.326 19.6981 143.463 19.8042 140.686 20.003L139.957 20.0561L140.122 19.433C139.625 19.539 139.128 19.6318 138.631 19.7114C137.816 19.8439 137.034 19.9434 136.291 20.003C134.793 20.129 133.202 20.1488 131.618 20.003C130.259 19.8705 128.921 19.6053 127.681 19.1612C127.171 18.9756 126.68 18.7569 126.216 18.505C126.064 18.4189 125.911 18.3261 125.765 18.2333L125.58 19.9036H125.103C123.631 19.8638 122.16 19.8506 120.695 19.8572C119.23 19.8572 117.758 19.8705 116.287 19.897H115.777L115.757 19.3932L115.71 18.1604L112.549 17.6235C112.489 17.703 112.423 17.7892 112.35 17.882C112.197 18.0808 112.038 18.2863 111.886 18.4851C111.733 18.684 111.574 18.8895 111.422 19.0883L110.978 19.6716L110.819 19.8771H110.56C109.804 19.8771 109.075 19.8638 108.353 19.8572C104.369 19.8241 100.664 19.7976 96.6804 19.9964L96.3822 20.0096L96.2165 19.7578C95.7657 19.0684 95.6597 18.916 95.5735 18.7768C95.2288 18.2598 94.9306 17.8091 94.5196 17.1661C94.4268 17.3915 94.3274 17.6301 94.228 17.8753C94.0689 18.2664 93.9098 18.6575 93.5386 19.5589L93.4127 19.8638L93.0879 19.8837C89.3628 20.1223 85.6112 20.0958 81.8463 20.0693C80.6797 20.0627 79.5065 20.0561 78.3333 20.0561H77.9422L77.8296 19.6849L77.3192 17.9748H75.039L74.5751 19.6716L74.469 20.0561H51.4754V8.33058C51.0313 8.33058 50.5938 8.33058 50.1497 8.33058C49.7057 8.33058 49.2682 8.33058 48.8241 8.33058L48.7909 19.5258V20.0494H0L0.218735 19.3667C2.23374 13.0632 4.24874 6.75967 6.25712 0.456155L6.37643 0.0915958H15.9742L16.0869 0.462789C16.246 0.999682 16.4117 1.54319 16.5708 2.08009C16.6901 2.49104 16.816 2.89537 16.9486 3.33947C17.0679 2.94177 17.1739 2.55733 17.2866 2.17952C17.4921 1.48355 17.6909 0.794204 17.7904 0.462789L17.9031 0.0849711H83.9607L84.08 0.44953C84.6766 2.27894 85.2665 4.10835 85.8631 5.94439C86.1812 6.93201 86.506 7.91962 86.8242 8.90724C87.2152 7.85997 87.6129 6.82595 88.0173 5.79857C88.6005 4.32045 89.2103 2.82909 89.8467 1.31784L89.9527 1.06596L90.2178 1.01294C91.6164 0.721294 93.015 0.482667 94.4202 0.310331C95.832 0.137995 97.2571 0.0319479 98.6822 0.00543471C99.9548 -0.0144502 101.373 0.0120642 102.765 0.22417C104.184 0.442904 105.569 0.853853 106.749 1.59622C106.994 1.7553 107.233 1.92102 107.458 2.09998C107.683 2.28557 107.896 2.47779 108.101 2.6899L108.181 2.76281L108.214 2.79594C108.32 2.92188 108.419 3.05446 108.512 3.18702C108.598 3.30633 108.691 3.45215 108.79 3.62448C109.38 4.6121 109.626 5.64612 109.592 6.67351C109.592 6.71328 109.592 6.75304 109.592 6.79281C109.93 6.34209 110.275 5.89137 110.62 5.44064C111.588 4.18126 112.582 2.92189 113.596 1.67577C113.888 1.31784 114.199 1.05934 114.557 0.867116C114.908 0.681524 115.299 0.568843 115.75 0.515817C116.439 0.436277 117.102 0.37662 117.745 0.33685C118.395 0.29708 119.051 0.277198 119.701 0.277198C120.602 0.277198 121.503 0.330222 122.412 0.409762C123.32 0.49593 124.208 0.608611 125.083 0.741177L125.454 0.794204L125.706 2.1994C125.779 2.61698 125.838 3.24004 125.891 4.00893C125.918 4.43314 125.944 4.90375 125.964 5.42076C126.627 4.64525 127.369 3.94927 128.178 3.33947C129.418 2.40488 130.81 1.67576 132.301 1.15875C133.395 0.78094 134.535 0.502555 135.701 0.32359C136.901 0.144626 138.127 0.0650862 139.367 0.0849711C140.547 0.104856 141.76 0.217541 142.973 0.409762C144.053 0.582098 145.133 0.820718 146.207 1.12562L146.26 0.99968L146.373 0.727917L146.664 0.688149L147.48 0.575469C148.693 0.403133 149.906 0.33022 151.119 0.303706C152.325 0.277193 153.531 0.303708 154.731 0.33685C154.996 0.33685 155.235 0.350102 155.467 0.363359C156.136 0.389872 156.786 0.409763 157.449 0.369993C159.318 0.250684 161.2 0.297076 163.076 0.343475C163.268 0.343475 163.461 0.350106 163.653 0.356734H163.984L164.117 0.668265C164.568 1.67577 165.045 2.72967 165.562 3.83659C165.88 4.51931 166.198 5.19539 166.523 5.87148C166.755 5.24179 167 4.61873 167.239 4.0023C167.623 3.02794 168.041 2.02706 168.472 1.0063L168.584 0.734542L168.876 0.694774L169.691 0.582094C172.382 0.197652 175.1 0.277191 177.791 0.363359C178.235 0.376615 178.679 0.38987 179.097 0.403127L179.872 0.423011L179.567 1.13224C179.461 1.38412 179.349 1.63599 179.243 1.88787C179.15 2.09998 179.057 2.31209 178.971 2.52419C178.971 2.52419 178.977 2.52419 178.984 2.51756C179.435 2.2458 179.905 1.99393 180.389 1.76857C180.88 1.53658 181.37 1.33772 181.861 1.16539C182.954 0.787575 184.095 0.509179 185.261 0.330215C186.461 0.151251 187.687 0.0717109 188.927 0.0915958C190.173 0.111481 191.439 0.237424 192.718 0.44953C194.01 0.668264 195.296 0.97979 196.576 1.37749L198.73 2.05358L198.478 2.59047L197.782 4.0951C197.596 4.50605 197.378 4.91701 197.152 5.32796C196.927 5.73229 196.688 6.12999 196.456 6.50117C196.224 6.86573 195.999 7.20377 195.793 7.5153C195.615 7.78044 195.436 8.03894 195.263 8.27093L195.011 9.33145C194.6 11.0747 194.223 12.46 193.878 13.6398C193.533 14.8329 193.228 15.7609 192.943 16.6425C192.884 16.8214 192.877 16.8347 192.857 16.901C192.738 17.2788 192.923 16.6955 192.652 17.5572C192.605 17.7163 192.559 17.8422 192.486 17.988C192.406 18.1405 192.314 18.2863 192.168 18.452C192.002 18.6376 191.83 18.7768 191.638 18.8895C191.452 18.9955 191.253 19.0618 191.014 19.1215L191.001 19.1148ZM63.6582 14.9125L65.1827 10.1998H65.1695L65.4081 9.51042L65.8389 8.25767H63.6649V14.9125H63.6582Z" fill="#040405"/>
<path d="M133.905 11.8767C134.641 12.3142 136.013 12.407 137.438 12.354C139.049 12.2943 140.666 12.0491 141.726 11.8966L142.847 11.7375C143.065 11.0416 143.284 10.3522 143.516 9.66286C143.622 9.33808 143.728 9.01992 143.841 8.69514L143.655 8.64873C142.588 8.3836 141.077 7.98591 139.572 7.84671C138.174 7.72078 136.729 7.80031 135.582 8.42337C135.019 8.72827 134.349 9.37785 133.905 10.1269C133.706 10.4583 133.567 10.7897 133.521 11.0946C133.487 11.2802 133.501 11.4525 133.567 11.5718C133.627 11.6779 133.733 11.7839 133.912 11.89L133.905 11.8767ZM107.286 10.8029C106.928 11.2205 106.53 11.6116 106.113 11.9563C105.721 12.281 105.277 12.5926 104.813 12.871L104.754 12.9041C104.263 13.1626 103.74 13.3946 103.183 13.6001C103.508 14.1502 103.832 14.707 104.177 15.2837C105.251 13.6929 106.291 12.2081 107.292 10.8029H107.286ZM190.869 18.6111C189.178 19.0485 187.422 19.3402 185.738 19.4728C184.041 19.6119 182.365 19.5921 180.84 19.4131C179.627 19.2673 178.454 19.022 177.413 18.6508C176.412 18.2929 175.517 17.809 174.795 17.1727C174.662 17.0534 174.536 16.9407 174.43 16.8281C173.98 16.3508 173.648 15.8139 173.43 15.2439C172.939 16.5894 172.449 17.9416 171.951 19.2872C169.081 19.4065 166.218 19.4595 163.348 19.2872L162.95 18.631C162.473 17.8488 161.472 16.1586 160.465 14.475C160.253 14.1237 160.04 13.7658 159.815 13.388C159.709 13.673 159.59 14.0177 159.437 14.4352C159.437 14.4352 159.212 15.0583 158.728 16.384C158.363 17.3782 158.118 18.0609 157.999 18.3725L157.614 19.4065C154.724 19.2209 152.033 19.2408 149.422 19.2474C146.426 19.254 143.536 19.2673 140.639 19.4728L140.838 18.7238C139.3 19.0949 137.736 19.3468 136.238 19.4728C133.494 19.6981 130.458 19.5921 127.84 18.6508C126.886 18.3062 126.024 17.8488 125.315 17.2523C125.295 17.5373 125.268 17.8024 125.242 18.0278L125.096 19.3534C122.146 19.3004 119.21 19.3004 116.267 19.3534L116.214 17.9217C116.214 17.8422 116.214 17.7693 116.207 17.6964L112.317 17.0335C112.184 17.2059 112.058 17.3716 111.926 17.5439C111.614 17.9482 111.309 18.3526 110.998 18.7569L110.553 19.3402C105.682 19.3137 101.353 19.2275 96.6473 19.4595C95.779 18.1471 95.4078 17.6168 94.4069 16.0327C94.2677 16.384 94.1219 16.722 93.9761 17.0799C93.6646 17.8356 93.353 18.5978 93.0481 19.3534C89.9262 19.5523 86.7976 19.539 83.6757 19.486L84.3253 17.5506C85.2135 14.9191 86.1017 12.3341 87.0164 9.84183C87.9377 7.32307 88.9253 4.79106 90.0124 2.21928L90.3106 1.51668L91.053 1.36423C91.3115 1.31121 91.5568 1.26481 91.8086 1.21841C92.1069 1.16538 92.3986 1.11898 92.6836 1.07921C94.4401 0.814079 96.5545 0.562203 98.6689 0.529061C101.168 0.489291 104.23 0.641742 106.451 2.04031C106.908 2.33196 107.325 2.67 107.703 3.05444L107.783 3.13399C107.975 3.35935 108.147 3.61785 108.313 3.89624C109.228 5.43401 109.228 7.03143 108.671 8.50291C108.525 8.88072 108.346 9.24528 108.141 9.60321C108.432 9.19888 108.724 8.80782 109.009 8.41675C110.759 6.04382 112.409 3.92938 113.974 2.0138C114.464 1.41726 115.014 1.13224 115.777 1.04607C117.089 0.893617 118.401 0.814083 119.667 0.814083C121.464 0.814083 123.207 1.01293 124.977 1.27144L125.162 2.30545C125.308 3.1141 125.401 4.85735 125.454 6.92538C127.137 4.43314 129.603 2.65012 132.434 1.66913C134.594 0.920132 136.928 0.588722 139.32 0.628492C141.667 0.668262 144.086 1.06595 146.466 1.78181L146.698 1.23166L147.513 1.11898C148.162 1.02618 148.766 0.959898 149.316 0.920129C149.886 0.880359 150.502 0.86048 151.165 0.853852C151.768 0.853852 152.358 0.853852 152.941 0.853852C153.545 0.853852 154.121 0.867104 154.678 0.88036L156.839 0.933388V0.953272C157.283 0.913502 157.72 0.893621 158.158 0.873736C159 0.847223 159.855 0.847227 160.743 0.847227H160.796C160.829 0.847227 160.862 0.847227 160.869 0.847227C161.187 0.847227 161.485 0.84722 161.777 0.860476C162.102 0.860476 162.4 0.873732 162.678 0.88036L163.593 0.900245L163.971 1.74204C164.561 3.0677 165.23 4.50605 165.959 6.02393C166.152 6.42826 166.351 6.83258 166.543 7.22365C166.662 6.89224 166.781 6.56745 166.894 6.24267C167.418 4.82421 167.974 3.40575 168.584 1.98066L168.909 1.22503L169.724 1.11236C170.951 0.940019 172.164 0.867105 173.363 0.840592C174.55 0.820707 175.723 0.847223 176.89 0.873736L179.05 0.926763L178.195 2.90862C178.036 3.27318 177.89 3.62448 177.745 3.96915C178.209 3.6046 178.699 3.26655 179.216 2.95502C180.098 2.42476 181.026 1.99391 182 1.65587C184.161 0.906872 186.494 0.575462 188.887 0.615232C191.353 0.655002 193.891 1.09247 196.39 1.87461L197.974 2.37173L197.278 3.87636C196.907 4.67838 196.443 5.48703 195.979 6.22277C195.535 6.932 195.098 7.5617 194.746 8.05219L194.474 9.20551C193.639 12.7185 193.003 14.6937 192.42 16.4768C192.38 16.6093 192.333 16.7353 192.128 17.3915C192.042 17.6699 191.982 17.8356 191.75 18.0941C191.492 18.3857 191.246 18.505 190.862 18.6044L190.869 18.6111Z" fill="#040405"/>
<path fill-rule="evenodd" clip-rule="evenodd" d="M153.664 7.67438C154.28 5.94439 154.95 4.22766 155.666 2.54408C157.429 2.2922 159.046 2.29882 160.77 2.29882C160.803 2.29882 160.842 2.29882 160.876 2.29882C161.479 2.29882 162.069 2.31208 162.665 2.32534C163.454 4.0951 164.296 5.87811 165.164 7.67438M145.743 7.67438C146.36 5.94439 147.029 4.22766 147.745 2.54408C148.858 2.385 150.012 2.30545 151.198 2.29882C152.385 2.29219 153.545 2.29882 154.665 2.33197C153.896 4.12161 153.18 5.898 152.491 7.68101H145.737L145.743 7.67438ZM126.72 7.67438C127.197 6.97178 127.727 6.34209 128.264 5.83171C129.57 4.59884 131.167 3.64437 132.924 3.03456C137 1.62274 141.779 1.82159 146.406 3.26656C145.717 4.76455 144.683 6.26918 144 7.23028C141.793 6.68013 137.769 5.58647 134.893 7.13086C134.641 7.27005 134.369 7.45564 134.104 7.67438H126.72ZM124.029 7.67438C123.982 5.3611 123.89 3.37261 123.744 2.54408C121.126 2.15301 118.249 2.16626 115.425 2.54408C114.146 4.0951 112.807 5.79194 111.389 7.67438H124.035H124.029ZM107.432 7.67438C107.789 6.48791 107.65 5.22854 106.676 4.05533C106.079 3.44552 105.357 2.98817 104.508 2.6899C101.102 1.53657 96.3093 1.99393 92.909 2.50431C92.2925 2.5971 91.7755 2.68989 91.3645 2.77606C90.6752 4.39999 90.0256 6.03056 89.3959 7.67438H95.885C96.0176 7.36285 96.1634 7.08446 96.349 6.74642C97.6614 6.8127 98.7153 6.78619 99.4179 6.96515C100.061 7.12423 100.399 7.38273 100.531 7.67438H107.432ZM176.313 7.67438C176.797 6.93863 177.32 6.30232 177.818 5.83171C179.123 4.59884 180.721 3.64437 182.477 3.03456C186.554 1.62274 191.333 1.82159 195.959 3.26656C195.27 4.76455 194.236 6.26918 193.553 7.23028C191.346 6.68013 187.322 5.58647 184.446 7.13086C184.148 7.28994 183.869 7.47553 183.617 7.67438H176.313ZM167.948 7.67438C168.564 5.94439 169.227 4.23429 169.95 2.54408C172.236 2.21929 174.57 2.27231 176.876 2.32534C175.981 4.40663 175.252 6.17638 174.662 7.67438H167.948Z" fill="white"/>
<path fill-rule="evenodd" clip-rule="evenodd" d="M148.719 17.8621C146.684 17.7163 144.63 17.7163 142.595 17.8621C143.437 14.7402 144.364 11.6248 145.432 8.56257H152.153C150.98 11.6447 149.873 14.7269 148.719 17.8621ZM133.163 13.1295C135.224 14.3623 139.731 13.6597 141.938 13.335C141.726 14.137 141.475 15.9929 141.083 17.1595C137.855 18.0079 134.323 18.2996 131.459 17.9549C129.358 17.703 127.416 17.133 126.203 16.0658C125.103 15.1047 124.731 13.6001 124.944 11.9563C125.083 10.856 125.547 9.65624 126.17 8.55594H133.229C132.029 10.0075 131.34 12.0358 133.163 13.1228V13.1295ZM104.197 17.8621C105.9 17.8024 107.299 17.8488 109.858 17.8621C110.474 17.0534 111.09 16.2448 111.707 15.4361L117.639 16.4503C117.652 16.9209 117.672 17.3915 117.692 17.8621C119.846 17.8289 121.901 17.8223 123.817 17.8621C124.016 16.0658 124.088 12.0756 124.049 8.56257H117.374C117.42 9.9744 117.487 11.3796 117.533 12.7914L114.173 12.2214L116.93 8.5692H110.726C108.717 11.2735 106.55 14.3424 104.197 17.8687V17.8621ZM85.7172 18.0013C87.7322 17.988 89.681 17.882 92.0804 17.882C92.7963 16.1188 93.2138 15.1909 93.8966 13.3615C93.9363 13.3747 94.0424 13.388 94.1948 13.3946C94.3539 13.4012 94.4732 13.4079 94.5528 13.4079C95.4277 14.9721 96.4352 16.4569 97.4228 17.9482C99.6102 17.8422 101.784 17.7958 103.978 17.7958C102.971 16.1122 101.983 14.4286 100.989 12.7384C102.182 12.4534 103.209 12.0756 104.071 11.6182C105.264 10.909 106.417 9.80869 107.067 8.55594H100.425C100.28 8.80781 100.054 9.05306 99.8024 9.25191C98.6557 10.1534 96.3888 10.1732 95.0035 10.0672C95.2288 9.43087 95.4012 8.94701 95.5404 8.55594H89.0579C87.878 11.6779 86.7844 14.8263 85.7172 18.0013ZM190.511 17.1926C187.322 18.0145 183.836 18.2929 181.012 17.9615C178.911 17.7096 176.969 17.1396 175.756 16.0724C173.688 14.2629 174.404 11.0614 175.783 8.56257H182.729C181.894 9.60322 181.529 10.8427 181.761 11.8237C182.06 13.0632 183.273 13.5736 184.446 13.7061C185.387 13.8122 186.342 13.7061 186.925 13.6266C187.084 13.0168 187.21 12.6058 187.362 11.996C186.255 12.0093 185.195 12.0822 184.148 12.1882C184.313 11.3398 184.539 10.4516 184.95 9.42424C187.733 9.03317 190.418 8.90724 193.069 8.87409C192.095 12.9836 191.399 14.9257 190.749 16.9606C190.696 17.1263 190.683 17.1595 190.517 17.2059L190.511 17.1926ZM158.065 13.9381C157.601 15.224 157.124 16.5298 156.633 17.8687C154.599 17.7229 152.544 17.7229 150.509 17.8687C151.351 14.7401 152.279 11.6315 153.339 8.5692H165.595C165.993 9.38448 166.404 10.1998 166.815 11.015C167.08 10.1931 167.351 9.38448 167.63 8.5692H174.298C173.045 11.7773 172.508 13.4808 172.343 13.9448C171.879 15.2306 171.401 16.5364 170.911 17.8753C168.777 17.7229 166.457 18.0079 164.19 17.8753C162.606 15.2638 161.061 12.6323 159.484 10.0208C159.006 11.3266 158.529 12.639 158.052 13.9448L158.065 13.9381Z" fill="#C2C2C2"/>
<path d="M74.6546 17.4312L74.0846 19.5125H52.0123V7.78705C50.7794 7.78705 49.5532 7.78705 48.3203 7.78705L48.2872 19.5059H0.715858C2.73086 13.2024 4.74587 6.89887 6.75424 0.59535H15.5831C16.0405 2.11323 16.4979 3.63111 16.9552 5.14899C17.4059 3.63111 17.8434 2.11323 18.2941 0.59535H83.5829C85.6311 6.89887 87.6726 13.2024 89.7207 19.5059H78.3466L77.7235 17.4246M63.1346 18.2266L63.3202 17.6566L65.8986 9.67612L66.5614 7.73404H63.1346V18.2266Z" fill="#040405"/>
<path fill-rule="evenodd" clip-rule="evenodd" d="M37.4035 8.58246H46.7627V11.7707H37.4035V13.7857H46.8091L46.8356 18.0212H28.906C29.9202 14.8727 30.9277 11.7243 31.9418 8.57582M61.6697 8.58246L61.6963 18.0278H53.4043V8.58246H61.6697ZM75.6091 8.58246L72.9776 18.0278H64.6525C65.6732 14.8793 66.6874 11.7309 67.7081 8.58246H75.6157H75.6091ZM87.7521 18.0278H79.3806L78.7575 15.9465H74.8402L75.967 11.5055H77.8693L76.9281 8.58246H84.6435C85.5383 11.7044 86.7314 14.886 87.7521 18.0278ZM27.0236 18.0278H22.0457L22.0656 11.8568H21.3365L19.1558 18.0278H14.6618L12.5076 11.8568H11.7851V18.0278H2.61155L5.62743 8.58246H30.0527C29.6352 9.86835 29.1513 11.3796 27.0037 18.0278H27.0236Z" fill="#DE127A"/>
<path fill-rule="evenodd" clip-rule="evenodd" d="M5.93896 7.66112L6.30352 6.51442L7.76174 1.96078H14.5027L16.1929 7.66112M37.4035 7.66112H32.2334C32.8432 5.7588 33.453 3.8631 34.0629 1.96078H48.9368L47.5051 6.44814H37.4035V7.66112ZM61.6631 6.44814V7.65449H53.4042V6.44814H49.2549L50.6999 1.95415H68.2318L66.7669 6.44814H61.6631ZM67.9998 7.66112C68.6162 5.7588 69.226 3.8631 69.8424 1.96078H82.5356L84.3651 7.66112H67.9998ZM17.6445 7.66112C18.2013 5.7588 18.7647 3.8631 19.3215 1.96078H32.2069C31.1331 5.29482 30.6824 6.68676 30.3643 7.66112H17.6379H17.6445Z" fill="#7D5C9C"/>
</svg>
