<svg width="199" height="39" viewBox="0 0 199 39" fill="none" xmlns="http://www.w3.org/2000/svg">
<path d="M198.918 0L0 3.98947L8.48404 33.5408L179.844 38.1148L198.918 0Z" fill="white"/>
<path d="M20.2685 26.248L23.3732 7.54641H28.4504L27.245 14.8517H33.966L35.1713 7.54641H40.2485L37.1438 26.248H32.0666L33.2719 18.9427H26.551L25.3457 26.248H20.2685ZM42.2137 26.4672C41.3249 26.4672 40.5608 26.3211 39.9216 26.0289C39.2885 25.7306 38.8258 25.2801 38.5336 24.6774C38.2475 24.0686 38.1836 23.3016 38.3418 22.3762C38.4697 21.6092 38.7102 20.9547 39.0632 20.4129C39.4163 19.8711 39.8547 19.4267 40.3782 19.0797C40.9018 18.7327 41.4892 18.4679 42.1406 18.2852C42.7981 18.0965 43.4921 17.9748 44.2226 17.92C45.014 17.8591 45.6563 17.783 46.1494 17.6917C46.6425 17.6004 47.0108 17.4756 47.2543 17.3173C47.4979 17.159 47.644 16.9459 47.6927 16.6781V16.6415C47.7475 16.2763 47.65 15.9962 47.4005 15.8014C47.1569 15.6066 46.816 15.5092 46.3777 15.5092C45.9029 15.5092 45.4919 15.6127 45.1449 15.8197C44.804 16.0267 44.5696 16.3493 44.4418 16.7876H39.8029C39.9977 15.9354 40.3965 15.15 40.9992 14.4317C41.6079 13.7072 42.4146 13.1289 43.419 12.6967C44.4296 12.2583 45.635 12.0392 47.0352 12.0392C48.0336 12.0392 48.9102 12.1579 49.6651 12.3953C50.42 12.6267 51.044 12.9523 51.5371 13.3724C52.0363 13.7864 52.3863 14.2734 52.5872 14.8335C52.7942 15.3875 52.8429 15.9901 52.7333 16.6415L51.1262 26.248H46.4142L46.743 24.2756H46.6334C46.2681 24.7992 45.8572 25.2223 45.4006 25.5449C44.9501 25.8676 44.457 26.1019 43.9213 26.248C43.3917 26.3942 42.8224 26.4672 42.2137 26.4672ZM44.4053 23.2894C44.7827 23.2894 45.1541 23.2102 45.5193 23.052C45.8846 22.8937 46.1981 22.6654 46.4599 22.3671C46.7217 22.0688 46.8891 21.7066 46.9621 21.2804L47.1448 20.1116C47.0108 20.1664 46.8617 20.2181 46.6973 20.2668C46.539 20.3094 46.3716 20.352 46.1951 20.3947C46.0246 20.4373 45.842 20.4768 45.6472 20.5134C45.4585 20.5499 45.2636 20.5864 45.0627 20.6229C44.661 20.6838 44.3231 20.7843 44.0491 20.9243C43.7752 21.0582 43.5621 21.2256 43.4099 21.4265C43.2577 21.6213 43.1634 21.8405 43.1268 22.084C43.072 22.4675 43.1603 22.7658 43.3917 22.9789C43.6291 23.1859 43.9669 23.2894 44.4053 23.2894ZM54.6231 12.2218H59.3716L57.6548 22.4493H60.7231L62.4398 12.2218H67.1883L65.4716 22.4493H68.5398L70.2565 12.2218H75.005L72.6673 26.248H52.2854L54.6231 12.2218ZM79.6343 19.8194L84.8211 12.2218H89.5695L87.2318 26.248H82.4834L83.7618 18.614L78.575 26.248H73.8266L76.1643 12.2218H80.9127L79.6343 19.8194ZM92.3743 26.248L94.712 12.2218H99.7527L98.9126 17.226H99.7892L103.625 12.2218H109.396L103.734 19.308L107.095 26.248H101.25L99.2779 21.9014H98.1455L97.415 26.248H92.3743ZM106.425 26.248L107.01 22.4493H107.448C107.722 22.4493 107.978 22.3701 108.215 22.2119C108.452 22.0536 108.675 21.8101 108.882 21.4813C109.089 21.1526 109.277 20.7356 109.448 20.2303C109.624 19.725 109.786 19.1254 109.932 18.4313L111.174 12.2218H122.716L120.378 26.248H115.63L117.347 15.9841H115.009L114.169 19.7828C113.907 20.976 113.566 21.9866 113.146 22.8145C112.732 23.6425 112.254 24.3091 111.712 24.8144C111.171 25.3136 110.577 25.6788 109.932 25.9102C109.293 26.1354 108.611 26.248 107.886 26.248H106.425ZM123.216 31.5079C122.631 31.5079 122.086 31.4622 121.581 31.3709C121.076 31.2857 120.634 31.167 120.257 31.0148L121.955 27.4352C122.345 27.5813 122.704 27.6756 123.033 27.7182C123.368 27.7609 123.663 27.7365 123.919 27.6452C124.174 27.5539 124.384 27.3804 124.549 27.1247L124.713 26.869L122.211 12.2218H127.288L127.928 21.9379H128.074L132 12.2218H137.479L129.845 27.4169C129.456 28.19 128.969 28.8841 128.384 29.4989C127.806 30.1199 127.094 30.6099 126.247 30.9691C125.401 31.3283 124.391 31.5079 123.216 31.5079ZM151.069 7.14461L151.763 10.5051C151.337 10.7729 150.899 10.983 150.448 11.1351C149.998 11.2813 149.447 11.3847 148.795 11.4456C148.144 11.5004 147.307 11.5278 146.284 11.5278C145.127 11.5278 144.172 11.6617 143.417 11.9296C142.668 12.1975 142.059 12.651 141.59 13.2902C141.128 13.9294 140.744 14.803 140.44 15.911H140.549C141.079 15.0709 141.739 14.3982 142.531 13.8929C143.328 13.3876 144.348 13.135 145.59 13.135C146.844 13.135 147.882 13.3998 148.704 13.9294C149.526 14.4591 150.104 15.2048 150.439 16.1667C150.774 17.1286 150.838 18.2609 150.631 19.5637C150.387 20.9639 149.888 22.1845 149.133 23.2255C148.384 24.2665 147.419 25.0731 146.238 25.6454C145.063 26.2176 143.715 26.5037 142.193 26.5037C140.671 26.5037 139.414 26.2054 138.422 25.6088C137.435 25.0122 136.748 24.1356 136.358 22.9789C135.974 21.8222 135.923 20.4038 136.203 18.7236L136.349 17.8104C136.951 14.249 138.129 11.6496 139.883 10.012C141.636 8.36826 143.928 7.54641 146.759 7.54641C147.416 7.54641 148.016 7.54641 148.558 7.54641C149.1 7.54641 149.581 7.51901 150.001 7.46422C150.421 7.40943 150.777 7.30289 151.069 7.14461ZM142.851 22.778C143.277 22.778 143.663 22.6623 144.01 22.431C144.363 22.1936 144.662 21.8527 144.905 21.4083C145.155 20.9578 145.334 20.416 145.444 19.7828C145.541 19.1375 145.541 18.5896 145.444 18.1391C145.346 17.6886 145.161 17.3447 144.887 17.1073C144.613 16.8698 144.263 16.7511 143.837 16.7511C143.502 16.7511 143.188 16.8181 142.896 16.952C142.61 17.0859 142.351 17.2838 142.12 17.5456C141.895 17.8013 141.703 18.1178 141.545 18.4953C141.392 18.8666 141.28 19.2958 141.207 19.7828C141.042 20.7325 141.106 21.4691 141.399 21.9927C141.691 22.5162 142.175 22.778 142.851 22.778ZM155.144 16.0206H159.454C161.444 16.0206 162.939 16.4833 163.937 17.4086C164.936 18.3279 165.304 19.5941 165.042 21.2074C164.866 22.2484 164.452 23.1463 163.8 23.9012C163.155 24.6561 162.318 25.2375 161.289 25.6454C160.26 26.0472 159.076 26.248 157.737 26.248H150.614L152.952 12.2218H157.7L155.984 22.4858H158.358C158.881 22.4858 159.329 22.364 159.7 22.1205C160.078 21.8709 160.3 21.5544 160.367 21.1708C160.434 20.763 160.321 20.4312 160.029 20.1755C159.737 19.9137 159.338 19.7828 158.833 19.7828H154.523L155.144 16.0206ZM165.152 26.248L167.49 12.2218H172.53L170.193 26.248H165.152Z" fill="#040405"/>
<path d="M20.2685 26.248L23.3732 7.54641H28.4504L27.245 14.8517H33.966L35.1713 7.54641H40.2485L37.1438 26.248H32.0666L33.2719 18.9427H26.551L25.3457 26.248H20.2685ZM42.2137 26.4672C41.3249 26.4672 40.5608 26.3211 39.9216 26.0289C39.2885 25.7306 38.8258 25.2801 38.5336 24.6774C38.2475 24.0686 38.1836 23.3016 38.3418 22.3762C38.4697 21.6092 38.7102 20.9547 39.0632 20.4129C39.4163 19.8711 39.8547 19.4267 40.3782 19.0797C40.9018 18.7327 41.4892 18.4679 42.1406 18.2852C42.7981 18.0965 43.4921 17.9748 44.2226 17.92C45.014 17.8591 45.6563 17.783 46.1494 17.6917C46.6425 17.6004 47.0108 17.4756 47.2543 17.3173C47.4979 17.159 47.644 16.9459 47.6927 16.6781V16.6415C47.7475 16.2763 47.65 15.9962 47.4005 15.8014C47.1569 15.6066 46.816 15.5092 46.3777 15.5092C45.9029 15.5092 45.4919 15.6127 45.1449 15.8197C44.804 16.0267 44.5696 16.3493 44.4418 16.7876H39.8029C39.9977 15.9354 40.3965 15.15 40.9992 14.4317C41.6079 13.7072 42.4146 13.1289 43.419 12.6967C44.4296 12.2583 45.635 12.0392 47.0352 12.0392C48.0336 12.0392 48.9102 12.1579 49.6651 12.3953C50.42 12.6267 51.044 12.9523 51.5371 13.3724C52.0363 13.7864 52.3863 14.2734 52.5872 14.8335C52.7942 15.3875 52.8429 15.9901 52.7333 16.6415L51.1262 26.248H46.4142L46.743 24.2756H46.6334C46.2681 24.7992 45.8572 25.2223 45.4006 25.5449C44.9501 25.8676 44.457 26.1019 43.9213 26.248C43.3917 26.3942 42.8224 26.4672 42.2137 26.4672ZM44.4053 23.2894C44.7827 23.2894 45.1541 23.2102 45.5193 23.052C45.8846 22.8937 46.1981 22.6654 46.4599 22.3671C46.7217 22.0688 46.8891 21.7066 46.9621 21.2804L47.1448 20.1116C47.0108 20.1664 46.8617 20.2181 46.6973 20.2668C46.539 20.3094 46.3716 20.352 46.1951 20.3947C46.0246 20.4373 45.842 20.4768 45.6472 20.5134C45.4585 20.5499 45.2636 20.5864 45.0627 20.6229C44.661 20.6838 44.3231 20.7843 44.0491 20.9243C43.7752 21.0582 43.5621 21.2256 43.4099 21.4265C43.2577 21.6213 43.1634 21.8405 43.1268 22.084C43.072 22.4675 43.1603 22.7658 43.3917 22.9789C43.6291 23.1859 43.9669 23.2894 44.4053 23.2894ZM54.6231 12.2218H59.3716L57.6548 22.4493H60.7231L62.4398 12.2218H67.1883L65.4716 22.4493H68.5398L70.2565 12.2218H75.005L72.6673 26.248H52.2854L54.6231 12.2218ZM79.6343 19.8194L84.8211 12.2218H89.5695L87.2318 26.248H82.4834L83.7618 18.614L78.575 26.248H73.8266L76.1643 12.2218H80.9127L79.6343 19.8194ZM92.3743 26.248L94.712 12.2218H99.7527L98.9126 17.226H99.7892L103.625 12.2218H109.396L103.734 19.308L107.095 26.248H101.25L99.2779 21.9014H98.1455L97.415 26.248H92.3743ZM106.425 26.248L107.01 22.4493H107.448C107.722 22.4493 107.978 22.3701 108.215 22.2119C108.452 22.0536 108.675 21.8101 108.882 21.4813C109.089 21.1526 109.277 20.7356 109.448 20.2303C109.624 19.725 109.786 19.1254 109.932 18.4313L111.174 12.2218H122.716L120.378 26.248H115.63L117.347 15.9841H115.009L114.169 19.7828C113.907 20.976 113.566 21.9866 113.146 22.8145C112.732 23.6425 112.254 24.3091 111.712 24.8144C111.171 25.3136 110.577 25.6788 109.932 25.9102C109.293 26.1354 108.611 26.248 107.886 26.248H106.425ZM123.216 31.5079C122.631 31.5079 122.086 31.4622 121.581 31.3709C121.076 31.2857 120.634 31.167 120.257 31.0148L121.955 27.4352C122.345 27.5813 122.704 27.6756 123.033 27.7182C123.368 27.7609 123.663 27.7365 123.919 27.6452C124.174 27.5539 124.384 27.3804 124.549 27.1247L124.713 26.869L122.211 12.2218H127.288L127.928 21.9379H128.074L132 12.2218H137.479L129.845 27.4169C129.456 28.19 128.969 28.8841 128.384 29.4989C127.806 30.1199 127.094 30.6099 126.247 30.9691C125.401 31.3283 124.391 31.5079 123.216 31.5079ZM151.069 7.14461L151.763 10.5051C151.337 10.7729 150.899 10.983 150.448 11.1351C149.998 11.2813 149.447 11.3847 148.795 11.4456C148.144 11.5004 147.307 11.5278 146.284 11.5278C145.127 11.5278 144.172 11.6617 143.417 11.9296C142.668 12.1975 142.059 12.651 141.59 13.2902C141.128 13.9294 140.744 14.803 140.44 15.911H140.549C141.079 15.0709 141.739 14.3982 142.531 13.8929C143.328 13.3876 144.348 13.135 145.59 13.135C146.844 13.135 147.882 13.3998 148.704 13.9294C149.526 14.4591 150.104 15.2048 150.439 16.1667C150.774 17.1286 150.838 18.2609 150.631 19.5637C150.387 20.9639 149.888 22.1845 149.133 23.2255C148.384 24.2665 147.419 25.0731 146.238 25.6454C145.063 26.2176 143.715 26.5037 142.193 26.5037C140.671 26.5037 139.414 26.2054 138.422 25.6088C137.435 25.0122 136.748 24.1356 136.358 22.9789C135.974 21.8222 135.923 20.4038 136.203 18.7236L136.349 17.8104C136.951 14.249 138.129 11.6496 139.883 10.012C141.636 8.36826 143.928 7.54641 146.759 7.54641C147.416 7.54641 148.016 7.54641 148.558 7.54641C149.1 7.54641 149.581 7.51901 150.001 7.46422C150.421 7.40943 150.777 7.30289 151.069 7.14461ZM142.851 22.778C143.277 22.778 143.663 22.6623 144.01 22.431C144.363 22.1936 144.662 21.8527 144.905 21.4083C145.155 20.9578 145.334 20.416 145.444 19.7828C145.541 19.1375 145.541 18.5896 145.444 18.1391C145.346 17.6886 145.161 17.3447 144.887 17.1073C144.613 16.8698 144.263 16.7511 143.837 16.7511C143.502 16.7511 143.188 16.8181 142.896 16.952C142.61 17.0859 142.351 17.2838 142.12 17.5456C141.895 17.8013 141.703 18.1178 141.545 18.4953C141.392 18.8666 141.28 19.2958 141.207 19.7828C141.042 20.7325 141.106 21.4691 141.399 21.9927C141.691 22.5162 142.175 22.778 142.851 22.778ZM155.144 16.0206H159.454C161.444 16.0206 162.939 16.4833 163.937 17.4086C164.936 18.3279 165.304 19.5941 165.042 21.2074C164.866 22.2484 164.452 23.1463 163.8 23.9012C163.155 24.6561 162.318 25.2375 161.289 25.6454C160.26 26.0472 159.076 26.248 157.737 26.248H150.614L152.952 12.2218H157.7L155.984 22.4858H158.358C158.881 22.4858 159.329 22.364 159.7 22.1205C160.078 21.8709 160.3 21.5544 160.367 21.1708C160.434 20.763 160.321 20.4312 160.029 20.1755C159.737 19.9137 159.338 19.7828 158.833 19.7828H154.523L155.144 16.0206ZM165.152 26.248L167.49 12.2218H172.53L170.193 26.248H165.152Z" fill="#15150D"/>
</svg>
