<svg width="99" height="32" viewBox="0 0 99 32" fill="none" xmlns="http://www.w3.org/2000/svg">
<path d="M98.4438 0.000133286L0 5.19509L7.08766 29.8825L82.5093 31.8416L98.4438 0.000133286Z" fill="white"/>
<path d="M19.6946 23.6004C18.6518 23.6004 17.7555 23.4141 17.0055 23.0413C16.2556 22.6686 15.7031 22.1561 15.3482 21.5038C14.9932 20.8515 14.88 20.1038 15.0087 19.2606H18.603C18.5409 19.7266 18.6607 20.1015 18.9624 20.3855C19.2642 20.6651 19.6591 20.8049 20.1472 20.8049C20.5333 20.8049 20.8838 20.725 21.1989 20.5652C21.5139 20.4011 21.778 20.1725 21.991 19.8797C22.204 19.5824 22.3437 19.234 22.4103 18.8347C22.4769 18.4353 22.4525 18.0892 22.3371 17.7963C22.2217 17.499 22.0331 17.2705 21.7713 17.1107C21.5095 16.9465 21.19 16.8644 20.8128 16.8644C20.4179 16.8644 20.0407 16.9598 19.6813 17.1507C19.3219 17.337 19.0334 17.5966 18.816 17.9294L15.6743 17.2904L17.4581 9.78234H26.617L26.1377 12.7377H20.0141L19.242 15.7462H19.3219C19.6059 15.3335 20.0318 14.9919 20.5998 14.7212C21.1723 14.4461 21.8024 14.3085 22.4902 14.3085C23.3022 14.3085 23.9945 14.4971 24.5669 14.8743C25.1393 15.2514 25.5542 15.7728 25.8116 16.4385C26.0689 17.1041 26.1244 17.8673 25.978 18.7282C25.8315 19.6778 25.4721 20.5187 24.8997 21.2508C24.3273 21.983 23.5951 22.5576 22.7032 22.9748C21.8112 23.3919 20.8084 23.6004 19.6946 23.6004ZM26.2649 21.2841L26.7442 18.4087L33.6665 9.78234H36.2757L35.6367 13.6163H34.1458L30.4183 18.3022L30.3917 18.4087H38.4855L38.0063 21.2841H26.2649ZM32.5483 23.4141L33.0542 20.4055L33.347 19.1541L34.8912 9.78234H38.3524L36.0893 23.4141H32.5483ZM44.347 23.7868C43.1045 23.7868 42.0773 23.5028 41.2652 22.9348C40.4532 22.3624 39.8918 21.5415 39.5812 20.4721C39.2706 19.4026 39.244 18.1202 39.5013 16.6248C39.7587 15.125 40.218 13.8514 40.8792 12.8042C41.5448 11.757 42.3701 10.9605 43.3552 10.4147C44.3448 9.86887 45.4563 9.59597 46.6899 9.59597C47.9235 9.59597 48.9441 9.86887 49.7518 10.4147C50.5594 10.9605 51.1207 11.757 51.4358 12.8042C51.7508 13.847 51.7841 15.1205 51.5356 16.6248C51.2871 18.1247 50.83 19.4093 50.1644 20.4787C49.5033 21.5481 48.6757 22.3668 47.6817 22.9348C46.6922 23.5028 45.5806 23.7868 44.347 23.7868ZM44.8529 20.7782C45.4918 20.7782 46.0643 20.4454 46.5701 19.7798C47.0804 19.1098 47.4576 18.0581 47.7017 16.6248C47.8614 15.693 47.8991 14.9297 47.8148 14.3351C47.7305 13.7361 47.5486 13.2945 47.269 13.0106C46.9895 12.7221 46.6367 12.5779 46.2107 12.5779C45.5717 12.5779 44.9904 12.9041 44.4668 13.5564C43.9476 14.2042 43.5704 15.227 43.3353 16.6248C43.1755 17.5833 43.14 18.3687 43.2288 18.9811C43.3175 19.5935 43.5039 20.0461 43.7879 20.3389C44.0719 20.6318 44.4269 20.7782 44.8529 20.7782ZM57.2889 23.7868C56.0464 23.7868 55.0191 23.5028 54.2071 22.9348C53.395 22.3624 52.8337 21.5415 52.5231 20.4721C52.2125 19.4026 52.1859 18.1202 52.4432 16.6248C52.7006 15.125 53.1599 13.8514 53.821 12.8042C54.4867 11.757 55.312 10.9605 56.2971 10.4147C57.2867 9.86887 58.3982 9.59597 59.6318 9.59597C60.8654 9.59597 61.886 9.86887 62.6936 10.4147C63.5012 10.9605 64.0626 11.757 64.3776 12.8042C64.6927 13.847 64.726 15.1205 64.4775 16.6248C64.229 18.1247 63.7719 19.4093 63.1063 20.4787C62.4451 21.5481 61.6176 22.3668 60.6236 22.9348C59.634 23.5028 58.5225 23.7868 57.2889 23.7868ZM57.7947 20.7782C58.4337 20.7782 59.0062 20.4454 59.512 19.7798C60.0223 19.1098 60.3995 18.0581 60.6436 16.6248C60.8033 15.693 60.841 14.9297 60.7567 14.3351C60.6724 13.7361 60.4905 13.2945 60.2109 13.0106C59.9314 12.7221 59.5786 12.5779 59.1526 12.5779C58.5136 12.5779 57.9323 12.9041 57.4087 13.5564C56.8895 14.2042 56.5123 15.227 56.2771 16.6248C56.1174 17.5833 56.0819 18.3687 56.1706 18.9811C56.2594 19.5935 56.4458 20.0461 56.7298 20.3389C57.0138 20.6318 57.3687 20.7782 57.7947 20.7782ZM75.6379 18.8879H68.1564L68.6357 16.0125H75.984C76.4588 16.0125 76.856 15.9548 77.1755 15.8394C77.4994 15.7196 77.7501 15.5465 77.9276 15.3202C78.1096 15.0895 78.2249 14.8055 78.2737 14.4682C78.3314 14.1487 78.3115 13.8559 78.2138 13.5896C78.1207 13.3234 77.9454 13.1104 77.688 12.9506C77.4351 12.7909 77.0978 12.711 76.6763 12.711H74.6528L72.869 23.4141H69.1948L71.4579 9.78234H77.1555C78.2782 9.78234 79.2278 9.9798 80.0043 10.3747C80.7853 10.7697 81.3511 11.3155 81.7016 12.0121C82.0566 12.7088 82.1565 13.5098 82.0012 14.415C81.8459 15.3912 81.4709 16.2121 80.8763 16.8778C80.2817 17.5389 79.5317 18.0404 78.6265 18.382C77.7213 18.7193 76.7251 18.8879 75.6379 18.8879ZM76.4899 19.5003L76.0107 22.3757H67.5973L68.0766 19.5003H76.4899Z" fill="#121212"/>
</svg>
