<svg width="124" height="47" viewBox="0 0 124 47" fill="none" xmlns="http://www.w3.org/2000/svg">
<path d="M123.42 -3.83804e-05L0 7.4157L8.42742 43.8559L104.474 47L123.42 -3.83804e-05Z" fill="white"/>
<path d="M34.7071 12.9678L31.317 33.3879H25.7732L28.3258 18.0728H28.2061L23.3005 20.745L24.0583 16.0388L29.602 12.9678H34.7071ZM45.5938 12.6886C46.8168 12.6886 47.9435 12.8847 48.9739 13.2769C50.0042 13.6691 50.8716 14.2839 51.5762 15.1215C52.2808 15.9524 52.7628 17.0292 53.022 18.352C53.2812 19.6748 53.2513 21.2701 52.9323 23.138C52.6531 24.7798 52.2011 26.2522 51.5762 27.555C50.958 28.8579 50.1936 29.9646 49.283 30.8753C48.3723 31.7793 47.3453 32.4706 46.202 32.9492C45.0653 33.4278 43.8389 33.6671 42.5228 33.6671C41.0072 33.6671 39.711 33.3813 38.6342 32.8096C37.564 32.238 36.7563 31.4669 36.2113 30.4964C35.6728 29.5259 35.4369 28.4424 35.5033 27.2459H40.8876C40.8809 27.8841 41.0737 28.3294 41.4659 28.582C41.8647 28.8346 42.3366 28.9609 42.8817 28.9609C44.0915 28.9609 45.0819 28.4291 45.853 27.3656C46.6241 26.2954 47.1625 24.9128 47.4683 23.2177L47.3087 23.4969C46.9498 24.1218 46.4778 24.6469 45.8929 25.0723C45.3146 25.4977 44.6698 25.8201 43.9586 26.0395C43.254 26.2588 42.5228 26.3685 41.765 26.3685C40.502 26.3685 39.4385 26.076 38.5743 25.4911C37.7102 24.9061 37.0953 24.1085 36.7297 23.0981C36.3641 22.0877 36.2877 20.9444 36.5004 19.6681C36.7397 18.2589 37.2815 17.0325 38.1256 15.9889C38.9698 14.9387 40.0367 14.1277 41.3263 13.5561C42.6158 12.9777 44.0383 12.6886 45.5938 12.6886ZM45.3943 16.8763C44.8094 16.8763 44.2577 17.0159 43.7392 17.2951C43.2207 17.5676 42.7886 17.9432 42.443 18.4218C42.0973 18.8937 41.8846 19.4288 41.8049 20.0271C41.7384 20.5323 41.7816 20.981 41.9345 21.3731C42.0874 21.7653 42.34 22.0711 42.6923 22.2905C43.0446 22.5098 43.48 22.6195 43.9984 22.6195C44.4371 22.6195 44.8559 22.5397 45.2548 22.3802C45.6536 22.2207 46.0159 22.0013 46.3416 21.7221C46.6739 21.4363 46.9465 21.1006 47.1592 20.7151C47.3785 20.3295 47.5214 19.9141 47.5879 19.4687C47.6677 18.9502 47.6278 18.4982 47.4683 18.1127C47.3087 17.7205 47.0528 17.4181 46.7005 17.2054C46.3482 16.986 45.9128 16.8763 45.3943 16.8763ZM61.2988 33.9463C59.4376 33.9463 57.8988 33.5209 56.6824 32.67C55.4659 31.8126 54.6251 30.5828 54.1598 28.9809C53.6945 27.3789 53.6546 25.4578 54.0401 23.2177C54.4256 20.971 55.1136 19.0632 56.1041 17.4945C57.1011 15.9258 58.3375 14.7326 59.8132 13.915C61.2955 13.0974 62.9606 12.6886 64.8086 12.6886C66.6565 12.6886 68.1853 13.0974 69.3951 13.915C70.6049 14.7326 71.4458 15.9258 71.9177 17.4945C72.3897 19.0566 72.4395 20.9643 72.0673 23.2177C71.695 25.4645 71.0104 27.3889 70.0133 28.9908C69.0229 30.5928 67.7832 31.8192 66.2942 32.67C64.8119 33.5209 63.1468 33.9463 61.2988 33.9463ZM62.0566 29.4395C63.0138 29.4395 63.8713 28.941 64.6291 27.9439C65.3935 26.9402 65.9585 25.3648 66.3241 23.2177C66.5634 21.8218 66.6199 20.6785 66.4936 19.7878C66.3673 18.8904 66.0948 18.229 65.676 17.8036C65.2572 17.3715 64.7288 17.1555 64.0907 17.1555C63.1335 17.1555 62.2627 17.6441 61.4783 18.6212C60.7006 19.5917 60.1356 21.1239 59.7833 23.2177C59.544 24.6535 59.4908 25.8301 59.6237 26.7474C59.7567 27.6647 60.0359 28.3427 60.4613 28.7814C60.8867 29.2202 61.4185 29.4395 62.0566 29.4395ZM88.7855 26.6078H77.5783L78.2962 22.3004H89.304C90.0152 22.3004 90.6101 22.214 91.0887 22.0412C91.574 21.8617 91.9496 21.6025 92.2154 21.2635C92.488 20.9178 92.6608 20.4924 92.7339 19.9872C92.8203 19.5086 92.7904 19.0699 92.6442 18.6711C92.5046 18.2722 92.242 17.9532 91.8565 17.7139C91.4776 17.4746 90.9724 17.3549 90.3409 17.3549H87.3098L84.6376 33.3879H79.1338L82.5238 12.9678H91.0588C92.7406 12.9678 94.1631 13.2636 95.3263 13.8552C96.4962 14.4468 97.3438 15.2644 97.8689 16.308C98.4007 17.3516 98.5502 18.5514 98.3176 19.9074C98.0849 21.3698 97.5232 22.5996 96.6325 23.5966C95.7418 24.5871 94.6184 25.3382 93.2624 25.85C91.9063 26.3552 90.4141 26.6078 88.7855 26.6078ZM90.0618 27.5251L89.3439 31.8325H76.7408L77.4587 27.5251H90.0618Z" fill="#121212"/>
</svg>
