<svg width="99" height="32" viewBox="0 0 99 32" fill="none" xmlns="http://www.w3.org/2000/svg">
<path d="M98.4438 0.000133286L0 5.19509L7.08766 29.8825L82.5093 31.8416L98.4438 0.000133286Z" fill="white"/>
<path d="M20.094 23.6004C19.2775 23.6004 18.5253 23.4695 17.8375 23.2077C17.1497 22.9459 16.5707 22.5355 16.1003 21.9763C15.6299 21.4128 15.3082 20.6851 15.1352 19.7931C14.9621 18.9012 14.9821 17.8274 15.1951 16.5716C15.377 15.4844 15.6765 14.5126 16.0936 13.6562C16.5108 12.7953 17.0233 12.0632 17.6312 11.4597C18.2391 10.8518 18.9247 10.3903 19.6879 10.0752C20.4512 9.75571 21.2699 9.59597 22.1441 9.59597C23.1558 9.59597 24.0189 9.78677 24.7333 10.1684C25.4521 10.5456 25.9935 11.0559 26.3574 11.6993C26.7212 12.3383 26.8788 13.0483 26.83 13.8293H23.2357C23.2357 13.4343 23.1048 13.1548 22.8429 12.9906C22.5811 12.822 22.2683 12.7377 21.9044 12.7377C21.1013 12.7377 20.4423 13.0926 19.9276 13.8026C19.4128 14.5082 19.0512 15.4134 18.8426 16.5183L18.9491 16.332C19.1932 15.9148 19.5082 15.5643 19.8943 15.2803C20.2848 14.9963 20.7152 14.7811 21.1856 14.6346C21.6604 14.4882 22.1485 14.415 22.6499 14.415C23.4975 14.415 24.2097 14.6102 24.7865 15.0007C25.3634 15.3912 25.7739 15.9259 26.0179 16.6049C26.262 17.2838 26.3108 18.0537 26.1643 18.9145C26.009 19.8641 25.6496 20.6895 25.0861 21.3906C24.5225 22.0917 23.8103 22.6353 22.9494 23.0214C22.0886 23.4074 21.1368 23.6004 20.094 23.6004ZM20.2271 20.8049C20.622 20.8049 20.9903 20.7139 21.332 20.532C21.6781 20.3456 21.9666 20.0927 22.1973 19.7732C22.428 19.4492 22.57 19.0831 22.6233 18.6749C22.6765 18.3288 22.6499 18.0248 22.5434 17.763C22.4414 17.4968 22.2727 17.2904 22.0376 17.144C21.8024 16.9931 21.5095 16.9177 21.1589 16.9177C20.8705 16.9177 20.5932 16.9709 20.3269 17.0774C20.0607 17.1839 19.8188 17.3326 19.6014 17.5234C19.384 17.7142 19.202 17.9405 19.0556 18.2023C18.9092 18.4597 18.8116 18.7415 18.7627 19.0477C18.7139 19.4071 18.7428 19.7177 18.8493 19.9795C18.9558 20.2413 19.1266 20.4454 19.3618 20.5919C19.6014 20.7339 19.8898 20.8049 20.2271 20.8049ZM33.8263 9.59597C34.6428 9.59597 35.3949 9.72687 36.0827 9.98868C36.7705 10.2505 37.3496 10.6609 37.8199 11.2201C38.2903 11.7747 38.612 12.4936 38.7851 13.3766C38.9581 14.2597 38.9382 15.3247 38.7252 16.5716C38.5388 17.6676 38.2371 18.6505 37.8199 19.5202C37.4073 20.39 36.897 21.1288 36.289 21.7367C35.6811 22.3402 34.9955 22.8017 34.2323 23.1212C33.4735 23.4407 32.6548 23.6004 31.7762 23.6004C30.7645 23.6004 29.8992 23.4096 29.1803 23.028C28.4659 22.6464 27.9267 22.1317 27.5629 21.4838C27.2034 20.8359 27.0459 20.1126 27.0903 19.3139H30.6846C30.6801 19.7399 30.8088 20.0372 31.0706 20.2058C31.3369 20.3744 31.6519 20.4587 32.0158 20.4587C32.8234 20.4587 33.4846 20.1038 33.9993 19.3938C34.5141 18.6793 34.8735 17.7564 35.0776 16.6248L34.9711 16.8112C34.7315 17.2283 34.4164 17.5789 34.026 17.8629C33.6399 18.1469 33.2095 18.3621 32.7347 18.5085C32.2643 18.6549 31.7762 18.7282 31.2703 18.7282C30.4272 18.7282 29.7172 18.5329 29.1404 18.1424C28.5635 17.7519 28.153 17.2194 27.909 16.545C27.6649 15.8705 27.6139 15.1072 27.7559 14.2552C27.9156 13.3145 28.2773 12.4958 28.8408 11.7991C29.4044 11.098 30.1166 10.5567 30.9774 10.175C31.8383 9.78899 32.7879 9.59597 33.8263 9.59597ZM33.6931 12.3915C33.3027 12.3915 32.9343 12.4847 32.5882 12.6711C32.2421 12.853 31.9537 13.1037 31.7229 13.4232C31.4922 13.7383 31.3502 14.0955 31.2969 14.4949C31.2526 14.8321 31.2814 15.1316 31.3835 15.3934C31.4855 15.6552 31.6542 15.8594 31.8893 16.0058C32.1245 16.1522 32.4152 16.2255 32.7613 16.2255C33.0542 16.2255 33.3337 16.1722 33.6 16.0657C33.8662 15.9592 34.108 15.8128 34.3255 15.6264C34.5473 15.4356 34.7293 15.2115 34.8713 14.9541C35.0177 14.6968 35.1131 14.4194 35.1575 14.1221C35.2107 13.776 35.1841 13.4743 35.0776 13.2169C34.9711 12.9551 34.8003 12.7532 34.5651 12.6112C34.3299 12.4648 34.0393 12.3915 33.6931 12.3915ZM44.3104 23.7868C43.0679 23.7868 42.0406 23.5028 41.2286 22.9348C40.4166 22.3624 39.8552 21.5415 39.5446 20.4721C39.234 19.4026 39.2074 18.1202 39.4647 16.6248C39.7221 15.125 40.1814 13.8514 40.8425 12.8042C41.5082 11.757 42.3335 10.9605 43.3186 10.4147C44.3082 9.86887 45.4197 9.59597 46.6533 9.59597C47.8869 9.59597 48.9075 9.86887 49.7151 10.4147C50.5228 10.9605 51.0841 11.757 51.3991 12.8042C51.7142 13.847 51.7475 15.1205 51.499 16.6248C51.2505 18.1247 50.7934 19.4093 50.1278 20.4787C49.4667 21.5481 48.6391 22.3668 47.6451 22.9348C46.6556 23.5028 45.544 23.7868 44.3104 23.7868ZM44.8162 20.7782C45.4552 20.7782 46.0277 20.4454 46.5335 19.7798C47.0438 19.1098 47.421 18.0581 47.6651 16.6248C47.8248 15.693 47.8625 14.9297 47.7782 14.3351C47.6939 13.7361 47.512 13.2945 47.2324 13.0106C46.9529 12.7221 46.6001 12.5779 46.1741 12.5779C45.5351 12.5779 44.9538 12.9041 44.4302 13.5564C43.911 14.2042 43.5338 15.227 43.2987 16.6248C43.1389 17.5833 43.1034 18.3687 43.1922 18.9811C43.2809 19.5935 43.4673 20.0461 43.7513 20.3389C44.0353 20.6318 44.3903 20.7782 44.8162 20.7782ZM57.2523 23.7868C56.0098 23.7868 54.9825 23.5028 54.1705 22.9348C53.3584 22.3624 52.7971 21.5415 52.4865 20.4721C52.1759 19.4026 52.1492 18.1202 52.4066 16.6248C52.664 15.125 53.1233 13.8514 53.7844 12.8042C54.45 11.757 55.2754 10.9605 56.2605 10.4147C57.25 9.86887 58.3616 9.59597 59.5952 9.59597C60.8288 9.59597 61.8494 9.86887 62.657 10.4147C63.4646 10.9605 64.026 11.757 64.341 12.8042C64.6561 13.847 64.6894 15.1205 64.4409 16.6248C64.1924 18.1247 63.7353 19.4093 63.0697 20.4787C62.4085 21.5481 61.581 22.3668 60.587 22.9348C59.5974 23.5028 58.4859 23.7868 57.2523 23.7868ZM57.7581 20.7782C58.3971 20.7782 58.9695 20.4454 59.4754 19.7798C59.9857 19.1098 60.3629 18.0581 60.6069 16.6248C60.7667 15.693 60.8044 14.9297 60.7201 14.3351C60.6358 13.7361 60.4539 13.2945 60.1743 13.0106C59.8947 12.7221 59.542 12.5779 59.116 12.5779C58.477 12.5779 57.8957 12.9041 57.3721 13.5564C56.8529 14.2042 56.4757 15.227 56.2405 16.6248C56.0808 17.5833 56.0453 18.3687 56.134 18.9811C56.2228 19.5935 56.4092 20.0461 56.6932 20.3389C56.9771 20.6318 57.3321 20.7782 57.7581 20.7782ZM75.6013 18.8879H68.1198L68.5991 16.0125H75.9474C76.4222 16.0125 76.8194 15.9548 77.1389 15.8394C77.4628 15.7196 77.7135 15.5465 77.891 15.3202C78.073 15.0895 78.1883 14.8055 78.2371 14.4682C78.2948 14.1487 78.2749 13.8559 78.1772 13.5896C78.084 13.3234 77.9088 13.1104 77.6514 12.9506C77.3985 12.7909 77.0612 12.711 76.6397 12.711H74.6162L72.8324 23.4141H69.1582L71.4213 9.78234H77.1189C78.2416 9.78234 79.1912 9.9798 79.9677 10.3747C80.7487 10.7697 81.3145 11.3155 81.665 12.0121C82.02 12.7088 82.1199 13.5098 81.9646 14.415C81.8093 15.3912 81.4343 16.2121 80.8397 16.8778C80.2451 17.5389 79.4951 18.0404 78.5899 18.382C77.6847 18.7193 76.6885 18.8879 75.6013 18.8879ZM76.4533 19.5003L75.9741 22.3757H67.5607L68.04 19.5003H76.4533Z" fill="#121212"/>
</svg>
