<svg width="145" height="52" viewBox="0 0 145 52" fill="none" xmlns="http://www.w3.org/2000/svg">
<path d="M145 0.000217668L0 8.48404L10.4396 48.8008L121.53 52.0002L145 0.000217668Z" fill="white"/>
<path d="M33.0125 38.1786C31.6854 38.1786 30.463 37.9659 29.3451 37.5404C28.2272 37.1149 27.2861 36.4477 26.5216 35.539C25.7571 34.6231 25.2342 33.4403 24.9529 31.9907C24.6717 30.541 24.7041 28.7957 25.0503 26.7547C25.346 24.9877 25.8328 23.4083 26.5108 22.0163C27.1887 20.6172 28.0217 19.4272 29.0097 18.4463C29.9978 17.4583 31.1121 16.7082 32.3525 16.1962C33.593 15.6769 34.9237 15.4173 36.3444 15.4173C37.9888 15.4173 39.3916 15.7274 40.5527 16.3476C41.7211 16.9607 42.6009 17.79 43.1923 18.8358C43.7837 19.8743 44.0397 21.0283 43.9604 22.2976H38.1186C38.1186 21.6557 37.9059 21.2014 37.4803 20.9345C37.0548 20.6605 36.5464 20.5234 35.955 20.5234C34.6496 20.5234 33.5786 21.1004 32.742 22.2543C31.9054 23.4011 31.3176 24.8723 30.9786 26.6681L31.1517 26.3652C31.5484 25.6873 32.0605 25.1175 32.6879 24.656C33.3226 24.1944 34.0221 23.8446 34.7866 23.6066C35.5583 23.3686 36.3517 23.2496 37.1666 23.2496C38.5441 23.2496 39.7017 23.5669 40.6392 24.2016C41.5768 24.8363 42.2439 25.7053 42.6406 26.8088C43.0373 27.9122 43.1166 29.1635 42.8786 30.5627C42.6262 32.1061 42.042 33.4475 41.1261 34.587C40.2101 35.7265 39.0526 36.61 37.6534 37.2375C36.2543 37.8649 34.7073 38.1786 33.0125 38.1786ZM33.2288 33.635C33.8707 33.635 34.4693 33.4872 35.0246 33.1915C35.5872 32.8886 36.056 32.4775 36.431 31.9582C36.806 31.4317 37.0368 30.8367 37.1234 30.1732C37.2099 29.6107 37.1666 29.1166 36.9935 28.6911C36.8277 28.2584 36.5536 27.923 36.1714 27.685C35.7891 27.4398 35.3131 27.3172 34.7434 27.3172C34.2746 27.3172 33.8238 27.4038 33.3911 27.5769C32.9584 27.75 32.5653 27.9916 32.2119 28.3017C31.8585 28.6118 31.5628 28.9796 31.3248 29.4051C31.0868 29.8234 30.9282 30.2814 30.8488 30.779C30.7695 31.3632 30.8164 31.8681 30.9895 32.2936C31.1626 32.7191 31.4402 33.0508 31.8225 33.2888C32.2119 33.5196 32.6807 33.635 33.2288 33.635ZM55.3315 15.4173C56.6585 15.4173 57.8809 15.63 58.9988 16.0555C60.1167 16.4811 61.0579 17.1482 61.8224 18.0569C62.5868 18.9584 63.1097 20.1268 63.391 21.562C63.6723 22.9972 63.6398 24.7281 63.2936 26.7547C62.9907 28.5361 62.5003 30.1335 61.8224 31.5471C61.1516 32.9607 60.3222 34.1615 59.3342 35.1496C58.3461 36.1304 57.2319 36.8805 55.9914 37.3997C54.7581 37.919 53.4275 38.1786 51.9995 38.1786C50.3551 38.1786 48.9488 37.8685 47.7804 37.2483C46.6193 36.628 45.743 35.7914 45.1516 34.7385C44.5674 33.6855 44.3114 32.5099 44.3835 31.2118H50.2253C50.2181 31.9041 50.4272 32.3873 50.8528 32.6614C51.2855 32.9354 51.7975 33.0725 52.3889 33.0725C53.7015 33.0725 54.7761 32.4955 55.6127 31.3416C56.4493 30.1804 57.0335 28.6803 57.3653 26.8412L57.1922 27.1441C56.8027 27.8221 56.2907 28.3918 55.656 28.8534C55.0286 29.315 54.329 29.6648 53.5573 29.9028C52.7928 30.1408 51.9995 30.2598 51.1773 30.2598C49.807 30.2598 48.6531 29.9424 47.7155 29.3078C46.7779 28.6731 46.1108 27.8076 45.7141 26.7114C45.3175 25.6152 45.2345 24.3747 45.4653 22.99C45.725 21.461 46.3127 20.1304 47.2287 18.9981C48.1446 17.8586 49.3022 16.9787 50.7013 16.3584C52.1005 15.731 53.6438 15.4173 55.3315 15.4173ZM55.1151 19.9609C54.4804 19.9609 53.8818 20.1123 53.3193 20.4153C52.7568 20.7109 52.288 21.1184 51.9129 21.6377C51.5379 22.1498 51.3071 22.7303 51.2206 23.3794C51.1485 23.9275 51.1953 24.4144 51.3612 24.8399C51.5271 25.2654 51.8012 25.5971 52.1834 25.8351C52.5656 26.0731 53.038 26.1921 53.6006 26.1921C54.0766 26.1921 54.5309 26.1056 54.9637 25.9325C55.3964 25.7594 55.7894 25.5214 56.1428 25.2185C56.5034 24.9084 56.7991 24.5442 57.0299 24.1259C57.2679 23.7076 57.423 23.2568 57.4951 22.7736C57.5816 22.2111 57.5384 21.7206 57.3653 21.3023C57.1922 20.8768 56.9145 20.5487 56.5323 20.3179C56.15 20.0799 55.6777 19.9609 55.1151 19.9609ZM72.3712 38.4815C70.3518 38.4815 68.6822 38.02 67.3624 37.0968C66.0426 36.1665 65.1303 34.8322 64.6254 33.0941C64.1206 31.356 64.0773 29.2717 64.4956 26.8412C64.9139 24.4035 65.6604 22.3337 66.735 20.6316C67.8168 18.9296 69.1582 17.635 70.7593 16.7479C72.3676 15.8608 74.1743 15.4173 76.1792 15.4173C78.1842 15.4173 79.843 15.8608 81.1556 16.7479C82.4682 17.635 83.3805 18.9296 83.8926 20.6316C84.4046 22.3265 84.4587 24.3963 84.0548 26.8412C83.6509 29.2789 82.9081 31.3668 81.8263 33.1049C80.7517 34.843 79.4066 36.1737 77.7911 37.0968C76.1828 38.02 74.3762 38.4815 72.3712 38.4815ZM73.1934 33.5917C74.232 33.5917 75.1623 33.0508 75.9845 31.969C76.8139 30.88 77.4269 29.1707 77.8236 26.8412C78.0832 25.3267 78.1445 24.0862 78.0075 23.1198C77.8705 22.1462 77.5748 21.4286 77.1204 20.967C76.666 20.4982 76.0927 20.2638 75.4003 20.2638C74.3618 20.2638 73.417 20.7939 72.566 21.8541C71.7221 22.907 71.1091 24.5694 70.7269 26.8412C70.4672 28.399 70.4095 29.6756 70.5538 30.6709C70.698 31.6661 71.0009 32.4018 71.4625 32.8778C71.9241 33.3537 72.5011 33.5917 73.1934 33.5917ZM102.194 30.5194H90.0342L90.8131 25.846H102.756C103.528 25.846 104.174 25.7522 104.693 25.5647C105.219 25.37 105.627 25.0887 105.915 24.7209C106.211 24.3458 106.398 23.8843 106.478 23.3361C106.572 22.8169 106.539 22.3409 106.38 21.9082C106.229 21.4754 105.944 21.1292 105.526 20.8696C105.115 20.61 104.567 20.4802 103.881 20.4802H100.593L97.6935 37.8757H91.7219L95.4 15.7202H104.66C106.485 15.7202 108.028 16.0411 109.291 16.683C110.56 17.3249 111.479 18.212 112.049 19.3443C112.626 20.4766 112.788 21.7783 112.536 23.2496C112.284 24.8363 111.674 26.1705 110.708 27.2523C109.741 28.3269 108.522 29.1419 107.051 29.6972C105.58 30.2453 103.961 30.5194 102.194 30.5194ZM103.579 31.5147L102.8 36.1881H89.1255L89.9044 31.5147H103.579Z" fill="#121212"/>
</svg>
