<svg width="198" height="54" viewBox="0 0 198 54" fill="none" xmlns="http://www.w3.org/2000/svg">
<path d="M106.845 32.6544C108.826 32.5223 110.79 32.5388 112.771 32.5718V17.9781C110.807 17.9781 108.842 17.9781 106.878 17.9781M14.049 0H35.2132C35.9396 2.41028 36.666 4.82056 37.3924 7.23084C38.1022 4.82056 38.7956 2.41028 39.5055 0H183.512C188.217 14.4617 192.905 28.9399 197.594 43.4016H170.486L169.132 38.8617H164.081L162.826 43.4016H150.659C150.411 44.3261 150.164 45.2505 149.9 46.1585C149.553 47.3637 149.206 48.5358 148.843 49.6914C148.827 49.7574 148.794 49.84 148.777 49.939C148.645 50.4178 148.463 51.0781 148.1 51.5734C147.803 51.9861 147.258 52.2833 146.598 52.5144C145.971 52.729 145.178 52.8941 144.369 53.0262C142.883 53.2738 141.167 53.4719 139.4 53.5214C137.601 53.5545 135.735 53.4224 134.002 52.9932C132.995 52.729 131.938 52.3493 130.981 51.788C130.667 51.6064 130.353 51.4083 130.073 51.1772C129.924 51.5899 129.759 52.0191 129.61 52.4319L129.379 53.0757L128.702 53.1417C127.134 53.2903 125.632 53.3564 124.146 53.3729C122.611 53.3729 121.108 53.3233 119.606 53.2078L119.045 53.1582L118.748 52.6795C118.384 52.0687 117.922 51.3093 117.344 50.3352C117.278 50.2197 117.196 50.0876 117.13 49.972C116.717 51.1112 116.321 52.2007 116.139 52.6795L115.859 53.4554L115.05 53.4059C113.448 53.2903 111.913 53.2573 110.411 53.2903C108.908 53.3068 107.373 53.3894 105.788 53.4719C105.59 53.4719 105.409 53.4719 105.243 53.4059C105.111 53.3564 104.996 53.3068 104.88 53.2243C103.906 53.1913 102.932 53.2078 101.958 53.2408C100.869 53.2903 99.68 53.3729 98.4748 53.4554H98.4583C97.93 53.4884 97.5668 53.3398 97.3522 53.0922C95.2391 53.4554 92.8453 53.6535 90.5341 53.4719C88.9493 53.3398 87.3974 53.0262 85.9942 52.4649L85.9447 53.3398H84.9046C83.3198 53.2903 81.7349 53.2738 80.1501 53.2738C78.5652 53.2738 76.9804 53.2738 75.3956 53.3068H74.339L74.306 52.2668L74.273 51.4909L73.0183 51.2762C72.6221 51.755 72.0608 52.3493 70.9547 53.2903C70.3274 53.2903 69.7 53.2903 69.0727 53.2903C65.028 53.2573 61.3466 53.2408 57.335 53.4389L56.7241 53.4719L56.3775 52.9601C55.3044 51.3423 56.3444 52.9106 55.8492 52.1512C55.7997 52.0852 55.7501 52.0026 55.7171 51.9366C55.453 52.3163 55.1063 52.7785 54.6275 53.3729C52.9436 53.3068 51.2762 53.3068 49.6254 53.3398C47.9745 53.3729 46.2906 53.4224 44.5902 53.4884L43.0219 53.538L43.5336 52.0522C44.0784 50.4343 44.6562 48.7834 45.2671 47.017C45.6963 45.7953 46.1255 44.6067 46.5382 43.4511H0L14.0159 0.0495243L14.049 0ZM139.218 32.6544L142.669 21.9567L143.131 20.5369L143.973 17.8625H139.218V32.6544Z" fill="black"/>
<path d="M163.255 37.8216L162.001 42.3615H113.861V16.7894C111.17 16.7894 108.496 16.7894 105.805 16.7894C105.788 25.3079 105.755 33.8265 105.722 42.3615C99.1517 40.3474 94.7439 40.2154 92.8784 42.3615H1.96454C6.35588 28.6097 10.7472 14.8744 15.1385 1.1226H34.3878C35.3948 4.42435 36.3688 7.74262 37.3759 11.0444C38.3664 7.74262 39.3239 4.42435 40.2979 1.1226H182.703C187.16 14.8744 191.617 28.6097 196.091 42.3615H171.279L169.925 37.8216M138.145 39.555L138.542 38.3169L144.171 20.9166L145.624 16.6739H138.145V39.555Z" fill="black"/>
<path fill-rule="evenodd" clip-rule="evenodd" d="M81.9991 18.5063H102.42V25.473H81.9991V29.8644H102.519L102.569 39.1093H63.4597C65.6719 32.2416 67.8676 25.374 70.0797 18.5063M134.943 18.5063L134.992 39.1093H116.915V18.5063H134.943ZM165.352 18.5063L159.607 39.1093H141.447C143.659 32.2416 145.888 25.374 148.1 18.5063H165.352ZM191.832 39.1258H173.573L172.219 34.5859H163.668L166.128 24.8952H170.271L168.208 18.5228H185.047C186.995 25.3245 189.603 32.2746 191.815 39.1258H191.832ZM59.3655 39.1258H48.5193L48.5688 25.6711H46.984L42.2294 39.1258H32.4232L27.7347 25.6711H26.1664V39.1258H6.15777L12.7448 18.5228H66.0186C65.1106 21.3293 64.0375 24.6311 59.3655 39.1258Z" fill="#DE127A"/>
<path fill-rule="evenodd" clip-rule="evenodd" d="M13.3721 16.5088L14.181 13.9994L17.3507 4.06116H32.0435L35.725 16.4923M81.9991 13.8674V16.5088H70.7071C72.0443 12.3651 73.365 8.22137 74.7022 4.07767H107.142L104.022 13.8674H81.9991ZM134.926 13.8674V16.5088H116.915V13.8674H107.868L111.021 4.06116H149.256L146.053 13.8674H134.926ZM148.744 16.5088C150.081 12.3651 151.418 8.22137 152.756 4.07767H180.441L184.436 16.5088H148.744ZM38.9112 16.5088C40.1328 12.3651 41.3545 8.22137 42.5761 4.07767H70.6906C68.3463 11.3415 67.3723 14.3791 66.6789 16.5088H38.9112Z" fill="#7D5C9C"/>
<path d="M101.001 42.0479C99.1352 41.47 96.7744 41.0573 94.7604 41.9323C93.0434 42.6917 92.7298 44.227 94.9254 44.4416C96.89 44.6397 100.027 43.9629 100.456 43.9133C100.654 43.3025 100.786 42.6587 101.017 42.0479M44.5902 52.3988C46.6538 46.3236 48.7834 40.2814 51.2762 34.3548C54.0167 33.7935 56.7407 33.3972 59.5471 33.3477C62.0235 33.2982 64.995 33.4798 67.1742 34.8665C68.5279 35.725 69.4689 36.9136 69.7991 38.4985L69.8816 38.8782H70.2778C71.2519 37.64 72.2094 36.3853 73.2164 35.1637C73.8933 34.3383 74.6362 33.909 75.6927 33.7935C78.8294 33.4468 81.7349 33.6614 84.8386 34.1236C84.9707 35.4774 85.1027 36.8311 85.1853 38.1848C88.454 34.7675 92.9279 33.3477 97.6164 33.4303C99.6965 33.4633 101.826 33.7935 103.939 34.3713L104.071 34.0411C107.505 33.5623 110.757 33.6284 114.191 33.7109C116.37 33.5458 118.566 33.6284 120.745 33.6779C121.472 35.3288 122.231 36.9797 123.007 38.5975C123.585 37.0622 124.212 35.5434 124.856 34.0246C128.554 33.4963 132.021 33.6284 135.752 33.7109L134.992 35.4609C140.919 32.1426 147.308 33.3807 153.383 35.2793C152.409 37.4089 151.435 39.3239 150.081 41.2554C149.421 44.0124 148.645 46.6868 147.82 49.3778C147.704 49.7575 147.539 50.5168 147.242 50.9296C146.895 51.4083 145.558 51.7385 144.204 51.9696C141.348 52.4319 137.518 52.7786 134.282 51.9531C132.565 51.5239 130.749 50.6819 129.643 49.2457C129.297 50.1867 128.95 51.1277 128.603 52.0687C125.582 52.3493 122.71 52.3658 119.689 52.1182C118.748 50.5664 117.823 49.0145 116.915 47.4462C116.321 49.0641 115.727 50.6819 115.132 52.2998C111.88 52.0687 108.892 52.2007 105.722 52.3658C105.508 52.3658 105.409 52.2503 105.442 52.1347C103.081 52.0026 100.753 52.1842 98.4088 52.3493C97.9796 52.3658 98.0621 52.0522 98.1116 51.821C94.1165 52.63 88.6521 52.9106 85.0202 50.7645L84.9211 52.2173C81.7349 52.1512 78.5652 52.1677 75.3791 52.2173L75.313 50.5499L72.5561 50.0876C72.0278 50.781 71.483 51.4909 70.9547 52.1842C66.1341 52.1512 61.9244 52.0852 57.2854 52.3163C56.5921 51.2763 56.3114 50.8635 55.6511 49.8235C55.3209 50.6324 54.9907 51.4413 54.6605 52.2503C51.2763 52.1347 47.925 52.2503 44.5407 52.3493L44.5902 52.3988Z" fill="black"/>
<path fill-rule="evenodd" clip-rule="evenodd" d="M124.493 40.5951C125.054 39.0433 125.648 37.5244 126.292 36.0056C128.438 35.7085 130.617 35.7415 132.78 35.8075C131.988 37.6565 131.327 39.2414 130.783 40.5951M111.121 40.5951C111.682 39.0433 112.276 37.5079 112.92 36.0056C114.571 35.7745 116.09 35.7745 117.691 35.7745H117.79C118.351 35.7745 118.913 35.7745 119.474 35.8075C120.184 37.3924 120.927 38.9937 121.719 40.5951H111.121ZM103.692 40.5951C104.253 39.0433 104.847 37.5079 105.491 36.0056C106.531 35.857 107.621 35.7745 108.727 35.7745C109.833 35.7745 110.922 35.7745 111.979 35.8075C111.286 37.4089 110.642 39.0102 110.031 40.5951H103.692ZM85.9612 40.5951C86.3739 40.0173 86.8031 39.5055 87.2654 39.0763C88.487 37.9206 89.9893 37.0292 91.6237 36.4514C95.4372 35.1307 99.9111 35.3123 104.253 36.666C103.609 38.0692 102.635 39.4725 101.991 40.3805C99.9276 39.8687 96.1636 38.8451 93.4562 40.2814C93.3076 40.3639 93.1425 40.463 92.9939 40.5786H85.9612V40.5951ZM83.2868 40.5951C83.2372 38.515 83.1547 36.7485 83.0226 36.0056C80.5628 35.6424 77.8719 35.6589 75.2305 36.0056C74.0914 37.4089 72.8862 38.9277 71.6151 40.5951H83.2868ZM67.8015 40.5951C68.0657 39.555 67.8841 38.4489 67.0421 37.4254C66.4808 36.8476 65.804 36.4349 65.0115 36.1542C61.8254 35.0646 57.335 35.5104 54.1488 35.9891C53.571 36.0717 53.0922 36.1542 52.696 36.2367C52.0852 37.6895 51.4909 39.1423 50.9296 40.6116H57.0213C57.1204 40.397 57.2194 40.1989 57.368 39.9512C58.5896 40.0173 59.5802 39.9842 60.2405 40.1493C60.6862 40.2649 60.9669 40.4135 61.132 40.5951H67.8015ZM132.4 40.5951C132.813 40.0008 133.259 39.4725 133.672 39.0763C134.893 37.9206 136.395 37.0292 138.03 36.4514C141.843 35.1307 146.317 35.3123 150.659 36.666C150.015 38.0692 149.041 39.4725 148.397 40.3805C146.334 39.8687 142.57 38.8451 139.862 40.2814C139.697 40.3805 139.532 40.4795 139.384 40.5786H132.4V40.5951Z" fill="#C2C2C2"/>
<path fill-rule="evenodd" clip-rule="evenodd" d="M106.399 50.3518C104.501 50.2197 102.569 50.2197 100.67 50.3518C101.446 47.4627 102.305 44.5902 103.279 41.7672H109.569C108.479 44.6067 107.472 47.4627 106.399 50.3518ZM91.8383 45.9109C93.7698 47.0665 97.9961 46.4062 100.06 46.109C99.8616 46.8684 99.6304 48.6018 99.2507 49.6914C96.2296 50.4838 92.9279 50.7645 90.2369 50.4343C88.2724 50.2032 86.4564 49.6584 85.3173 48.6679C84.2938 47.7599 83.9306 46.3566 84.1287 44.8213C84.2608 43.8308 84.657 42.7577 85.2183 41.7672H91.8053C90.7487 43.1209 90.1874 44.9369 91.8383 45.9109ZM64.7144 50.3518C66.3157 50.3022 67.6199 50.3518 70.0137 50.3518C70.5915 49.5924 71.1693 48.8329 71.7471 48.09L77.3106 49.0311C77.3106 49.4768 77.3436 49.906 77.3601 50.3518C79.3742 50.3187 81.3057 50.3187 83.0887 50.3518C83.2703 48.6844 83.3363 45.0194 83.3033 41.7672H77.0464C77.096 43.0384 77.1455 44.3261 77.195 45.5972L74.0418 45.069L76.5347 41.7672H70.7236C68.8746 44.26 66.877 47.0995 64.6979 50.3518H64.7144ZM47.4132 50.4838C49.2952 50.4838 51.1277 50.3683 53.3729 50.3683C54.0497 48.7174 54.4294 47.8424 55.0733 46.142C55.1063 46.142 55.2053 46.1585 55.3539 46.175C55.5025 46.175 55.618 46.175 55.6841 46.175C56.493 47.6443 57.4505 49.0311 58.375 50.4178C60.4221 50.3187 62.4692 50.2857 64.5163 50.2857C63.5753 48.7174 62.6508 47.1326 61.7263 45.5477C62.8489 45.2836 63.8064 44.9369 64.6153 44.5076C65.6884 43.8638 66.7285 42.8898 67.3558 41.7672H61.132C60.9999 41.9653 60.8183 42.1469 60.6202 42.2955C59.5471 43.1374 57.4175 43.1539 56.1298 43.0549C56.3114 42.5266 56.46 42.1139 56.5921 41.7672H50.5168C49.4273 44.6562 48.4202 47.5618 47.4462 50.4838H47.4132ZM145.541 49.7244C142.553 50.5003 139.285 50.748 136.643 50.4343C134.679 50.2032 132.863 49.6584 131.723 48.6679C129.825 47.0005 130.436 44.0784 131.674 41.7672H138.145C137.436 42.7082 137.122 43.8143 137.336 44.6892C137.617 45.8449 138.756 46.3236 139.846 46.4557C140.721 46.5547 141.629 46.4557 142.174 46.3731C142.322 45.8119 142.438 45.4156 142.586 44.8543C141.546 44.8543 140.556 44.9369 139.565 45.0359C139.73 44.2435 139.928 43.4181 140.308 42.444C142.916 42.0809 145.426 41.9653 147.902 41.9323C146.994 45.7788 146.334 47.5948 145.723 49.5098C145.673 49.6749 145.657 49.6914 145.508 49.7409L145.541 49.7244ZM115.165 46.6703C114.736 47.8754 114.29 49.0971 113.828 50.3518C111.929 50.2197 109.998 50.2197 108.099 50.3518C108.875 47.4627 109.734 44.5902 110.708 41.7672H122.28C122.627 42.4936 122.99 43.2035 123.354 43.9298C123.585 43.2035 123.832 42.4936 124.08 41.7672H130.32C129.181 44.6893 128.686 46.2411 128.537 46.6703C128.108 47.8754 127.662 49.0971 127.2 50.3518C127.002 50.3518 126.82 50.3187 126.622 50.3187C126.622 50.3187 126.622 50.3518 126.639 50.3518C124.443 50.4178 122.512 50.4508 120.91 50.3518C119.424 47.9085 117.988 45.4487 116.502 43.0054C116.057 44.227 115.611 45.4487 115.165 46.6868V46.6703Z" fill="white"/>
</svg>
