<svg width="51" height="29" viewBox="0 0 51 29" fill="none" xmlns="http://www.w3.org/2000/svg">
<path d="M50.9264 0L0 3.61901L6.37033 25.8377L36.6046 28.6574L50.9264 0Z" fill="white"/>
<path d="M18.115 20.1519C16.9968 20.1519 16.0723 19.8963 15.3414 19.3851C14.6106 18.8699 14.1054 18.1311 13.8258 17.1686C13.5463 16.2061 13.5223 15.052 13.7539 13.7061C13.9856 12.3562 14.3989 11.21 14.994 10.2675C15.593 9.32504 16.3358 8.60817 17.2224 8.11695C18.113 7.62573 19.1134 7.38012 20.2237 7.38012C21.3339 7.38012 22.2525 7.62573 22.9793 8.11695C23.7062 8.60817 24.2114 9.32504 24.4949 10.2675C24.7785 11.2061 24.8084 12.3522 24.5848 13.7061C24.3611 15.056 23.9498 16.2121 23.3507 17.1746C22.7557 18.1371 22.0108 18.8739 21.1163 19.3851C20.2257 19.8963 19.2253 20.1519 18.115 20.1519ZM18.5703 17.4442C19.1454 17.4442 19.6606 17.1446 20.1158 16.5456C20.5751 15.9425 20.9146 14.996 21.1342 13.7061C21.278 12.8674 21.3119 12.1805 21.2361 11.6454C21.1602 11.1062 20.9964 10.7088 20.7448 10.4532C20.4932 10.1937 20.1757 10.0639 19.7924 10.0639C19.2173 10.0639 18.6941 10.3574 18.2228 10.9445C17.7556 11.5275 17.4161 12.4481 17.2045 13.7061C17.0607 14.5687 17.0287 15.2756 17.1086 15.8267C17.1885 16.3779 17.3562 16.7852 17.6118 17.0488C17.8674 17.3124 18.1869 17.4442 18.5703 17.4442ZM24.4671 19.8164L24.8625 17.4202L30.0742 13.6342C30.4217 13.3826 30.7212 13.147 30.9728 12.9273C31.2284 12.7037 31.4341 12.474 31.5898 12.2384C31.7456 12.0028 31.8474 11.7412 31.8953 11.4537C31.9472 11.1382 31.9233 10.8686 31.8234 10.6449C31.7276 10.4173 31.5718 10.2436 31.3562 10.1238C31.1405 10.004 30.8809 9.94405 30.5774 9.94405C30.2699 9.94405 29.9884 10.006 29.7328 10.1298C29.4772 10.2536 29.2635 10.4353 29.0918 10.6749C28.924 10.9145 28.8122 11.2061 28.7563 11.5495H25.5933C25.7371 10.6869 26.0546 9.94405 26.5458 9.32104C27.041 8.69803 27.668 8.21879 28.4268 7.88332C29.1896 7.54785 30.0463 7.38012 30.9968 7.38012C31.9792 7.38012 32.8059 7.53787 33.4768 7.85337C34.1478 8.16487 34.633 8.60418 34.9325 9.17128C35.236 9.73838 35.3219 10.4033 35.1901 11.1661C35.1102 11.6374 34.9325 12.1046 34.657 12.5679C34.3854 13.0312 33.9481 13.5463 33.345 14.1134C32.746 14.6766 31.9153 15.3475 30.853 16.1263L29.5471 17.0847L29.5351 17.1566H34.3275L33.8842 19.8164H24.4671Z" fill="#DE127A"/>
</svg>
