<svg width="83" height="47" viewBox="0 0 83 47" fill="none" xmlns="http://www.w3.org/2000/svg">
<path d="M82.7703 0L0 5.88195L10.3536 41.9939L59.4932 46.5766L82.7703 0Z" fill="white"/>
<path d="M29.4426 32.7464C27.6252 32.7464 26.1225 32.331 24.9347 31.5002C23.7469 30.6628 22.9258 29.462 22.4714 27.8977C22.017 26.3334 21.9781 24.4575 22.3546 22.2701C22.731 20.0762 23.4028 18.2133 24.37 16.6815C25.3436 15.1496 26.5509 13.9845 27.9919 13.1861C29.4394 12.3877 31.0653 11.9886 32.8698 11.9886C34.6743 11.9886 36.1672 12.3877 37.3485 13.1861C38.5299 13.9845 39.351 15.1496 39.8118 16.6815C40.2727 18.2068 40.3213 20.0697 39.9579 22.2701C39.5944 24.464 38.9258 26.3431 37.9522 27.9075C36.985 29.4718 35.7745 30.6693 34.3205 31.5002C32.873 32.331 31.2471 32.7464 29.4426 32.7464ZM30.1826 28.3456C31.1173 28.3456 31.9546 27.8588 32.6946 26.8851C33.441 25.905 33.9927 24.3667 34.3497 22.2701C34.5834 20.907 34.6386 19.7906 34.5152 18.9208C34.3919 18.0446 34.1258 17.3987 33.7169 16.9833C33.3079 16.5614 32.7919 16.3504 32.1688 16.3504C31.2341 16.3504 30.3838 16.8275 29.6179 17.7817C28.8584 18.7293 28.3067 20.2255 27.9627 22.2701C27.729 23.6721 27.6771 24.821 27.8069 25.7168C27.9367 26.6125 28.2093 27.2746 28.6248 27.703C29.0402 28.1314 29.5595 28.3456 30.1826 28.3456ZM47.7115 32.4738C46.1861 32.4738 44.875 32.2012 43.778 31.6559C42.681 31.1107 41.8729 30.361 41.3536 29.4068C40.8344 28.4527 40.6689 27.359 40.8571 26.1257H46.1147C46.0238 26.8072 46.1991 27.3557 46.6405 27.7711C47.0819 28.1801 47.6595 28.3845 48.3735 28.3845C48.9382 28.3845 49.451 28.2677 49.9119 28.034C50.3727 27.7939 50.7589 27.4596 51.0705 27.0312C51.3821 26.5963 51.5865 26.0868 51.6839 25.5026C51.7813 24.9184 51.7456 24.4121 51.5768 23.9837C51.408 23.5488 51.1322 23.2145 50.7492 22.9809C50.3662 22.7407 49.8989 22.6206 49.3472 22.6206C48.7695 22.6206 48.2178 22.7602 47.692 23.0393C47.1662 23.3119 46.7443 23.6916 46.4263 24.1784L41.8307 23.2438L44.4401 12.2612H57.8373L57.1362 16.5841H48.1788L47.0494 20.9849H47.1662C47.5817 20.3813 48.2048 19.8815 49.0356 19.4855C49.8729 19.0831 50.7946 18.8819 51.8007 18.8819C52.9886 18.8819 54.0011 19.1577 54.8385 19.7095C55.6758 20.2612 56.2827 21.0239 56.6592 21.9975C57.0356 22.9711 57.1168 24.0876 56.9026 25.3468C56.6884 26.7358 56.1626 27.9659 55.3253 29.0369C54.488 30.1079 53.417 30.9484 52.1123 31.5586C50.8076 32.1687 49.3407 32.4738 47.7115 32.4738Z" fill="#DE127A"/>
</svg>
