<svg width="83" height="47" viewBox="0 0 83 47" fill="none" xmlns="http://www.w3.org/2000/svg">
<path d="M82.7703 0L0 5.88195L10.3536 41.9939L59.4932 46.5766L82.7703 0Z" fill="white"/>
<path d="M29.4426 32.7464C27.6252 32.7464 26.1225 32.331 24.9347 31.5002C23.7469 30.6628 22.9258 29.462 22.4714 27.8977C22.017 26.3334 21.9781 24.4575 22.3546 22.2701C22.731 20.0762 23.4028 18.2133 24.37 16.6815C25.3436 15.1496 26.5509 13.9845 27.9919 13.1861C29.4394 12.3877 31.0653 11.9886 32.8698 11.9886C34.6743 11.9886 36.1672 12.3877 37.3485 13.1861C38.5299 13.9845 39.351 15.1496 39.8118 16.6815C40.2727 18.2068 40.3213 20.0697 39.9579 22.2701C39.5944 24.464 38.9258 26.3431 37.9522 27.9075C36.985 29.4718 35.7745 30.6693 34.3205 31.5002C32.873 32.331 31.2471 32.7464 29.4426 32.7464ZM30.1826 28.3456C31.1173 28.3456 31.9546 27.8588 32.6946 26.8851C33.441 25.905 33.9927 24.3667 34.3497 22.2701C34.5834 20.907 34.6386 19.7906 34.5152 18.9208C34.3919 18.0446 34.1258 17.3987 33.7169 16.9833C33.3079 16.5614 32.7919 16.3504 32.1688 16.3504C31.2341 16.3504 30.3838 16.8275 29.6179 17.7817C28.8584 18.7293 28.3067 20.2255 27.9627 22.2701C27.729 23.6721 27.6771 24.821 27.8069 25.7168C27.9367 26.6125 28.2093 27.2746 28.6248 27.703C29.0402 28.1314 29.5595 28.3456 30.1826 28.3456ZM40.1269 32.2012L50.5253 16.7009L50.5642 16.5841H41.3731L42.0741 12.2612H56.8734L56.1723 16.5841L45.6961 32.2012H40.1269Z" fill="#DE127A"/>
</svg>
