<svg width="83" height="47" viewBox="0 0 83 47" fill="none" xmlns="http://www.w3.org/2000/svg">
<path d="M82.7703 0L0 5.88195L10.3536 41.9939L59.4932 46.5766L82.7703 0Z" fill="white"/>
<path d="M29.4426 32.7464C27.6252 32.7464 26.1225 32.331 24.9347 31.5002C23.7469 30.6628 22.9258 29.462 22.4714 27.8977C22.017 26.3334 21.9781 24.4575 22.3546 22.2701C22.731 20.0762 23.4028 18.2133 24.37 16.6815C25.3436 15.1496 26.5509 13.9845 27.9919 13.1861C29.4394 12.3877 31.0653 11.9886 32.8698 11.9886C34.6743 11.9886 36.1672 12.3877 37.3485 13.1861C38.5299 13.9845 39.351 15.1496 39.8118 16.6815C40.2727 18.2068 40.3213 20.0697 39.9579 22.2701C39.5944 24.464 38.9258 26.3431 37.9522 27.9075C36.985 29.4718 35.7745 30.6693 34.3205 31.5002C32.873 32.331 31.2471 32.7464 29.4426 32.7464ZM30.1826 28.3456C31.1173 28.3456 31.9546 27.8588 32.6946 26.8851C33.441 25.905 33.9927 24.3667 34.3497 22.2701C34.5834 20.907 34.6386 19.7906 34.5152 18.9208C34.3919 18.0446 34.1258 17.3987 33.7169 16.9833C33.3079 16.5614 32.7919 16.3504 32.1688 16.3504C31.2341 16.3504 30.3838 16.8275 29.6179 17.7817C28.8584 18.7293 28.3067 20.2255 27.9627 22.2701C27.729 23.6721 27.6771 24.821 27.8069 25.7168C27.9367 26.6125 28.2093 27.2746 28.6248 27.703C29.0402 28.1314 29.5595 28.3456 30.1826 28.3456ZM48.2957 32.4738C47.1013 32.4738 46.0011 32.2823 44.995 31.8993C43.9889 31.5164 43.1419 30.916 42.4539 30.0981C41.7658 29.2738 41.2952 28.2093 41.0421 26.9046C40.7889 25.5999 40.8182 24.0291 41.1297 22.1922C41.3958 20.602 41.834 19.1805 42.4441 17.9277C43.0543 16.6685 43.804 15.5975 44.6932 14.7147C45.5825 13.8255 46.5853 13.1504 47.7017 12.6896C48.8182 12.2222 50.0157 11.9886 51.2944 11.9886C52.7744 11.9886 54.0368 12.2677 55.0819 12.8259C56.1334 13.3776 56.9253 14.1241 57.4575 15.0652C57.9898 15.9999 58.2202 17.0385 58.1488 18.1809H52.8912C52.8912 17.6032 52.6997 17.1942 52.3168 16.9541C51.9338 16.7074 51.4762 16.5841 50.9439 16.5841C49.7691 16.5841 48.8052 17.1034 48.0522 18.1419C47.2993 19.174 46.7703 20.4981 46.4652 22.1143L46.621 21.8417C46.978 21.2316 47.4389 20.7188 48.0036 20.3034C48.5748 19.888 49.2044 19.5732 49.8924 19.359C50.5869 19.1448 51.3009 19.0377 52.0344 19.0377C53.2742 19.0377 54.3159 19.3233 55.1598 19.8945C56.0036 20.4657 56.604 21.2478 56.961 22.2409C57.318 23.234 57.3894 24.3602 57.1752 25.6194C56.948 27.0085 56.4222 28.2158 55.5979 29.2413C54.7736 30.2669 53.7318 31.062 52.4725 31.6267C51.2133 32.1914 49.821 32.4738 48.2957 32.4738ZM48.4904 28.3845C49.0681 28.3845 49.6068 28.2515 50.1066 27.9853C50.6129 27.7127 51.0348 27.3427 51.3723 26.8754C51.7099 26.4016 51.9176 25.8661 51.9955 25.2689C52.0733 24.7626 52.0344 24.318 51.8786 23.935C51.7293 23.5456 51.4827 23.2438 51.1387 23.0296C50.7946 22.8089 50.3662 22.6985 49.8535 22.6985C49.4316 22.6985 49.0259 22.7764 48.6364 22.9322C48.247 23.088 47.8932 23.3054 47.5752 23.5845C47.2571 23.8636 46.991 24.1947 46.7768 24.5776C46.5626 24.9541 46.4198 25.3663 46.3484 25.8141C46.277 26.3399 46.3192 26.7943 46.475 27.1772C46.6307 27.5602 46.8806 27.8588 47.2247 28.073C47.5752 28.2807 47.9971 28.3845 48.4904 28.3845Z" fill="#DE127A"/>
</svg>
