<svg width="12" height="12" viewBox="0 0 12 12" fill="none" xmlns="http://www.w3.org/2000/svg">
<path d="M3.79825 3.32667L0.449516 3.81218L0.390205 3.82425C0.300418 3.84809 0.218567 3.89533 0.153008 3.96114C0.087449 4.02696 0.0405321 4.10899 0.0170483 4.19887C-0.00643551 4.28875 -0.0056448 4.38325 0.0193396 4.47273C0.044324 4.5622 0.092607 4.64344 0.159258 4.70815L2.58525 7.06958L2.01313 10.4052L2.00631 10.4629C2.00081 10.5558 2.02009 10.6484 2.06218 10.7314C2.10427 10.8144 2.16765 10.8847 2.24583 10.9351C2.32401 10.9855 2.41419 11.0142 2.50712 11.0183C2.60006 11.0224 2.69241 11.0017 2.77473 10.9584L5.76969 9.38377L8.75783 10.9584L8.81032 10.9826C8.89695 11.0167 8.99111 11.0271 9.08313 11.0129C9.17514 10.9986 9.2617 10.9601 9.33393 10.9013C9.40616 10.8426 9.46146 10.7656 9.49415 10.6785C9.52684 10.5913 9.53574 10.497 9.51995 10.4052L8.94731 7.06958L11.3744 4.70763L11.4153 4.66301C11.4738 4.59098 11.5121 4.50473 11.5264 4.41306C11.5407 4.32139 11.5305 4.22756 11.4967 4.14114C11.4629 4.05472 11.4069 3.9788 11.3342 3.9211C11.2615 3.86341 11.1749 3.82601 11.083 3.81271L7.73431 3.32667L6.23736 0.292867C6.19404 0.204967 6.12699 0.130949 6.04378 0.0791906C5.96057 0.027432 5.86453 0 5.76654 0C5.66855 0 5.57251 0.027432 5.48931 0.0791906C5.4061 0.130949 5.33904 0.204967 5.29573 0.292867L3.79825 3.32667Z" fill="#FFD409"/>
</svg>
