<svg width="204" height="47" viewBox="0 0 204 47" fill="none" xmlns="http://www.w3.org/2000/svg">
<path d="M203.645 1.05646e-05L0 5.19098L10.3676 41.303L180.337 46.5766L203.645 1.05646e-05Z" fill="white"/>
<path d="M24.1349 11.569H29.5483L27.8153 22.0064H27.9711L36.7922 11.569H41.3877L38.0774 31.509H32.664L34.397 21.0327H34.2802L25.3422 31.509H20.8246L24.1349 11.569ZM53.0553 16.554L52.3933 20.5654H46.6683L44.8379 31.509H39.6582L42.1507 16.554H53.0553ZM50.559 37.1172L54.0057 16.554H59.3412L58.9128 19.1634H59.0296C59.3023 18.6571 59.6593 18.193 60.1006 17.7711C60.5485 17.3427 61.0743 17.0019 61.6779 16.7488C62.2881 16.4891 62.9631 16.3593 63.7031 16.3593C64.6897 16.3593 65.5822 16.6222 66.3806 17.148C67.179 17.6737 67.7664 18.5013 68.1428 19.6307C68.5193 20.7601 68.5583 22.2271 68.2597 24.0315C67.9741 25.7581 67.4646 27.1893 66.7311 28.3253C66.0041 29.4612 65.1473 30.3082 64.1607 30.8664C63.1806 31.4247 62.1583 31.7038 61.0937 31.7038C60.3927 31.7038 59.7858 31.5902 59.2731 31.363C58.7603 31.1293 58.3481 30.8145 58.0365 30.4186C57.725 30.0161 57.5108 29.5618 57.3939 29.0555H57.2771L55.953 37.1172H50.559ZM58.0171 24.0315C57.9002 24.7585 57.8905 25.3881 57.9879 25.9204C58.0917 26.4461 58.2962 26.8551 58.6012 27.1472C58.9128 27.4328 59.3152 27.5756 59.8086 27.5756C60.3019 27.5756 60.7432 27.436 61.1327 27.1569C61.5221 26.8713 61.8532 26.4656 62.1258 25.9399C62.3984 25.4076 62.5996 24.7715 62.7295 24.0315C62.8463 23.2916 62.856 22.6587 62.7587 22.1329C62.6613 21.6007 62.4633 21.195 62.1647 20.9159C61.8662 20.6303 61.4702 20.4875 60.9769 20.4875C60.4836 20.4875 60.0325 20.6303 59.6236 20.9159C59.2211 21.195 58.8804 21.6007 58.6012 22.1329C58.3286 22.6587 58.1339 23.2916 58.0171 24.0315ZM75.3293 31.7817C73.7066 31.7817 72.3695 31.4604 71.318 30.8178C70.2729 30.1687 69.5395 29.2664 69.1176 28.1111C68.6956 26.9492 68.6113 25.6023 68.8644 24.0705C69.1176 22.5386 69.6466 21.195 70.4514 20.0396C71.2563 18.8778 72.2916 17.9755 73.5573 17.3329C74.823 16.6839 76.2705 16.3593 77.8997 16.3593C79.516 16.3593 80.8466 16.6839 81.8916 17.3329C82.9431 17.9755 83.6799 18.8778 84.1018 20.0396C84.5302 21.195 84.6178 22.5386 84.3646 24.0705C84.1115 25.6023 83.5792 26.9492 82.7679 28.1111C81.9565 29.2664 80.918 30.1687 79.6523 30.8178C78.393 31.4604 76.9521 31.7817 75.3293 31.7817ZM75.9914 27.8092C76.4587 27.8092 76.8839 27.6567 77.2669 27.3516C77.6563 27.0465 77.9873 26.6117 78.26 26.047C78.5391 25.4822 78.7435 24.8104 78.8734 24.0315C79.0032 23.2461 79.0226 22.5743 78.9318 22.0161C78.8409 21.4514 78.6527 21.0165 78.3671 20.7114C78.0815 20.4064 77.705 20.2538 77.2377 20.2538C76.7703 20.2538 76.3419 20.4064 75.9525 20.7114C75.563 21.0165 75.232 21.4514 74.9594 22.0161C74.6867 22.5743 74.4855 23.2461 74.3557 24.0315C74.2259 24.8104 74.2032 25.4822 74.2875 26.047C74.3784 26.6117 74.5667 27.0465 74.8523 27.3516C75.1443 27.6567 75.5241 27.8092 75.9914 27.8092ZM84.2416 31.509L86.7341 16.554H93.2769C95.2761 16.554 96.7949 16.8948 97.8335 17.5763C98.872 18.2579 99.2745 19.2802 99.0408 20.6433C98.924 21.3833 98.4956 22.0388 97.7556 22.61C97.0156 23.1812 96.016 23.5642 94.7568 23.7589C95.8797 23.8108 96.7625 24.0186 97.4051 24.382C98.0542 24.739 98.4988 25.1869 98.739 25.7257C98.9791 26.2579 99.0538 26.8096 98.9629 27.3808C98.8136 28.2896 98.4404 29.0522 97.8432 29.6689C97.2461 30.279 96.4412 30.7399 95.4286 31.0514C94.416 31.3565 93.2055 31.509 91.797 31.509H84.2416ZM89.8497 27.7313H92.4201C92.8615 27.7313 93.225 27.6275 93.5106 27.4198C93.7962 27.2121 93.9649 26.9265 94.0168 26.563C94.0882 26.1865 94.0136 25.8912 93.7929 25.677C93.5787 25.4628 93.2509 25.3557 92.8095 25.3557H90.2392L89.8497 27.7313ZM90.7065 22.6295H92.4201C92.6992 22.6295 92.9426 22.5873 93.1503 22.5029C93.3645 22.4121 93.5398 22.2855 93.6761 22.1232C93.8124 21.9609 93.9 21.7662 93.939 21.539C93.9909 21.195 93.8968 20.9289 93.6566 20.7407C93.4229 20.5459 93.0757 20.4486 92.6148 20.4486H91.057L90.7065 22.6295ZM106.39 31.7817C104.768 31.7817 103.431 31.4604 102.379 30.8178C101.334 30.1687 100.6 29.2664 100.179 28.1111C99.7567 26.9492 99.6723 25.6023 99.9254 24.0705C100.179 22.5386 100.708 21.195 101.512 20.0396C102.317 18.8778 103.353 17.9755 104.618 17.3329C105.884 16.6839 107.332 16.3593 108.961 16.3593C110.577 16.3593 111.908 16.6839 112.953 17.3329C114.004 17.9755 114.741 18.8778 115.163 20.0396C115.591 21.195 115.679 22.5386 115.426 24.0705C115.173 25.6023 114.64 26.9492 113.829 28.1111C113.018 29.2664 111.979 30.1687 110.713 30.8178C109.454 31.4604 108.013 31.7817 106.39 31.7817ZM107.052 27.8092C107.52 27.8092 107.945 27.6567 108.328 27.3516C108.717 27.0465 109.048 26.6117 109.321 26.047C109.6 25.4822 109.805 24.8104 109.934 24.0315C110.064 23.2461 110.084 22.5743 109.993 22.0161C109.902 21.4514 109.714 21.0165 109.428 20.7114C109.142 20.4064 108.766 20.2538 108.299 20.2538C107.831 20.2538 107.403 20.4064 107.013 20.7114C106.624 21.0165 106.293 21.4514 106.02 22.0161C105.748 22.5743 105.547 23.2461 105.417 24.0315C105.287 24.8104 105.264 25.4822 105.349 26.047C105.439 26.6117 105.628 27.0465 105.913 27.3516C106.205 27.6567 106.585 27.8092 107.052 27.8092ZM121.495 24.6547L127.025 16.554H132.088L129.596 31.509H124.533L125.896 23.3695L120.365 31.509H115.303L117.795 16.554H122.858L121.495 24.6547ZM127.726 11.1796H131.114C130.9 12.4453 130.251 13.4579 129.167 14.2173C128.083 14.9703 126.727 15.3467 125.097 15.3467C123.455 15.3467 122.215 14.9703 121.378 14.2173C120.541 13.4579 120.229 12.4453 120.443 11.1796H123.793C123.728 11.5885 123.815 11.965 124.056 12.309C124.302 12.6465 124.786 12.8153 125.506 12.8153C126.207 12.8153 126.733 12.6498 127.084 12.3187C127.434 11.9877 127.648 11.608 127.726 11.1796ZM157.125 11.569L153.814 31.509H148.479L151.088 15.853H144.351L141.741 31.509H136.406L139.716 11.569H157.125ZM168.469 31.509L163.698 23.4474H162.938L161.595 31.509H156.181L159.492 11.569H164.905L163.659 19.0855H164.36L171.331 11.569H178.147L168.975 21.1496L175.265 31.509H168.469Z" fill="#7D5C9C"/>
</svg>
